<?xml version="1.0" encoding="UTF-8"?>
<svg version="1.1" xmlns="http://www.w3.org/2000/svg" width="1024" height="1024">
<path d="M0 0 C337.92 0 675.84 0 1024 0 C1024 337.92 1024 675.84 1024 1024 C686.08 1024 348.16 1024 0 1024 C0 686.08 0 348.16 0 0 Z " fill="#FEFEFE" transform="translate(0,0)"/>
<path d="M0 0 C3.15003802 0.62982804 6.30397911 1.23044598 9.46142578 1.82177734 C53.37045613 10.24289145 114.16082562 24.16810177 141.40673828 62.57958984 C157.03938901 86.61819203 146.56804995 127.66405764 140.94726562 154.24316406 C140.77533691 155.04898926 140.6034082 155.85481445 140.42626953 156.68505859 C140.26078613 157.4973291 140.09530273 158.30959961 139.92480469 159.14648438 C128.56029682 214.38125516 101.9957795 265.26798454 66.42626953 308.68505859 C66.00297363 309.21131836 65.57967773 309.73757813 65.14355469 310.27978516 C58.38028946 318.66163143 50.95220424 326.3651325 43.36376953 333.99755859 C42.45393311 334.91666016 41.54409668 335.83576172 40.60668945 336.78271484 C34.51903249 342.84245933 28.14514972 348.3404498 21.42626953 353.68505859 C20.22964482 354.67409156 19.03524354 355.66582825 17.84423828 356.66162109 C10.42976898 362.7744341 2.73011252 368.38077277 -5.19873047 373.81005859 C-6.14723877 374.46184082 -7.09574707 375.11362305 -8.07299805 375.78515625 C-8.97300537 376.39407715 -9.8730127 377.00299805 -10.80029297 377.63037109 C-11.60031738 378.17193848 -12.4003418 378.71350586 -13.22460938 379.27148438 C-15.60870853 380.7061065 -17.96589022 381.72671056 -20.57373047 382.68505859 C-20.24888672 381.27933594 -20.24888672 381.27933594 -19.91748047 379.84521484 C-15.38316416 358.5667388 -17.30215156 337.01256132 -20.57373047 315.68505859 C-20.74533691 314.56196289 -20.91694336 313.43886719 -21.09375 312.28173828 C-27.16410638 273.6245805 -37.97493927 217.22932683 -71.15283203 191.45849609 C-86.16726381 180.55138175 -101.56732175 176.80278178 -119.96826172 179.11083984 C-130.55401631 181.42071668 -139.60340651 186.72763672 -147.69873047 193.81005859 C-159.11339673 203.72994713 -170.74072661 205.71207172 -185.57373047 204.68505859 C-197.26863736 202.5062095 -205.87317363 196.4320655 -215.26123047 189.49755859 C-219.54422777 186.35507615 -223.65383441 183.69377355 -228.57373047 181.68505859 C-229.23759766 181.38728516 -229.90146484 181.08951172 -230.58544922 180.78271484 C-244.64935039 175.4565952 -261.08956001 178.08295359 -274.42138672 183.93505859 C-299.73216404 196.4658513 -311.74445098 225.52255536 -320.57373047 250.68505859 C-320.84958984 251.46864746 -321.12544922 252.25223633 -321.40966797 253.05957031 C-329.78926573 277.24943638 -334.06068456 302.4054979 -337.57373047 327.68505859 C-337.68861816 328.47477051 -337.80350586 329.26448242 -337.921875 330.078125 C-338.78211247 336.65686411 -338.79487213 343.2677668 -338.81396484 349.89453125 C-338.82364681 351.91757731 -338.85475473 353.93959418 -338.88623047 355.96240234 C-338.92433845 365.6894647 -337.650978 374.45331601 -334.57373047 383.68505859 C-339.52567709 382.06020111 -343.38813351 379.19630307 -347.57373047 376.18505859 C-348.32412598 375.64969482 -349.07452148 375.11433105 -349.84765625 374.56274414 C-356.54674244 369.75743535 -363.10955311 364.80217934 -369.57373047 359.68505859 C-370.50572266 358.94771484 -371.43771484 358.21037109 -372.39794922 357.45068359 C-378.41580842 352.60892526 -384.13121186 347.50268132 -389.78857422 342.25146484 C-392.10020063 340.12139675 -394.43986027 338.04554102 -396.82373047 335.99755859 C-403.63992985 330.0704287 -409.71707864 323.54704387 -415.57373047 316.68505859 C-416.37423828 315.77369141 -417.17474609 314.86232422 -417.99951172 313.92333984 C-430.52612738 299.55171878 -441.29937655 283.71988332 -451.57373047 267.68505859 C-452.20093994 266.70762695 -452.20093994 266.70762695 -452.84082031 265.71044922 C-466.44617725 244.22657774 -476.62987885 220.77505341 -484.57373047 196.68505859 C-485.12933635 195.05211549 -485.68530368 193.4192953 -486.24169922 191.78662109 C-496.47758348 161.18206818 -502.12918746 128.88831411 -503.57373047 96.68505859 C-503.61900879 95.72760742 -503.66428711 94.77015625 -503.7109375 93.78369141 C-504.36964832 77.92502168 -502.06339958 68.11861743 -491.57373047 55.68505859 C-452.78724812 13.88184984 -381.71036992 3.91527435 -328.57373047 -5.31494141 C-327.34025879 -5.52924805 -326.10678711 -5.74355469 -324.8359375 -5.96435547 C-308.53387192 -8.74528223 -292.18051446 -10.48336502 -275.71557617 -11.9375 C-272.69381701 -12.20784098 -269.67507134 -12.50187992 -266.65649414 -12.80566406 C-254.6168159 -14.01022374 -242.59890905 -14.89958871 -230.51123047 -15.43994141 C-229.12851456 -15.50248108 -229.12851456 -15.50248108 -227.71786499 -15.56628418 C-151.44618965 -18.91448569 -74.92048208 -15.08459337 0 0 Z " fill="#000000" transform="translate(694.57373046875,300.31494140625)"/>
<path d="M0 0 C0.66405476 -0.00073643 1.32810951 -0.00147285 2.01228714 -0.0022316 C27.49678716 -0.02507747 52.79484468 1.04938157 78.1875 3.25 C79.6598123 3.37424206 81.13214231 3.49827436 82.60449219 3.62207031 C91.47935324 4.37691343 100.33349828 5.28312273 109.1875 6.25 C110.4348291 6.37955078 111.6821582 6.50910156 112.96728516 6.64257812 C130.55402299 8.4823531 147.95639486 11.08315267 165.375 14.125 C166.30169495 14.28390717 167.22838989 14.44281433 168.1831665 14.60653687 C186.78497335 17.81815595 204.91673962 22.55504951 222.8125 28.5625 C224.50379028 29.12988892 224.50379028 29.12988892 226.22924805 29.70874023 C236.53315705 33.24215551 246.44621599 37.38047027 256.1875 42.25 C256.85056152 42.57822754 257.51362305 42.90645508 258.19677734 43.24462891 C268.14145297 48.25894348 280.37634871 55.72666908 285.1875 66.25 C284.87392029 71.74809751 279.96773262 75.72362242 276.1875 79.25 C254.56504071 96.58958782 226.50572052 104.36897165 200.1875 111.25 C198.38104004 111.72409302 198.38104004 111.72409302 196.53808594 112.20776367 C186.03842208 114.92180967 175.46215416 117.14768744 164.8125 119.1875 C163.91409393 119.35986176 163.01568787 119.53222351 162.09005737 119.70980835 C135.43052577 124.7745323 108.51570925 127.62289667 81.5 130 C80.18523682 130.11577393 78.87047363 130.23154785 77.51586914 130.35083008 C73.40812741 130.6887519 69.30053196 130.98572234 65.1875 131.25 C64.45001526 131.2983902 63.71253052 131.3467804 62.95269775 131.39663696 C43.30420345 132.61874431 23.60028726 132.4373754 3.92285156 132.43530273 C-0.04594518 132.43522186 -4.01462554 132.44211664 -7.98339844 132.45581055 C-33.00281947 132.54069404 -57.8570288 132.10399164 -82.8125 130.25 C-83.84989319 130.17429779 -84.88728638 130.09859558 -85.95611572 130.02059937 C-91.81143721 129.58387856 -97.6564824 129.07249669 -103.5 128.5 C-104.35384277 128.41763092 -105.20768555 128.33526184 -106.08740234 128.25039673 C-146.17536025 124.33958844 -186.14762403 117.68580194 -224.8125 106.25 C-225.64620117 106.00427246 -226.47990234 105.75854492 -227.33886719 105.50537109 C-249.20397357 98.93863783 -271.44649842 89.55053757 -287.8125 73.25 C-288.39257812 72.72535156 -288.97265625 72.20070313 -289.5703125 71.66015625 C-290.8125 70.25 -290.8125 70.25 -290.9375 67.5625 C-289.30779878 62.76393528 -286.35233347 59.79698464 -282.8125 56.25 C-282.30847656 55.734375 -281.80445313 55.21875 -281.28515625 54.6875 C-254.34793542 29.46384283 -207.44144258 20.68201748 -172.8125 14.25 C-171.5426123 14.01039551 -170.27272461 13.77079102 -168.96435547 13.52392578 C-138.87181963 7.88110987 -108.71861612 4.67451518 -78.1875 2.5625 C-77.3128006 2.50156158 -76.4381012 2.44062317 -75.53689575 2.37783813 C-50.37877976 0.65295604 -25.21407891 0.01516962 0 0 Z " fill="#FEFEFE" transform="translate(519.8125,324.75)"/>
<path d="M0 0 C0.74997253 -0.01328842 1.49994507 -0.02657684 2.27264404 -0.04026794 C4.75511208 -0.07899708 7.23699415 -0.09456452 9.71972656 -0.10668945 C11.44745008 -0.12140978 13.17517224 -0.13628935 14.90289307 -0.15132141 C18.52774797 -0.17832777 22.15239754 -0.19186406 25.77734375 -0.19824219 C30.41285683 -0.20909748 35.04618533 -0.27074972 39.68105698 -0.34495831 C43.25172166 -0.39344048 46.82186423 -0.4057727 50.3928299 -0.40830421 C52.10088018 -0.4155193 53.80892933 -0.43593361 55.51665497 -0.47000694 C68.85873426 -0.71581011 68.85873426 -0.71581011 73.16864014 2.1958313 C74.95493716 4.20713975 76.28557256 6.13460554 77.61035156 8.4675293 C78.42417774 9.54617616 79.25151412 10.61482056 80.09472656 11.6706543 C80.84238281 12.67612305 81.59003906 13.6815918 82.36035156 14.7175293 C87.3849683 21.35737506 92.87231748 27.44132216 98.61035156 33.4675293 C99.34898437 34.27061523 100.08761719 35.07370117 100.84863281 35.90112305 C111.11130533 46.72664781 122.96995342 53.02187612 136.61035156 58.4675293 C132.77652045 61.95378781 128.19027964 63.20592274 123.36035156 64.7800293 C122.44012207 65.08199219 121.51989258 65.38395508 120.57177734 65.69506836 C103.58856068 71.14407623 86.3123821 75.25984321 68.61035156 77.4675293 C67.82225098 77.57049316 67.03415039 77.67345703 66.22216797 77.77954102 C40.310215 81.06722717 14.45032541 79.77718069 -11.38964844 76.4675293 C-12.22882813 76.36069824 -13.06800781 76.25386719 -13.93261719 76.14379883 C-33.98816812 73.44162393 -53.80726367 67.36624324 -72.38964844 59.4675293 C-70.87354838 56.43532917 -68.60016527 56.31951885 -65.45214844 55.2175293 C-41.25043403 46.08927397 -25.69026158 25.92629377 -11.64135742 5.14648438 C-11.02176147 4.31540161 -11.02176147 4.31540161 -10.38964844 3.4675293 C-9.83704094 2.68755081 -9.83704094 2.68755081 -9.27326965 1.89181519 C-6.41332977 -0.27070665 -3.44855535 0.00868765 0 0 Z " fill="#010101" transform="translate(484.3896484375,650.532470703125)"/>
<path d="M0 0 C0.75925781 -0.01160156 1.51851563 -0.02320313 2.30078125 -0.03515625 C5.38472313 -0.0189534 7.93224581 0.09505006 10.72363281 1.47143555 C13.35696124 4.29332419 12.95479619 6.42832591 12.890625 10.23046875 C12.88496521 10.89210526 12.87930542 11.55374176 12.87347412 12.23542786 C12.85111247 14.34519332 12.80092371 16.45324952 12.75 18.5625 C12.7299344 19.99411606 12.71168372 21.4257588 12.6953125 22.85742188 C12.65125069 26.36383515 12.58222777 29.86925072 12.5 33.375 C13.36278564 33.35928955 14.22557129 33.3435791 15.11450195 33.32739258 C18.31809267 33.27624045 21.52147515 33.2386384 24.7253418 33.21020508 C26.11147919 33.19512603 27.49756894 33.1746595 28.88354492 33.14868164 C30.87658146 33.11226284 32.86996723 33.09686982 34.86328125 33.08203125 C36.06251221 33.0663208 37.26174316 33.05061035 38.49731445 33.03442383 C41.5 33.375 41.5 33.375 43.38769531 34.62182617 C45.55090905 38.03140428 44.96952981 41.95571589 44.9375 45.875 C44.95748047 46.74253906 44.97746094 47.61007812 44.99804688 48.50390625 C44.99708008 49.75494141 44.99708008 49.75494141 44.99609375 51.03125 C44.99794678 51.79244141 44.9997998 52.55363281 45.00170898 53.33789062 C44.5 55.375 44.5 55.375 42.8762207 57.12817383 C39.7571752 58.76476742 37.49909864 58.7158968 33.984375 58.66796875 C32.73398437 58.65830078 31.48359375 58.64863281 30.1953125 58.63867188 C28.89335937 58.61353516 27.59140625 58.58839844 26.25 58.5625 C24.93257813 58.54896484 23.61515625 58.53542969 22.2578125 58.52148438 C19.00479679 58.48612551 15.752604 58.43677033 12.5 58.375 C12.51571045 59.20749268 12.5314209 60.03998535 12.54760742 60.89770508 C12.59876642 63.98947856 12.6363648 67.08103618 12.66479492 70.1730957 C12.68728333 72.16827701 12.72540198 74.16326213 12.76367188 76.15820312 C12.77333984 77.41181641 12.78300781 78.66542969 12.79296875 79.95703125 C12.8086792 81.11436768 12.82438965 82.2717041 12.84057617 83.46411133 C12.5 86.375 12.5 86.375 11.28271484 88.2512207 C8.96248152 89.71383834 7.41924032 89.7625643 4.68359375 89.7734375 C3.75482422 89.77730469 2.82605469 89.78117188 1.86914062 89.78515625 C0.41797852 89.76775391 0.41797852 89.76775391 -1.0625 89.75 C-2.51946289 89.76740234 -2.51946289 89.76740234 -4.00585938 89.78515625 C-4.93333984 89.78128906 -5.86082031 89.77742187 -6.81640625 89.7734375 C-8.09173218 89.76836182 -8.09173218 89.76836182 -9.39282227 89.76318359 C-10.43587524 89.57103271 -10.43587524 89.57103271 -11.5 89.375 C-13.89112209 85.78831687 -13.73381027 84.21103431 -13.6953125 79.95703125 C-13.68886719 78.70341797 -13.68242187 77.44980469 -13.67578125 76.15820312 C-13.65902344 74.84787109 -13.64226562 73.53753906 -13.625 72.1875 C-13.61496639 70.85222013 -13.6058412 69.51693311 -13.59765625 68.18164062 C-13.57405292 64.91257985 -13.54112594 61.64387972 -13.5 58.375 C-14.32725586 58.39071045 -15.15451172 58.4064209 -16.00683594 58.42260742 C-19.75448777 58.48496304 -23.50203045 58.52399346 -27.25 58.5625 C-28.55195313 58.58763672 -29.85390625 58.61277344 -31.1953125 58.63867188 C-32.44570313 58.64833984 -33.69609375 58.65800781 -34.984375 58.66796875 C-36.13647461 58.6836792 -37.28857422 58.69938965 -38.47558594 58.71557617 C-41.83088583 58.33773929 -43.21400387 57.84316091 -45.5 55.375 C-46.00170898 53.33789062 -46.00170898 53.33789062 -45.99609375 51.03125 C-45.99673828 50.19722656 -45.99738281 49.36320313 -45.99804688 48.50390625 C-45.97806641 47.63636719 -45.95808594 46.76882813 -45.9375 45.875 C-45.94458984 45.00746094 -45.95167969 44.13992188 -45.95898438 43.24609375 C-45.89630836 37.00742008 -45.89630836 37.00742008 -44.40136719 34.62182617 C-41.50943211 32.72543269 -39.07002045 33.03867063 -35.64453125 33.08203125 C-34.98289474 33.08627609 -34.32125824 33.09052094 -33.63957214 33.09489441 C-31.5301309 33.11166307 -29.42165154 33.14930901 -27.3125 33.1875 C-25.88087319 33.20254932 -24.44923138 33.2162373 -23.01757812 33.22851562 C-19.51140712 33.2615597 -16.00579746 33.31332833 -12.5 33.375 C-12.52094727 32.48192139 -12.54189453 31.58884277 -12.56347656 30.66870117 C-12.63167346 27.35316657 -12.68180815 24.03837761 -12.71972656 20.72241211 C-12.73983525 19.28772214 -12.76712673 17.85311407 -12.80175781 16.41870117 C-12.8503146 14.35575161 -12.87297406 12.29388569 -12.890625 10.23046875 C-12.91157227 8.98934326 -12.93251953 7.74821777 -12.95410156 6.46948242 C-12.5 3.375 -12.5 3.375 -10.72363281 1.47143555 C-7.25815733 -0.23733151 -3.77642384 -0.05770427 0 0 Z " fill="#020202" transform="translate(447.5,527.625)"/>
<path d="M0 0 C4.99543387 2.80935014 7.57024072 5.82583266 9.72265625 11.1171875 C10.68109572 16.70257613 9.52039865 21.17450926 6.72265625 26.1171875 C3.39212631 29.63881342 0.16075144 31.88371214 -4.765625 32.35546875 C-9.2481396 32.47326651 -12.50974989 32.45834033 -16.65234375 30.6171875 C-21.18318089 26.30210451 -24.5027121 22.04459656 -24.90234375 15.6171875 C-24.53495641 9.86807207 -21.97925796 5.55165335 -17.73828125 1.73046875 C-12.40360181 -1.87233609 -5.96682623 -2.3130407 0 0 Z " fill="#030303" transform="translate(570.27734375,575.8828125)"/>
<path d="M0 0 C7.27118347 6.56179972 7.27118347 6.56179972 7.765625 11.23046875 C7.88753951 17.13316305 7.41925381 22.29963942 3.1328125 26.8203125 C-1.73506819 31.05851708 -5.70976473 31.66622545 -11.93359375 31.59375 C-16.88796555 31.0372527 -19.57675306 28.28956409 -22.75 24.6875 C-26.23784408 19.77868241 -26.00701606 15.20292327 -25.4375 9.3125 C-24.15284712 5.07159773 -21.84421662 2.63621322 -18.375 -0.125 C-12.483109 -3.05824746 -5.81231655 -2.85331903 0 0 Z " fill="#020202" transform="translate(609.4375,535.6875)"/>
</svg>
