<?xml version="1.0" encoding="UTF-8"?>
<svg version="1.1" xmlns="http://www.w3.org/2000/svg" width="1024" height="1024">
<path d="M0 0 C337.92 0 675.84 0 1024 0 C1024 337.92 1024 675.84 1024 1024 C686.08 1024 348.16 1024 0 1024 C0 686.08 0 348.16 0 0 Z " fill="#FEFEFE" transform="translate(0,0)"/>
<path d="M0 0 C0.72703125 -0.02449219 1.4540625 -0.04898438 2.203125 -0.07421875 C16.49497803 -0.14814213 29.84159154 7.47003789 42.5 13.3125 C44.3831496 14.17444818 46.2666994 15.03552255 48.15063477 15.89575195 C51.89096297 17.60408102 55.62981585 19.31557465 59.36767578 21.02929688 C66.03854839 24.08345724 72.73607713 27.07605877 79.4375 30.0625 C89.98511195 34.77566307 100.4973085 39.56280454 111 44.375 C124.4877896 50.55456206 138.00670599 56.65882793 151.55181885 62.71195984 C156.78723228 65.05303513 162.01718045 67.40616575 167.24609375 69.76171875 C168.09247406 70.14299423 168.93885437 70.52426971 169.81088257 70.917099 C171.54340441 71.69761315 173.27591778 72.47814614 175.00842285 73.25869751 C187.13830122 78.72336758 199.27280004 84.17569856 211.4375 89.5625 C235.45107996 100.20920293 259.30852664 111.19136638 283.1328125 122.25390625 C294.11383026 127.35137688 305.11016221 132.41354749 316.125 137.4375 C328.57572665 143.11732385 341.01271162 148.8261398 353.4375 154.5625 C354.26554138 154.94477753 355.09358276 155.32705505 355.94671631 155.72091675 C366.22155046 160.46548215 376.48878361 165.2260531 386.75 170 C396.43544634 174.50555575 406.14112274 178.9650409 415.85809326 183.40209961 C418.10447 184.42812301 420.35039382 185.4551315 422.59619141 186.48242188 C428.83825804 189.33693989 435.08092891 192.18963546 441.33755493 195.01213074 C444.26909219 196.33615609 447.19654518 197.66917384 450.125 199 C451.15447754 199.46027588 452.18395508 199.92055176 453.24462891 200.39477539 C459.41302648 203.20867477 464.99619481 206.41490175 470.5 210.375 C471.07355225 210.78242432 471.64710449 211.18984863 472.23803711 211.60961914 C477.14698587 215.36002859 480.4084802 220.24065057 481.5 226.375 C481.60202131 228.97666347 481.65214145 231.5519386 481.65390015 234.15371704 C481.66047353 235.33657384 481.66047353 235.33657384 481.6671797 236.54332674 C481.68054558 239.18855491 481.68674161 241.83374977 481.69287109 244.47900391 C481.70077385 246.374676 481.70904291 248.2703466 481.71765137 250.16601562 C481.74385301 256.39451667 481.7591779 262.62302438 481.7734375 268.8515625 C481.77879808 270.99718607 481.78417559 273.14280959 481.78956985 275.28843307 C481.8111965 284.21520976 481.8299323 293.14198465 481.84119225 302.0687809 C481.85742571 314.85366815 481.89059154 327.63825123 481.94759309 340.42302382 C481.98632241 349.41681693 482.00582854 358.41052879 482.01111281 367.40440309 C482.01476234 372.77372421 482.02674151 378.14272075 482.05921555 383.51195145 C482.08934836 388.56652298 482.09558931 393.62057442 482.08383179 398.67521667 C482.08361149 400.52548031 482.09188047 402.37576844 482.10948563 404.22594833 C482.27065403 422.14601382 482.27065403 422.14601382 476.5 430.375 C475.92378906 431.21933594 475.34757813 432.06367187 474.75390625 432.93359375 C469.74571299 438.49696779 464.14622199 442.95294761 458.22265625 447.48046875 C454.47351424 450.36087117 450.88393128 453.40348 447.3125 456.5 C442.36531546 460.78314667 437.35766955 464.97222282 432.27734375 469.09765625 C429.15603633 471.65704054 426.0754997 474.26093791 423 476.875 C418.14688738 480.99911345 413.24186871 485.05165671 408.30078125 489.0703125 C405.23224006 491.59533245 402.20966846 494.16992333 399.1875 496.75 C394.13970677 501.0526428 388.97349946 505.17435176 383.73779297 509.24511719 C379.12166388 512.84926355 374.63727159 516.5884444 370.18359375 520.390625 C366.82170883 523.26052676 363.42954786 526.08570059 360 528.875 C355.3946675 532.62352646 350.85795556 536.44584246 346.33374023 540.29125977 C342.94045891 543.1704532 339.51732214 546.00704237 336.0625 548.8125 C331.81607618 552.26774151 327.64703706 555.80197834 323.5 559.375 C318.48680512 563.69428956 313.4146268 567.92597119 308.27734375 572.09765625 C305.15603733 574.65703972 302.07546576 577.26089916 299 579.875 C295.05349519 583.22947127 291.08357928 586.54721829 287.0625 589.8125 C282.19870975 593.77008188 277.44118769 597.84042446 272.69165039 601.93334961 C268.3019965 605.70834391 263.83885229 609.38228461 259.34375 613.03125 C256.02313406 615.76802138 252.75956291 618.56606385 249.5 621.375 C244.48408311 625.69672863 239.40824701 629.92979196 234.26953125 634.10546875 C228.95558334 638.46005794 223.73473234 642.92578435 218.5 647.375 C212.39111965 652.56719022 206.28489359 657.75623581 200.0625 662.8125 C195.19870975 666.77008188 190.44118769 670.84042446 185.69165039 674.93334961 C181.3019965 678.70834391 176.83885229 682.38228461 172.34375 686.03125 C169.02313514 688.76802049 165.75953218 691.5660295 162.5 694.375 C157.51059233 698.67472713 152.45778844 702.87985409 147.34375 707.03125 C144.02313406 709.76802138 140.75956291 712.56606385 137.5 715.375 C132.48269871 719.69792144 127.4050605 723.93170521 122.265625 728.109375 C116.95227996 732.46211529 111.72743309 736.91975082 106.5 741.375 C105.90719238 741.87999023 105.31438477 742.38498047 104.70361328 742.90527344 C102.88446757 744.45619616 101.0670703 746.00914653 99.25 747.5625 C98.36550171 748.31611816 98.36550171 748.31611816 97.46313477 749.08496094 C94.10387802 751.95825182 90.8494854 754.91246731 87.625 757.9375 C80.21805062 764.42701303 73.47870731 764.7255257 63.890625 764.87109375 C52.2604625 764.0396886 41.94170799 757.71539978 31.9375 752.25 C30.50567021 751.47718274 29.0732913 750.70538205 27.64038086 749.93457031 C24.83715102 748.42558481 22.03618658 746.91254204 19.23730469 745.39550781 C14.69726714 742.93718795 10.13504165 740.52225485 5.5625 738.125 C4.84505615 737.74778809 4.1276123 737.37057617 3.38842773 736.98193359 C-4.14280401 733.02676066 -11.6945357 729.11084734 -19.24389648 725.19042969 C-26.26099943 721.54481914 -33.26419059 717.87399977 -40.2578125 714.18359375 C-47.90396126 710.15316618 -55.5757077 706.17231827 -63.24658203 702.18920898 C-69.46631074 698.95781734 -75.67675317 695.70988736 -81.875 692.4375 C-92.90368117 686.61753673 -103.98267527 680.89472535 -115.05566406 675.15966797 C-120.5390354 672.31848251 -126.02002224 669.47272444 -131.5 666.625 C-132.42828613 666.14313232 -133.35657227 665.66126465 -134.31298828 665.16479492 C-138.81227903 662.82608562 -143.30683892 660.47889092 -147.79101562 658.11132812 C-159.15121185 652.1139327 -170.55940092 646.2173965 -182 640.375 C-194.19911254 634.14525173 -206.35611477 627.84392539 -218.46826172 621.44665527 C-222.88746309 619.11571506 -227.31884373 616.80810418 -231.75 614.5 C-233.70313006 613.48178054 -235.65625491 612.46355108 -237.609375 611.4453125 C-238.58326172 610.93774414 -239.55714844 610.43017578 -240.56054688 609.90722656 C-245.37444746 607.39792091 -250.18715713 604.88633354 -255 602.375 C-255.95132813 601.87871094 -256.90265625 601.38242187 -257.8828125 600.87109375 C-262.62555672 598.39689792 -267.36789629 595.92193275 -272.109375 593.4453125 C-273.98955595 592.46348923 -275.86976448 591.48171876 -277.75 590.5 C-278.69496338 590.00653076 -279.63992676 589.51306152 -280.61352539 589.00463867 C-285.6786611 586.36164464 -290.74818617 583.72747917 -295.82421875 581.10546875 C-308.63757266 574.48469428 -321.40522659 567.78926936 -334.12637329 560.99331665 C-341.84253053 556.87256707 -349.57987424 552.80168544 -357.375 548.83203125 C-358.1098764 548.45705002 -358.84475281 548.08206879 -359.60189819 547.69572449 C-363.11732662 545.90288368 -366.63629917 544.11779881 -370.16259766 542.34643555 C-399.49232053 527.50565525 -399.49232053 527.50565525 -405.58777809 512.73995495 C-406.70676028 508.61231385 -406.78381955 504.89579262 -406.76742554 500.64118958 C-406.77195665 499.7740276 -406.77648776 498.90686562 -406.78115618 498.01342601 C-406.79379391 495.11412077 -406.7921802 492.21500353 -406.79052734 489.31567383 C-406.79651307 487.23413858 -406.80331872 485.15260555 -406.81088257 483.07107544 C-406.82854743 477.42003405 -406.83323822 471.76905324 -406.83451414 466.11798692 C-406.83593627 462.58508249 -406.8402071 459.05219344 -406.84550858 455.51929283 C-406.864012 443.18724974 -406.87217898 430.85524987 -406.87060547 418.52319336 C-406.8694047 407.03976778 -406.89049374 395.55653035 -406.9220928 384.07315236 C-406.94827543 374.20541623 -406.95897189 364.33774147 -406.95769465 354.46997088 C-406.95718551 348.58037019 -406.9628421 342.69093663 -406.98405075 336.80137062 C-407.0034659 331.25845289 -407.003535 325.71586114 -406.98901749 320.17293167 C-406.98693222 318.14410741 -406.99161335 316.11526257 -407.0037384 314.08647346 C-407.13630969 290.35807542 -407.13630969 290.35807542 -399.375 281.5 C-393.07891426 275.77416971 -385.89526165 271.03338113 -378.95849609 266.12792969 C-374.93580528 263.25971519 -370.96945531 260.31621552 -367 257.375 C-360.12368411 252.29198686 -353.20965646 247.26496288 -346.26953125 242.26953125 C-340.81916038 238.34107895 -335.40332922 234.36785479 -330 230.375 C-321.62062325 224.18474505 -313.18892429 218.07025542 -304.73388672 211.98388672 C-300.98640216 209.28487872 -297.24344155 206.57961116 -293.5 203.875 C-292.00002146 202.79163696 -290.50002146 201.70830362 -289 200.625 C-288.2575 200.08875 -287.515 199.5525 -286.75 199 C-236.5 162.70833333 -186.25 126.41666667 -136 90.125 C-135.25790283 89.5889917 -134.51580566 89.0529834 -133.7512207 88.50073242 C-132.2473404 87.41469632 -130.74327058 86.32892261 -129.23901367 85.2434082 C-125.54680276 82.57851876 -121.85772222 79.90953343 -118.17578125 77.23046875 C-108.87824522 70.47470516 -99.4862353 63.86925606 -90.03955078 57.32373047 C-81.84119891 51.63426852 -73.73830767 45.82275797 -65.66943359 39.95166016 C-61.95274044 37.25051179 -58.22578478 34.56358619 -54.5 31.875 C-53.00515256 30.79565016 -51.51036088 29.71622309 -50.015625 28.63671875 C-49.27376953 28.10095215 -48.53191406 27.56518555 -47.76757812 27.01318359 C-44.69223393 24.79143946 -41.61801725 22.56813717 -38.54370117 20.3449707 C-36.29205539 18.71789 -34.03876556 17.09310961 -31.78515625 15.46875 C-28.99453558 13.45703877 -26.21128848 11.43576468 -23.43359375 9.40625 C-22.18496711 8.49990179 -20.93627309 7.59364641 -19.6875 6.6875 C-19.13094727 6.27733643 -18.57439453 5.86717285 -18.00097656 5.44458008 C-11.99553627 1.10536235 -7.35713217 0.01251213 0 0 Z " fill="#010101" transform="translate(474.5,120.625)"/>
<path d="M0 0 C1.55971114 0.70770208 3.11038794 1.43557319 4.65258789 2.18066406 C5.49743744 2.56985016 6.34228699 2.95903625 7.21273804 3.36001587 C9.94191843 4.62163964 12.65818791 5.90879266 15.37524414 7.19628906 C17.27233753 8.07802836 19.17037721 8.95773442 21.06933594 9.83544922 C24.82492277 11.57289559 28.57663972 13.31827309 32.32543945 15.0703125 C38.76343031 18.07205507 45.248807 20.95956446 51.75024414 23.82128906 C53.86118292 24.75559384 55.97186234 25.69048486 58.08227539 26.62597656 C59.11433105 27.08327148 60.14638672 27.54056641 61.2097168 28.01171875 C67.12603162 30.64099314 73.03145126 33.29460162 78.93774414 35.94628906 C88.22003897 40.11343811 97.51129943 44.25956358 106.81274414 48.38378906 C117.20308476 52.99221073 127.56717173 57.65653597 137.92175293 62.34454346 C146.78444534 66.35663818 155.66432761 70.32636724 164.56274414 74.25878906 C179.20618047 80.74023832 193.74226516 87.45225673 208.2858429 94.15385437 C216.85056241 98.09941532 225.42402054 102.02580615 234.00024414 105.94628906 C235.11190948 106.45450699 235.11190948 106.45450699 236.24603271 106.97299194 C245.09283983 111.01638011 253.94710784 115.04190204 262.82250977 119.0222168 C282.3395952 127.78004012 301.79162347 136.68450234 321.25024414 145.57128906 C321.98824249 145.90825806 322.72624084 146.24522705 323.48660278 146.59240723 C331.89390899 150.43265813 340.28596274 154.30219919 348.65625 158.22265625 C362.50281255 164.70450816 376.46635313 170.89301961 390.46401978 177.04058838 C407.58815816 184.5666558 424.55475485 192.39502049 441.43774414 200.44628906 C431.58005578 210.38258243 420.54368636 218.73226437 409.32202148 227.04248047 C406.60841622 229.06414803 403.92836987 231.12793064 401.25024414 233.19628906 C384.18246203 246.36105548 366.96797356 259.30441121 349.55493164 272.00878906 C340.85270745 278.37105093 332.30152089 284.85989969 323.92211914 291.64160156 C318.51042972 296.01720172 312.967651 300.22195972 307.43774414 304.44628906 C297.85453016 311.79545444 288.31440705 319.19875795 278.78588867 326.61865234 C276.45076431 328.43615504 274.11439704 330.25204694 271.77758789 332.06738281 C260.0897363 341.14775395 248.41722016 350.24338051 236.87524414 359.50878906 C231.1717828 364.08505224 225.41528834 368.58383295 219.60571289 373.02441406 C216.97114564 375.03850987 214.3441901 377.06198705 211.72021484 379.08984375 C206.38596077 383.20831574 201.01812135 387.27989561 195.62524414 391.32128906 C194.95460938 391.8238623 194.28397461 392.32643555 193.59301758 392.84423828 C190.19679695 395.38694571 186.79638896 397.92386297 183.39086914 400.45410156 C176.20407178 405.80361347 169.1198813 411.24848964 162.15014648 416.87817383 C157.49444616 420.62937633 152.76403202 424.27116874 148.00024414 427.88378906 C141.59457434 432.74454487 135.32882143 437.75060866 129.11035156 442.84790039 C124.31122228 446.76958361 119.40800254 450.52040091 114.42602539 454.20800781 C111.07656143 456.71682199 107.78462618 459.29076111 104.50024414 461.88378906 C99.45350385 465.86703736 94.39361852 469.83075991 89.27758789 473.72485352 C86.46172806 475.87074181 83.68430263 478.0501809 80.94555664 480.29394531 C80.36878174 480.75857178 79.79200684 481.22319824 79.19775391 481.7019043 C77.59437078 482.9953569 76.00201793 484.3024484 74.41040039 485.61035156 C70.93051801 487.75955619 69.45751976 487.77886154 65.43774414 487.44628906 C62.71557617 486.47167969 62.71557617 486.47167969 59.94555664 485.10253906 C58.90915039 484.59722656 57.87274414 484.09191406 56.80493164 483.57128906 C55.73500977 483.03503906 54.66508789 482.49878906 53.56274414 481.94628906 C52.01586914 481.18832031 52.01586914 481.18832031 50.43774414 480.41503906 C45.85167655 478.16144319 41.28327671 475.87322814 36.72021484 473.57348633 C27.17938412 468.77117002 17.56536546 464.14121497 7.90719604 459.57983398 C3.51946538 457.50715521 -0.86531673 455.42826354 -5.24975586 453.34863281 C-6.12684708 452.9326181 -7.00393829 452.51660339 -7.90760803 452.08798218 C-15.99886465 448.24622482 -24.06648552 444.35668115 -32.12475586 440.44628906 C-32.7590451 440.13852539 -33.39333435 439.83076172 -34.04684448 439.51367188 C-34.67446686 439.20913086 -35.30208923 438.90458984 -35.94873047 438.59082031 C-43.3508869 434.99916707 -50.76163398 431.42669447 -58.18725586 427.88378906 C-67.4497336 423.46435598 -76.69460364 419.00907698 -85.93380737 414.54125977 C-93.09772957 411.07708121 -100.26871596 407.62884945 -107.45556641 404.21240234 C-116.44324276 399.93883881 -125.36415919 395.55333356 -134.24975586 391.07128906 C-142.88764548 386.71987098 -151.58268645 382.53908303 -160.37475586 378.50878906 C-173.14300468 372.65152331 -185.76320312 366.50766101 -198.37475586 360.32128906 C-199.8537587 359.59585907 -199.8537587 359.59585907 -201.36264038 358.85577393 C-203.32271993 357.89431076 -205.28279787 356.93284435 -207.24287415 355.97137451 C-208.65973763 355.27639862 -208.65973763 355.27639862 -210.10522461 354.56738281 C-211.49773689 353.88425018 -211.49773689 353.88425018 -212.91838074 353.18731689 C-221.36544202 349.04634765 -229.84284541 344.97259955 -238.33959961 340.93457031 C-242.21430097 339.09313547 -246.07949759 337.23287914 -249.94116211 335.36425781 C-261.50052239 329.77228663 -273.08653127 324.25618449 -284.74975586 318.88378906 C-294.42681913 314.42381491 -303.98468848 309.77868912 -313.48925781 304.96337891 C-322.21869964 300.56368831 -331.07662127 296.46918289 -339.96020508 292.3918457 C-349.37037047 288.05185187 -358.63764106 283.47929779 -367.86254883 278.7590332 C-373.98529797 275.646182 -380.13269691 272.86646374 -386.56225586 270.44628906 C-386.56225586 269.45628906 -386.56225586 268.46628906 -386.56225586 267.44628906 C-385.07202148 266.1027832 -385.07202148 266.1027832 -382.96850586 264.73144531 C-382.19337646 264.21622314 -381.41824707 263.70100098 -380.61962891 263.17016602 C-379.7756958 262.62191162 -378.9317627 262.07365723 -378.06225586 261.50878906 C-376.30636385 260.33989154 -374.55248816 259.16796007 -372.80053711 257.99316406 C-371.9170459 257.40083984 -371.03355469 256.80851562 -370.12329102 256.19824219 C-366.41417763 253.66091162 -362.82489907 250.98033907 -359.24975586 248.25878906 C-354.4408572 244.60796139 -349.61049215 241.00427269 -344.68725586 237.50878906 C-343.84203369 236.90852905 -343.84203369 236.90852905 -342.97973633 236.29614258 C-341.80236574 235.46023256 -340.62495584 234.62437791 -339.44750977 233.78857422 C-328.77784125 226.19185867 -318.20591934 218.46215646 -307.67114258 210.67993164 C-300.09211946 205.08677697 -292.45843907 199.57121689 -284.8137207 194.06835938 C-282.5159059 192.41289619 -280.2203671 190.75432449 -277.92553711 189.09472656 C-270.59205826 183.79131929 -263.25012114 178.50079233 -255.88061523 173.24755859 C-248.85660691 168.23643037 -241.86847079 163.17559436 -234.87670898 158.11962891 C-231.10632567 155.39365768 -227.33421892 152.67007372 -223.56225586 149.94628906 C-222.06224727 148.86296762 -220.56224728 147.77963428 -219.06225586 146.69628906 C-192.06225586 127.19628906 -192.06225586 127.19628906 -189.8125 125.5715332 C-188.31160036 124.4875049 -186.81078664 123.40335764 -185.31005859 122.3190918 C-181.57451619 119.62041251 -177.83753332 116.92377595 -174.09741211 114.23144531 C-166.30309739 108.61725728 -158.53771986 102.96743523 -150.81225586 97.25878906 C-144.29502713 92.44341978 -137.74112271 87.68764433 -131.13647461 82.99316406 C-124.68700075 78.40638694 -118.28518193 73.75295554 -111.87231445 69.11523438 C-109.61044757 67.48110607 -107.34649278 65.84991776 -105.08178711 64.21972656 C-97.2924149 58.60980841 -89.53248616 52.96356785 -81.81225586 47.25878906 C-75.29735636 42.44514077 -68.74523821 37.69173692 -62.14428711 32.99707031 C-52.03125344 25.80361558 -41.97488606 18.53883532 -32.06225586 11.07128906 C-30.74719203 10.0894642 -29.43208941 9.10769129 -28.11694336 8.12597656 C-25.9415439 6.49874552 -23.8137144 4.84460042 -21.69506836 3.14160156 C-20.45370117 2.17867187 -20.45370117 2.17867187 -19.18725586 1.19628906 C-18.1856543 0.38417969 -18.1856543 0.38417969 -17.16381836 -0.44433594 C-11.65961508 -2.79147367 -5.48131114 -2.19447164 0 0 Z " fill="#FEFEFE" transform="translate(485.562255859375,146.5537109375)"/>
<path d="M0 0 C4.31816627 0.77291202 7.81774915 2.23738852 11.6875 4.25 C13.1235563 4.98074712 14.55976522 5.71119435 15.99609375 6.44140625 C16.78999512 6.84762207 17.58389648 7.25383789 18.40185547 7.67236328 C33.36825034 15.32010387 48.41975573 22.7385095 63.68579102 29.77001953 C73.88415348 34.46901186 84.04150044 39.2515383 94.1875 44.0625 C95.41601181 44.64499512 95.41601181 44.64499512 96.66934204 45.23925781 C117.03033292 54.89682785 137.3351874 64.66860944 157.61474609 74.49584961 C165.4173749 78.27550856 173.23368885 82.02479407 181.0625 85.75 C188.41705877 89.25220149 195.72308981 92.83928248 203 96.5 C216.77174246 103.42303946 230.6820756 110.04504894 244.640625 116.58203125 C247.427288 117.88758455 250.21374981 119.19356594 253 120.5 C253.70794708 120.83191345 254.41589417 121.1638269 255.14529419 121.50579834 C267.21168977 127.16837194 279.21149982 132.96140931 291.1875 138.8125 C292.0254007 139.22185791 292.86330139 139.63121582 293.72659302 140.05297852 C296.99031062 141.64767185 300.25398066 143.24246247 303.51756287 144.83743286 C313.31443044 149.62285626 323.1514086 154.322134 333 159 C334.41051472 159.67066639 335.82099395 160.34140741 337.23144531 161.01220703 C352.48403968 168.2659911 367.73905117 175.51467261 383.0078125 182.734375 C397.77575663 189.71800375 412.5387607 196.70999797 427.25 203.8125 C428.40330811 204.3691333 429.55661621 204.9257666 430.74487305 205.49926758 C437.18961884 208.61797228 443.59483165 211.79741583 450 215 C450 282.98 450 350.96 450 421 C442.12610596 419.87515799 442.12610596 419.87515799 437.953125 417.62890625 C437.03684326 417.14276855 436.12056152 416.65663086 435.17651367 416.15576172 C434.21076416 415.62998535 433.24501465 415.10420898 432.25 414.5625 C430.71339722 413.74289795 430.71339722 413.74289795 429.14575195 412.90673828 C427.06000656 411.79393015 424.97640271 410.6770983 422.89501953 409.55615234 C419.71904938 407.84898134 416.52920634 406.17022367 413.33447266 404.49853516 C407.42663234 401.40689527 401.53418015 398.28636006 395.64904785 395.1517334 C377.35817902 385.41026835 358.98890671 375.8381803 340.52294922 366.43237305 C331.47030249 361.81876923 322.45258948 357.14728607 313.46920776 352.40011597 C308.08174299 349.55725464 302.66039632 346.79997588 297.1875 344.125 C287.28748701 339.22485531 277.61779572 333.93745283 267.94091797 328.61376953 C249.43677354 318.45999278 230.75266924 308.66487529 211.98077393 299.01806641 C205.61073273 295.7440305 199.24295512 292.46559084 192.875 289.1875 C192.16735504 288.8233197 191.45971008 288.4591394 190.73062134 288.08392334 C182.12386186 283.65385529 173.53050809 279.20138458 164.97412109 274.67456055 C158.16946101 271.07759442 151.33536813 267.53819744 144.5 264 C136.86159887 260.04583045 129.22986044 256.08081448 121.625 252.0625 C102.31679348 241.87449083 82.88250666 231.92985929 63.43994141 222.00149536 C57.64793071 219.04338294 51.85710685 216.08294743 46.06634521 213.12239075 C41.79953496 210.94113595 37.53221759 208.76090319 33.26269531 206.58496094 C29.82665358 204.83360386 26.39325985 203.0771769 22.9621582 201.31616211 C21.18962466 200.40810672 19.41419956 199.50570252 17.63867188 198.60351562 C2.87419487 191.00906599 2.87419487 191.00906599 0.8358326 186.32452202 C-0.09984684 182.60285947 -0.27244855 179.13907134 -0.24050903 175.33108521 C-0.24307231 174.20246026 -0.24307231 174.20246026 -0.24568737 173.05103481 C-0.2489704 170.54059818 -0.23799826 168.03043137 -0.22705078 165.52001953 C-0.22648641 163.71620185 -0.22680373 161.9123837 -0.22793579 160.10856628 C-0.22850929 155.21854132 -0.21675531 150.3286146 -0.20278788 145.43861246 C-0.19028017 140.32568771 -0.18910998 135.21276068 -0.18673706 130.099823 C-0.18052242 120.42081725 -0.16411178 110.74185671 -0.14403808 101.06287086 C-0.12167862 90.0423915 -0.11068553 79.02190998 -0.10064721 68.00141358 C-0.07974556 45.33425066 -0.04456986 22.66712787 0 0 Z " fill="#FDFDFD" transform="translate(93,441)"/>
<path d="M0 0 C0.11680565 20.7577159 0.20497465 41.51537761 0.25906086 62.27335548 C0.28484164 71.91167818 0.31998977 81.54979666 0.37719727 91.18798828 C0.42703607 99.58872564 0.45929193 107.98931511 0.47044247 116.3901962 C0.47696045 120.83840771 0.4922767 125.28619612 0.52865028 129.734272 C0.56261746 133.92204639 0.57305163 138.10922389 0.56553841 142.29712296 C0.56691265 143.83301539 0.57684135 145.36892802 0.59602737 146.90470123 C0.75112542 159.96148292 0.75112542 159.96148292 -2.34431458 163.79989624 C-3.22069077 164.52593048 -4.09706696 165.25196472 -5 166 C-6.51400391 167.27230469 -6.51400391 167.27230469 -8.05859375 168.5703125 C-9.18063432 169.42748228 -10.30714404 170.27882598 -11.4375 171.125 C-16.42317097 174.94470982 -21.26307208 178.87590544 -26 183 C-30.54758854 186.95059066 -35.17173735 190.75319115 -39.9375 194.4375 C-45.6646013 198.86998155 -51.15263852 203.53036116 -56.60083008 208.30004883 C-61.07779696 212.21644597 -65.63551893 216.01334323 -70.2578125 219.7578125 C-73.37000148 222.30253683 -76.43726497 224.89618225 -79.5 227.5 C-84.34948722 231.62113948 -89.25161123 235.66991612 -94.1875 239.6875 C-97.8809391 242.7243277 -101.52298486 245.81960955 -105.16625977 248.91625977 C-108.55954109 251.7954532 -111.98267786 254.63204237 -115.4375 257.4375 C-119.55764338 260.79069029 -123.60303089 264.2181981 -127.625 267.6875 C-137.76706516 276.42071043 -148.01610895 285.04290593 -158.6875 293.125 C-164.54322354 297.57710442 -170.10607455 302.31317014 -175.6640625 307.12890625 C-178.56677374 309.64000813 -181.51856887 312.08250525 -184.5 314.5 C-188.72792288 317.93207857 -192.87531796 321.44546839 -197 325 C-201.12468204 328.55453161 -205.27207712 332.06792143 -209.5 335.5 C-214.90362902 339.88945818 -220.18038455 344.41682809 -225.45703125 348.95703125 C-230.40870387 353.21620008 -235.40066317 357.42752862 -240.39111328 361.64111328 C-242.55303163 363.46709773 -244.7132358 365.29510325 -246.87329102 367.12329102 C-247.95566254 368.03931879 -249.03818153 368.95517236 -250.12084961 369.87084961 C-252.85636732 372.18456788 -255.59001211 374.50043895 -258.3203125 376.8203125 C-263.30314347 381.05079624 -268.29702715 385.2585368 -273.375 389.375 C-278.49733524 393.54156423 -283.47417378 397.86201281 -288.45043945 402.20043945 C-292.96215363 406.12489097 -297.55325555 409.93426783 -302.19921875 413.69921875 C-305.46329783 416.38058916 -308.6725072 419.12062863 -311.875 421.875 C-312.46458496 422.38208496 -313.05416992 422.88916992 -313.66162109 423.41162109 C-314.25152832 423.91902832 -314.84143555 424.42643555 -315.44921875 424.94921875 C-323.60485 431.96364115 -331.83042338 438.88310793 -340.171875 445.67578125 C-343.38820055 448.31903222 -346.57298937 450.99723446 -349.75 453.6875 C-350.30147705 454.15389893 -350.8529541 454.62029785 -351.42114258 455.10083008 C-354.37021003 457.60024392 -357.28768214 460.1313196 -360.1875 462.6875 C-363 465 -363 465 -365 465 C-365.11677991 441.24344928 -365.2049621 417.48694156 -365.25906086 393.73016167 C-365.28484706 382.69956749 -365.32000569 371.66915161 -365.37719727 360.63867188 C-365.4270193 351.0249673 -365.45928799 341.41139185 -365.47044247 331.79756176 C-365.47696323 326.70662333 -365.49229771 321.61605431 -365.52865028 316.52523422 C-365.56259068 311.73338864 -365.57305687 306.94206461 -365.56553841 302.15011024 C-365.56691382 300.39168908 -365.57685807 298.63325046 -365.59602737 296.87493324 C-365.62093609 294.47228769 -365.61491476 292.07160656 -365.60127258 289.66891479 C-365.61583679 288.97434831 -365.630401 288.27978182 -365.64540654 287.56416786 C-365.56037708 282.01746323 -363.73071293 279.79800012 -360 276 C-358.24926758 274.43945312 -358.24926758 274.43945312 -356.64453125 273.28125 C-355.72534912 272.60666748 -355.72534912 272.60666748 -354.78759766 271.91845703 C-354.13581543 271.45036621 -353.4840332 270.98227539 -352.8125 270.5 C-351.37779745 269.44682131 -349.94424678 268.39207206 -348.51171875 267.3359375 C-347.76970215 266.7903418 -347.02768555 266.24474609 -346.26318359 265.68261719 C-342.50497566 262.88848891 -338.81499217 260.00828465 -335.125 257.125 C-334.37653809 256.54113525 -333.62807617 255.95727051 -332.85693359 255.35571289 C-331.33312533 254.16649055 -329.80968865 252.97679192 -328.28662109 251.78662109 C-324.50654386 248.83310784 -320.72275998 245.88436708 -316.9375 242.9375 C-316.1954834 242.3597583 -315.4534668 241.7820166 -314.68896484 241.18676758 C-309.56325569 237.20140859 -304.41299938 233.2493894 -299.25 229.3125 C-293.59147686 224.99724645 -287.96794462 220.64219614 -282.38012695 216.23583984 C-271.45115414 207.61891463 -260.44571054 199.09973739 -249.40625 190.625 C-245.25758611 187.43372009 -241.12969753 184.21575864 -237 181 C-228.6744784 174.51773201 -220.31663422 168.07925899 -211.9453125 161.65625 C-203.37978964 155.07724491 -194.85224907 148.45011691 -186.33056641 141.81445312 C-181.80921801 138.29437547 -177.28550476 134.77733776 -172.76220703 131.25976562 C-168.94873409 128.29400788 -165.13589046 125.32744749 -161.32421875 122.359375 C-153.70198363 116.42528592 -146.0686055 110.5072123 -138.40625 104.625 C-134.25758632 101.43372025 -130.12967519 98.215787 -126 95 C-119.81483938 90.18360205 -113.61393054 85.3893052 -107.39453125 80.6171875 C-104.84189393 78.65385612 -102.30013984 76.67698793 -99.76171875 74.6953125 C-91.78837971 68.47079192 -83.78348601 62.30014938 -75.67724609 56.24951172 C-70.63158107 52.48186466 -65.63402085 48.65549448 -60.6484375 44.80859375 C-48.17298276 35.19224465 -35.6137306 25.68636334 -22.99829102 16.25463867 C-17.06474278 11.81387452 -11.18277219 7.31203078 -5.3359375 2.7578125 C-1.67111111 0 -1.67111111 0 0 0 Z " fill="#FEFEFE" transform="translate(932,376)"/>
<path d="M0 0 C4.24052009 0.28472343 7.64176859 1.79178968 11.3203125 3.83203125 C12.72230239 4.56838247 14.1246677 5.3040192 15.52734375 6.0390625 C16.65003662 6.63775146 16.65003662 6.63775146 17.79541016 7.24853516 C22.16933187 9.56497834 26.58649886 11.79519867 31.0078125 14.01953125 C31.94729736 14.49245605 32.88678223 14.96538086 33.85473633 15.45263672 C39.65889797 18.34299448 45.5072605 21.00293214 51.5078125 23.45703125 C62.04659602 27.77403006 72.25211125 32.7255235 82.48681641 37.71386719 C86.58736347 39.71227626 90.69418891 41.69764545 94.80078125 43.68359375 C108.41891945 50.27381146 122.0196847 56.89097702 135.53149414 63.69726562 C141.9227081 66.90788408 148.36121335 70.0105303 154.8203125 73.08203125 C168.52519795 79.60383325 182.11116997 86.32207659 195.5078125 93.45703125 C202.44253068 97.14965641 209.46662884 100.60168944 216.5703125 103.95703125 C225.96516146 108.39457816 235.17697545 113.11337942 244.359375 117.97265625 C248.54945739 120.18832849 252.76452094 122.3452997 257.0078125 124.45703125 C257.93110352 124.91843506 257.93110352 124.91843506 258.87304688 125.38916016 C262.9703627 127.43059722 267.08408224 129.43636535 271.203125 131.43359375 C273.34638431 132.48301136 275.48961349 133.5324905 277.6328125 134.58203125 C278.63997314 135.06470459 279.64713379 135.54737793 280.68481445 136.04467773 C288.35062015 139.81369357 296.49697075 144.10801915 301.1953125 151.51953125 C301.48878479 153.85163879 301.48878479 153.85163879 301.37719727 156.45239258 C301.34469376 157.43053421 301.31219025 158.40867584 301.27870178 159.41645813 C301.23184738 160.46754257 301.18499298 161.51862701 301.13671875 162.6015625 C301.0792892 164.83523368 301.02401807 167.0689612 300.97070312 169.30273438 C300.87173446 172.81968301 300.75773608 176.33379824 300.60571289 179.84887695 C300.46618412 183.24598503 300.39050821 186.63984018 300.32421875 190.0390625 C300.26319473 191.08407425 300.20217072 192.129086 300.13929749 193.20576477 C300.10682388 196.27816294 300.20784964 198.60558373 301.1953125 201.51953125 C304.17465944 204.56240294 307.44427675 206.54608296 311.1953125 208.51953125 C311.92675476 208.92177414 312.65819702 209.32401703 313.4118042 209.7384491 C315.25240597 210.72720945 317.11750898 211.6298911 319.0078125 212.51953125 C320.38734756 213.19272335 321.7662447 213.86722414 323.14453125 214.54296875 C323.82177246 214.87264648 324.49901367 215.20232422 325.19677734 215.54199219 C341.13924881 223.33989785 341.13924881 223.33989785 346.1953125 229.51953125 C347.19731366 232.52553472 347.33340896 234.56325758 347.35644531 237.70605469 C347.36605286 238.76435486 347.3756604 239.82265503 347.38555908 240.9130249 C347.3919339 242.62863617 347.3919339 242.62863617 347.3984375 244.37890625 C347.40413757 245.55664612 347.40983765 246.73438599 347.41571045 247.94781494 C347.42516358 250.44273988 347.43169567 252.93767732 347.43554688 255.43261719 C347.4452385 259.24045768 347.47625414 263.04775529 347.5078125 266.85546875 C347.51434402 269.27994471 347.51959391 271.70442454 347.5234375 274.12890625 C347.5357843 275.26455017 347.5481311 276.40019409 347.56085205 277.57025146 C347.54378409 283.66076347 347.23341815 288.18132873 344.1953125 293.51953125 C341.47249441 295.86418016 339.72972133 296.4510882 336.17578125 296.90625 C330.61238967 296.36574385 326.61264569 294.05452707 321.7578125 291.39453125 C320.23510742 290.58254272 320.23510742 290.58254272 318.68164062 289.75415039 C312.69132793 286.52785213 306.82145747 283.13360376 300.98876953 279.63232422 C287.86186802 271.75985453 274.31946275 265.03197262 260.51367188 258.44311523 C251.58993364 254.17995583 242.77217505 249.77799568 234.03813171 245.13739014 C227.42109712 241.62316893 220.74281689 238.24899268 214.02783203 234.92663574 C204.27780784 230.1003348 194.5757399 225.19970612 184.97265625 220.0859375 C178.17079088 216.4750707 171.28185172 213.04860163 164.38476562 209.62402344 C157.65978504 206.275691 151.00546124 202.8107275 144.37231445 199.28466797 C138.42495194 196.13544509 132.4152211 193.12701269 126.3828125 190.14453125 C117.93874734 185.96064845 109.64145561 181.55592631 101.38891602 177.00708008 C94.1995742 173.04777889 86.94364172 169.23127658 79.65893555 165.45092773 C74.51794542 162.77142531 69.46363046 159.98330769 64.4453125 157.08203125 C56.91391556 152.75956327 49.11602482 149.05205007 41.27661133 145.32592773 C33.48318489 141.62099054 25.709151 137.88157914 17.97521973 134.05404663 C16.18139026 133.16851195 14.38322798 132.29177133 12.58496094 131.4152832 C-3.46448844 123.44766155 -3.46448844 123.44766155 -7.8046875 116.51953125 C-8.20341492 113.77464294 -8.20341492 113.77464294 -8.23706055 110.58374023 C-8.25685471 109.38406113 -8.27664886 108.18438202 -8.29704285 106.948349 C-8.30662773 105.00165062 -8.30662773 105.00165062 -8.31640625 103.015625 C-8.33329045 101.65436729 -8.35144559 100.2931248 -8.37080383 98.93190002 C-8.41835961 95.33729962 -8.44807802 91.7427603 -8.47424316 88.14794922 C-8.50361828 84.5613876 -8.5505664 80.97506332 -8.59570312 77.38867188 C-8.76859416 63.10012995 -8.90121358 48.809078 -8.8046875 34.51953125 C-8.80012543 33.84409271 -8.79556335 33.16865417 -8.79086304 32.4727478 C-8.75436381 28.028583 -8.66432957 23.58741876 -8.5546875 19.14453125 C-8.54050781 17.88898437 -8.52632812 16.6334375 -8.51171875 15.33984375 C-8.47949219 14.13328125 -8.44726562 12.92671875 -8.4140625 11.68359375 C-8.39311523 10.6157666 -8.37216797 9.54793945 -8.35058594 8.44775391 C-7.3656239 3.16437525 -5.31536574 0.72581483 0 0 Z " fill="#010101" transform="translate(142.8046875,496.48046875)"/>
<path d="M0 0 C3.88906074 2.93571122 7.39810569 6.29634348 10.9296875 9.64453125 C15.40291809 13.86659864 20.21277245 17.66852216 25.0078125 21.515625 C34.68259225 29.36843892 34.68259225 29.36843892 39.203125 33.24609375 C40.30453797 34.19027863 41.40610142 35.13428798 42.5078125 36.078125 C43.32258057 36.77627319 43.32258057 36.77627319 44.15380859 37.48852539 C47.65364236 40.45591207 51.25311207 43.18368545 55.0078125 45.828125 C62.61152131 51.27671285 66.87046682 56.82649025 68.46875 66.2265625 C69.31414282 78.03291045 64.80025631 88.91744392 61.16308594 99.96337891 C59.22849848 105.9118674 57.4252055 111.89804104 55.6328125 117.890625 C55.13297852 119.51907349 55.13297852 119.51907349 54.62304688 121.18041992 C52.75088717 127.42207351 51.38289397 133.53404591 50.49487305 139.99267578 C49.37862455 145.77478703 45.71427569 149.30145502 41.0078125 152.515625 C35.48762105 155.20494904 30.06862382 155.5482105 23.99438477 155.55224609 C4.37457971 155.76170317 -15.02322332 161.16953586 -34.08203125 165.42919922 C-35.30921875 165.70006348 -36.53640625 165.97092773 -37.80078125 166.25 C-38.8570874 166.48686523 -39.91339355 166.72373047 -41.00170898 166.96777344 C-54.54088152 169.44813128 -67.67261706 166.21221191 -78.9921875 158.515625 C-80.83878292 156.85597829 -82.51396325 155.1223399 -84.1953125 153.296875 C-86.96659899 150.54968665 -90.16742695 148.51099941 -93.38671875 146.32421875 C-99.61213741 142.00282619 -105.35584531 137.14038986 -110.9296875 132.015625 C-114.30354173 128.92688521 -117.74381584 126.19829478 -121.4921875 123.578125 C-129.06441404 118.18627007 -137.71255177 111.46008609 -140.9921875 102.515625 C-142.4603482 90.24224815 -138.93640906 79.01857949 -135.6796875 67.328125 C-135.17352428 65.46202339 -134.66895715 63.5954881 -134.16601562 61.72851562 C-132.47196649 55.46105226 -130.7400678 49.20434948 -129.00024414 42.94946289 C-128.7346167 41.98903076 -128.46898926 41.02859863 -128.1953125 40.0390625 C-127.97907227 39.2661084 -127.76283203 38.4931543 -127.54003906 37.69677734 C-126.92683469 35.25543693 -126.48132201 32.80835259 -126.0546875 30.328125 C-124.31616722 21.53816646 -120.49951295 15.56740277 -112.9921875 10.515625 C-108.28395715 8.30108613 -104.04893765 6.9519489 -98.890625 6.05078125 C-97.89092682 5.87351753 -97.89092682 5.87351753 -96.87103271 5.69267273 C-94.70458519 5.31184674 -92.5361363 4.9444141 -90.3671875 4.578125 C-88.85267462 4.31623801 -87.33818928 4.05419169 -85.82373047 3.79199219 C-73.68839399 1.71301097 -61.52086265 -0.03053723 -49.3125 -1.625 C-44.05812648 -2.31444227 -38.84317594 -3.15691612 -33.62573242 -4.08398438 C-23.27722464 -5.65731827 -9.18425055 -5.32766049 0 0 Z " fill="#020202" transform="translate(562.9921875,415.484375)"/>
<path d="M0 0 C2.01767819 1.00770599 3.97807534 2.08181927 5.93676758 3.19970703 C6.95673828 3.75948242 6.95673828 3.75948242 7.99731445 4.33056641 C12.91226632 7.05020578 12.91226632 7.05020578 14.12426758 8.26220703 C14.8155117 14.75990175 12.74535192 19.39159124 10.12426758 25.26220703 C9.27858195 27.17874857 8.43540206 29.09638 7.5925293 31.01416016 C6.9861366 32.39366269 6.37837727 33.77256525 5.76928711 35.15087891 C3.46002536 40.40584237 1.35526365 45.71809764 -0.63745117 51.10205078 C-2.2498036 55.21685556 -4.05546583 59.23589604 -5.87573242 63.26220703 C-5.24634766 62.9521875 -4.61696289 62.64216797 -3.96850586 62.32275391 C4.36291026 58.23294835 12.73085847 54.22284988 21.12426758 50.26220703 C21.87909424 49.90576111 22.6339209 49.54931519 23.41162109 49.18206787 C28.17962976 46.93579775 32.96030557 44.71969921 37.75646973 42.53417969 C39.32304974 41.81667199 40.88636803 41.09199541 42.44616699 40.35986328 C52.47588935 35.66201038 60.55728984 32.18128815 71.71801758 35.25048828 C72.67708008 35.68748047 73.63614258 36.12447266 74.62426758 36.57470703 C75.60395508 37.00396484 76.58364258 37.43322266 77.59301758 37.87548828 C81.7049559 40.12817054 81.7049559 40.12817054 83.12426758 42.26220703 C83.20720196 46.01339274 82.02126884 47.38548614 79.60473633 50.27783203 C78.51940508 51.36836348 77.42090594 52.44589804 76.31176758 53.51220703 C75.72572754 54.08865967 75.1396875 54.6651123 74.53588867 55.2590332 C70.97061981 58.69714241 67.30221568 61.71282939 63.24926758 64.57470703 C57.25930867 68.85665378 52.46415575 73.9502752 47.55053711 79.41577148 C41.34158835 86.29790816 34.45304872 92.11414863 27.12426758 97.76220703 C17.39014465 105.18994433 17.39014465 105.18994433 9.12426758 114.13720703 C6.84757391 116.82175759 6.01667796 117.30116189 2.49926758 118.57470703 C-3.48173093 118.87607517 -8.92803334 115.2688857 -13.87573242 112.26220703 C-15.87573242 110.26220703 -15.87573242 110.26220703 -15.93041992 108.05908203 C-14.33501573 103.82830646 -11.33215124 101.47468051 -8.00073242 98.51220703 C-6.98124512 97.58468628 -6.98124512 97.58468628 -5.94116211 96.63842773 C-0.4098793 91.64320778 5.29115367 86.90100385 11.12426758 82.26220703 C13.08468737 80.66059086 15.04303069 79.05642959 16.99926758 77.44970703 C27.26098297 69.04122681 27.26098297 69.04122681 32.12426758 66.26220703 C25.7171469 67.43684582 20.18826131 69.3914528 14.21801758 71.97705078 C10.31723928 73.59744985 6.3468963 74.87090144 2.32348633 76.14892578 C-0.67242076 77.19145755 -3.54746051 78.40738681 -6.45117188 79.68066406 C-13.49479896 82.72399704 -20.1392077 84.76977756 -27.87573242 83.26220703 C-30.67651367 81.95751953 -30.67651367 81.95751953 -32.87573242 80.26220703 C-33.73914437 74.60206207 -32.70405385 71.19719747 -29.95385742 66.27783203 C-28.85686291 64.22692925 -28.0771954 62.20656878 -27.31323242 60.01220703 C-26.49628585 57.72917256 -25.87339423 56.25918687 -24.37573242 54.32470703 C-21.96356065 51.00797085 -21.07697838 47.14896098 -19.87573242 43.26220703 C-19.2111589 41.26151053 -18.54471137 39.26143478 -17.87573242 37.26220703 C-18.4094043 37.80111572 -18.94307617 38.34002441 -19.49291992 38.89526367 C-21.95112668 41.37446939 -24.41339608 43.84960302 -26.87573242 46.32470703 C-27.71491211 47.17226563 -28.5540918 48.01982422 -29.41870117 48.89306641 C-34.90961132 54.40525915 -40.49666289 59.7254134 -46.55249023 64.61645508 C-48.87862369 66.49533848 -50.89310043 68.28420651 -52.75073242 70.63720703 C-57.45941495 76.45381486 -65.16494754 84.54534846 -72.75073242 85.69970703 C-79.05450626 85.65972538 -86.49502986 81.64290959 -90.87573242 77.26220703 C-90.35996177 72.18702386 -86.5397713 69.41663486 -82.87573242 66.26220703 C-81.09682651 64.97357188 -79.30430071 63.70359229 -77.50073242 62.44970703 C-72.6405776 59.01978851 -69.00513726 55.22235015 -65.14526367 50.72705078 C-62.9215019 48.31191537 -60.65732182 46.39228079 -58.06323242 44.38720703 C-52.22073108 39.79549471 -47.13538354 34.5642636 -41.93823242 29.26220703 C-35.69490805 22.90210937 -29.6109405 17.17638702 -22.28979492 12.08251953 C-19.14985537 9.71486285 -16.81169648 6.94633495 -14.32104492 3.92626953 C-10.41178246 -0.57466508 -5.72296454 -2.25104762 0 0 Z " fill="#010101" transform="translate(616.875732421875,298.73779296875)"/>
<path d="M0 0 C1.20398438 0.52464844 2.40796875 1.04929687 3.6484375 1.58984375 C6.625 3.0625 6.625 3.0625 8.625 5.0625 C8.625 10.72804837 6.54147976 14.23850436 3.55859375 18.9453125 C1.15993403 22.81224272 -1.04837057 26.76848999 -3.25 30.75 C-3.6816748 31.52956055 -4.11334961 32.30912109 -4.55810547 33.11230469 C-9.31707941 41.73293761 -13.93744708 50.42499477 -18.51953125 59.140625 C-22.50642954 66.71573175 -26.54553428 74.25834437 -30.6875 81.75 C-31.09597168 82.4922583 -31.50444336 83.2345166 -31.92529297 83.99926758 C-39.11297911 96.93148955 -39.11297911 96.93148955 -43.375 99.0625 C-48.73357574 98.69786319 -52.66805653 96.5706834 -57.25 94 C-57.93835938 93.62294922 -58.62671875 93.24589844 -59.3359375 92.85742188 C-61.0199213 91.93356965 -62.69807467 90.99910333 -64.375 90.0625 C-63.94158468 84.55193384 -62.69546988 81.47453271 -59.3125 77.125 C-58.57902344 76.16722656 -57.84554687 75.20945312 -57.08984375 74.22265625 C-56.52394531 73.50980469 -55.95804687 72.79695313 -55.375 72.0625 C-59.05986242 68.94825932 -63.20838062 67.16255958 -67.5625 65.1875 C-73.07902903 62.65996706 -78.40853263 60.08007084 -83.515625 56.77734375 C-86.86945299 55.4879519 -89.58858015 56.72894509 -92.76953125 58.078125 C-93.56746094 58.48546875 -94.36539063 58.8928125 -95.1875 59.3125 C-96.05761719 59.7559375 -96.92773438 60.199375 -97.82421875 60.65625 C-100.75430007 62.27160877 -103.49153891 64.07822879 -106.1953125 66.046875 C-110.27673169 67.94861154 -114.1992135 68.76713545 -118.50390625 67.37304688 C-120.68816386 66.33532301 -122.73936779 65.18176574 -124.8125 63.9375 C-125.89047852 63.3496875 -125.89047852 63.3496875 -126.99023438 62.75 C-132.12533982 59.78240365 -132.12533982 59.78240365 -133.34765625 56.2578125 C-133.35667969 55.53335938 -133.36570312 54.80890625 -133.375 54.0625 C-128.85107779 49.94658976 -124.44419849 47.462729 -118.875 45 C-111.69531835 41.72661224 -104.8053942 38.13119685 -97.9375 34.25 C-84.19534283 26.55884489 -69.70174018 20.6983858 -55.14672852 14.74121094 C-49.50212315 12.41745542 -43.98554824 9.98800957 -38.5625 7.1875 C-37.20230405 6.5029494 -35.84161393 5.81937997 -34.48046875 5.13671875 C-32.42405696 4.10142178 -30.37139486 3.06063427 -28.32666016 2.00244141 C-26.3515023 0.98320473 -24.36501684 -0.01016013 -22.375 -1 C-20.6425 -1.88365234 -20.6425 -1.88365234 -18.875 -2.78515625 C-11.96502145 -5.06020499 -6.34524123 -2.81475452 0 0 Z " fill="#010101" transform="translate(555.375,270.9375)"/>
<path d="M0 0 C4.63299393 4.29399438 8.25877592 7.91254548 8.8359375 14.4921875 C9.22878712 29.02762331 3.60704174 39.97092218 -3.4375 52.375 C-2.04917969 52.56835938 -2.04917969 52.56835938 -0.6328125 52.765625 C5.38065915 53.91244844 9.14956618 57.44520671 12.5625 62.375 C13.69100634 65.76051901 13.80172932 68.49537458 13.875 72.0625 C13.93107422 73.83173828 13.93107422 73.83173828 13.98828125 75.63671875 C13.18410462 82.69724198 10.15921062 87.40509117 4.74145508 91.88745117 C4.1461499 92.35771729 3.55084473 92.8279834 2.9375 93.3125 C1.67747577 94.34785229 0.41836599 95.38431842 -0.83984375 96.421875 C-1.45456543 96.92267578 -2.06928711 97.42347656 -2.70263672 97.93945312 C-5.07945858 99.9062013 -7.35283462 101.97633853 -9.625 104.0625 C-13.83761081 107.88964315 -18.21442284 111.47090376 -22.640625 115.046875 C-25.55223102 117.47050236 -28.34092703 119.9937697 -31.125 122.5625 C-43.88815985 134.18512216 -43.88815985 134.18512216 -51.39453125 134.546875 C-55.45425837 134.20533008 -57.5926856 132.34050217 -60.1875 129.375 C-62.78940908 125.21194547 -62.9892578 121.13254078 -62.4375 116.375 C-61.28101956 111.62225795 -59.76053456 107.00305123 -58.1875 102.375 C-57.96973907 101.72136475 -57.75197815 101.06772949 -57.52761841 100.39428711 C-53.97007792 89.77514912 -49.58976091 79.79765216 -44.28613281 69.9140625 C-40.65747568 63.50748598 -40.65747568 63.50748598 -39.4375 56.375 C-40.7349637 54.26822547 -40.7349637 54.26822547 -42.4375 52.375 C-46.58240794 41.85068643 -46.67708019 31.79706615 -42.75390625 21.23046875 C-37.87317131 10.64347396 -28.53359787 3.41320801 -17.86328125 -0.96484375 C-11.75819422 -2.62629255 -5.73890472 -2.71293678 0 0 Z " fill="#010101" transform="translate(770.4375,553.625)"/>
<path d="M0 0 C14.08280376 -1.17627616 24.49670289 1.70673058 36.93994141 8.18847656 C38.50615234 8.97351563 38.50615234 8.97351563 40.10400391 9.77441406 C47.12221674 13.61216791 53.20262408 18.72842698 55.68994141 26.56347656 C56.61355487 32.31371525 53.94933684 36.47083014 50.93994141 41.18847656 C50.41207031 42.16107422 50.41207031 42.16107422 49.87353516 43.15332031 C48.81494141 44.81347656 48.81494141 44.81347656 45.93994141 47.18847656 C40.76465202 48.18913675 36.48384647 48.07070803 31.87744141 45.43847656 C28.59941282 41.63173368 27.68262218 38.96660721 27.81494141 33.93847656 C27.83298828 33.04644531 27.85103516 32.15441406 27.86962891 31.23535156 C27.89283203 30.55988281 27.91603516 29.88441406 27.93994141 29.18847656 C25.8366847 28.20735682 23.73230452 27.22864522 21.62744141 26.25097656 C20.45568359 25.70570313 19.28392578 25.16042969 18.07666016 24.59863281 C9.93954821 20.94047912 1.30381796 20.90057251 -7.06005859 24.06347656 C-14.17580713 27.36147953 -20.05156882 32.22844809 -26.06005859 37.18847656 C-27.38263672 38.21714844 -27.38263672 38.21714844 -28.73193359 39.26660156 C-30.86144675 41.02452182 -32.59500895 42.77202823 -34.37255859 44.87597656 C-36.28254551 47.13437867 -38.19806288 49.33164678 -40.25146484 51.46191406 C-43.52612735 54.89474453 -45.78959751 57.41573061 -47.37255859 61.93847656 C-47.04867365 65.30688002 -46.51067139 66.80349031 -43.90771484 68.99316406 C-37.90009053 72.87970326 -30.41268799 76.87053866 -23.06005859 76.18847656 C-15.90035468 74.54792206 -11.13356998 72.36897659 -7.06005859 66.18847656 C-10.05057529 62.85290024 -12.99190487 61.03763735 -17.06005859 59.18847656 C-17.47273992 55.81824574 -17.64373173 53.22003777 -15.93505859 50.20019531 C-13.60157338 47.26510844 -12.04858116 45.54915372 -8.45849609 44.23925781 C-3.45270608 44.16445865 0.23288358 46.11290301 4.68994141 48.25097656 C5.57721924 48.66710205 6.46449707 49.08322754 7.37866211 49.51196289 C9.91115607 50.71438014 12.42799518 51.94379487 14.93994141 53.18847656 C16.09365234 53.75824219 17.24736328 54.32800781 18.43603516 54.91503906 C24.6314573 58.27801131 24.6314573 58.27801131 25.90478516 62.03613281 C25.96721828 67.63430328 22.12812821 70.88364165 18.40234375 74.75830078 C10.60966285 82.37925649 1.83184474 87.68576096 -8.06005859 92.18847656 C-8.77033203 92.60097656 -9.48060547 93.01347656 -10.21240234 93.43847656 C-19.09570561 98.34901657 -31.09100135 97.32675231 -40.62255859 94.75097656 C-51.53266076 90.90358537 -65.16658616 84.3869412 -71.87255859 74.56347656 C-72.47003906 73.70882812 -72.47003906 73.70882812 -73.07958984 72.83691406 C-75.64084361 68.53074239 -75.84761584 64.01565934 -75.06005859 59.18847656 C-71.38630687 48.73338176 -65.16030318 41.23423339 -57.40380859 33.53076172 C-56.29577035 32.42393137 -55.22008281 31.28481409 -54.15380859 30.13769531 C-49.07934322 24.72741973 -43.06724325 20.49970143 -37.06005859 16.18847656 C-36.33044922 15.65222656 -35.60083984 15.11597656 -34.84912109 14.56347656 C-24.34928769 7.16129516 -12.83845943 1.17460188 0 0 Z " fill="#020202" transform="translate(427.06005859375,220.8115234375)"/>
<path d="M0 0 C2.6329393 1.09257663 5.21025646 2.22191476 7.79296875 3.421875 C8.53903885 3.7637384 9.28510895 4.10560181 10.05378723 4.45782471 C11.63083359 5.18163522 13.20671407 5.90799068 14.78149414 6.63671875 C17.15981872 7.73719162 19.54143477 8.83024287 21.92382812 9.921875 C28.23194805 12.82018695 34.52566244 15.72054945 40.70703125 18.8828125 C45.17945789 21.1561007 49.72157528 22.60705672 54.53125 24.0078125 C57 25 57 25 59 28 C59.06689277 31.54531688 58.89082555 33.97391821 56.5078125 36.71875 C54.72698806 38.27792676 52.9676163 39.68418206 51 41 C50.40832031 41.40605469 49.81664062 41.81210937 49.20703125 42.23046875 C43.79473324 44.11758859 38.32995225 41.49548639 33.4375 39.1640625 C32.84251709 38.88404388 32.24753418 38.60402527 31.63452148 38.31552124 C29.75205899 37.42741406 27.87597939 36.52670851 26 35.625 C24.12275218 34.73333149 22.24427079 33.84431107 20.36547852 32.9559021 C18.65958776 32.14756744 16.95665317 31.33300269 15.25390625 30.51806641 C6.99957736 26.31664441 6.99957736 26.31664441 -2 27 C-4.57452339 28.7743817 -6.73569677 30.85058516 -8.9375 33.0625 C-9.82018555 33.91424805 -9.82018555 33.91424805 -10.72070312 34.78320312 C-12.15996632 36.17566101 -13.58181506 37.58608028 -15 39 C-14.27409668 39.34780518 -13.54819336 39.69561035 -12.80029297 40.05395508 C-9.49161283 41.63961745 -6.18330326 43.22605148 -2.875 44.8125 C-1.73289062 45.35970703 -0.59078125 45.90691406 0.5859375 46.47070312 C2.24882813 47.26831055 2.24882813 47.26831055 3.9453125 48.08203125 C5.46922607 48.81256714 5.46922607 48.81256714 7.02392578 49.55786133 C8.00603027 50.03376709 8.98813477 50.50967285 10 51 C11.07362793 51.51393311 12.14725586 52.02786621 13.25341797 52.55737305 C16 54 16 54 18 56 C18.07722053 59.3204829 17.54965474 61.32667295 15.4375 63.9140625 C9.63895346 69.78509087 9.63895346 69.78509087 5.05078125 70.38671875 C-0.46820316 70.29965952 -5.05045802 67.34121895 -9.8125 64.8125 C-10.74642578 64.32974609 -11.68035156 63.84699219 -12.64257812 63.34960938 C-20.2610688 59.41083383 -20.2610688 59.41083383 -23.78662109 57.45068359 C-24.66527832 56.9758252 -25.54393555 56.5009668 -26.44921875 56.01171875 C-27.22998779 55.57690186 -28.01075684 55.14208496 -28.81518555 54.6940918 C-31.00668613 53.75410364 -31.00668613 53.75410364 -33.16821289 54.78173828 C-35.18450076 56.12270542 -36.9522281 57.56430512 -38.75 59.1875 C-42.80483964 62.82492968 -46.89636242 66.41776725 -51 70 C-38.83494831 77.01344532 -26.90784638 83.22009583 -13.578125 87.6953125 C-10 89 -10 89 -8 91 C-8 95.56376909 -10.49970321 98.16546568 -13.33203125 101.44921875 C-16.82604217 104.69774881 -20.04652838 105.46190583 -24.82421875 105.3046875 C-28.93436518 104.72911942 -32.33699541 102.87914253 -36 101 C-38.41501753 99.76745073 -40.83119848 98.53757624 -43.25 97.3125 C-43.92135986 96.970979 -44.59271973 96.62945801 -45.28442383 96.27758789 C-50.98623602 93.41653156 -56.80600055 90.90405416 -62.6875 88.4375 C-83.17664315 79.82335685 -83.17664315 79.82335685 -88 75 C-87.8755871 71.70035365 -87.35331621 70.35125004 -84.99609375 68.0078125 C-84.15175781 67.38648438 -83.30742188 66.76515625 -82.4375 66.125 C-81.52871094 65.4340625 -80.61992188 64.743125 -79.68359375 64.03125 C-78.79800781 63.3609375 -77.91242187 62.690625 -77 62 C-72.52652969 58.32088423 -68.40360586 54.40983081 -64.375 50.25 C-59.85914754 45.66413432 -55.03198779 41.71722243 -49.90966797 37.84277344 C-46.32530772 35.11894615 -43.12358217 32.26169975 -40 29 C-33.71747032 22.4732251 -33.71747032 22.4732251 -30.0625 20.0625 C-26.61012683 17.73743235 -23.97504708 15.05863603 -21.078125 12.08984375 C-7.04387516 -2.02354659 -7.04387516 -2.02354659 0 0 Z " fill="#010101" transform="translate(729,352)"/>
<path d="M0 0 C0.15985997 5.13550168 -0.35866399 9.82397042 -1.5 14.8125 C-1.67088135 15.56950195 -1.8417627 16.32650391 -2.01782227 17.10644531 C-12.65228428 62.22343025 -12.65228428 62.22343025 -20 69 C-22.73259928 69.55008799 -25.17927617 69.88023851 -27.9375 70.0625 C-32.96592091 70.4392827 -37.67424913 71.1066177 -42.55859375 72.3984375 C-49.99641415 74.34502001 -57.53111336 75.44065575 -65.125 76.5625 C-67.89892635 76.97727171 -70.6722591 77.39584072 -73.4453125 77.81640625 C-74.74887695 78.01379395 -76.05244141 78.21118164 -77.39550781 78.41455078 C-81.19331418 79.0313985 -84.94001435 79.77686846 -88.68701172 80.64819336 C-91.80239286 81.12204434 -94.85458091 81.05171662 -98 81 C-96.92193486 67.95285599 -93.72341682 55.94831163 -90 43.4375 C-89.44678973 41.54655329 -88.89470017 39.65527833 -88.34375 37.76367188 C-87.33500498 34.30578842 -86.31997948 30.84990139 -85.296875 27.39624023 C-84.17435462 23.60397919 -83.07968206 19.80466971 -82 16 C-80.86304688 15.75765625 -79.72609375 15.5153125 -78.5546875 15.265625 C-71.50226822 13.7412139 -64.51450748 12.22651197 -57.625 10.0625 C-49.3330794 7.5904955 -40.82291395 6.266882 -32.29931641 4.83813477 C-25.66344325 3.71392124 -19.18910254 2.37907993 -12.69873047 0.58886719 C-8.46422347 -0.33510883 -4.30782056 -0.25732556 0 0 Z " fill="#FCFCFC" transform="translate(613,484)"/>
<path d="M0 0 C5.23103239 3.73645171 10.10462467 7.77123408 14.9375 12 C20.41562893 16.78783494 25.94917659 21.49626906 31.5625 26.125 C32.61800049 27.00333496 32.61800049 27.00333496 33.69482422 27.89941406 C37.11279741 30.72237463 40.55525238 33.43364715 44.1875 35.9765625 C53.37870899 42.47683493 53.37870899 42.47683493 54.96875 46.375 C55.0764706 49.10392198 54.56851802 51.32533517 54 54 C53.70210571 55.60609131 53.70210571 55.60609131 53.39819336 57.24462891 C51.63322529 66.56068403 49.24170297 75.55368648 46.5 84.625 C43.67625536 94.01888958 41.07445016 103.40668488 39 113 C34.87503243 110.34519761 31.15847438 107.52630402 27.4375 104.3125 C23.34340437 100.82427147 19.16851845 97.67852463 14.6875 94.6875 C3.83739391 87.33238001 -5.94065888 78.45417923 -15 69 C-15.72832031 68.43410156 -16.45664062 67.86820313 -17.20703125 67.28515625 C-19.2783869 64.64519317 -19.61082519 62.89055432 -19.43554688 59.56103516 C-18.53930424 54.29108829 -16.6947912 49.27052844 -14.95440674 44.23043823 C-11.37954198 33.86252508 -8.01361707 23.56906049 -6.26660156 12.7097168 C-5.39777948 7.63938183 -3.68578371 3.68578371 0 0 Z " fill="#FCFCFC" transform="translate(458,449)"/>
<path d="M0 0 C2.08571806 1.54715476 4.07413361 3.17761261 6.06542969 4.84423828 C7.46989774 5.92548045 8.87883144 7.00094479 10.29199219 8.07080078 C18.06625766 14.06388377 25.68562574 20.14989502 33.05664062 26.63330078 C37.98932914 30.91351727 43.2464374 34.53973972 48.71386719 38.10205078 C49.48988281 38.67697266 50.26589844 39.25189453 51.06542969 39.84423828 C51.06542969 40.50423828 51.06542969 41.16423828 51.06542969 41.84423828 C41.91925547 44.22490106 33.20704999 46.26625167 23.70214844 46.47314453 C20.45515566 46.80447032 17.63429961 47.41630369 14.48730469 48.23876953 C7.92184922 49.95041015 1.33789808 51.00126823 -5.37207031 51.96923828 C-7.64173782 52.30425399 -9.91127454 52.64015719 -12.18066406 52.97705078 C-13.16736084 53.12029785 -14.15405762 53.26354492 -15.1706543 53.41113281 C-17.92737024 53.80257221 -17.92737024 53.80257221 -20.56201172 54.49121094 C-23.25527588 54.891958 -24.26934719 54.60498937 -26.64941406 53.35986328 C-27.32834717 53.00746582 -28.00728027 52.65506836 -28.70678711 52.29199219 C-29.42133057 51.8967334 -30.13587402 51.50147461 -30.87207031 51.09423828 C-31.62206299 50.68737793 -32.37205566 50.28051758 -33.14477539 49.86132812 C-40.06793559 45.98588337 -46.14330773 41.33593217 -52.21972656 36.26464844 C-55.1448247 33.84178099 -58.13466014 31.50197962 -61.12207031 29.15673828 C-61.69884521 28.69976562 -62.27562012 28.24279297 -62.86987305 27.77197266 C-67.38616715 24.21185116 -72.05019913 20.90267692 -76.82519531 17.69580078 C-79.24941984 15.56787036 -79.84666088 13.83201206 -80.93457031 10.84423828 C-79.94465088 10.69390137 -78.95473145 10.54356445 -77.93481445 10.38867188 C-73.28682368 9.67865709 -68.64152599 8.95199463 -63.99707031 8.21923828 C-62.73497742 8.02065216 -62.73497742 8.02065216 -61.4473877 7.8180542 C-50.87902394 6.14136446 -40.54038055 4.18559749 -30.18457031 1.46923828 C-7.33431252 -4.38170564 -7.33431252 -4.38170564 0 0 Z " fill="#FCFCFC" transform="translate(550.9345703125,428.15576171875)"/>
<path d="M0 0 C12.62117295 4.449414 23.89654269 10.10844342 35.46875 16.83203125 C40.8862233 19.97195837 46.40687062 22.82561484 52.04150391 25.55249023 C53.70037731 26.35597147 55.35056828 27.17731047 57 28 C57.88051025 28.36826904 58.76102051 28.73653809 59.66821289 29.1159668 C62 31 62 31 62.56762695 34.46166992 C62.56683711 35.88484843 62.53868344 37.30818281 62.48828125 38.73046875 C62.47766914 39.85609978 62.47766914 39.85609978 62.46684265 41.00447083 C62.43886657 43.39983095 62.37613009 45.79284747 62.3125 48.1875 C62.28742092 49.81181518 62.26460706 51.43616703 62.24414062 53.06054688 C62.18903043 57.04126671 62.10274233 61.02023615 62 65 C57.23916998 63.57289487 52.99371372 61.5489492 48.64453125 59.18359375 C47.21103347 58.41541874 45.77752053 57.64727201 44.34399414 56.87915039 C43.60279327 56.47971222 42.86159241 56.08027405 42.09793091 55.66873169 C30.96542847 49.67131136 19.8492225 43.70559167 8.29418945 38.55053711 C1.86232732 35.64515485 1.86232732 35.64515485 0 33 C-0.26153069 30.41225229 -0.34958438 28.07100347 -0.29296875 25.48828125 C-0.28872391 24.76005661 -0.28447906 24.03183197 -0.28010559 23.28153992 C-0.26332733 20.95814873 -0.22567855 18.6356285 -0.1875 16.3125 C-0.17245197 14.73634066 -0.15876377 13.16016771 -0.14648438 11.58398438 C-0.11342685 7.72232123 -0.06165194 3.86130822 0 0 Z " fill="#FCFCFC" transform="translate(409,703)"/>
<path d="M0 0 C6.56932706 2.06567283 12.53436111 5.06408297 18.6875 8.125 C19.80833984 8.66898438 20.92917969 9.21296875 22.08398438 9.7734375 C32.36145822 14.87936763 42.11866777 20.63139364 49 30 C49.50958252 30.61875 50.01916504 31.2375 50.54418945 31.875 C55.41225728 38.27385437 55.89401681 43.6752786 55.875 51.5625 C55.895625 52.66658203 55.91625 53.77066406 55.9375 54.90820312 C55.98421914 57.6062332 56.00447646 60.30165173 56 63 C49.83576702 60.61818831 43.97353272 57.62978132 38.0625 54.6875 C37.447164 54.38163971 36.831828 54.07577942 36.19784546 53.76065063 C5.39585355 38.39585355 5.39585355 38.39585355 0 33 C-1.22161798 26.7714689 -1.14888098 20.57846092 -1.125 14.25 C-1.12886719 13.20972656 -1.13273438 12.16945313 -1.13671875 11.09765625 C-1.13542969 10.10121094 -1.13414062 9.10476563 -1.1328125 8.078125 C-1.13168457 7.17481445 -1.13055664 6.27150391 -1.12939453 5.34082031 C-1 3 -1 3 0 0 Z " fill="#FBFBFB" transform="translate(210,600)"/>
<path d="M0 0 C3.89316121 0.51867044 6.90878343 1.21742246 10.3125 3.1796875 C11.07820313 3.61410156 11.84390625 4.04851563 12.6328125 4.49609375 C13.41398437 4.95113281 14.19515625 5.40617188 15 5.875 C16.56186664 6.76933618 18.12435412 7.6625891 19.6875 8.5546875 C20.42935547 8.98152832 21.17121094 9.40836914 21.93554688 9.84814453 C23.66245704 10.81166891 25.4363725 11.69029552 27.21875 12.546875 C30.33916099 14.17720209 32.8088786 16.10919951 35.5 18.375 C36.3971875 19.12523437 37.294375 19.87546875 38.21875 20.6484375 C39.1365625 21.42445313 40.054375 22.20046875 41 23 C42.03979004 23.72356689 43.07958008 24.44713379 44.15087891 25.19262695 C47 28 47 28 47.58935547 31.41333008 C47.51604004 32.68587646 47.44272461 33.95842285 47.3671875 35.26953125 C47.32115891 36.29103523 47.32115891 36.29103523 47.27420044 37.33317566 C47.1701114 39.49562314 47.02327267 41.65267755 46.875 43.8125 C46.7966395 45.28305456 46.72108812 46.75376167 46.6484375 48.22460938 C46.46478323 51.81874576 46.24273807 55.40931453 46 59 C41.12254582 57.51609335 36.72421767 55.5081554 32.1875 53.2265625 C31.4555542 52.86154633 30.7236084 52.49653015 29.96948242 52.12045288 C28.42886659 51.35082255 26.88924981 50.57918942 25.35058594 49.80566406 C23.01010473 48.63007546 20.66548568 47.46307013 18.3203125 46.296875 C16.81745162 45.54478358 15.31483906 44.79219574 13.8125 44.0390625 C13.11858154 43.6941275 12.42466309 43.3491925 11.7097168 42.99380493 C9.78975033 42.02466423 7.89554023 41.01585664 6 40 C4.86095215 39.42717285 3.7219043 38.8543457 2.54833984 38.26416016 C0 36 0 36 -0.68115234 32.24121094 C-0.68020715 30.73859736 -0.64657124 29.23576502 -0.5859375 27.734375 C-0.57744781 26.94097717 -0.56895813 26.14757935 -0.56021118 25.33013916 C-0.52668692 22.8020302 -0.4514198 20.27714037 -0.375 17.75 C-0.34489867 16.03390032 -0.31752314 14.31775051 -0.29296875 12.6015625 C-0.22690014 8.39980591 -0.1233937 4.20044819 0 0 Z " fill="#FAFAFA" transform="translate(344,667)"/>
<path d="M0 0 C3.46019857 1.3158068 6.65312391 2.83127797 9.87890625 4.64453125 C10.80123047 5.15693359 11.72355469 5.66933594 12.67382812 6.19726562 C14.57378866 7.25965059 16.47227217 8.32468211 18.36914062 9.39257812 C19.30048828 9.90884766 20.23183594 10.42511719 21.19140625 10.95703125 C22.01842041 11.42085205 22.84543457 11.88467285 23.69750977 12.36254883 C28.67881564 14.83239569 33.86769632 16.86154013 39 19 C39 33.52 39 48.04 39 63 C32.45527075 61.54561572 27.52831855 60.16064647 21.75 57.1875 C20.7290625 56.6915332 20.7290625 56.6915332 19.6875 56.18554688 C15.37606603 54.00894116 12.27142226 51.62914392 9 48 C8.42894531 47.3915625 7.85789062 46.783125 7.26953125 46.15625 C6.78871094 45.6096875 6.30789063 45.063125 5.8125 44.5 C5.32394531 43.9534375 4.83539063 43.406875 4.33203125 42.84375 C-3.36331327 32.19212943 -0.11821842 12.58753359 0 0 Z " fill="#FCFCFC" transform="translate(271,577)"/>
<path d="M0 0 C3.87466003 1.48355919 7.55507231 3.21974812 11.26171875 5.08203125 C11.85241653 5.37808762 12.44311432 5.67414398 13.05171204 5.97917175 C14.93126291 6.92172601 16.80940596 7.86704682 18.6875 8.8125 C19.92894267 9.43573372 21.17047838 10.05878217 22.41210938 10.68164062 C24.73324908 11.84626205 27.053734 13.01215169 29.3737793 14.17895508 C33.91293149 16.45846334 38.456868 18.728434 43 21 C42.67 33.21 42.34 45.42 42 58 C35.79680665 55.93226888 30.36470737 53.91937669 24.6875 50.875 C23.59272339 50.29165894 23.59272339 50.29165894 22.47583008 49.6965332 C15.83535006 46.06856008 9.78941836 41.89154411 4 37 C3.29818604 36.45480713 2.59637207 35.90961426 1.87329102 35.34790039 C-0.69269164 32.13181083 -0.50645448 29.32464616 -0.390625 25.390625 C-0.38496521 24.66381531 -0.37930542 23.93700562 -0.37347412 23.18817139 C-0.35114553 20.87476755 -0.30096048 18.5629328 -0.25 16.25 C-0.22993023 14.67840784 -0.21168029 13.10679132 -0.1953125 11.53515625 C-0.15129293 7.68950283 -0.08229375 3.84501711 0 0 Z " fill="#FDFDFD" transform="translate(383,633)"/>
<path d="M0 0 C3.28849115 1.31539646 6.0299983 2.48435489 9.0390625 4.20703125 C9.77914551 4.62654053 10.51922852 5.0460498 11.28173828 5.47827148 C12.05501465 5.91856689 12.82829102 6.3588623 13.625 6.8125 C22.87376503 12.01225364 32.0503624 16.2688859 42 20 C42 30.23 42 40.46 42 51 C37.98352361 50.19670472 35.52734047 49.45618302 31.97265625 47.70703125 C31.01423828 47.24103516 30.05582031 46.77503906 29.06835938 46.29492188 C28.07642578 45.80572266 27.08449219 45.31652344 26.0625 44.8125 C17.46953403 40.59413489 8.81745456 36.7789091 0 33 C0 22.11 0 11.22 0 0 Z " fill="#FDFDFD" transform="translate(210,548)"/>
<path d="M0 0 C4.64764973 1.43523138 8.97073689 3.31049633 13.33203125 5.44140625 C14.3478553 5.93301491 14.3478553 5.93301491 15.38420105 6.43455505 C16.80442646 7.12283635 18.22379318 7.81289208 19.64233398 8.50463867 C21.8212783 9.56677904 24.00317233 10.62266292 26.18554688 11.67773438 C27.5678852 12.34859401 28.95005289 13.0198054 30.33203125 13.69140625 C30.9861348 14.00807755 31.64023834 14.32474884 32.31416321 14.65101624 C36.8841784 16.8841784 36.8841784 16.8841784 38 18 C38.01693598 20.37807798 37.97130138 22.72310663 37.87890625 25.09765625 C37.84348976 26.16094398 37.84348976 26.16094398 37.80735779 27.24571228 C37.73055354 29.51817021 37.64660225 31.79030157 37.5625 34.0625 C37.50929604 35.59959319 37.45655554 37.1367025 37.40429688 38.67382812 C37.27491595 42.44942703 37.1391231 46.22474803 37 50 C36.47680176 49.80365967 35.95360352 49.60731934 35.41455078 49.4050293 C18.56790045 42.88273186 18.56790045 42.88273186 1 39 C0.17538604 25.98287961 -0.12368859 13.04227517 0 0 Z " fill="#FDFDFD" transform="translate(328,606)"/>
<path d="M0 0 C3.16902622 1.25063853 6.30010336 2.55384851 9.40625 3.953125 C10.22697998 4.32244141 11.04770996 4.69175781 11.89331055 5.07226562 C12.75351807 5.46091797 13.61372559 5.84957031 14.5 6.25 C15.82608276 6.84844727 15.82608276 6.84844727 17.17895508 7.45898438 C19.78686936 8.63734892 22.3937054 9.8180579 25 11 C25.72106934 11.32677734 26.44213867 11.65355469 27.18505859 11.99023438 C37.81871617 16.81871617 37.81871617 16.81871617 39 18 C39.0883967 20.3756852 39.11530305 22.72208674 39.09765625 25.09765625 C39.0962413 25.80651474 39.09482635 26.51537323 39.09336853 27.24571228 C39.08775443 29.51801712 39.07519963 31.79022475 39.0625 34.0625 C39.05748681 35.59960796 39.05292359 37.13671745 39.04882812 38.67382812 C39.03778042 42.44925642 39.02050641 46.22461171 39 50 C36.0032011 48.81580723 33.03666925 47.59520966 30.1015625 46.265625 C29.02152954 45.77980957 29.02152954 45.77980957 27.91967773 45.28417969 C26.36174643 44.58204148 24.80397178 43.87955557 23.24633789 43.17675781 C19.37057394 41.44377839 15.49448501 39.77462234 11.51953125 38.28125 C10.48481689 37.89018066 10.48481689 37.89018066 9.42919922 37.49121094 C7.53975553 36.7880544 5.64309049 36.10439235 3.74609375 35.421875 C1 34 1 34 0.33447266 32.34570312 C-0.11042778 29.22555469 -0.11101261 26.19897702 -0.09765625 23.046875 C-0.0962413 22.38665344 -0.09482635 21.72643188 -0.09336853 21.04620361 C-0.08779245 18.94742206 -0.07524447 16.84874905 -0.0625 14.75 C-0.0574819 13.32291821 -0.05291954 11.89583475 -0.04882812 10.46875 C-0.03783088 6.97913168 -0.0205828 3.48957644 0 0 Z " fill="#FDFDFD" transform="translate(153,522)"/>
<path d="M0 0 C5.03899282 0.83983214 8.31581316 1.83402772 12.875 3.875 C16.62889877 5.54122138 20.35692 7.18111984 24.25 8.5 C25.50195723 8.99507888 26.75158414 9.4960577 28 10 C28.82967285 10.29148926 29.6593457 10.58297852 30.51416016 10.88330078 C33.62870179 12.27844556 35.651927 13.50081339 38 16 C39.41619727 21.46444154 39.26619691 26.7648572 39.125 32.375 C39.12305648 33.88932391 39.12561553 35.4036607 39.1328125 36.91796875 C39.14061096 40.61356269 39.08695695 44.30528172 39 48 C34.14857417 46.51486965 29.73241758 44.53531013 25.1953125 42.3046875 C24.4713327 41.95238068 23.74735291 41.60007385 23.00143433 41.23709106 C20.70757882 40.1198625 18.41626996 38.99752003 16.125 37.875 C14.56266588 37.11294109 13.0001675 36.35121881 11.4375 35.58984375 C7.62276707 33.73107261 3.81152618 31.86539576 0 30 C0 20.1 0 10.2 0 0 Z " fill="#FBFBFB" transform="translate(153,576)"/>
<path d="M0 0 C1.00244751 0.39324463 1.00244751 0.39324463 2.02514648 0.79443359 C15.45203392 6.00301084 27.58635884 10.09103164 42 11 C42 21.89 42 32.78 42 44 C32.51236851 39.30136345 23.07817894 34.51473368 13.6875 29.625 C12.67937256 29.10131836 11.67124512 28.57763672 10.63256836 28.03808594 C9.68518799 27.5434082 8.73780762 27.04873047 7.76171875 26.5390625 C6.91569092 26.09771973 6.06966309 25.65637695 5.19799805 25.20166016 C3 24 3 24 0 22 C-0.34057617 19.75341797 -0.34057617 19.75341797 -0.29296875 16.9921875 C-0.28330078 16.00605469 -0.27363281 15.01992188 -0.26367188 14.00390625 C-0.23853516 12.97136719 -0.21339844 11.93882812 -0.1875 10.875 C-0.17396484 9.83472656 -0.16042969 8.79445313 -0.14648438 7.72265625 C-0.11105228 5.14792373 -0.06165221 2.5742167 0 0 Z " fill="#FCFCFC" transform="translate(284,650)"/>
<path d="M0 0 C0 3 0 3 -1.78515625 5.19140625 C-4.88117351 9.11739639 -6.4355234 13.41251897 -8.26757812 18.02929688 C-10.23334553 22.77502824 -12.53264168 26.19958496 -16 30 C-24.05115603 28.29687084 -32.12098134 25.58601244 -39 21 C-39 20.01 -39 19.02 -39 18 C-38.42668945 17.72849121 -37.85337891 17.45698242 -37.26269531 17.17724609 C-34.59117371 15.91113989 -31.9204532 14.64335814 -29.25 13.375 C-28.2902124 12.91931641 -27.3304248 12.46363281 -26.34155273 11.99414062 C-20.33724688 9.13567139 -14.37569028 6.21906102 -8.47265625 3.15625 C-5.70807729 1.8634927 -2.90924218 0.91469623 0 0 Z " fill="#F9F9F9" transform="translate(529,294)"/>
<path d="M0 0 C1.81513185 0.91201478 3.40138434 1.92091559 4.84375 3.36328125 C5.68739604 8.00333446 3.62657896 10.83048981 1.23046875 14.59375 C-0.15625 16.36328125 -0.15625 16.36328125 -3.15625 18.36328125 C-8.7104501 18.90781067 -13.22215933 17.83599795 -18.15625 15.36328125 C-20.15625 13.36328125 -20.15625 13.36328125 -20.46875 9.55078125 C-20.37899109 5.75328891 -19.5488319 3.40001982 -17.15625 0.36328125 C-12.48533768 -1.97217491 -4.93324019 -1.45673578 0 0 Z " fill="#050505" transform="translate(553.15625,533.63671875)"/>
<path d="M0 0 C5.7351708 1.94995807 9.8038745 5.91700523 13 11 C13.21040864 14.7172193 12.79042744 16.08796834 10.375 18.875 C6.45645347 20.73115362 3.04348761 20.72260208 -1.0546875 19.2734375 C-6.01367274 16.97171982 -10.48398139 14.03203722 -13 9 C-13.37909782 5.51230007 -13.36098167 3.61209936 -11.5625 0.5625 C-7.62465985 -1.83862204 -4.35825303 -1.03622799 0 0 Z " fill="#050505" transform="translate(536,447)"/>
<path d="M0 0 C3.73830773 0.76386474 5.32302082 2.60459736 7.66015625 5.49609375 C8.8553276 8.29203758 8.56006036 9.67714694 7.5234375 12.515625 C5.6328125 14.46484375 5.6328125 14.46484375 3.2734375 16.203125 C2.50515625 16.78449219 1.736875 17.36585938 0.9453125 17.96484375 C-4.64108659 21.54194123 -8.10649809 21.87317971 -14.4765625 20.515625 C-17.02598388 16.69149294 -17.07272851 15.06139084 -16.4765625 10.515625 C-12.39354612 3.38000647 -8.37773149 -0.14740877 0 0 Z " fill="#060606" transform="translate(588.4765625,502.484375)"/>
<path d="M0 0 C4.17915836 0.68231157 6.7239633 1.64261683 9.26171875 5.1640625 C12.10993477 10.18092019 12.95408928 14.79165397 12.0625 20.5 C10.875 23.5 10.875 23.5 9.0625 25.5 C5.79739797 26.91193601 4.36630028 26.6054001 1 25.4375 C-2.8912115 22.87095624 -4.96034279 19.94289301 -6.6875 15.625 C-7.7107342 6.92750929 -7.7107342 6.92750929 -5.3125 2.5 C-2.9375 0.5 -2.9375 0.5 0 0 Z " fill="#040404" transform="translate(466.9375,472.5)"/>
<path d="M0 0 C3.49100707 0.56996034 5.31350827 1.27108778 8.0625 3.5 C11.27453931 8.26267897 11.69114569 11.93199528 11.0625 17.5 C9.19234906 19.93119623 7.78111655 21.14069173 5.0625 22.5 C1.52731427 22.88425932 -0.26113198 22.98848801 -3.1875 20.875 C-6.69558222 16.11403127 -7.57474489 11.34141146 -6.9375 5.5 C-4.97248824 1.94786335 -4.04590828 0.68866524 0 0 Z " fill="#030303" transform="translate(486.9375,512.5)"/>
</svg>
