<?xml version="1.0" encoding="UTF-8"?>
<svg version="1.1" xmlns="http://www.w3.org/2000/svg" width="1024" height="1024">
<path d="M0 0 C337.92 0 675.84 0 1024 0 C1024 337.92 1024 675.84 1024 1024 C686.08 1024 348.16 1024 0 1024 C0 686.08 0 348.16 0 0 Z " fill="#010101" transform="translate(0,0)"/>
<path d="M0 0 C337.92 0 675.84 0 1024 0 C1024 337.92 1024 675.84 1024 1024 C686.08 1024 348.16 1024 0 1024 C0 686.08 0 348.16 0 0 Z M137.625 122.4375 C134.85482829 126.8058477 133.7501052 130.33869561 133.748151 135.51172817 C133.74288774 136.6163018 133.73762448 137.72087543 133.73220173 138.85892099 C133.73659821 140.06950491 133.74099469 141.28008882 133.74552441 142.5273571 C133.74231793 143.82094664 133.73911145 145.11453618 133.73580781 146.44732541 C133.72716324 150.05207618 133.73102439 153.65672324 133.73686353 157.26147569 C133.74102366 161.17785342 133.73363767 165.09421186 133.72771102 169.01058495 C133.71893298 175.87927662 133.71764259 182.74793848 133.72121429 189.61663437 C133.72651154 199.83055247 133.72043587 210.04444162 133.71213136 220.25835657 C133.6968703 239.5597718 133.69518845 258.86117394 133.69765439 278.16259395 C133.69948526 293.06468751 133.69773178 307.96677676 133.69342995 322.86886978 C133.69282755 325.00793794 133.69222635 327.1470061 133.69162634 329.28607426 C133.69071912 332.5092329 133.68981045 335.73239155 133.68889399 338.95555019 C133.68046124 368.93292129 133.676131 398.91029077 133.68030071 428.88766289 C133.68045709 430.01836152 133.68061346 431.14906015 133.68077458 432.31402237 C133.68158039 438.04517615 133.68242616 443.77632993 133.68328788 449.50748371 C133.68345897 450.64575953 133.68363006 451.78403535 133.68380633 452.95680439 C133.68415298 455.25867589 133.68450151 457.56054739 133.68485192 459.8624189 C133.69020996 495.68514447 133.68227764 531.50784543 133.66381836 567.33056641 C133.64311535 607.55489896 133.63237239 647.77921628 133.63639385 688.00355446 C133.63678921 692.29020254 133.63715075 696.57685061 133.63749123 700.86349869 C133.63758196 701.91902119 133.63767269 702.9745437 133.63776617 704.06205173 C133.63893351 720.01571784 133.63227347 735.96936858 133.62167931 751.92303085 C133.60964714 770.06095732 133.60804541 788.19884988 133.62046947 806.33677684 C133.62711462 816.49336057 133.62542902 826.6498633 133.61188096 836.80644061 C133.60366548 843.58529395 133.60629605 850.36408631 133.61785623 857.14293465 C133.62414158 861.00892072 133.62563942 864.87474819 133.61399289 868.74072538 C133.6015749 872.9009319 133.61223981 877.06075616 133.62526989 881.22096062 C133.61796054 882.4268622 133.6106512 883.63276379 133.60312036 884.87520784 C133.64893228 891.88233673 133.91531369 897.48065335 138.71875 902.9609375 C139.3065625 903.42757812 139.894375 903.89421875 140.5 904.375 C141.0878125 904.85710938 141.675625 905.33921875 142.28125 905.8359375 C145.48761315 908.00751981 148.2866291 908.12552059 152.03775948 908.1276505 C153.0874127 908.13066647 154.13706592 908.13368244 155.21852681 908.1367898 C156.95762682 908.13413559 156.95762682 908.13413559 158.73186016 908.13142776 C159.96374934 908.1334804 161.19563852 908.13553303 162.46485767 908.13764787 C165.90587918 908.14235103 169.34684877 908.14253903 172.78786969 908.14087028 C176.52331349 908.14014116 180.25875019 908.14515745 183.99419099 908.1494453 C191.41272278 908.15703819 198.83124737 908.15921901 206.24978264 908.15977435 C215.13168024 908.16068672 224.01357115 908.16735048 232.89546588 908.17412117 C254.36520282 908.1901966 275.83493907 908.19608616 297.30468096 908.20086992 C307.45727625 908.20320428 317.60987099 908.20680675 327.76246584 908.2105653 C362.50207255 908.22340203 397.24167893 908.23412123 431.98128796 908.2375679 C434.16287457 908.23778954 436.34446118 908.23801132 438.52604778 908.23823325 C440.71296608 908.2384539 442.89988437 908.23867438 445.08680266 908.2388947 C449.47429097 908.23933726 453.86177927 908.23978437 458.24926758 908.24023438 C459.88103597 908.24039846 459.88103597 908.24039846 461.54576937 908.24056586 C496.82763053 908.24419735 532.10947116 908.26012025 567.39132445 908.28342474 C604.67564368 908.30800697 641.95995116 908.32173999 679.24427873 908.32293582 C683.33522404 908.32310728 687.42616934 908.32332271 691.51711464 908.32357025 C692.52445245 908.32362602 693.53179027 908.32368179 694.56965347 908.32373925 C710.79815533 908.32489109 727.02663615 908.33592437 743.2551309 908.35045731 C759.55953021 908.364806 775.86390249 908.36806851 792.16830637 908.36001733 C801.86032023 908.3555534 811.55224698 908.35945212 821.24424943 908.37525584 C827.71477698 908.38498209 834.18524329 908.38385017 840.65577024 908.37381961 C844.34487511 908.36841052 848.03381232 908.36777204 851.72290351 908.38032833 C855.69499407 908.39373529 859.66683482 908.38399305 863.63893414 908.3719368 C864.78662831 908.37953199 865.93432249 908.38712718 867.11679527 908.39495254 C874.40012594 908.34696636 880.95523532 908.04476468 886.375 902.625 C889.11019086 898.20661477 890.24988905 894.67739093 890.251849 889.47429711 C890.25974389 887.81275207 890.25974389 887.81275207 890.26779827 886.11764047 C890.26120355 884.29652278 890.26120355 884.29652278 890.25447559 882.43861485 C890.25768207 881.14134896 890.26088855 879.84408307 890.26419219 878.5075061 C890.2728369 874.89245166 890.26897555 871.27750065 890.26313647 867.66244454 C890.2589764 863.73491218 890.26636229 859.80739905 890.27228898 855.87987131 C890.28106706 848.99162455 890.28235739 842.10340752 890.27878571 835.21515656 C890.2734885 824.97221386 890.27956407 814.72930006 890.28786864 804.48636051 C890.30312957 785.13042332 890.30481158 765.77449918 890.30234561 746.41855723 C890.30051479 731.47497911 890.30226812 716.53140527 890.30657005 701.58782768 C890.30717245 699.44286109 890.30777364 697.29789451 890.30837366 695.15292792 C890.30928088 691.92089528 890.31018955 688.68886264 890.31110601 685.45683 C890.31953868 655.39729383 890.32386904 625.33775927 890.31969929 595.27822208 C890.31954291 594.14443252 890.31938654 593.01064295 890.31922542 591.84249612 C890.31841961 586.09566127 890.31757384 580.34882644 890.31671212 574.6019916 C890.31654103 573.4605987 890.31636994 572.3192058 890.31619367 571.14322523 C890.31584702 568.83505062 890.31549849 566.526876 890.31514808 564.21870138 C890.30978965 528.29528666 890.31772349 492.37189647 890.33618164 456.44848633 C890.35688268 416.11246201 890.36762802 375.77645289 890.36360615 335.44042295 C890.36321079 331.142278 890.36284925 326.84413304 890.36250877 322.54598808 C890.36241804 321.48763185 890.36232731 320.42927563 890.36223383 319.338848 C890.36106631 303.33976926 890.36772788 287.34070584 890.37832069 271.34163094 C890.39035035 253.15353691 890.39195747 234.96547671 890.37953053 216.7773822 C890.37288326 206.59170508 890.37457584 196.40610873 890.38811904 186.22043801 C890.39633034 179.42346821 890.39370946 172.62655924 890.38214377 165.82959443 C890.37585424 161.95244097 890.37437116 158.07544573 890.38600711 154.19830108 C890.39840876 150.02781476 890.38777003 145.85771047 890.37473011 141.6872263 C890.38569413 139.86962036 890.38569413 139.86962036 890.39687964 138.01529512 C890.36657519 130.08088465 890.36657519 130.08088465 887 123 C879.60582356 115.77013859 872.75584953 115.70755806 862.93023109 115.74273109 C861.69825713 115.73922502 860.46628317 115.73571895 859.19697666 115.73210663 C855.76964686 115.72439247 852.34253108 115.72565031 848.91521014 115.73066217 C845.18944823 115.73392646 841.46370915 115.72564822 837.7379545 115.71884382 C831.20546511 115.70853007 824.67300537 115.70570241 818.14050865 115.70775604 C808.42647604 115.71080243 798.71247631 115.70249013 788.99845009 115.69200679 C770.64121568 115.67264962 752.28399242 115.66703794 733.92674901 115.66589268 C719.75313932 115.66497419 705.57953401 115.66086062 691.40592575 115.65449142 C687.32857494 115.65269639 683.25122412 115.65091676 679.17387331 115.64914167 C677.65348962 115.64847852 677.65348962 115.64847852 676.10239112 115.64780198 C647.58646807 115.63549111 619.07054656 115.62760111 590.55462074 115.62848854 C589.47917918 115.6285197 588.40373761 115.62855086 587.29570691 115.62858296 C581.84470424 115.62874918 576.39370158 115.62894726 570.94269891 115.62915237 C569.31876363 115.62921221 569.31876363 115.62921221 567.66202158 115.62927325 C565.47269299 115.62935413 563.28336439 115.62943772 561.0940358 115.62952404 C527.02328545 115.63074985 492.9525749 115.61573185 458.88183594 115.58837891 C420.61976773 115.55767384 382.35772567 115.54044543 344.09564435 115.54230535 C340.01766483 115.54245462 335.93968531 115.54255203 331.86170578 115.54261398 C330.85757377 115.54263729 329.85344175 115.5426606 328.8188815 115.54268462 C312.64353948 115.54274622 296.46823194 115.52996196 280.29290017 115.51274945 C264.0437491 115.49581569 247.79464862 115.49380143 231.54549362 115.5069681 C221.88676748 115.51437213 212.22819475 115.51065602 202.56948479 115.49108342 C196.12124973 115.47911831 189.67312623 115.48163567 183.22489636 115.49602441 C179.54854166 115.50381685 175.87248466 115.5052552 172.1961505 115.48910971 C168.23777061 115.47187743 164.27984118 115.48550684 160.32145119 115.50222206 C159.17782325 115.4922857 158.0341953 115.48234934 156.85591197 115.47211188 C149.02424359 115.54241049 143.30760574 116.605352 137.625 122.4375 Z " fill="#FEFEFE" transform="translate(0,0)"/>
<path d="M0 0 C231.66 0 463.32 0 702 0 C702 104.28 702 208.56 702 316 C690.12 316 678.24 316 666 316 C665.99413376 313.31978729 665.98826752 310.63957458 665.98222351 307.87814331 C665.92560341 282.65647532 665.85254781 257.43489338 665.76428509 232.21331596 C665.71930178 219.24573453 665.67989292 206.27818071 665.65356445 193.31054688 C665.63060496 182.00918457 665.5972298 170.70790949 665.55129844 159.40661633 C665.52733869 153.42156559 665.50862791 147.43660138 665.50238609 141.45150375 C665.49634776 135.81922018 665.47639297 130.1871581 665.44572449 124.55495644 C665.43692422 122.48696873 665.43322578 120.4189521 665.43499184 118.35094643 C665.43664139 115.52829359 665.41997221 112.70631849 665.39872742 109.88375854 C665.40357499 109.06468171 665.40842257 108.24560488 665.41341704 107.40170753 C665.35305022 102.54457336 664.67435624 99.21376988 662 95 C657.48618932 91.55524974 652.91686408 90.88325957 647.35246277 90.85282898 C646.44842209 90.84567368 645.54438141 90.83851837 644.61294556 90.83114624 C643.14394302 90.82711288 643.14394302 90.82711288 641.64526367 90.82299805 C640.60399826 90.81642685 639.56273285 90.80985565 638.48991394 90.80308533 C635.04926477 90.78339879 631.60865911 90.7717012 628.16796875 90.76171875 C626.99102259 90.75764322 625.81407642 90.7535677 624.60146523 90.74936867 C618.37420453 90.72852966 612.14696573 90.71421745 605.91967773 90.70483398 C599.49374403 90.69376267 593.06815593 90.65934775 586.64234447 90.61966228 C581.69488384 90.59350412 576.74750577 90.58514292 571.79998207 90.58155251 C569.43135552 90.57668604 567.06273268 90.56507041 564.69417381 90.54651451 C561.37681079 90.52213674 558.06034532 90.52308584 554.74291992 90.5300293 C553.76965759 90.51721924 552.79639526 90.50440918 551.79364014 90.49121094 C544.70166065 90.5451785 539.23238169 91.88808129 534.02404785 96.90231323 C532.71263033 99.58865566 532.6214991 101.57486594 532.61523438 104.56298828 C532.60006775 106.23459518 532.60006775 106.23459518 532.58459473 107.93997192 C532.58761597 109.13798431 532.59063721 110.3359967 532.59375 111.5703125 C532.58291382 112.80288788 532.57207764 114.03546326 532.56091309 115.3053894 C532.52076409 119.91569912 532.5068617 124.52591243 532.49468994 129.13635254 C532.48135495 133.65622652 532.44604676 138.17560638 532.40625 142.6953125 C532.40927124 143.89737335 532.41229248 145.0994342 532.41540527 146.33792114 C532.40023865 148.00007156 532.40023865 148.00007156 532.38476562 149.69580078 C532.38168396 151.16329269 532.38168396 151.16329269 532.37854004 152.66043091 C532.19116272 153.81851761 532.19116272 153.81851761 532 155 C528.60102327 157.26598448 527.43680827 157.23742654 523.45703125 157.1953125 C521.84731445 157.18564453 521.84731445 157.18564453 520.20507812 157.17578125 C518.52575195 157.15064453 518.52575195 157.15064453 516.8125 157.125 C515.68134766 157.11597656 514.55019531 157.10695313 513.38476562 157.09765625 C510.58963172 157.07406862 507.79492155 157.041153 505 157 C504.99120064 155.95216591 504.99120064 155.95216591 504.98222351 154.88316345 C504.92415296 148.27757958 504.85199499 141.67231419 504.76428509 135.06705379 C504.71968929 131.67176151 504.68041026 128.27658622 504.65356445 124.88110352 C504.62241318 120.97126014 504.56762824 117.06191449 504.51171875 113.15234375 C504.50213387 111.33632912 504.50213387 111.33632912 504.49235535 109.48362732 C504.32346855 99.52946801 504.32346855 99.52946801 499.3125 91.1875 C491.61711782 87.23581726 483.2993766 87.69328912 474.8671875 87.69921875 C473.50293855 87.69532431 472.1386908 87.69098812 470.77444458 87.68623352 C467.92852833 87.67880928 465.08273626 87.67903616 462.23681641 87.68432617 C458.60090719 87.69013596 454.96550489 87.67313563 451.32967949 87.6499815 C448.51743633 87.63521506 445.70531476 87.63437604 442.8930397 87.63749123 C440.9044902 87.63673297 438.91595947 87.6228966 436.92745972 87.60881042 C435.10494186 87.61815361 435.10494186 87.61815361 433.24560547 87.62768555 C432.18163544 87.62705612 431.11766541 87.6264267 430.02145386 87.6257782 C426.35510948 88.07987284 424.08448485 88.95805198 421 91 C417.74237099 96.03680725 417.56763166 100.24342489 417.60127258 106.03561401 C417.59462576 106.93503853 417.58797893 107.83446305 417.58113068 108.76114285 C417.56250703 111.76910022 417.56510557 114.77665959 417.56762695 117.78466797 C417.55860942 119.94316672 417.54828223 122.10166035 417.53674316 124.26014709 C417.50914612 130.11705652 417.49988492 135.97386884 417.49388909 141.83083487 C417.48451252 147.95278369 417.45830968 154.07465978 417.43388367 160.19656372 C417.39019533 171.78799559 417.36166265 183.37941337 417.33856028 194.97090256 C417.30646568 210.63537252 417.25098939 226.29975848 417.19681454 241.96416473 C417.11208155 266.64275154 417.05861443 291.32130534 417 316 C371.79 316 326.58 316 280 316 C277.36 300.49 274.72 284.98 272 269 C270.08025835 258.17070885 270.08025835 258.17070885 268.12255859 247.34866333 C267.19219335 242.25579238 266.27210466 237.16106038 265.3515625 232.06640625 C265.06457489 230.47870674 265.06457489 230.47870674 264.77178955 228.8589325 C262.68695926 217.30221665 260.65659719 205.73602631 258.6315918 194.16870117 C258.00358494 190.58296891 257.37403169 186.99751108 256.74414062 183.41210938 C254.85114698 172.62813121 252.96840524 161.84268411 251.12506104 151.0500946 C250.32228877 146.35675837 249.51197204 141.66474058 248.70068359 136.97286987 C248.32194433 134.77032356 247.94684215 132.5671482 247.57568359 130.36331177 C245.70234963 112.10803478 245.70234963 112.10803478 237 97 C231.4831433 95.16104777 225.5287403 95.3011509 219.75 94.9375 C219.05493347 94.89330933 218.35986694 94.84911865 217.64373779 94.80358887 C199.33527991 93.65914574 181.1757319 93.05316536 163 96 C162.23042969 96.06316406 161.46085938 96.12632812 160.66796875 96.19140625 C158.71994359 96.91267275 158.71994359 96.91267275 157.92163086 99.46704102 C156.78558342 103.82193968 156.64727544 107.8543105 156.5859375 112.3359375 C156.55688828 113.65496567 156.55688828 113.65496567 156.5272522 115.00064087 C156.46777185 117.79199718 156.4211979 120.58339543 156.375 123.375 C156.33679115 125.27475694 156.29773774 127.1744971 156.2578125 129.07421875 C156.16051636 133.71605538 156.08069825 138.35772678 156 143 C147.09 143 138.18 143 129 143 C128.30545391 134.2156998 127.90443142 125.49464636 127.7890625 116.68359375 C127.76764191 115.1935936 127.76764191 115.1935936 127.74578857 113.67349243 C127.68801988 109.54303061 127.63314877 105.41271176 127.59863281 101.28198242 C127.571049 98.22802593 127.52525976 95.17477683 127.4765625 92.12109375 C127.47330963 91.19292343 127.47005676 90.26475311 127.46670532 89.30845642 C127.35334749 83.34111385 126.63872515 78.73645571 122.3125 74.25 C114.71881211 70.14530384 106.25268561 70.69332196 97.8671875 70.69921875 C96.50293855 70.69532431 95.1386908 70.69098812 93.77444458 70.68623352 C90.92852833 70.67880928 88.08273626 70.67903616 85.23681641 70.68432617 C81.60090719 70.69013596 77.96550489 70.67313563 74.32967949 70.6499815 C71.51743633 70.63521506 68.70531476 70.63437604 65.8930397 70.63749123 C63.9044902 70.63673297 61.91595947 70.6228966 59.92745972 70.60881042 C58.10494186 70.61815361 58.10494186 70.61815361 56.24560547 70.62768555 C55.18163544 70.62705612 54.11766541 70.6264267 53.02145386 70.6257782 C49.23281562 71.09501953 47.10725613 71.73469004 44 74 C40.95132827 80.05765799 40.56461731 86.27085307 40.60127258 92.9278717 C40.59462576 93.88702923 40.58797893 94.84618675 40.58113068 95.83440965 C40.56257934 99.02651654 40.5651007 102.21824599 40.56762695 105.41040039 C40.55860501 107.70727057 40.54827673 110.00413593 40.53674316 112.30099487 C40.50919802 118.52135069 40.49989195 124.74161508 40.49388909 130.96202397 C40.48449903 137.46832597 40.45829508 143.97455985 40.43388367 150.4808197 C40.39518945 161.39630118 40.36682923 172.31176448 40.34643555 183.22729492 C40.32540794 194.46690502 40.29811735 205.70647134 40.26245117 216.94604492 C40.26025235 217.63965038 40.25805352 218.33325584 40.25578807 219.04787964 C40.24471797 222.52773287 40.23352524 226.00758569 40.22227156 229.48743832 C40.12917095 258.32491954 40.05835284 287.16242858 40 316 C26.8 316 13.6 316 0 316 C0 211.72 0 107.44 0 0 Z " fill="#FEFEFE" transform="translate(161,450)"/>
<path d="M0 0 C231.33 0 462.66 0 701 0 C701 92.4 701 184.8 701 280 C690.77 280 680.54 280 670 280 C669.99413376 277.46790359 669.98826752 274.93580719 669.98222351 272.32698059 C669.92561192 248.50303166 669.85256075 224.6791739 669.76428509 200.85532093 C669.71929514 188.60627413 669.67988785 176.35725661 669.65356445 164.1081543 C669.6306103 153.43342509 669.5972412 142.75878831 669.55129844 132.08413237 C669.52733142 126.43054844 669.50862543 120.77705623 669.50238609 115.12342262 C669.496351 109.80385168 669.4764082 104.48451556 669.44572449 99.16503143 C669.43691896 97.21111619 669.43322686 95.25717029 669.43499184 93.30323601 C669.43663951 90.63786362 669.41998871 87.97321138 669.39872742 85.30793762 C669.40357499 84.53263933 669.40842257 83.75734103 669.41341704 82.95854884 C669.35419868 78.46805177 668.80027113 75.55640193 666 72 C661.67019302 69.19541807 658.27777449 68.622174 653.171875 68.61181641 C652.5173938 68.60655945 651.8629126 68.60130249 651.18859863 68.59588623 C649.04215061 68.58276744 646.89645453 68.59139464 644.75 68.6015625 C643.24837096 68.59953941 641.74674288 68.59662602 640.24511719 68.59286499 C637.10472214 68.58845266 633.96458385 68.59483723 630.82421875 68.60888672 C626.80934204 68.62597823 622.79506707 68.61613114 618.7802124 68.59816933 C615.68143218 68.58730179 612.58279339 68.59079138 609.48400879 68.5985527 C608.00410897 68.60054652 606.52419609 68.59812433 605.04431152 68.59111404 C602.97190591 68.58345015 600.90045961 68.59517089 598.828125 68.61181641 C597.6515332 68.61420319 596.47494141 68.61658997 595.26269531 68.61904907 C591.57269343 69.04989214 589.16810145 70.08727566 586 72 C581.70243385 77.51627893 582.44016008 84.69453572 582.3125 91.375 C582.209375 95.54125 582.10625 99.7075 582 104 C573.42 104 564.84 104 556 104 C555.96261719 101.96457031 555.92523437 99.92914063 555.88671875 97.83203125 C555.83802506 95.84950244 555.78922806 93.86697472 555.73754883 91.88452148 C555.70440194 90.51224042 555.67633829 89.13982638 555.65356445 87.76733398 C555.61983234 85.78862234 555.5659851 83.81028624 555.51171875 81.83203125 C555.47244263 80.04889526 555.47244263 80.04889526 555.43237305 78.22973633 C554.95121148 74.63555992 554.11624926 72.91726588 552 70 C544.18236696 65.18517477 534.90496311 65.35025278 526.0234375 65.28515625 C524.60338375 65.26248438 523.18334937 65.23856971 521.76333618 65.21348572 C518.80675572 65.16549469 515.85041972 65.13081728 512.89355469 65.10620117 C509.12643436 65.07399224 505.36061485 65.01059808 501.59409142 64.93750858 C498.66864222 64.88380412 495.74314396 64.84549162 492.81740189 64.81179619 C491.42923354 64.79424036 490.04111244 64.77232789 488.65308762 64.74574471 C477.4576539 64.44384051 477.4576539 64.44384051 467 68 C465.37667665 70.38788787 465.37667665 70.38788787 465 73 C464.67 73.99 464.34 74.98 464 76 C463.89429713 78.71000148 463.84515876 81.39494389 463.84178162 84.10539246 C463.83437465 85.35880439 463.83437465 85.35880439 463.82681805 86.63753778 C463.81141674 89.4474027 463.8030753 92.25724473 463.79467773 95.06713867 C463.78510128 97.0774099 463.77509134 99.0876791 463.76467896 101.09794617 C463.73759862 106.56452341 463.71660599 112.03110931 463.69667697 117.49771667 C463.67483671 123.20725957 463.64743844 128.91677569 463.62062073 134.626297 C463.57066731 145.44221886 463.52573831 156.25815557 463.48259836 167.07410651 C463.42402603 181.68678968 463.35772495 196.29943763 463.29184818 210.91208935 C463.18823206 233.94136918 463.09497044 256.97067913 463 280 C408.88 280 354.76 280 299 280 C298.67 276.37 298.34 272.74 298 269 C297.128337 265.52754619 297.128337 265.52754619 295.88500977 262.44433594 C295.44905991 261.28508606 295.01311005 260.12583618 294.56394958 258.93145752 C294.09038528 257.71142029 293.61682098 256.49138306 293.12890625 255.234375 C292.63003917 253.91749487 292.13280631 252.59999464 291.63710022 251.28192139 C290.8666275 249.23411253 290.09509877 247.18676692 289.31850719 245.14126968 C286.87091208 238.69415291 284.52605229 232.212279 282.20379257 225.71914291 C281.5228022 223.81542907 280.83994973 221.91239305 280.15652466 220.009552 C279.22692655 217.42108428 278.2979403 214.83239871 277.36962891 212.24346924 C275.88804691 208.11165978 274.40508672 203.98034576 272.921875 199.84912109 C272.67013582 199.14793844 272.41839664 198.44675579 272.15902901 197.72432518 C271.6502443 196.30718352 271.14145587 194.8900432 270.63266373 193.47290421 C269.87414203 191.36005342 269.11575318 189.247155 268.35739136 187.13424683 C265.25506378 178.49130958 262.14783766 169.85015262 259.03515625 161.2109375 C258.65081924 160.14410736 258.26648224 159.07727722 257.87049866 157.9781189 C256.38190166 153.84654249 254.89312263 149.71503228 253.40322876 145.58392334 C249.47278933 134.68546988 245.56097089 123.78099235 241.6953125 112.859375 C241.00200554 110.90411553 240.30864716 108.94887429 239.61523438 106.99365234 C238.3269246 103.36055956 237.04524799 99.72522499 235.76757812 96.08837891 C235.19165453 94.46247714 234.61549629 92.83665846 234.0390625 91.2109375 C233.66371872 90.13329132 233.66371872 90.13329132 233.28079224 89.03387451 C230.28548242 79.96651606 230.28548242 79.96651606 224.25 73 C215.35607119 70.26340652 208.22903118 73.30967487 199.8125 76.375 C198.54315417 76.8282718 197.27336986 77.28031736 196.00317383 77.73120117 C194.02482978 78.43372956 192.04691543 79.13729302 190.07066345 79.84568787 C185.37544969 81.52619431 180.66040378 83.13732464 175.9296875 84.71484375 C174.61866529 85.15490687 173.30771059 85.59517115 171.99682617 86.03564453 C169.51525108 86.86946637 167.03103237 87.69300366 164.54418945 88.51123047 C153.90100666 91.67878654 153.90100666 91.67878654 145.92546082 98.81951904 C143.15978005 105.33574765 145.36014628 112.34397587 147.625 118.68359375 C147.89135254 119.46517349 148.15770508 120.24675323 148.43212891 121.05201721 C149.27527953 123.51847667 150.13679583 125.97799573 151 128.4375 C151.85939343 130.9231561 152.71493252 133.41008644 153.56787109 135.89796448 C154.09747855 137.43871809 154.63151445 138.9779581 155.17041016 140.51548767 C157 145.78188565 157 145.78188565 157 148 C147.1 148 137.2 148 127 148 C126.98541748 145.42622559 126.97083496 142.85245117 126.95581055 140.20068359 C126.90544304 131.69095185 126.83884404 123.18140267 126.76428509 114.6718502 C126.71958347 109.51318299 126.68032677 104.35459472 126.65356445 99.19580078 C126.62752956 94.21600854 126.58712557 89.23652011 126.53681374 84.25691605 C126.52014633 82.35839241 126.50863127 80.45981623 126.50238609 78.56122971 C126.49274369 75.89905807 126.46468281 73.23766343 126.43237305 70.57568359 C126.43380814 69.79309174 126.43524323 69.01049988 126.4367218 68.20419312 C126.35506541 63.43782095 125.64770245 60.11930945 123 56 C117.62479204 52.68338232 113.10032937 51.87790061 106.8737793 51.83886719 C105.63536789 51.82925964 104.39695648 51.8196521 103.12101746 51.80975342 C101.77208644 51.80490477 100.42315327 51.8006261 99.07421875 51.796875 C97.68422953 51.79111796 96.29424031 51.7853603 94.9042511 51.77960205 C91.99158358 51.76910981 89.07894351 51.76325566 86.16625977 51.75976562 C82.44741609 51.75428719 78.72893969 51.73026598 75.01021099 51.70179367 C72.13874781 51.68310138 69.26737191 51.67795819 66.39585304 51.67642975 C65.02561245 51.6734171 63.65537289 51.66543578 62.28519249 51.65224457 C52.14339488 51.3307378 52.14339488 51.3307378 43 55 C39.74284626 60.03735074 39.56762996 64.24313124 39.60127258 70.03561401 C39.59462576 70.93503853 39.58797893 71.83446305 39.58113068 72.76114285 C39.56250703 75.76910022 39.56510557 78.77665959 39.56762695 81.78466797 C39.55860942 83.94316672 39.54828223 86.10166035 39.53674316 88.26014709 C39.50914612 94.11705652 39.49988492 99.97386884 39.49388909 105.83083487 C39.48451252 111.95278369 39.45830968 118.07465978 39.43388367 124.19656372 C39.39019533 135.78799559 39.36166265 147.37941337 39.33856028 158.97090256 C39.31152117 172.16793038 39.26760883 185.36488513 39.22227156 198.5618608 C39.1293918 225.70786916 39.05832478 252.85389731 39 280 C26.13 280 13.26 280 0 280 C0 187.6 0 95.2 0 0 Z " fill="#FEFEFE" transform="translate(162,143)"/>
<path d="M0 0 C231.66 0 463.32 0 702 0 C702 29.37 702 58.74 702 89 C470.34 89 238.68 89 0 89 C0 59.63 0 30.26 0 0 Z " fill="#FEFEFE" transform="translate(161,792)"/>
<path d="M0 0 C12.21 0 24.42 0 37 0 C38.41934327 4.96770145 39.58844836 9.72829251 40.46118164 14.78808594 C40.59350756 15.53730001 40.72583347 16.28651409 40.86216927 17.05843163 C41.29835161 19.53314178 41.7292616 22.00873916 42.16015625 24.484375 C42.46869028 26.24085174 42.77756075 27.99726941 43.08674622 29.75363159 C43.91202772 34.44688446 44.73283308 39.14090995 45.5528183 43.83509064 C46.40567518 48.71264557 47.26280051 53.58945004 48.11962891 58.46630859 C49.47274271 66.17024481 50.82384109 73.87453132 52.17333984 81.57910156 C54.22220433 93.27501429 56.28435038 104.96855846 58.35131836 116.6612854 C58.87090048 119.60179925 59.38970259 122.54244956 59.90820312 125.4831543 C61.56477809 134.87815372 63.2248771 144.27251255 64.89129639 153.66577148 C65.74360566 158.47101726 66.59466599 163.27648386 67.44561768 168.08197021 C67.85331522 170.38225245 68.2616294 172.68242548 68.67059326 174.98248291 C69.23113772 178.13518949 69.78962415 181.28825416 70.34765625 184.44140625 C70.60001289 185.85594337 70.60001289 185.85594337 70.85746765 187.29905701 C71.00899796 188.15757767 71.16052826 189.01609833 71.31665039 189.90063477 C71.51575768 191.02224754 71.51575768 191.02224754 71.71888733 192.16651917 C72 194 72 194 72 196 C48.57 196 25.14 196 1 196 C0.74922556 161.69316165 0.74922556 161.69316165 0.64453125 146.94726562 C0.57316238 136.89753434 0.50146694 126.84780638 0.42724609 116.7980957 C0.1400754 77.8645867 -0.08056184 38.93486368 0 0 Z " fill="#FEFEFE" transform="translate(343,570)"/>
<path d="M0 0 C12.21 0 24.42 0 37 0 C37 72.27 37 144.54 37 219 C24.79 219 12.58 219 0 219 C0 146.73 0 74.46 0 0 Z " fill="#FBFBFB" transform="translate(227,547)"/>
<path d="M0 0 C13.2 0 26.4 0 40 0 C40 62.04 40 124.08 40 188 C26.8 188 13.6 188 0 188 C0 125.96 0 63.92 0 0 Z " fill="#FEFEFE" transform="translate(651,235)"/>
<path d="M0 0 C12.21 0 24.42 0 37 0 C37 66.66 37 133.32 37 202 C24.79 202 12.58 202 0 202 C0 135.34 0 68.68 0 0 Z " fill="#FBFBFB" transform="translate(227,221)"/>
<path d="M0 0 C11.88 0 23.76 0 36 0 C36 66.66 36 133.32 36 202 C24.12 202 12.24 202 0 202 C0 135.34 0 68.68 0 0 Z " fill="#FEFEFE" transform="translate(604,564)"/>
<path d="M0 0 C11.88 0 23.76 0 36 0 C36 61.71 36 123.42 36 187 C24.12 187 12.24 187 0 187 C0 125.29 0 63.58 0 0 Z " fill="#FEFEFE" transform="translate(770,236)"/>
<path d="M0 0 C0.80273438 1.75791931 0.80273438 1.75791931 1.59375 4.09350586 C1.89660416 4.97513397 2.19945831 5.85676208 2.51148987 6.7651062 C2.83769821 7.73851959 3.16390656 8.71193298 3.5 9.71484375 C4.02115639 11.23901413 4.02115639 11.23901413 4.55284119 12.79397583 C5.30912459 15.00698534 6.06227575 17.2210671 6.81271362 19.43606567 C8.837963 25.40874238 10.89054418 31.37201681 12.94140625 37.3359375 C13.57388023 39.17730034 13.57388023 39.17730034 14.21913147 41.05586243 C18.3609565 53.09337072 22.62015546 65.08694724 26.9375 77.0625 C27.30070343 78.07085907 27.66390686 79.07921814 28.03811646 80.11813354 C34.83977208 98.9785934 41.83005042 117.76867081 48.89624023 136.53149414 C49.47601624 138.07614098 49.47601624 138.07614098 50.06750488 139.6519928 C50.7831343 141.558267 51.50132926 143.4635812 52.22277832 145.36766052 C52.54556763 146.22859818 52.86835693 147.08953583 53.20092773 147.9765625 C53.47750717 148.70955566 53.75408661 149.44254883 54.03904724 150.19775391 C55.48804986 154.42320818 56.71641753 158.72139176 58 163 C46.78 166.96 35.56 170.92 24 175 C18.6349879 161.71209946 13.46447147 148.37920189 8.5 134.9375 C7.80608808 133.06451907 7.11190822 131.19163739 6.41748047 129.31884766 C4.9840718 125.45266385 3.55178926 121.58606545 2.12011719 117.71923828 C0.10037593 112.26713568 -1.92862332 106.81852038 -3.9609375 101.37109375 C-7.61581412 91.57394489 -11.25933606 81.77261928 -14.89746094 71.96923828 C-16.07111182 68.80848939 -17.2464403 65.64836717 -18.421875 62.48828125 C-20.50733295 56.87961751 -22.58606514 51.26849637 -24.66070557 45.65582275 C-25.4625025 43.48950004 -26.26629658 41.32391534 -27.07220459 39.15911865 C-28.196902 36.13674099 -29.31413546 33.11170057 -30.4296875 30.0859375 C-30.76226562 29.19716919 -31.09484375 28.30840088 -31.4375 27.3927002 C-33.42372729 21.97611658 -34.86407982 16.65818191 -36 11 C-31.19791064 9.26306599 -26.39243079 7.53600634 -21.58349609 5.81811523 C-19.94710162 5.23197076 -18.31167728 4.6431106 -16.67724609 4.05151367 C-14.33158406 3.20300706 -11.98263854 2.36423813 -9.6328125 1.52734375 C-8.89942657 1.25969711 -8.16604065 0.99205048 -7.41043091 0.71629333 C-2.22774341 -1.11387171 -2.22774341 -1.11387171 0 0 Z " fill="#FDFDFD" transform="translate(372,245)"/>
<path d="M0 0 C9.24 0 18.48 0 28 0 C28 66 28 132 28 200 C18.76 200 9.52 200 0 200 C0 134 0 68 0 0 Z " fill="#FBFBFB" transform="translate(774,566)"/>
<path d="M0 0 C9.24 0 18.48 0 28 0 C28 66 28 132 28 200 C18.76 200 9.52 200 0 200 C0 134 0 68 0 0 Z " fill="#FEFEFE" transform="translate(719,566)"/>
<path d="M0 0 C9.24 0 18.48 0 28 0 C28.17354098 12.68741455 28.3403876 25.37490232 28.5 38.0625 C28.51781588 39.47813988 28.51781588 39.47813988 28.53599167 40.92237854 C28.86874959 67.53207805 29.09618061 94.1381061 29.0625 120.75 C29.06164398 121.43143696 29.06078796 122.11287392 29.05990601 122.81496048 C29.04898524 130.8766936 29.02617438 138.93829124 29 147 C19.43 147 9.86 147 0 147 C0 98.49 0 49.98 0 0 Z " fill="#FDFDFD" transform="translate(289,619)"/>
<path d="M0 0 C12.21 0 24.42 0 37 0 C37 34.65 37 69.3 37 105 C24.79 105 12.58 105 0 105 C0 70.35 0 35.7 0 0 Z " fill="#FEFEFE" transform="translate(290,318)"/>
<path d="M0 0 C8.58 0 17.16 0 26 0 C26 49.17 26 98.34 26 149 C17.42 149 8.84 149 0 149 C0 99.83 0 50.66 0 0 Z " fill="#FEFEFE" transform="translate(718,274)"/>
<path d="M0 0 C8.58 0 17.16 0 26 0 C26 43.89 26 87.78 26 133 C17.42 133 8.84 133 0 133 C0 89.11 0 45.22 0 0 Z " fill="#FEFEFE" transform="translate(666,633)"/>
<path d="M0 0 C2.92976611 2.92976611 3.86803619 6.6116066 5.2578125 10.4375 C5.56572723 11.27337646 5.87364197 12.10925293 6.19088745 12.97045898 C6.84068488 14.73812249 7.48776078 16.50678844 8.13232422 18.27636719 C9.12188048 20.99144089 10.12078145 23.70293571 11.12109375 26.4140625 C11.75055669 28.13000422 12.37948128 29.84614355 13.0078125 31.5625 C13.4577507 32.7844104 13.4577507 32.7844104 13.91677856 34.03100586 C16 39.76850308 16 39.76850308 16 42 C10.72 42 5.44 42 0 42 C0 28.14 0 14.28 0 0 Z " fill="#FBFBFB" transform="translate(352,381)"/>
</svg>
