<?xml version="1.0" encoding="UTF-8"?>
<svg version="1.1" xmlns="http://www.w3.org/2000/svg" width="1024" height="1024">
<path d="M0 0 C337.92 0 675.84 0 1024 0 C1024 337.92 1024 675.84 1024 1024 C686.08 1024 348.16 1024 0 1024 C0 686.08 0 348.16 0 0 Z " fill="#FEFEFE" transform="translate(0,0)"/>
<path d="M0 0 C0.67474598 -0.00350607 1.34949197 -0.00701215 2.0446848 -0.01062447 C4.31006555 -0.01994274 6.57518947 -0.01501411 8.84058094 -0.01015663 C10.47944197 -0.01389269 12.11830121 -0.01849404 13.75715762 -0.02388728 C18.26440151 -0.03613841 22.77157128 -0.03585432 27.27882802 -0.03349853 C32.13856585 -0.03309089 36.99827976 -0.04412453 41.85800648 -0.05361366 C51.38112439 -0.0702368 60.90421755 -0.07572382 70.42734876 -0.07683842 C78.16837615 -0.07778838 85.90939538 -0.08189607 93.65042019 -0.08823967 C115.59456327 -0.10585654 137.53868678 -0.11507798 159.48283698 -0.11357872 C160.66620697 -0.11349881 161.84957696 -0.1134189 163.06880665 -0.11333656 C164.25362072 -0.1132548 165.43843478 -0.11317304 166.65915231 -0.1130888 C185.85769608 -0.11227603 205.05616137 -0.13141037 224.25468244 -0.1596133 C243.96457091 -0.18833905 263.67442111 -0.20215372 283.38433105 -0.20042574 C294.45109737 -0.19976168 305.51778145 -0.20526099 316.58452892 -0.22678185 C326.00809233 -0.24498967 335.43153622 -0.24934431 344.85510959 -0.235763 C349.66242443 -0.22923104 354.46950996 -0.22912437 359.27680302 -0.2464695 C363.68065694 -0.26219538 368.08409964 -0.25934152 372.48794351 -0.24190123 C374.07813825 -0.23883025 375.66836365 -0.24246748 377.25852223 -0.25362138 C387.03741766 -0.31765177 395.82461136 0.012935 403.78291798 6.30023766 C410.96415651 14.90831617 413.94842871 21.41663697 413.57979298 32.81976891 C412.68154512 40.88566802 409.38562868 47.91190902 403.19698048 53.25726891 C396.60412842 57.67161332 391.47744152 59.37963352 383.54545021 59.39148998 C382.87493522 59.39384221 382.20442023 59.39619444 381.51358661 59.39861795 C379.25665257 59.40529878 376.99977623 59.40485001 374.74283314 59.40443993 C373.11237331 59.40773911 371.48191431 59.4114648 369.85145634 59.41558141 C365.3628448 59.42560314 360.87424663 59.42931847 356.38562548 59.43197072 C351.54770853 59.43587321 346.70980217 59.44545153 341.87189198 59.45418358 C330.18487409 59.4739487 318.49785533 59.48401389 306.8108249 59.49291137 C301.30849719 59.49729386 295.80617045 59.50266074 290.3038435 59.50790024 C272.01549733 59.52491194 253.72715177 59.53940673 235.4387989 59.54664898 C230.69258403 59.5485589 225.94636916 59.55047923 221.2001543 59.55243492 C219.43066333 59.55316053 219.43066333 59.55316053 217.62542506 59.5539008 C198.51021077 59.5622034 179.39505901 59.58754446 160.27987204 59.6200156 C140.65929537 59.65307384 121.0387505 59.67109659 101.41814584 59.67429322 C90.40001624 59.67645937 79.38197786 59.68522351 68.36387539 59.71075439 C58.9816208 59.73244443 49.59947958 59.74052012 40.21720276 59.73078761 C35.43026648 59.72623812 30.64356419 59.72816694 25.85665989 59.74754906 C21.47256294 59.76514693 17.08887128 59.76421049 12.70477023 59.74865177 C11.12061679 59.74627057 9.53643554 59.75062578 7.95232467 59.76248042 C-3.07019546 59.83984339 -11.83127889 58.75999525 -20.23270702 51.10101891 C-26.6481724 43.56843269 -28.14988033 35.23474781 -28.09598827 25.66351891 C-27.56236604 19.45927102 -25.22399402 14.38873065 -21.80301952 9.25726891 C-21.14301952 9.25726891 -20.48301952 9.25726891 -19.80301952 9.25726891 C-19.47301952 8.26726891 -19.14301952 7.27726891 -18.80301952 6.25726891 C-12.56396613 2.29786963 -7.51461951 0.00880992 0 0 Z " fill="#0E0E0E" transform="translate(429.8030195236206,477.74273109436035)"/>
<path d="M0 0 C1.00198873 -0.00352835 1.00198873 -0.00352835 2.02421966 -0.00712797 C4.26656116 -0.01379437 6.5088444 -0.01336046 8.75119495 -0.01294994 C10.37355554 -0.01625003 11.99591531 -0.0199759 13.61827403 -0.02409142 C18.07989248 -0.03410289 22.54149747 -0.03782683 27.00312555 -0.04048073 C31.81377729 -0.04438624 36.62441841 -0.05396431 41.43506336 -0.0626936 C53.05344434 -0.08244957 64.67182618 -0.09252247 76.29021975 -0.10142139 C81.76153429 -0.10580513 87.23284787 -0.11117166 92.70416164 -0.11641026 C110.89132168 -0.13342058 129.07848112 -0.14791532 147.26564789 -0.155159 C151.98452919 -0.15706888 156.70341048 -0.15898922 161.42229176 -0.16094494 C163.18156917 -0.16167055 163.18156917 -0.16167055 164.97638754 -0.16241082 C183.98093191 -0.17071329 202.98541339 -0.19605477 221.98993029 -0.22852562 C241.50093225 -0.26159016 261.01190223 -0.27960715 280.52293235 -0.28280324 C291.47792195 -0.28496874 302.43281979 -0.29372344 313.3877821 -0.31926441 C322.71618526 -0.34096299 332.04447437 -0.34902589 341.37289991 -0.33929763 C346.13161386 -0.33475071 350.89009243 -0.3366621 355.64877415 -0.35605907 C360.00821188 -0.37367513 364.36724223 -0.3727057 368.72668419 -0.35716178 C370.30073142 -0.35478337 371.87480674 -0.35912142 373.44881102 -0.37099043 C383.29693763 -0.44063061 392.09689563 -0.08968701 400.00944996 6.38422108 C400.75194996 7.29172108 401.49444996 8.19922108 402.25944996 9.13422108 C402.76218433 9.71043201 403.26491871 10.28664295 403.78288746 10.88031483 C409.21706865 17.46760276 411.67139282 24.18366645 411.19694996 32.75922108 C410.02920193 41.4988932 405.7470857 48.22326406 399.25944996 54.13422108 C393.20130938 58.06351973 387.80478057 59.25814883 380.62353706 59.26564884 C379.95471045 59.26770148 379.28588383 59.26975411 378.59678975 59.27186894 C376.34559693 59.27754353 374.09446521 59.27608113 371.84326649 59.27466297 C370.21693164 59.27724635 368.59059743 59.28025943 366.96426409 59.28366637 C362.48705218 59.29174292 358.00985629 59.29352631 353.53263795 59.29426384 C348.70699245 59.29611326 343.88135529 59.30366006 339.05571461 59.31039906 C328.49989984 59.3239877 317.94408886 59.33000796 307.3882668 59.33440971 C300.79834204 59.33717132 294.20841875 59.34140853 287.61849499 59.34591389 C269.37647087 59.3581074 251.13444792 59.36840645 232.89241982 59.37178898 C231.72461791 59.37200854 230.55681601 59.37222811 229.35362617 59.37245433 C227.59770679 59.37278175 227.59770679 59.37278175 225.80631429 59.37311578 C223.43416615 59.37355925 221.06201802 59.37400581 218.68986988 59.37445545 C217.51319985 59.37467688 216.33652981 59.37489831 215.12420311 59.37512645 C196.05750005 59.37907454 176.99083522 59.39652855 157.92414693 59.41981497 C138.35329055 59.4435244 118.78245334 59.45599065 99.21158236 59.4571569 C88.22141673 59.4580739 77.23130088 59.46383266 66.24114895 59.48197651 C56.882695 59.49737198 47.52430623 59.50250123 38.16584203 59.49423841 C33.39109688 59.49032991 28.61648299 59.49127126 23.84175396 59.50529575 C19.46881646 59.51802261 15.09610904 59.51684782 10.72317191 59.50470504 C9.14305886 59.50274594 7.56292957 59.50583635 5.98283932 59.5145494 C-4.95709082 59.57104511 -14.56193887 59.28216202 -22.87726879 51.33343983 C-28.96219485 44.15144114 -31.68874703 36.70511841 -31.19367504 27.31000233 C-30.01893183 19.07667272 -27.20566358 11.60251094 -20.74055004 6.13422108 C-13.88919782 1.48595385 -8.27093553 0.01243583 0 0 Z " fill="#0E0E0E" transform="translate(432.74055004119873,248.86577892303467)"/>
<path d="M0 0 C1.64730772 -0.00576761 3.29460899 -0.01371302 4.94189692 -0.02363622 C9.44940186 -0.04444509 13.95637526 -0.03422164 18.46388173 -0.01870513 C23.33241775 -0.00737107 28.20086371 -0.02486452 33.06938171 -0.03860474 C42.59922631 -0.06081972 52.12887383 -0.05604368 61.6587261 -0.04154153 C69.40489083 -0.03024246 77.1510004 -0.02872129 84.89717102 -0.03416061 C86.00029803 -0.03492678 87.10342503 -0.03569294 88.23998013 -0.03648233 C90.48107049 -0.03808098 92.72216084 -0.03970205 94.96325117 -0.04134528 C115.97030065 -0.05559769 136.97724097 -0.039218 157.98427254 -0.01234345 C176.00320087 0.00999484 194.02196813 0.00611457 212.04089355 -0.01693726 C232.9735668 -0.0437042 253.90614441 -0.05422444 274.83883238 -0.03887594 C277.07160662 -0.03728322 279.30438088 -0.03571136 281.53715515 -0.03416061 C282.63567815 -0.03338924 283.73420115 -0.03261786 284.86601272 -0.03182311 C292.60147917 -0.0275088 300.33688488 -0.03478687 308.07234192 -0.04655838 C317.50131456 -0.06059181 326.93007913 -0.05676559 336.35902798 -0.03015466 C341.16843562 -0.01702793 345.97749652 -0.01184466 350.78690147 -0.02840042 C355.19250831 -0.04333662 359.59744811 -0.03505152 364.00299472 -0.00851266 C365.59370444 -0.00294321 367.18447091 -0.00573359 368.77514392 -0.0178916 C379.91388701 -0.09647505 388.07030857 1.34243443 396.59216309 8.88491821 C402.97368142 15.93023514 404.41062803 22.78095157 404.09606934 32.19741821 C403.22893229 40.06422851 400.44231032 45.8361791 394.58435059 51.16616821 C388.27875142 56.12622111 382.97932589 57.75733009 375.01878071 57.76913929 C374.00541054 57.77266764 374.00541054 57.77266764 372.97156826 57.77626726 C370.69740413 57.78294851 368.42329726 57.7824993 366.14912415 57.78208923 C364.50628993 57.7853884 362.86345652 57.78911407 361.22062415 57.79323071 C356.69780789 57.80325275 352.17500491 57.80696783 347.65217912 57.80962002 C342.77745205 57.81352242 337.9027355 57.82310076 333.02801514 57.83183289 C321.25200867 57.85159826 309.47600134 57.86166323 297.69998243 57.87056068 C292.15581441 57.87494313 286.61164735 57.88031002 281.06748009 57.88554955 C262.64016448 57.90256127 244.21284948 57.91705607 225.78552723 57.92429829 C221.00321769 57.92620821 216.22090815 57.92812854 211.43859863 57.93008423 C210.24996614 57.93056797 209.06133364 57.93105171 207.83668198 57.93155011 C188.57597108 57.93985275 169.31532223 57.96519388 150.05463842 57.99766491 C130.28490013 58.03072274 110.51519339 58.04874586 90.74542731 58.05194253 C79.64346098 58.05410872 68.54158518 58.06287342 57.43964577 58.0884037 C47.98602569 58.11009317 38.53251813 58.11816971 29.078876 58.10843692 C24.25548559 58.10388726 19.43232741 58.10581721 14.60896873 58.12519836 C10.19156518 58.14279506 5.77456386 58.14186075 1.35715624 58.12630107 C-0.23911014 58.1239197 -1.83540411 58.128276 -3.43162825 58.14012972 C-12.88902405 58.20599936 -21.05272925 58.01402531 -28.58752441 51.70523071 C-35.8761995 42.6759765 -38.2850954 35.23248064 -37.28283691 23.63491821 C-35.36597962 15.5748797 -31.02371477 9.03939505 -24.28936243 4.20338213 C-16.46262604 -0.21421637 -8.72698012 -0.06670303 0 0 Z " fill="#0E0E0E" transform="translate(439.2828369140625,705.3650817871094)"/>
<path d="M0 0 C1.54330063 1.34973411 3.06433761 2.72533272 4.5625 4.125 C5.39007813 4.86234375 6.21765625 5.5996875 7.0703125 6.359375 C22.66948166 20.95676265 31.1578702 40.50860131 32.84375 61.65234375 C33.43921306 83.31231254 26.65762672 105.10277906 11.66015625 120.9765625 C10.96792969 121.68554688 10.27570313 122.39453125 9.5625 123.125 C8.69625 124.0325 7.83 124.94 6.9375 125.875 C6.15375 126.6175 5.37 127.36 4.5625 128.125 C3.85287109 128.80949219 3.85287109 128.80949219 3.12890625 129.5078125 C-14.3665888 145.53486072 -36.7522288 149.00847137 -59.53857422 148.29541016 C-77.44217689 147.24296661 -95.38381622 137.08271007 -107.4375 124.125 C-108.10394531 123.45210937 -108.77039063 122.77921875 -109.45703125 122.0859375 C-124.37954526 106.47703869 -131.87376953 86.17451132 -131.73583984 64.66699219 C-131.13962092 41.20188901 -120.33777924 20.81823422 -103.90576172 4.52001953 C-76.26759874 -21.73945224 -29.86314895 -23.08669105 0 0 Z " fill="#0E0E0E" transform="translate(307.4375,216.875)"/>
<path d="M0 0 C1.56578159 1.36872744 3.10684004 2.76613547 4.625 4.1875 C5.99398437 5.42113281 5.99398437 5.42113281 7.390625 6.6796875 C22.39546568 20.8235947 31.89910325 40.51645101 32.75 61.23046875 C33.15811005 84.21216568 26.73361037 105.14604439 10.73681641 122.03125 C9.37814385 123.42837118 8.00202694 124.80846573 6.625 126.1875 C5.96757812 126.85652344 5.31015625 127.52554688 4.6328125 128.21484375 C-11.516006 143.49730933 -33.1437704 148.6128316 -54.73046875 148.40234375 C-75.59337772 147.17248309 -95.63829244 137.12507012 -109.69042969 121.74804688 C-124.32984565 105.21339512 -132.61102138 84.583003 -131.6875 62.375 C-130.13815315 38.51505858 -119.6618017 18.75259586 -102.09130859 2.68505859 C-73.94067867 -21.87766743 -29.49692656 -22.7294355 0 0 Z " fill="#0F0E0F" transform="translate(307.375,445.8125)"/>
<path d="M0 0 C3.19499042 2.14835563 6.10211176 4.4709339 9 7 C9.64839844 7.495 10.29679688 7.99 10.96484375 8.5 C25.32190912 19.87193297 33.89645008 38.34700807 37 56 C37.3403125 57.7015625 37.3403125 57.7015625 37.6875 59.4375 C39.65935499 81.91664692 34.50481849 102.93252421 19.94140625 120.48046875 C3.30514522 139.53864646 -16.45929128 149.79418141 -41.5546875 152.25 C-43.74097278 152.31600106 -45.82133932 152.20004397 -48 152 C-49.09183594 151.91878906 -50.18367188 151.83757812 -51.30859375 151.75390625 C-72.38514991 149.62651192 -92.66283466 139.63144522 -106.39160156 123.34960938 C-121.29880276 104.70228837 -127.94380712 82.72416584 -126 59 C-123.90098964 43.86963363 -117.6790475 29.75683945 -108 18 C-107.24847656 17.07316406 -106.49695313 16.14632812 -105.72265625 15.19140625 C-94.0111443 1.50583069 -79.19445152 -6.24706218 -62 -11 C-61.08359741 -11.26478149 -61.08359741 -11.26478149 -60.14868164 -11.53491211 C-39.61849023 -15.97872698 -17.61854406 -10.66492887 0 0 Z " fill="#0F0E0F" transform="translate(302,670)"/>
<path d="M0 0 C7.98367487 8.67311139 11.85557622 19.06742975 11.76171875 30.76953125 C11.75672363 31.59622314 11.75172852 32.42291504 11.74658203 33.2746582 C11.38069792 46.20803072 5.20943602 55.90012542 -3.92578125 64.64453125 C-14.53321834 73.77771437 -26.09423912 75.19155685 -39.5546875 74.63623047 C-51.58402604 73.64902849 -61.25565124 65.7796356 -68.796875 56.953125 C-76.17425355 47.467924 -78.71631764 35.5199798 -77.37109375 23.65625 C-74.96005408 11.467105 -68.02538418 0.51719124 -57.73828125 -6.54296875 C-38.1744352 -18.71927293 -16.52085662 -15.63905265 0 0 Z " fill="#FEFEFE" transform="translate(290.73828125,252.54296875)"/>
<path d="M0 0 C0.61617188 0.47824219 1.23234375 0.95648437 1.8671875 1.44921875 C9.30151672 8.0079492 14.57737348 19.01681601 15.2734375 28.87109375 C15.68707498 41.98210464 13.62432371 52.75982205 4.875 63.07421875 C-4.39050416 72.59066365 -16.26484706 77.93706871 -29.5 78.25 C-41.22060555 77.95698486 -51.6562192 73.84490247 -60.37890625 65.8125 C-68.26576548 56.99442124 -74.13492507 45.00833167 -74 33 C-73.22909641 20.28829183 -68.63025094 9.586588 -59.82421875 0.33203125 C-41.86867863 -14.49432761 -18.32484313 -14.31846108 0 0 Z " fill="#FEFEFE" transform="translate(287,706)"/>
<path d="M0 0 C1.051875 0.78375 2.10375 1.5675 3.1875 2.375 C3.1875 3.035 3.1875 3.695 3.1875 4.375 C3.7753125 4.62121094 4.363125 4.86742187 4.96875 5.12109375 C11.65812538 8.90153301 15.79164085 17.31623219 18.1875 24.375 C20.8923909 34.81076151 20.48578313 47.0928628 15.73828125 56.76171875 C8.59383331 68.80110332 -0.36909961 76.06980986 -13.5625 80.6875 C-25.25153616 83.10997631 -37.15248575 81.61268296 -47.6015625 75.83203125 C-58.76160978 68.4650514 -66.44685264 57.9621679 -69.25 44.75 C-71.06028838 31.8747857 -67.27919194 19.84960101 -59.8125 9.375 C-45.33424864 -9.03836583 -19.49098236 -11.50343442 0 0 Z " fill="#FDFDFD" transform="translate(282.8125,474.625)"/>
<path d="M0 0 C2.75031587 0.14111883 5.50015418 0.28771165 8.25 0.4375 C9.41595703 0.49647461 9.41595703 0.49647461 10.60546875 0.55664062 C11.73662109 0.61948242 11.73662109 0.61948242 12.890625 0.68359375 C13.92751465 0.73858032 13.92751465 0.73858032 14.98535156 0.79467773 C17.06628329 1.00675524 18.98572422 1.44508677 21 2 C21 2.66 21 3.32 21 4 C19.98679687 3.9278125 18.97359375 3.855625 17.9296875 3.78125 C16.57813249 3.68739201 15.22656957 3.59364808 13.875 3.5 C13.20984375 3.45230469 12.5446875 3.40460937 11.859375 3.35546875 C7.89764586 3.08358538 3.97061445 2.95052194 0 3 C0 2.01 0 1.02 0 0 Z " fill="#202021" transform="translate(248,693)"/>
<path d="M0 0 C6.27 0 12.54 0 19 0 C19 0.33 19 0.66 19 1 C17.35 1.33 15.7 1.66 14 2 C14 2.33 14 2.66 14 3 C9.38 3 4.76 3 0 3 C0 2.01 0 1.02 0 0 Z " fill="#191919" transform="translate(249,591)"/>
<path d="M0 0 C1.48454806 0.59082014 2.96254351 1.19812655 4.4375 1.8125 C5.67306641 2.31716797 5.67306641 2.31716797 6.93359375 2.83203125 C9 4 9 4 10 7 C5.80639551 6.32902328 2.59665648 4.1441606 -1 2 C-0.67 1.34 -0.34 0.68 0 0 Z " fill="#191819" transform="translate(277,698)"/>
<path d="M0 0 C4.35535069 1.16142685 6.64619703 2.07699505 9 6 C8.67 6.66 8.34 7.32 8 8 C6.66102417 7.04956626 5.32894573 6.08940853 4 5.125 C3.2575 4.59132813 2.515 4.05765625 1.75 3.5078125 C1.1725 3.01023437 0.595 2.51265625 0 2 C0 1.34 0 0.68 0 0 Z " fill="#161617" transform="translate(204,800)"/>
<path d="M0 0 C-0.33 0.66 -0.66 1.32 -1 2 C-4.98866127 2.99716532 -8.0323069 3.0502717 -12 2 C-12 1.67 -12 1.34 -12 1 C-10.56496445 0.63597631 -9.12683494 0.28413409 -7.6875 -0.0625 C-6.88699219 -0.25972656 -6.08648437 -0.45695313 -5.26171875 -0.66015625 C-3 -1 -3 -1 0 0 Z " fill="#1A1A1A" transform="translate(247,659)"/>
</svg>
