<?xml version="1.0" encoding="UTF-8"?>
<svg version="1.1" xmlns="http://www.w3.org/2000/svg" width="1024" height="1024">
<path d="M0 0 C337.92 0 675.84 0 1024 0 C1024 337.92 1024 675.84 1024 1024 C686.08 1024 348.16 1024 0 1024 C0 686.08 0 348.16 0 0 Z " fill="#FEFEFE" transform="translate(0,0)"/>
<path d="M0 0 C1.54491155 0.41222589 3.09018782 0.82308707 4.63580322 1.23266602 C7.82042387 2.07919847 11.00257337 2.93420964 14.18286133 3.796875 C18.56488847 4.98516008 22.95224931 6.15234892 27.34179688 7.3125 C35.03345829 9.348118 42.71892742 11.40638909 50.40307617 13.47016144 C53.44514587 14.28688452 56.48757643 15.10225931 59.52999115 15.917696 C88.08914739 23.57261467 116.63579289 31.27390167 145.17919922 38.98730469 C152.80274707 41.04738317 160.42668016 43.10603252 168.05078125 45.1640625 C169.30987808 45.50394699 170.56897491 45.84383148 171.8662262 46.1940155 C178.32571761 47.93753466 184.78539543 49.68035902 191.24536133 51.42211914 C193.23515154 51.95864534 195.22493898 52.49518176 197.21472359 53.03172874 C198.55941939 53.39432439 199.90411927 53.75690493 201.24882317 54.1194706 C209.83729988 56.43530615 218.42437121 58.75626376 227.01002312 61.08255005 C264.72539127 71.3010542 302.47909125 81.35429371 340.296875 91.1875 C378.00525195 100.99301248 415.67947505 110.91280966 453.28729248 121.09765625 C456.6903418 122.01684299 460.09500622 122.92971661 463.50048828 123.83984375 C468.25730895 125.11144225 473.00980474 126.39779618 477.75839233 127.69979858 C479.3669419 128.13845066 480.97692838 128.57187902 482.58853149 128.99917603 C492.4995708 131.63260149 503.0870788 134.60415423 508.77995777 143.89365673 C513.26582508 152.90698621 513.28891537 162.90308584 513.23168945 172.7409668 C513.23412397 174.17326623 513.23784965 175.60556395 513.24275208 177.03785706 C513.25207875 180.89362942 513.2428033 184.74914422 513.22941995 188.60489631 C513.21800317 192.66749027 513.22222107 196.73007341 513.22416687 200.79267883 C513.22504714 207.61728048 513.2140297 214.4417823 513.19555664 221.26635742 C513.17443567 229.11317715 513.17087177 236.95985039 513.1771186 244.80669278 C513.18285208 252.40245188 513.17711732 259.99816033 513.16594505 267.59391212 C513.16134711 270.80357632 513.16040411 274.01320904 513.1625309 277.2228756 C513.17787608 316.62999527 507.54833876 344.22678399 479.47265625 373.2734375 C477.06319905 375.76722249 474.75380699 378.31360614 472.49609375 380.9453125 C467.60066734 386.5963627 462.21193248 391.75500662 456.88671875 396.99609375 C452.53311859 401.30776518 448.35633243 405.68465644 444.36523438 410.33398438 C442.46281704 412.51769299 440.43750502 414.54640371 438.359375 416.5625 C435.69667872 419.18957492 433.1467275 421.82979011 430.734375 424.6875 C427.15971829 428.86632404 423.26378903 432.69587824 419.359375 436.5625 C414.99404926 440.88577564 410.75323519 445.20926856 406.79296875 449.91015625 C403.35187472 453.74054576 399.63568238 457.30462144 395.97680664 460.92553711 C392.38209332 464.49721048 388.96804659 468.13701532 385.6953125 472.0078125 C382.69648366 475.3639486 379.46002797 478.48138207 376.2590332 481.64331055 C373.53492951 484.34694829 370.90579794 487.07008591 368.421875 490 C364.73394249 494.34034317 360.66842957 498.2794008 356.62182617 502.28051758 C353.13551011 505.74268948 349.84297618 509.29079114 346.6640625 513.0390625 C343.88152171 516.15888096 340.88253475 519.05983693 337.90795898 521.99438477 C334.65904024 525.21648526 331.63478579 528.55608303 328.66796875 532.03515625 C325.68287384 535.38129936 322.45054732 538.47843952 319.26171875 541.62890625 C317.22223127 543.69492365 315.304297 545.79255549 313.421875 548 C310.11658883 551.86788808 306.52942504 555.4217107 302.91088867 558.99145508 C299.63933305 562.23598701 296.58981525 565.59858678 293.6015625 569.1015625 C291.6049961 571.34881885 289.49924554 573.45144927 287.359375 575.5625 C284.6349596 578.2502846 282.02677188 580.96066863 279.546875 583.875 C276.00129554 588.01564174 272.14636088 591.80364 268.27124023 595.63110352 C264.84860596 599.02790253 261.62668774 602.5300258 258.5 606.203125 C256.14454827 608.87263696 253.60708811 611.3405701 251.046875 613.8125 C249.1815172 615.73115374 247.43233959 617.68761608 245.68359375 619.7109375 C241.49820229 624.52129691 237.12719591 629.12722027 232.671875 633.6875 C231.89779297 634.50734375 231.12371094 635.3271875 230.32617188 636.171875 C223.65951558 642.96411123 216.49883161 647.74879657 207.13671875 649.9296875 C194.18538612 649.95998301 182.41318243 645.79172526 170.20941162 641.82275391 C165.73017658 640.37368886 161.24104093 638.95562067 156.75390625 637.53125 C147.08605685 634.45734057 137.42664315 631.35766486 127.76977539 628.24945068 C120.41293535 625.88202697 113.05346461 623.52301939 105.69140625 621.171875 C82.73522417 613.83964467 59.7924097 606.46675682 36.859375 599.0625 C12.21877889 591.10724224 -12.43367864 583.18993461 -37.09912109 575.31201172 C-42.87676869 573.46654786 -48.65392361 571.61954723 -54.43093491 569.77209282 C-84.52034428 560.14969035 -114.61290788 550.53773922 -144.72640991 540.9909668 C-171.51580584 532.4978914 -198.29102982 523.9619056 -225.03330994 515.32142639 C-231.90326305 513.10276669 -238.77779818 510.89901036 -245.65582275 508.70550537 C-250.18300554 507.25957887 -254.70719857 505.80445832 -259.23077393 504.34729004 C-261.34553337 503.66817968 -263.46150825 502.99284028 -265.57879639 502.32165527 C-284.23379823 496.40389066 -298.60978323 491.20995412 -308.140625 473.0625 C-314.00545381 461.74238852 -318.9806404 449.98940358 -323.94509888 438.25408936 C-324.60701893 436.69186105 -325.27249752 435.13113478 -325.94186401 433.57208252 C-333.82199083 415.17198021 -337.28051585 398.1533156 -337.31762695 378.06274414 C-337.32390332 376.56041817 -337.33055113 375.0580937 -337.33753967 373.55577087 C-337.35843011 368.65307669 -337.36892287 363.7503827 -337.37890625 358.84765625 C-337.38295841 357.15242434 -337.38707546 355.45719258 -337.39125633 353.76196098 C-337.41026919 345.79992095 -337.42451244 337.83788999 -337.4328683 329.87583166 C-337.44264842 320.71090108 -337.46900451 311.54621151 -337.50936919 302.38136584 C-337.53957743 295.27705089 -337.55434133 288.17280493 -337.55764931 281.06842703 C-337.55999287 276.83380379 -337.56886385 272.59943921 -337.59411049 268.36488533 C-337.61748147 264.38138428 -337.62158856 260.39831067 -337.61134911 256.41475868 C-337.61085595 254.95957258 -337.61711099 253.50436473 -337.63090515 252.04924393 C-337.73456596 240.45895338 -336.25943345 231.85861917 -328.3125 223.14453125 C-322.23336353 217.31686985 -315.77201825 212.18063793 -308.953125 207.25 C-307.26357075 206.01665473 -305.57477016 204.78227638 -303.88671875 203.546875 C-303.07187012 202.95068359 -302.25702148 202.35449219 -301.41748047 201.74023438 C-296.8389345 198.36646557 -292.35207114 194.87584407 -287.85839844 191.39013672 C-284.46363297 188.76638251 -281.05054123 186.16651145 -277.640625 183.5625 C-272.63443797 179.73714304 -267.63263193 175.90634533 -262.640625 172.0625 C-257.6486172 168.21865399 -252.64665593 164.38806222 -247.640625 160.5625 C-241.49558646 155.86620831 -235.35818373 151.160277 -229.23046875 146.44140625 C-227.18214758 144.86438021 -225.13268045 143.28884141 -223.08203125 141.71484375 C-218.38381072 138.10759577 -213.69002845 134.49578797 -209.0234375 130.84765625 C-201.03856818 124.6079483 -193.01155068 118.4369582 -184.890625 112.375 C-177.50377794 106.85965633 -170.21401671 101.24278292 -162.98779297 95.51953125 C-152.11193497 86.94074186 -141.12929165 78.49598749 -130.140625 70.0625 C-127.97351653 68.39640747 -125.80707547 66.72944801 -123.640625 65.0625 C-122.55730376 64.22915095 -121.47397044 63.39581759 -120.390625 62.5625 C-119.854375 62.15 -119.318125 61.7375 -118.765625 61.3125 C-113.890625 57.5625 -113.890625 57.5625 -112.2668457 56.31347656 C-111.17939499 55.4769509 -110.09199293 54.64036197 -109.00463867 53.80371094 C-106.35968713 51.76870712 -103.71381388 49.73493467 -101.06640625 47.703125 C-94.84602152 42.92661878 -88.64336554 38.12801616 -82.453125 33.3125 C-81.69241699 32.72130371 -80.93170898 32.13010742 -80.14794922 31.52099609 C-76.28518698 28.51716567 -72.42928295 25.50520482 -68.5859375 22.4765625 C-29.6598706 -8.14095775 -29.6598706 -8.14095775 0 0 Z " fill="#010101" transform="translate(424.140625,183.9375)"/>
<path d="M0 0 C4.33315445 1.29196751 8.67985686 2.53718284 13.02438354 3.79026031 C13.93266403 4.05352993 14.84094452 4.31679955 15.77674866 4.58804703 C25.70067712 7.45618056 35.67630589 10.1218863 45.66110229 12.76877594 C47.49429149 13.25593937 49.32746195 13.74317326 51.16061401 14.23047638 C54.89104423 15.22144753 58.62187437 16.21089543 62.35299683 17.1992569 C72.27028893 19.82654098 82.18439046 22.46583433 92.09860229 25.10471344 C93.07295227 25.36397488 94.04730225 25.62323631 95.05117798 25.89035416 C110.74969001 30.06824951 126.43226545 34.29975264 142.09860229 38.59690094 C188.8036153 51.39989259 235.59333551 63.9004085 282.41110229 76.28440094 C283.5170575 76.57735046 284.6230127 76.87029999 285.76248169 77.17212677 C288.80765501 77.978236 291.85338985 78.78217921 294.89938354 79.58518219 C295.77233566 79.81634735 296.64528778 80.04751251 297.54469299 80.28568268 C301.38012358 81.29374891 305.19428442 82.26035943 309.09860229 82.97190094 C309.09860229 83.63190094 309.09860229 84.29190094 309.09860229 84.97190094 C307.63644409 86.42819977 307.63644409 86.42819977 305.61032104 88.11643219 C301.24249071 91.83134439 297.0698308 95.71334567 292.91110229 99.65940094 C286.2027929 105.99876796 279.45395593 112.28993019 272.65914917 118.53635406 C269.96886452 121.01114658 267.28407614 123.49189073 264.59860229 125.97190094 C263.51529391 126.97192796 262.4319606 127.971928 261.34860229 128.97190094 C260.81235229 129.46690094 260.27610229 129.96190094 259.72360229 130.47190094 C258.09860229 131.97190094 256.47360229 133.47190094 254.84860229 134.97190094 C254.31194946 135.46730377 253.77529663 135.9627066 253.22238159 136.47312164 C252.14324215 137.46918795 251.0639786 138.46511981 249.98458862 139.46091461 C247.21103537 142.0199898 244.43993357 144.58164284 241.67282104 147.14768219 C236.58600402 151.86115485 231.48328514 156.5423015 226.23922729 161.08127594 C221.67454121 165.11286 217.2372945 169.2867437 212.76998901 173.42551422 C205.78224393 179.89065844 198.7461563 186.30101914 191.66110229 192.65940094 C188.79259803 195.24805113 185.94385413 197.85777221 183.09860229 200.47190094 C178.62471861 204.58190401 174.12428056 208.66073858 169.60250854 212.71799469 C166.88252338 215.16640567 164.17764668 217.63090173 161.47360229 220.09690094 C157.72747971 223.50676568 153.94919718 226.87169066 150.12594604 230.19455719 C147.76371057 232.26549581 145.43064376 234.36702942 143.09860229 236.47190094 C139.48183884 239.73580942 135.83470621 242.95981043 132.16110229 246.15940094 C128.923469 249.00459384 125.73173939 251.9004393 122.53219604 254.78830719 C120.42349083 256.68038779 118.29940428 258.55095852 116.16110229 260.40940094 C111.96140424 264.06610773 107.85649218 267.82414095 103.74313354 271.57736969 C101.61176284 273.50725188 99.462659 275.40613038 97.28610229 277.28440094 C94.11418574 280.03775531 91.02961996 282.87574671 87.95797729 285.73972321 C86.72265871 286.89053536 85.48438965 288.03818883 84.24313354 289.1825943 C81.68355754 291.54392728 79.16419648 293.90446361 76.73532104 296.40158844 C72.2444267 300.88348299 72.2444267 300.88348299 68.61813354 301.16330719 C66.36182808 300.93592757 64.28226587 300.57341938 62.09860229 299.97190094 C68.68855176 293.1622865 75.90479395 286.99823191 83.04391479 280.77658844 C86.23396798 277.97467861 89.38406078 275.12892621 92.53610229 272.28440094 C95.0112556 270.05072601 97.49228541 267.82372378 99.97360229 265.59690094 C104.26343918 261.73874575 108.51805644 257.84366561 112.75802612 253.93088531 C115.67145995 251.25016598 118.63595212 248.6502387 121.66110229 246.09690094 C125.71223696 242.542683 127.81762725 239.93872622 128.59860229 234.47190094 C127.95397885 229.95953685 126.54400415 228.88001135 123.09860229 225.97190094 C119.93741164 224.48402017 119.93741164 224.48402017 116.39889526 223.47678375 C115.74680021 223.2731081 115.09470516 223.06943245 114.42284966 222.85958481 C112.32015803 222.21058588 110.21113608 221.58805255 108.09860229 220.97190094 C107.06886166 220.66807747 107.06886166 220.66807747 106.01831818 220.35811615 C100.79005411 218.82223166 95.54350816 217.35474847 90.29391479 215.89377594 C88.56387743 215.4092886 86.83393534 214.92446099 85.1040802 214.43932343 C81.40860295 213.40366598 77.71250094 212.37028152 74.01586914 211.33875275 C68.1250365 209.69492845 62.23561624 208.04608391 56.34640503 206.39646149 C50.18459465 204.67075355 44.02267424 202.94544269 37.86024475 201.22194672 C23.63365636 197.24307786 9.40988788 193.25428126 -4.81155396 189.25705719 C-5.77670488 188.98578758 -6.74185581 188.71451797 -7.73625374 188.43502808 C-11.59064951 187.35166026 -15.44502948 186.26823622 -19.29938221 185.18471527 C-29.54903945 182.30342523 -39.79938056 179.42457141 -50.04983521 176.54611969 C-50.92524397 176.30029396 -51.80065273 176.05446823 -52.70258904 175.80119324 C-57.6826919 174.40273811 -62.66282022 173.00437367 -67.64295959 171.60604858 C-69.79133386 171.00280581 -71.9396919 170.39950524 -74.08804321 169.79618073 C-86.69877206 166.25474639 -99.31032755 162.71642669 -111.92788696 159.19939423 C-117.4952296 157.646749 -123.05915672 156.08237948 -128.6214447 154.51172638 C-132.38825337 153.44990589 -136.15711863 152.39553148 -139.92651367 151.34293365 C-141.66970158 150.85447099 -143.41203032 150.36292922 -145.15338135 149.86795807 C-147.50854017 149.19892094 -149.86657 148.54113803 -152.22561646 147.88596344 C-152.90532501 147.68990509 -153.58503357 147.49384674 -154.28533936 147.29184723 C-160.94508489 145.46715624 -166.43395472 145.07404346 -172.62405396 148.46018219 C-176.55018354 151.06637798 -180.07993035 154.14640451 -183.65139771 157.21018219 C-186.87448708 159.97102294 -190.18211265 162.60989569 -193.52639771 165.22190094 C-194.10518677 165.67412018 -194.68397583 166.12633942 -195.28030396 166.59226227 C-196.50500318 167.54765331 -197.73028112 168.50230289 -198.95608521 169.45627594 C-201.0034011 171.05137346 -203.04631127 172.6520026 -205.08889771 174.25315094 C-213.8794656 181.13123717 -222.7546527 187.88330366 -231.69827271 194.56101227 C-238.85936634 199.91710062 -245.90240815 205.40654665 -252.90139771 210.97190094 C-253.89397583 211.7466275 -254.88655396 212.52135406 -255.90921021 213.31955719 C-256.81413208 214.02983063 -257.71905396 214.74010406 -258.65139771 215.47190094 C-259.42999146 216.08033844 -260.20858521 216.68877594 -261.01077271 217.31565094 C-263.12103639 219.01931915 -263.12103639 219.01931915 -264.90139771 221.97190094 C-269.85247292 221.36076999 -274.45343588 220.36460031 -279.26077271 218.97580719 C-279.93183044 218.78220108 -280.60288818 218.58859497 -281.29428101 218.38912201 C-282.69997296 217.98213629 -284.10497731 217.57276867 -285.50930786 217.16110992 C-287.65744676 216.53263118 -289.80848797 215.91492204 -291.95999146 215.29807281 C-293.3312716 214.89962519 -294.70237201 214.50055839 -296.07327271 214.10080719 C-297.3117395 213.74059479 -298.5502063 213.38038239 -299.82620239 213.00925446 C-302.90139771 211.97190094 -302.90139771 211.97190094 -305.90139771 209.97190094 C-305.4294397 209.63569733 -304.95748169 209.29949371 -304.47122192 208.95310211 C-294.64652665 201.94107402 -284.98568239 194.79051446 -275.54397583 187.27170563 C-272.82974919 185.12388419 -270.08532082 183.01580094 -267.33889771 180.90940094 C-266.80031128 180.49617584 -266.26172485 180.08295074 -265.70681763 179.65720367 C-264.62972213 178.83110078 -263.55249332 178.00517167 -262.47512817 177.17942047 C-259.94712856 175.23969256 -257.42498255 173.29236725 -254.90139771 171.34690094 C-250.08740698 167.63894811 -245.25460451 163.95612565 -240.41775513 160.27805328 C-232.77573716 154.46666951 -225.15482746 148.63208748 -217.58889771 142.72190094 C-211.42605964 137.90825938 -205.20687357 133.1809413 -198.93704224 128.50778961 C-193.12953588 124.16829579 -187.40786519 119.72320661 -181.69363403 115.26194 C-174.44750021 109.60725772 -167.14538301 104.02756147 -159.83840942 98.45188141 C-154.84855445 94.63936555 -149.87669403 90.80337914 -144.90139771 86.97190094 C-143.27987786 85.72423698 -141.65817336 84.47681342 -140.03640747 83.2294693 C-138.94567728 82.39053378 -137.85501982 81.5515037 -136.76443481 80.71237946 C-134.11982054 78.67760445 -131.47426384 76.64408791 -128.82717896 74.61252594 C-122.50096006 69.75475183 -116.19491762 64.87197792 -109.90139771 59.97190094 C-102.58854347 54.2781796 -95.2536974 48.61458076 -87.90139771 42.97190094 C-85.73428923 41.3058084 -83.56786032 39.63883317 -81.40139771 37.97190094 C-80.31286215 37.13465342 -79.2243205 36.29741381 -78.13577271 35.46018219 C-76.02068018 33.83323677 -73.90620318 32.20550114 -71.79202271 30.57736969 C-69.09395648 28.50012716 -66.39425486 26.42504322 -63.69387817 24.35080719 C-61.77275382 22.87293871 -59.85472547 21.39109952 -57.93655396 19.90940094 C-50.35790729 14.06898411 -42.71806601 8.32780242 -34.96389771 2.72190094 C-34.18828491 2.16075592 -33.41267212 1.5996109 -32.61355591 1.02146149 C-21.62492751 -6.87896429 -12.34417628 -3.68438802 0 0 Z " fill="#FEFEFE" transform="translate(423.9013977050781,207.0280990600586)"/>
<path d="M0 0 C5.75334303 1.20211506 11.35725733 2.62475577 16.95703125 4.40625 C18.52725397 4.89781329 20.09748557 5.38934821 21.66772461 5.88085938 C22.49964325 6.14278076 23.33156189 6.40470215 24.18869019 6.67456055 C41.31279285 12.06173071 58.49027599 17.25918836 75.69433594 22.38446045 C99.12515455 29.36732426 122.4900963 36.53828309 145.8125 43.875 C146.53011002 44.10071182 147.24772003 44.32642365 147.98707581 44.55897522 C153.612573 46.32849001 159.237885 48.09859374 164.86288452 49.86968994 C205.45535427 62.65042938 246.21343618 74.90088381 286.94819069 87.21863937 C321.65825772 97.71517311 356.33897567 108.30235218 390.99098206 118.98898315 C407.81501653 124.17744854 424.64213265 129.35589846 441.46942139 134.53379822 C443.98988386 135.30938709 446.51032524 136.08504445 449.03076172 136.86071777 C469.26615181 143.08808399 489.50441216 149.30585088 509.75 155.5 C511.70443196 156.09820999 513.65885919 156.69643542 515.61328125 157.29467773 C522.95801854 159.5424538 530.3029976 161.78935608 537.65167236 164.02423096 C540.76836795 164.97256471 543.88405745 165.92419539 547 166.875 C548.04639648 167.19146484 549.09279297 167.50792969 550.17089844 167.83398438 C551.08387695 168.11306641 551.99685547 168.39214844 552.9375 168.6796875 C553.70964844 168.91413574 554.48179687 169.14858398 555.27734375 169.39013672 C557 170 557 170 558 171 C558.42550073 177.35087112 557.17199074 183.30938918 555.953125 189.5234375 C555.74065125 190.6241861 555.52817749 191.72493469 555.30926514 192.85903931 C554.85866076 195.18110175 554.40458775 197.50249344 553.94726562 199.82324219 C553.25416589 203.35377965 552.57964545 206.8875334 551.90625 210.421875 C551.46467216 212.6851167 551.02199943 214.9481451 550.578125 217.2109375 C550.38003235 218.25808929 550.1819397 219.30524109 549.97784424 220.38412476 C548.41025925 228.20838765 546.34716146 236.09853427 540.75 242.0625 C540.14542969 242.70832031 539.54085937 243.35414063 538.91796875 244.01953125 C538.28503906 244.67308594 537.65210938 245.32664062 537 246 C536.35675781 246.70511719 535.71351563 247.41023437 535.05078125 248.13671875 C530.12287108 253.3744386 525.34323355 257.71353434 517.92773438 258.20263672 C513.25622697 257.96162782 509.41663537 256.82018833 505.00390625 255.3515625 C504.12384918 255.06788315 503.24379211 254.7842038 502.33706665 254.4919281 C499.40906279 253.54570831 496.48592677 252.5852587 493.5625 251.625 C491.4740473 250.94745869 489.38525331 250.27096862 487.29614258 249.59545898 C482.84005585 248.15324552 478.3857506 246.70570057 473.93261719 245.25439453 C463.5362251 241.86916033 453.12345706 238.53486959 442.712677 235.19421387 C437.97327632 233.67268871 433.23478869 232.14833094 428.49629211 230.62399292 C408.05601886 224.04883203 387.60503964 217.50722496 367.15332031 210.96777344 C360.94309298 208.9819521 354.73321692 206.99503399 348.5234375 205.0078125 C347.49152283 204.67759094 346.45960815 204.34736938 345.39642334 204.00714111 C340.16722131 202.33371078 334.93807463 200.66010769 329.70898438 198.98632812 C320.50252429 196.03960985 311.29582562 193.09366056 302.08709717 190.15403748 C297.09947351 188.56183216 292.1121859 186.96857589 287.125 185.375 C286.1254126 185.05566498 285.1258252 184.73632996 284.09594727 184.40731812 C270.79095518 180.15505007 257.4968081 175.87016199 244.2109375 171.55859375 C242.74717977 171.0836507 241.28341939 170.60871583 239.81965637 170.13378906 C238.72672036 169.77917288 238.72672036 169.77917288 237.61170483 169.41739273 C233.90783903 168.2156514 230.20394469 167.01399815 226.5 165.8125 C225.76773571 165.57495247 225.03547142 165.33740494 224.2810173 165.092659 C204.62910888 158.71863666 184.96389693 152.3998403 165.19921875 146.38208008 C151.60943985 142.23941364 138.09443354 137.86802049 124.58071899 133.48504639 C121.41402439 132.45804304 118.24680236 131.43268712 115.07919312 130.4085083 C105.29684442 127.24528072 95.51818573 124.07107951 85.74561596 120.87775612 C81.11901731 119.36629244 76.49092133 117.8597665 71.859375 116.36352539 C67.28135563 114.88439597 62.70737689 113.39335453 58.13597107 111.89391518 C56.41826051 111.33274965 54.69917423 110.77577545 52.97865295 110.22328758 C50.59190065 109.45606183 48.21065271 108.67360198 45.83007812 107.88745117 C44.79074127 107.5592765 44.79074127 107.5592765 43.73040771 107.22447205 C34.37372765 104.08639082 29.43425872 98.66209504 25 90 C23.14359035 86.18894004 21.42570825 82.33103915 19.75 78.4375 C19.28400391 77.36411377 18.81800781 76.29072754 18.33789062 75.18481445 C14.97570663 67.38679357 11.69838505 59.55407232 8.5 51.6875 C8.09104492 50.69355225 7.68208984 49.69960449 7.26074219 48.67553711 C0.79863773 32.54055452 -0.19585365 17.14807498 0 0 Z " fill="#FDFDFD" transform="translate(108,554)"/>
<path d="M0 0 C6.91144331 1.88493908 13.76948983 3.79754916 20.60546875 5.91796875 C21.88059074 6.31113029 21.88059074 6.31113029 23.18147278 6.7122345 C25.85066884 7.53564886 28.51909537 8.36152495 31.1875 9.1875 C33.01622529 9.75211752 34.84500094 10.31657198 36.67382812 10.88085938 C41.11646823 12.25202682 45.55842086 13.62539988 50 15 C50.00586624 15.66319244 50.01173248 16.32638489 50.01777649 17.00967407 C50.08177708 23.92062848 50.16621457 30.8311201 50.26245117 37.74169922 C50.29567781 40.3197621 50.32371673 42.89789733 50.34643555 45.47607422 C50.38002207 49.18488354 50.43234244 52.8930312 50.48828125 56.6015625 C50.49467117 57.75177887 50.5010611 58.90199524 50.50764465 60.08706665 C50.51432265 68.05993122 50.51432265 68.05993122 54 75 C60.50906956 79.24914842 68.12374242 80.92741581 75.55351448 82.96329308 C79.47571234 84.03944751 83.38960331 85.14510682 87.30419922 86.24853516 C88.11150136 86.47555335 88.9188035 86.70257154 89.75056934 86.93646908 C98.00490464 89.26617542 106.21111029 91.74532306 114.41015625 94.26171875 C115.12527752 94.48090218 115.84039879 94.7000856 116.5771904 94.92591095 C120.23702392 96.04805328 123.89604534 97.17280847 127.55444336 98.29962158 C134.59067023 100.46675814 141.63033212 102.62269944 148.66981125 104.77924347 C150.24249947 105.26106266 151.81515438 105.74299058 153.38777542 106.22502899 C167.57720988 110.57412964 181.78185444 114.87058321 196 119.125 C197.01332397 119.42834259 198.02664795 119.73168518 199.07067871 120.04421997 C205.71298226 122.03217321 212.35633456 124.01660378 219 126 C225.27150838 127.87274745 231.54244796 129.74738212 237.8125 131.625 C238.58059998 131.85491638 239.34869995 132.08483276 240.14007568 132.32171631 C253.92172551 136.44963757 267.68350593 140.64217579 281.44398117 144.83998203 C318.40352665 156.11714882 318.40352665 156.11714882 355.4052124 167.25500488 C357.7423733 167.95470336 360.07869367 168.65721618 362.41412354 169.3626709 C365.61621871 170.32915039 368.82125094 171.28516119 372.02734375 172.23828125 C372.95839432 172.52155777 373.88944489 172.80483429 374.84870911 173.09669495 C382.78679884 175.43524185 382.78679884 175.43524185 390.75 173.875 C393.66105239 171.44912301 394.03348448 169.64436696 395 166 C395.32300449 162.64807751 395.32300449 162.64807751 395.31884766 159.07666016 C395.32889328 158.4125412 395.3389389 157.74842224 395.34928894 157.06417847 C395.37995262 154.88914788 395.39710855 152.71423941 395.4140625 150.5390625 C395.43278775 149.02305055 395.45236216 147.50704888 395.4727478 145.99105835 C395.52393191 142.01603266 395.56363069 138.04097323 395.60089111 134.0657959 C395.64101715 130.0034154 395.69207013 125.94117359 395.7421875 121.87890625 C395.83878416 113.91936581 395.92324053 105.95975635 396 98 C414.02127171 103.20518247 432.02472696 108.46132257 449.98681641 113.86791992 C453.18998281 114.83205955 456.3937703 115.79411379 459.59765625 116.75585938 C461.69274327 117.38530039 463.78779667 118.01485331 465.8828125 118.64453125 C466.81215607 118.92375931 467.74149963 119.20298737 468.69900513 119.49067688 C475.80878227 121.63119977 482.90293868 123.81628882 490 126 C490 165.6 490 205.2 490 246 C441.75872941 231.41542982 441.75872941 231.41542982 422.74633789 225.47143555 C400.5325946 218.53015297 378.27920363 211.72775221 356 205 C335.09830307 198.68803868 314.22091158 192.30699909 293.375 185.8125 C272.36807536 179.26856164 251.33293548 172.82514811 230.27392578 166.45092773 C213.25379328 161.29820876 196.24927803 156.096071 179.25 150.875 C156.26153373 143.81523863 133.25128764 136.82942594 110.23088074 129.8745575 C66.84137515 116.7651288 66.84137515 116.7651288 47 110.625 C45.86612854 110.27480804 45.86612854 110.27480804 44.70935059 109.9175415 C30.09955257 105.40094651 15.55953978 100.67985207 1 96 C0.505 48.48 0.505 48.48 0 0 Z " fill="#FEFEFE" transform="translate(108,436)"/>
<path d="M0 0 C0.33 0 0.66 0 1 0 C7.82897771 84.2646483 7.82897771 84.2646483 -4.8125 100.6875 C-10.83380768 107.62781762 -18.25726879 113.0832519 -26.25195312 117.55078125 C-29.98550065 119.762832 -32.44908864 122.5408003 -35.20083618 125.86276245 C-38.33864363 129.59018284 -41.82946238 132.9718852 -45.27734375 136.41015625 C-46.04752335 137.18129257 -46.81770294 137.95242889 -47.61122131 138.74693298 C-49.22941373 140.36580153 -50.84885212 141.98342551 -52.46948242 143.59985352 C-54.93067232 146.05568718 -57.38647809 148.51681365 -59.84179688 150.97851562 C-61.42415867 152.56021653 -63.00683067 154.14160717 -64.58984375 155.72265625 C-65.31405014 156.44888687 -66.03825653 157.17511749 -66.78440857 157.9233551 C-67.83073204 158.96495033 -67.83073204 158.96495033 -68.89819336 160.02758789 C-69.49885117 160.6274501 -70.09950897 161.22731232 -70.71836853 161.84535217 C-72.57285508 163.59662772 -74.45755063 165.24357946 -76.39836121 166.89538574 C-82.8170886 172.48740388 -88.72788588 178.61409222 -94.72802734 184.64624023 C-96.10502318 186.02679694 -97.48225744 187.40711588 -98.85971069 188.78721619 C-101.81191202 191.74594005 -104.76259683 194.70616499 -107.71213913 197.6675396 C-112.37282371 202.3465752 -117.03790458 207.02121087 -121.70376587 211.69508362 C-134.96594116 224.98137144 -148.2221291 238.27362383 -161.47412109 251.57006836 C-168.80327619 258.92373073 -176.13598859 266.2738271 -183.47257197 273.62007862 C-188.11587572 278.26993872 -192.75462957 282.92427693 -197.39011073 287.58193481 C-200.26489151 290.46840154 -203.14380201 293.35072082 -206.0239296 296.23185158 C-207.36328159 297.57336016 -208.70090041 298.91660158 -210.03669739 300.26165009 C-211.85271414 302.08976187 -213.67470013 303.91170264 -215.49838257 305.73216248 C-216.03183269 306.2721204 -216.56528281 306.81207832 -217.11489809 307.36839861 C-220.77178461 311 -220.77178461 311 -223 311 C-223.33 311.99 -223.66 312.98 -224 314 C-224.33 314 -224.66 314 -225 314 C-225.33978512 301.50909503 -225.62995702 289.01810485 -225.85746098 276.52462101 C-225.96465672 270.72279787 -226.08868501 264.9223704 -226.25170898 259.12182617 C-226.40851919 253.52002644 -226.52042306 247.91893641 -226.60171318 242.31554985 C-226.64046485 240.18187082 -226.69517998 238.04841802 -226.76637459 235.91557503 C-227.30826673 219.21877121 -227.30826673 219.21877121 -224.08395386 213.75045776 C-221.83752893 211.46864838 -219.67235403 209.7471291 -217 208 C-215.71529011 206.91201016 -214.44185184 205.81035478 -213.1875 204.6875 C-212.21876953 203.85798828 -212.21876953 203.85798828 -211.23046875 203.01171875 C-208.38124786 200.44193108 -205.6956694 197.72916638 -203 195 C-199.77602796 191.73616432 -196.56482074 188.53169792 -193.0625 185.5625 C-188.76905738 181.91441827 -184.8527289 177.90792489 -180.91821289 173.88110352 C-178.0934843 171.01082185 -175.21111078 168.2816155 -172.15625 165.65625 C-167.53711493 161.66478688 -163.27798639 157.35098958 -159 153 C-154.12341468 148.0401965 -149.20929508 143.24490656 -143.93359375 138.7109375 C-140.63665795 135.79364886 -137.57902962 132.6438513 -134.5 129.5 C-130.80462052 125.72682306 -127.10097236 122.03758071 -123.09375 118.59375 C-118.49269878 114.62640322 -114.25729797 110.32994811 -110 106 C-105.12341468 101.0401965 -100.20929508 96.24490656 -94.93359375 91.7109375 C-91.63648207 88.79349323 -88.58100828 85.6421378 -85.5 82.5 C-81.13627105 78.08914771 -76.76559026 73.80236042 -72.01953125 69.80078125 C-68.72041397 66.85901517 -65.64647634 63.68895884 -62.56176758 60.5246582 C-59.89775371 57.81356576 -57.16873092 55.25414822 -54.28125 52.78125 C-49.08781115 48.28882666 -44.31829372 43.38742275 -39.5 38.5 C-34.14464438 33.06781001 -28.79688026 27.74371495 -23.00097656 22.78271484 C-18.15531582 18.46560714 -13.71034506 13.70289817 -9.18359375 9.05664062 C-8.41402344 8.27611328 -7.64445313 7.49558594 -6.8515625 6.69140625 C-6.15885254 5.98185791 -5.46614258 5.27230957 -4.75244141 4.54125977 C-3 3 -3 3 -1 3 C-0.67 2.01 -0.34 1.02 0 0 Z " fill="#FEFEFE" transform="translate(914,364)"/>
<path d="M0 0 C5.85527044 1.23742039 11.60318622 2.67217423 17.34033203 4.37231445 C18.12647164 4.60267678 18.91261126 4.83303911 19.72257328 5.07038212 C22.31849353 5.83185252 24.91315141 6.59753235 27.5078125 7.36328125 C29.36250281 7.90833441 31.21726633 8.4531385 33.07209778 8.99771118 C38.05454016 10.46137849 43.03587687 11.92877586 48.01700974 13.39689255 C52.18810714 14.62568915 56.35989587 15.852129 60.53169918 17.0785265 C80.51247921 22.95243518 100.48850677 28.84237139 120.45703125 34.7578125 C121.20039482 34.97801622 121.94375839 35.19821995 122.70964813 35.42509651 C129.2222911 37.3544299 135.73479263 39.28423998 142.24688721 41.21542358 C157.98570434 45.88217252 173.73268045 50.51806041 189.50390625 55.07421875 C190.22949989 55.28384184 190.95509354 55.49346493 191.70267487 55.70944023 C197.51495203 57.38824754 203.32765052 59.06559517 209.14048004 60.74248886 C240.84490815 69.88993205 272.42305902 79.4180317 304 89 C304 108.8 304 128.6 304 149 C292.75106586 146.75021317 292.75106586 146.75021317 289.00146484 145.58642578 C288.14864929 145.32449936 287.29583374 145.06257294 286.41717529 144.79270935 C285.52411682 144.51306839 284.63105835 144.23342743 283.7109375 143.9453125 C282.74730286 143.64814835 281.78366821 143.35098419 280.79083252 143.04481506 C278.72605177 142.4075894 276.66194005 141.76819252 274.59844971 141.12680054 C269.06349556 139.40661858 263.52352051 137.70272025 257.984375 135.99609375 C256.86934601 135.65203995 255.75431702 135.30798615 254.60549927 134.95350647 C244.96055426 131.97984407 235.29697265 129.07179666 225.625 126.1875 C214.2521729 122.79316789 202.89101068 119.36310265 191.54296875 115.88671875 C190.35638168 115.52326355 189.16979462 115.15980835 187.94725037 114.78533936 C186.73980667 114.41547913 185.53236298 114.0456189 184.28833008 113.66455078 C158.65705162 105.81356645 132.98635448 98.11692457 107.26757812 90.55810547 C89.89908086 85.45274299 72.54992901 80.28674443 55.21533203 75.06747437 C44.94656325 71.97566143 34.67617699 68.89190693 24.3828125 65.8828125 C23.56530014 65.64367126 22.74778778 65.40453003 21.90550232 65.15814209 C18.1478616 64.05992579 14.38903466 62.96604326 10.62817383 61.87890625 C9.34454674 61.50526693 8.0609356 61.13157283 6.77734375 60.7578125 C5.67640381 60.4395752 4.57546387 60.12133789 3.44116211 59.79345703 C1 59 1 59 0 58 C-0.09376053 56.18944975 -0.1174411 54.37522799 -0.11352539 52.56225586 C-0.11344986 51.40112778 -0.11337433 50.23999969 -0.11329651 49.04368591 C-0.10813522 47.780168 -0.10297394 46.51665009 -0.09765625 45.21484375 C-0.0962413 43.92888809 -0.09482635 42.64293243 -0.09336853 41.31800842 C-0.08954418 37.89356557 -0.07971462 34.46916491 -0.06866455 31.04473877 C-0.05844864 27.55261811 -0.05387053 24.06049066 -0.04882812 20.56835938 C-0.03809227 13.71222222 -0.02101684 6.85611313 0 0 Z " fill="#FEFEFE" transform="translate(179,438)"/>
<path d="M0 0 C0.99257813 0.28394623 1.98515625 0.56789246 3.0078125 0.86044312 C5.20044132 1.48925839 7.3897908 2.12959044 9.57620239 2.7796936 C13.8384677 4.03729047 18.11808497 5.22671639 22.40028954 6.41429424 C27.18357411 7.7419158 31.96254608 9.08409451 36.73901367 10.43603516 C37.45303156 10.63812497 38.16704945 10.84021479 38.90270424 11.04842854 C40.37663552 11.46567331 41.85055361 11.88296466 43.32445908 12.3003006 C47.22533604 13.40425186 51.12697964 14.50548714 55.02856445 15.60693359 C59.90032216 16.98242976 64.77201433 18.35815607 69.64338684 19.73501587 C81.60228701 23.11510581 93.56366551 26.48631046 105.526474 29.85253906 C106.94123448 30.25064689 108.3559938 30.64875887 109.77075195 31.046875 C110.82201657 31.34269974 110.82201657 31.34269974 111.89451885 31.64450073 C116.87176913 33.04529783 121.84849177 34.44795856 126.82495117 35.8515625 C129.77522267 36.68361217 132.72550083 37.5156382 135.67578125 38.34765625 C136.41971193 38.55747131 137.16364262 38.76728638 137.93011665 38.98345947 C148.71718706 42.02538689 159.50723001 45.05659374 170.29910946 48.08141518 C178.83977168 50.47548286 187.37909972 52.87427285 195.91762638 55.27594566 C201.17167389 56.75350767 206.42638581 58.22861036 211.68270874 59.69805908 C216.62288158 61.07916425 221.56128377 62.46642521 226.49840927 63.85838318 C228.33198035 64.37411225 230.16620635 64.88751899 232.00110245 65.39851379 C234.5172289 66.09958135 237.03093115 66.80875018 239.54418945 67.52001953 C240.2858948 67.72457575 241.02760015 67.92913197 241.79178143 68.13988686 C246.86166127 69.58822377 246.86166127 69.58822377 249.08984375 71.81640625 C239.81127817 80.54385764 230.51176013 89.24367547 221.08984375 97.81640625 C219.81560547 98.98429687 219.81560547 98.98429687 218.515625 100.17578125 C213.39237066 104.84059682 208.16989702 109.34367112 202.7421875 113.65234375 C200.08630932 115.75828268 200.08630932 115.75828268 197.78125 118.04296875 C195.59896444 120.05798465 193.74800302 121.4953274 191.08984375 122.81640625 C188.97802734 122.6418457 188.97802734 122.6418457 186.61328125 121.8671875 C185.63907227 121.56538574 184.66486328 121.26358398 183.66113281 120.95263672 C181.89334473 120.39020264 181.89334473 120.39020264 180.08984375 119.81640625 C177.80920856 119.14581333 175.52450125 118.49028543 173.23948669 117.83477783 C168.55998867 116.4903831 163.88823175 115.1193583 159.21484375 113.75390625 C157.66438858 113.30147552 157.66438858 113.30147552 156.08261108 112.83990479 C139.60477452 108.03125041 123.14069805 103.17677088 106.68032837 98.30871582 C104.81022598 97.75564758 104.81022598 97.75564758 102.90234375 97.19140625 C101.64424896 96.8193103 100.38615417 96.44721436 99.0899353 96.06384277 C77.92311848 89.8052009 56.73096229 83.63660934 35.52734375 77.50390625 C10.43220356 70.24545812 -14.64149172 62.91963031 -39.6829834 55.47784424 C-43.31278782 54.39984504 -46.94348116 53.32485132 -50.57421875 52.25 C-56.68665216 50.44033248 -62.79866035 48.62923752 -68.91015625 46.81640625 C-68.91015625 45.82640625 -68.91015625 44.83640625 -68.91015625 43.81640625 C-66.99389063 42.07574697 -65.10450428 40.54476777 -63.03515625 39.00390625 C-61.74601684 38.01832975 -60.45695828 37.03264751 -59.16796875 36.046875 C-58.47735352 35.52399902 -57.78673828 35.00112305 -57.07519531 34.46240234 C-53.32787591 31.61345925 -49.62238117 28.71082434 -45.91015625 25.81640625 C-44.37508997 24.62358213 -42.8399345 23.43087276 -41.3046875 22.23828125 C-37.97087451 19.64539607 -34.64343307 17.04483605 -31.33032227 14.42553711 C-30.18347697 13.52593337 -29.02904188 12.63591488 -27.86694336 11.75610352 C-24.47585872 9.17100451 -21.5290989 6.50013787 -18.72607422 3.2800293 C-11.96724468 -2.60265567 -8.25562126 -2.56936823 0 0 Z " fill="#FEFEFE" transform="translate(270.91015625,376.18359375)"/>
<path d="M0 0 C0.67675781 0.19834946 1.35351562 0.39669891 2.05078125 0.60105896 C4.18144284 1.22695622 6.30945882 1.86135127 8.4375 2.49609375 C9.89436381 2.92569842 11.35139382 3.35473992 12.80859375 3.78320312 C16.35350427 4.8268399 19.89609757 5.87810572 23.4375 6.93359375 C19.33655772 11.81982285 15.08710462 16.43908628 10.5625 20.93359375 C9.98886719 21.51109375 9.41523437 22.08859375 8.82421875 22.68359375 C5.87964852 25.62160592 2.88166986 28.44257295 -0.27978516 31.14648438 C-4.61719205 34.9259567 -8.67625315 38.93686888 -12.71875 43.02734375 C-13.4653186 43.77769897 -14.21188721 44.5280542 -14.9810791 45.30114746 C-17.34402025 47.67619295 -19.7036737 50.05446192 -22.0625 52.43359375 C-25.17410646 55.57198592 -28.28913755 58.7069212 -31.40625 61.83984375 C-32.45504333 62.90108459 -32.45504333 62.90108459 -33.52502441 63.98376465 C-37.45392575 67.93191265 -41.49271086 71.66959655 -45.71057129 75.30651855 C-48.36459372 77.63830057 -50.8297205 80.1067535 -53.3125 82.62109375 C-53.81491211 83.12729248 -54.31732422 83.63349121 -54.83496094 84.1550293 C-56.41332712 85.74541225 -57.98835009 87.3390382 -59.5625 88.93359375 C-71.361412 100.88545461 -71.361412 100.88545461 -77.703125 106.296875 C-81.15687508 109.33704577 -84.34206454 112.65025916 -87.5625 115.93359375 C-91.43722531 119.88399729 -95.30792749 123.76820476 -99.5078125 127.375 C-104.8948091 132.01255869 -109.7816582 137.14072578 -114.734375 142.23242188 C-115.45882812 142.96783203 -116.18328125 143.70324219 -116.9296875 144.4609375 C-117.58050293 145.12859131 -118.23131836 145.79624512 -118.90185547 146.48413086 C-120.5625 147.93359375 -120.5625 147.93359375 -122.5625 147.93359375 C-122.5625 148.59359375 -122.5625 149.25359375 -122.5625 149.93359375 C-123.8203125 151.16796875 -123.8203125 151.16796875 -125.6875 152.68359375 C-129.87156159 156.22738969 -133.71422874 160.03517881 -137.5625 163.93359375 C-141.72836217 168.14425601 -145.91541347 172.2060561 -150.44140625 176.03125 C-153.99316171 179.21671024 -157.31130752 182.64133025 -160.64477539 186.05297852 C-163.39830453 188.85092631 -166.19920472 191.51185719 -169.1875 194.05859375 C-175.12390381 199.18832833 -180.55267402 204.85548429 -186.0625 210.43359375 C-198.91086353 223.44118752 -198.91086353 223.44118752 -205.05664062 228.64648438 C-206.27437844 229.68732642 -207.42975167 230.80084542 -208.5625 231.93359375 C-214.04126684 231.57042038 -218.96988691 229.97518847 -224.12109375 228.2109375 C-224.91024673 227.94599991 -225.69939972 227.68106232 -226.51246643 227.40809631 C-229.01026148 226.56808833 -231.50512845 225.71974032 -234 224.87109375 C-235.70228678 224.29697077 -237.40475905 223.72339743 -239.10742188 223.15039062 C-243.26128677 221.75113941 -247.41254818 220.34440605 -251.5625 218.93359375 C-248.4364188 215.21984341 -245.34437248 211.55350787 -241.78515625 208.2421875 C-241.11476318 207.61497803 -240.44437012 206.98776855 -239.75366211 206.34155273 C-239.05120361 205.69130127 -238.34874512 205.0410498 -237.625 204.37109375 C-236.88064697 203.67636963 -236.13629395 202.98164551 -235.36938477 202.26586914 C-233.10336431 200.15192737 -230.83300952 198.04271165 -228.5625 195.93359375 C-227.26776066 194.72576244 -225.97346432 193.51745602 -224.6796875 192.30859375 C-222.22673108 190.01664593 -219.77220762 187.72639909 -217.31640625 185.4375 C-213.34834432 181.73683051 -209.39317176 178.02249591 -205.4375 174.30859375 C-200.1481306 169.34406028 -194.83610546 164.40573471 -189.49780273 159.49389648 C-185.1402326 155.47941045 -180.81782839 151.4282538 -176.5 147.37109375 C-171.90103253 143.05002919 -167.28686664 138.7492488 -162.625 134.49609375 C-157.6292024 129.93144033 -152.68157788 125.31754434 -147.75 120.68359375 C-147.04431885 120.02174072 -146.3386377 119.3598877 -145.61157227 118.67797852 C-142.29013538 115.55097486 -139.00723063 112.39747474 -135.79296875 109.16015625 C-133.50173002 106.85296771 -131.17899885 104.65145279 -128.6875 102.55859375 C-125.6778247 99.9672517 -122.85161384 97.26104592 -120.0625 94.43359375 C-116.68008601 91.00476585 -113.18179558 87.81310857 -109.52734375 84.6796875 C-106.74825486 82.21000015 -104.17389504 79.55456053 -101.56640625 76.90625 C-98.98003849 74.36021546 -96.2471472 72.01337818 -93.49609375 69.6484375 C-91.60755403 67.97355076 -89.83094352 66.23411788 -88.0625 64.43359375 C-85.69207643 62.02026658 -83.25513692 59.76087522 -80.6875 57.55859375 C-76.94016297 54.3321221 -73.47348784 50.8879966 -70.03125 47.33984375 C-67.99995806 45.35997692 -65.93761246 43.49426213 -63.796875 41.63671875 C-59.52618049 37.93067845 -55.41305536 34.0759678 -51.3125 30.18359375 C-46.24588278 25.39104227 -41.16144938 20.62390839 -36 15.93359375 C-32.67012976 12.89940871 -29.41419657 9.82756012 -26.25 6.62109375 C-25.62480469 5.9971875 -24.99960937 5.37328125 -24.35546875 4.73046875 C-23.15483523 3.52721947 -21.96988346 2.30812707 -20.80078125 1.07421875 C-20.22714844 0.5121875 -19.65351562 -0.04984375 -19.0625 -0.62890625 C-18.33546875 -1.37333984 -18.33546875 -1.37333984 -17.59375 -2.1328125 C-12.53757084 -4.45671023 -5.02808547 -1.48747528 0 0 Z " fill="#FDFDFD" transform="translate(885.5625,331.06640625)"/>
<path d="M0 0 C-0.69737653 29.11547013 -14.86908939 47.15489621 -35.12109375 67.08984375 C-36.89813911 68.89644496 -38.54715538 70.75697156 -40.1875 72.6875 C-43.44430063 76.48335728 -46.9461273 79.98622176 -50.5 83.5 C-53.94939002 86.91069262 -57.36119987 90.29621585 -60.5 94 C-64.1625616 98.32182269 -68.21073189 102.2364938 -72.2355957 106.21606445 C-75.74420899 109.70035109 -79.06168606 113.27121806 -82.26171875 117.04296875 C-84.41260639 119.46452989 -86.69611515 121.72374795 -89 124 C-91.86926241 126.83489999 -94.64486711 129.67120659 -97.25 132.75 C-101.1994044 137.37644515 -105.55676085 141.58218478 -109.87695312 145.85742188 C-113.51678735 149.47389888 -116.98133452 153.15975898 -120.296875 157.078125 C-123.23621638 160.39499647 -126.44220719 163.44892758 -129.59375 166.5625 C-131.65449345 168.65000635 -133.59515626 170.77169223 -135.5 173 C-138.19611141 176.15394165 -141.04816975 179.08373397 -144 182 C-146.86926241 184.83489999 -149.64486711 187.67120659 -152.25 190.75 C-156.19806322 195.37487406 -160.55378003 199.57929471 -164.87255859 203.85302734 C-168.55717161 207.51395144 -172.07166919 211.24543849 -175.4296875 215.2109375 C-177.83431056 217.95053292 -180.45464552 220.46295568 -183.05078125 223.01953125 C-184.85249276 224.85012791 -186.52573898 226.73031479 -188.1875 228.6875 C-191.44430001 232.48335656 -194.94611854 235.98623007 -198.5 239.5 C-202.59802757 243.55187861 -206.53127592 247.64604481 -210.26171875 252.04296875 C-213.209385 255.36157727 -216.41524245 258.42322852 -219.57421875 261.5390625 C-221.75403973 263.75047509 -223.79801083 266.01379047 -225.8125 268.375 C-228.30770038 271.29592177 -230.87815671 273.72956852 -234 276 C-233.30249937 266.83039051 -231.94149429 257.83085812 -230.4609375 248.75976562 C-230.28820312 247.67501953 -230.11546875 246.59027344 -229.9375 245.47265625 C-229.76524902 244.39999512 -229.59299805 243.32733398 -229.41552734 242.22216797 C-229.00122802 239.0095226 -228.88851804 235.87230537 -228.7890625 232.63671875 C-228.39261618 227.41898752 -227.07449241 224.90228693 -223.27734375 221.359375 C-222.33568359 220.56273437 -222.33568359 220.56273437 -221.375 219.75 C-220.1510515 218.64348793 -218.92970167 217.53409476 -217.7109375 216.421875 C-217.12565466 215.89738423 -216.54037182 215.37289347 -215.93735313 214.83250904 C-214.10326345 213.09767512 -212.48686677 211.30923571 -210.8578186 209.38298035 C-206.64225725 204.51836309 -202.1235194 199.99082776 -197.56396484 195.45043945 C-196.64438492 194.5307135 -195.72480499 193.61098755 -194.77735901 192.66339111 C-192.27768446 190.16343194 -189.77495778 187.66654934 -187.27163649 185.17024255 C-184.64165178 182.54655635 -182.01454386 179.91999266 -179.38711548 177.29374695 C-174.41582689 172.32555604 -169.44199814 167.3599164 -164.46722949 162.39521044 C-158.82014504 156.75930299 -153.17589682 151.1205588 -147.53189158 145.48156798 C-137.88118184 135.83952791 -128.2283635 126.19960361 -118.57316589 116.5620575 C-117.77706406 115.76740082 -116.98096222 114.97274414 -116.16073608 114.15400696 C-115.4311607 113.426999 -114.70158531 112.69999104 -113.94990158 111.95095253 C-112.76265683 110.76306788 -111.57977632 109.5707725 -110.40486526 108.37068748 C-108.07888206 105.99704742 -106.10674952 104.26571277 -103 103 C-103 102.34 -103 101.68 -103 101 C-101.5847311 99.60473537 -101.5847311 99.60473537 -99.59507751 97.963974 C-94.63594017 93.74285708 -90.06769874 89.1932915 -85.47875977 84.57641602 C-84.07226913 83.16768415 -82.66577837 81.75895242 -81.25928295 80.35022533 C-79.76399934 78.85159322 -78.2699713 77.35171987 -76.77630806 75.85147285 C-73.65711736 72.71867018 -70.53403529 69.58976591 -67.41038513 66.46141052 C-60.79143944 59.83141466 -54.17676862 53.19716134 -47.5625 46.5625 C-40.39639042 39.37435487 -33.22953346 32.18696378 -26.0578236 25.00440544 C-22.94986981 21.8914599 -19.8443719 18.77609081 -16.74071229 15.65886414 C-15.27982254 14.19233036 -13.8178091 12.72692835 -12.35527039 11.26203918 C-10.56857897 9.47246207 -8.7837049 7.68106815 -7.00091553 5.88760376 C-5.82979973 4.71638222 -5.82979973 4.71638222 -4.63502502 3.52149963 C-3.95314904 2.83740304 -3.27127306 2.15330645 -2.56873417 1.44847965 C-1 0 -1 0 0 0 Z " fill="#FDFDFD" transform="translate(916,483)"/>
<path d="M0 0 C8.8974146 2.22435365 17.61838237 4.60856175 26.35742188 7.33398438 C28.52229211 8.00692945 30.69069274 8.66758296 32.859375 9.328125 C34.25023084 9.75967339 35.64086451 10.19193862 37.03125 10.625 C38.27455078 11.00914062 39.51785156 11.39328125 40.79882812 11.7890625 C43.82513992 12.93385403 45.6682977 13.79971815 48 16 C48.49219131 18.21199322 48.49219131 18.21199322 48.48101807 20.84049988 C48.48651672 21.83749405 48.49201538 22.83448822 48.49768066 23.86169434 C48.48329956 24.95429565 48.46891846 26.04689697 48.45410156 27.17260742 C48.45468567 28.32396683 48.45526978 29.47532623 48.45587158 30.66157532 C48.45307943 34.47651056 48.42193245 38.29066959 48.390625 42.10546875 C48.38316668 44.74676588 48.37747182 47.38806853 48.37347412 50.02937317 C48.36103766 56.2767842 48.32820733 62.52391552 48.28807616 68.77120334 C48.24337902 75.8835527 48.22137665 82.99591536 48.20129442 90.10837018 C48.15947506 104.7390578 48.08911018 119.36952499 48 134 C31.9046141 129.27151682 15.97878975 124.13603956 0 119 C0 79.73 0 40.46 0 0 Z " fill="#FEFEFE" transform="translate(619,569)"/>
<path d="M0 0 C6.14570237 1.61749454 12.18641657 3.60468236 18.22607422 5.57519531 C20.14028772 6.19401095 22.05450133 6.81282621 23.96872139 7.43162155 C26.63648169 8.29517964 29.30299387 9.16255822 31.96954346 10.02984619 C35.28079091 11.10610445 38.59327098 12.17855212 41.90576172 13.25097656 C42.55210697 13.46023521 43.19845222 13.66949387 43.8643837 13.88509369 C45.15773518 14.30381822 46.45109172 14.72252714 47.74445343 15.14122009 C49.64957361 15.75816145 51.55449339 16.37572151 53.45941162 16.99328613 C63.3271229 20.19000409 73.21017619 23.33527359 83.10888672 26.43457031 C83.10888672 29.43457031 83.10888672 29.43457031 81.64013672 31.23144531 C80.96982422 31.87597656 80.29951172 32.52050781 79.60888672 33.18457031 C78.87541016 33.89226562 78.14193359 34.59996094 77.38623047 35.32910156 C74.70102559 37.81164947 71.94888147 40.20412472 69.17529297 42.58691406 C66.89739194 44.62367623 64.75470084 46.75931106 62.60888672 48.93457031 C59.30433878 52.27852513 55.93809556 55.4441887 52.32373047 58.45019531 C50.53849639 60.0496643 48.9698388 61.6513604 47.36279297 63.41894531 C46.61896362 64.1955249 46.61896362 64.1955249 45.86010742 64.98779297 C44.88329624 66.01051379 43.93534682 67.06187051 43.02368164 68.14306641 C41.62451172 69.56738281 41.62451172 69.56738281 38.10888672 71.43457031 C33.91746842 71.12911937 30.08784488 69.72943407 26.10888672 68.43457031 C24.7061675 68.02379461 23.30158772 67.61933535 21.89550781 67.22021484 C16.97779783 65.82405547 12.07469118 64.38038059 7.17138672 62.93457031 C5.37723919 62.40740939 3.58304907 61.88039338 1.78881836 61.35351562 C-16.11735064 56.09066575 -34.00677957 50.77108884 -51.89111328 45.43457031 C-51.89111328 42.43457031 -51.89111328 42.43457031 -49.54736328 39.98144531 C-48.50291851 39.04060408 -47.45029364 38.1087911 -46.39111328 37.18457031 C-45.56571045 36.447146 -45.56571045 36.447146 -44.72363281 35.69482422 C-43.12025767 34.2660044 -41.50755933 32.84856928 -39.89111328 31.43457031 C-39.15634766 30.78746094 -38.42158203 30.14035156 -37.66455078 29.47363281 C-36.40352906 28.36829278 -35.13921886 27.26669267 -33.87158203 26.16894531 C-31.57978173 24.16192493 -29.33114576 22.1105418 -27.07861328 20.05957031 C-22.65872688 16.06127308 -18.08251565 12.30373251 -13.41845703 8.59472656 C-11.09883206 6.61211048 -9.23273291 4.56795399 -7.26611328 2.24707031 C-4.4404921 -0.60831416 -4.31517795 -0.62705183 0 0 Z " fill="#FDFDFD" transform="translate(570.89111328125,471.5654296875)"/>
<path d="M0 0 C3.13628029 1.0576718 6.25609041 2.15796287 9.375 3.265625 C10.95253766 3.81159585 12.53066116 4.35587704 14.109375 4.8984375 C17.14865194 5.94485948 20.18339568 7.0030672 23.21533203 8.07055664 C27.80552753 9.67961938 32.4338911 11.16317876 37.07763672 12.61010742 C41.64497176 14.41034607 43.69252592 17.49191388 46.375 21.515625 C46.58249866 24.0709018 46.67905036 26.51452221 46.67578125 29.0703125 C46.68006638 29.80887482 46.6843515 30.54743713 46.68876648 31.30838013 C46.69450585 32.87012712 46.69501292 34.43190084 46.69067383 35.99365234 C46.6875205 38.37514276 46.71095283 40.75538251 46.73632812 43.13671875 C46.73860194 44.65624844 46.73930423 46.17578145 46.73828125 47.6953125 C46.747491 48.40380341 46.75670074 49.11229431 46.76618958 49.84225464 C46.72517858 54.25784953 46.11401132 57.02904748 43.375 60.515625 C39.43886118 64.06288436 36.48063865 63.94883015 31.36074829 63.8001709 C26.52215936 63.33904675 22.07115839 62.05237534 17.44921875 60.59375 C16.45799515 60.29249207 15.46677155 59.99123413 14.44551086 59.68084717 C12.36855722 59.04588549 10.29386812 58.40347225 8.22143555 57.75390625 C5.05883621 56.76447877 1.88881797 55.80248805 -1.28320312 54.84375 C-3.31038903 54.22035153 -5.33709958 53.59540476 -7.36328125 52.96875 C-8.30399979 52.68316223 -9.24471832 52.39757446 -10.21394348 52.10333252 C-16.38844894 50.1498905 -21.71090755 48.36210732 -25.47290039 42.76757812 C-26.82724598 38.94475904 -27.07502417 35.49057978 -27.05859375 31.484375 C-27.0638356 30.73023315 -27.06907745 29.97609131 -27.07447815 29.19909668 C-27.08087149 27.61239854 -27.07959632 26.02565282 -27.07104492 24.43896484 C-27.06252336 22.02224857 -27.09134803 19.60789022 -27.12304688 17.19140625 C-27.12465897 15.64322987 -27.12408119 14.09504934 -27.12109375 12.546875 C-27.13232773 11.83108276 -27.14356171 11.11529053 -27.15513611 10.37780762 C-27.08532094 5.31034327 -25.8149894 2.41636055 -22.625 -1.484375 C-15.68333123 -4.95520938 -6.95313857 -2.28429153 0 0 Z " fill="#010101" transform="translate(198.625,599.484375)"/>
<path d="M0 0 C3.67767584 0.83440973 7.23375428 1.96886388 10.81640625 3.140625 C12.33934547 3.62580597 12.33934547 3.62580597 13.89305115 4.12078857 C16.03034487 4.80460918 18.16582821 5.49411132 20.29956055 6.18896484 C23.55124631 7.24634055 26.80909369 8.28266283 30.06835938 9.31640625 C32.15144124 9.9857369 34.23413722 10.65626993 36.31640625 11.328125 C37.28324844 11.63558655 38.25009064 11.9430481 39.24623108 12.25982666 C52.29674868 16.54056944 52.29674868 16.54056944 55.91259766 21.76171875 C57.17213251 25.51261016 57.43267285 28.90047229 57.3984375 32.8125 C57.40130768 33.5444458 57.40417786 34.2763916 57.40713501 35.03051758 C57.40916647 36.57015766 57.40370112 38.1098241 57.39111328 39.64941406 C57.37504503 41.99343084 57.39099177 44.33572374 57.41015625 46.6796875 C57.40817365 48.18229544 57.40432963 49.68490231 57.3984375 51.1875 C57.40451019 51.88141846 57.41058289 52.57533691 57.4168396 53.2902832 C57.35080046 57.90556835 56.53194117 61.13006444 54 65 C49.18798047 67.98351723 44.04948973 67.6273624 38.64257812 66.51501465 C36.15393011 65.83981295 33.7044464 65.08731873 31.25 64.296875 C30.3518457 64.01781311 29.45369141 63.73875122 28.52832031 63.45123291 C26.64069235 62.86200528 24.75496041 62.26667204 22.87109375 61.66552734 C20.01202846 60.75383561 17.1474282 59.86170227 14.28125 58.97265625 C12.43714204 58.39436944 10.59337989 57.81497848 8.75 57.234375 C7.90598633 56.97066101 7.06197266 56.70694702 6.19238281 56.4352417 C-10.31274844 51.14541926 -10.31274844 51.14541926 -14 45 C-15.3387139 41.180203 -15.15158718 37.24663879 -15.125 33.25 C-15.12089111 32.50645264 -15.11678223 31.76290527 -15.11254883 30.99682617 C-15.06119966 25.76528483 -14.93758391 20.5383913 -14.6875 15.3125 C-14.62949219 14.05050781 -14.57148438 12.78851562 -14.51171875 11.48828125 C-13.96069613 7.73207363 -12.98650087 5.22275557 -11 2 C-7.21896004 -0.52069331 -4.37079214 -0.49001213 0 0 Z " fill="#010101" transform="translate(270,622)"/>
<path d="M0 0 C2.09495998 0.6249455 4.19586647 1.2254739 6.29858398 1.82373047 C7.65121785 2.2194319 9.00344689 2.61652035 10.35522461 3.01513672 C11.56525146 3.37124023 12.77527832 3.72734375 14.02197266 4.09423828 C18.74188929 5.8799134 23.15455559 8.4385456 26.40600586 12.37451172 C27.3007987 15.05889024 27.54050534 16.64317838 27.56713867 19.39941406 C27.57674622 20.20389984 27.58635376 21.00838562 27.59625244 21.83724976 C27.60050232 22.70290558 27.6047522 23.5685614 27.60913086 24.46044922 C27.61483093 25.35438385 27.62053101 26.24831848 27.62640381 27.16934204 C27.63584842 29.06063658 27.64238565 30.95194753 27.64624023 32.84326172 C27.65594559 35.73157547 27.68697372 38.61917746 27.71850586 41.50732422 C27.72503622 43.34586166 27.73028656 45.18440419 27.73413086 47.02294922 C27.74647766 47.88455658 27.75882446 48.74616394 27.77154541 49.63388062 C27.75401204 54.37077416 27.53603681 57.5684577 24.40600586 61.37451172 C21.51700697 64.10756077 19.53533271 64.81096948 15.58178711 64.82763672 C8.90389736 64.63680817 2.83474003 62.80768842 -3.484375 60.74902344 C-5.41568402 60.12152586 -7.35411841 59.52189942 -9.29516602 58.92529297 C-16.6177196 56.60248606 -22.71346328 54.63127274 -27.93798828 48.72436523 C-30.13693315 44.27622687 -30.15315468 40.67246122 -30.09008789 35.77685547 C-30.09154312 34.86496964 -30.09299835 33.9530838 -30.09449768 33.01356506 C-30.09284337 31.0930765 -30.08133471 29.17257403 -30.06054688 27.25219727 C-30.03155119 24.31778547 -30.03995598 21.38517762 -30.05297852 18.45068359 C-30.04674164 16.58023214 -30.0383511 14.70978636 -30.02758789 12.83935547 C-30.03052353 11.96528549 -30.03345917 11.09121552 -30.03648376 10.19065857 C-29.96370727 5.47937003 -29.76992493 2.12289312 -26.59399414 -1.62548828 C-18.69570266 -6.83766913 -8.24265423 -2.46746592 0 0 Z " fill="#010101" transform="translate(502.593994140625,692.62548828125)"/>
<path d="M0 0 C1.13179687 0.34353516 2.26359375 0.68707031 3.4296875 1.04101562 C18.07436688 5.6110473 18.07436688 5.6110473 21.40576172 10.73339844 C23.12264034 15.14502189 23.18193527 18.8767461 23.1484375 23.56640625 C23.15130768 24.45609604 23.15417786 25.34578583 23.15713501 26.26243591 C23.15916914 28.1358199 23.15368497 30.00922545 23.14111328 31.88256836 C23.12503112 34.74446163 23.14099372 37.60494684 23.16015625 40.46679688 C23.15817407 42.29166977 23.15433093 44.11654179 23.1484375 45.94140625 C23.15754654 47.21970055 23.15754654 47.21970055 23.1668396 48.52381897 C23.11118447 53.23864973 22.79400356 56.35282825 19.75 60.1875 C15.86259067 63.31902418 12.56799735 63.68879749 7.75 63.1875 C3.26477013 62.3012663 -1.14185125 61.16231538 -5.5625 60 C-6.73490234 59.70802734 -7.90730469 59.41605469 -9.11523438 59.11523438 C-27.05069503 54.45862399 -27.05069503 54.45862399 -30.99584961 48.59082031 C-32.57944429 44.2935048 -32.68198444 40.63870475 -32.6484375 36.09765625 C-32.65274277 34.80353065 -32.65274277 34.80353065 -32.65713501 33.48326111 C-32.65916917 31.6653477 -32.65368478 29.84741209 -32.64111328 28.02954102 C-32.62506973 25.2620292 -32.6409736 22.49598199 -32.66015625 19.72851562 C-32.65817332 17.95572597 -32.65432861 16.18293722 -32.6484375 14.41015625 C-32.65451019 13.5901564 -32.66058289 12.77015656 -32.6668396 11.92530823 C-32.59320864 5.84471592 -31.73081745 0.66831745 -27.25 -3.8125 C-18.51339867 -6.72470044 -8.3825193 -2.66672525 0 0 Z " fill="#010101" transform="translate(575.25,714.8125)"/>
<path d="M0 0 C0.88796768 0.19522751 1.77593536 0.39045502 2.69081116 0.59159851 C4.16383194 0.90793747 4.16383194 0.90793747 5.66661072 1.23066711 C10.31604236 2.34498982 14.94621454 3.50013809 19.56214905 4.74662781 C21.06690796 5.14738022 21.06690796 5.14738022 22.60206604 5.55622864 C25.81774841 6.41372943 29.03175629 7.27732612 32.2457428 8.14115906 C34.45259578 8.73095855 36.65954599 9.32039435 38.86659241 9.9094696 C44.1952768 11.3328929 49.52261536 12.76126488 54.84925842 14.19230652 C57.40181941 14.8780544 59.95458173 15.56304457 62.50746155 16.24760437 C69.56830215 18.14132808 76.62759238 20.04067965 83.6832428 21.95365906 C79.39819193 27.04364674 74.9623518 31.86054569 70.18714905 36.50053406 C68.6281619 38.02790368 67.10655367 39.59565463 65.64808655 41.21928406 C63.72294662 43.22743823 62.11742879 44.60980818 59.6832428 45.95365906 C57.48712158 45.94538879 57.48712158 45.94538879 55.00819397 45.41117859 C54.0340152 45.20204834 53.05983643 44.99291809 52.05613708 44.77745056 C45.14631094 43.08980322 38.28179884 41.25998418 31.42152405 39.38334656 C29.77825551 38.93740146 28.13487687 38.49186186 26.49139404 38.04670715 C22.20127422 36.88353023 17.91265578 35.71491164 13.62434387 34.54508972 C9.23407626 33.3485132 4.84238727 32.15717718 0.45082092 30.96537781 C-8.13975791 28.63321751 -16.7287572 26.29529647 -25.3167572 23.95365906 C-21.57575384 15.96801529 -13.63872269 10.06021429 -7.00816345 4.42631531 C-5.28715934 3.01879996 -5.28715934 3.01879996 -4.02401733 1.32174683 C-2.3167572 -0.04634094 -2.3167572 -0.04634094 0 0 Z " fill="#FDFDFD" transform="translate(760.3167572021484,298.0463409423828)"/>
<path d="M0 0 C4.92693241 0.48998826 9.46699584 1.61006282 14.1953125 3.046875 C14.88529831 3.25457016 15.57528412 3.46226532 16.28617859 3.67625427 C17.78326577 4.12723981 19.27970109 4.58039379 20.77554321 5.03549194 C24.85352731 6.2756733 28.93665564 7.49869302 33.01953125 8.72265625 C33.88722641 8.98311234 34.75492157 9.24356842 35.64891052 9.51191711 C46.6806349 12.81542081 57.74682502 15.99998073 68.8125 19.1875 C69.82387024 19.47902954 70.83524048 19.77055908 71.8772583 20.07092285 C77.58427442 21.71591436 83.29185427 23.35893268 89 25 C88.21012695 25.78189697 87.42025391 26.56379395 86.60644531 27.36938477 C84.07365876 29.84073962 84.07365876 29.84073962 82.296875 32.08984375 C81.53117188 33.00443359 81.53117188 33.00443359 80.75 33.9375 C80.24984375 34.56527344 79.7496875 35.19304687 79.234375 35.83984375 C73.15376666 38.99708269 60.41917633 32.87599771 54.15625 31.04296875 C52.81985376 30.65399956 51.48338578 30.26527675 50.14685059 29.87678528 C46.64118672 28.8570501 43.13653333 27.83388419 39.63208008 26.80999756 C36.11993694 25.78456678 32.60678892 24.76259112 29.09375 23.74023438 C15.72306549 19.8476416 2.35616333 15.94216601 -11 12 C-9.42078136 8.62484156 -7.80994786 6.715764 -4.9375 4.3125 C-3.86822266 3.40951172 -3.86822266 3.40951172 -2.77734375 2.48828125 C-1.89755859 1.75158203 -1.89755859 1.75158203 -1 1 C-0.67 0.67 -0.34 0.34 0 0 Z " fill="#FBFBFB" transform="translate(626,418)"/>
<path d="M0 0 C1.07031464 0.2922345 2.14062927 0.58446899 3.24337769 0.88555908 C4.33747955 1.19708923 5.43158142 1.50861938 6.55883789 1.82958984 C7.5571463 2.10132019 8.55545471 2.37305054 9.58401489 2.65301514 C12.68514984 3.49731014 15.78045019 4.36079266 18.87524414 5.22802734 C20.58006203 5.70328354 20.58006203 5.70328354 22.31932068 6.18814087 C25.92041682 7.19211274 29.52094039 8.19811564 33.12133789 9.20458984 C48.57278749 13.52297228 64.02625047 17.81129178 79.55883789 21.82958984 C79.55883789 23.82958984 79.55883789 23.82958984 77.98461914 25.41552734 C77.28723633 26.00591797 76.58985352 26.59630859 75.87133789 27.20458984 C74.84459961 28.08244141 74.84459961 28.08244141 73.79711914 28.97802734 C72.68916992 29.89455078 72.68916992 29.89455078 71.55883789 30.82958984 C70.89110352 31.63267578 70.22336914 32.43576172 69.53540039 33.26318359 C65.94932328 35.15034491 65.21130823 34.81261424 61.40649414 33.77880859 C59.13752876 33.04700095 56.87638319 32.29072866 54.62133789 31.51708984 C51.96580129 30.66101291 49.30883741 29.81163302 46.64868164 28.97021484 C45.90372437 28.73241806 45.15876709 28.49462128 44.39123535 28.24961853 C32.25652434 24.41532079 19.95099605 21.14610177 7.68383789 17.76708984 C5.2033732 17.08141572 2.72298439 16.39546701 0.24267578 15.70922852 C-5.65100453 14.07929161 -11.5456587 12.4529195 -17.44116211 10.82958984 C-17.03849121 10.36053223 -16.63582031 9.89147461 -16.22094727 9.40820312 C-15.68775879 8.78671387 -15.15457031 8.16522461 -14.60522461 7.52490234 C-14.07880371 6.91146973 -13.55238281 6.29803711 -13.01000977 5.66601562 C-12.02813885 4.51667964 -11.06792355 3.34806863 -10.1418457 2.15332031 C-6.74457934 -1.55927243 -4.45368018 -1.24590479 0 0 Z " fill="#FBFBFB" transform="translate(721.441162109375,338.17041015625)"/>
<path d="M0 0 C1.35936663 0.38044986 2.71698449 0.76718923 4.07302856 1.15931702 C4.82200912 1.37082901 5.57098969 1.582341 6.34266663 1.80026245 C8.79114703 2.4934966 11.23706454 3.19531011 13.68289185 3.89784241 C15.39293227 4.38519535 17.10306769 4.87221509 18.81329346 5.35891724 C22.38325865 6.37637601 25.95194972 7.39816007 29.51980591 8.42298889 C34.09735348 9.73741109 38.67805746 11.04042922 43.25977898 12.34021664 C46.78520247 13.34177304 50.30882885 14.34953361 53.83194351 15.35917854 C55.52111547 15.84239328 57.21086133 16.3236064 58.90118027 16.8027935 C61.25590927 17.47128576 63.6080731 18.14813771 65.95974731 18.82728577 C66.65999527 19.02424042 67.36024323 19.22119507 68.08171082 19.42411804 C71.05730572 20.29208292 72.90007394 20.82986825 75.12820435 23.05799866 C74.31416138 23.76376038 74.31416138 23.76376038 73.4836731 24.48377991 C72.76824341 25.10639709 72.05281372 25.72901428 71.31570435 26.37049866 C70.60800903 26.98538147 69.90031372 27.60026428 69.1711731 28.23377991 C67.15129 29.93758651 67.15129 29.93758651 65.79974365 31.7071991 C64.12820435 33.05799866 64.12820435 33.05799866 61.93518066 33.05381775 C61.07897125 32.86941132 60.22276184 32.68500488 59.34060669 32.49501038 C58.35759583 32.28374512 57.37458496 32.07247986 56.36178589 31.85481262 C50.44374347 30.39649812 44.58335317 28.76183912 38.72976685 27.06581116 C37.36427872 26.67425979 35.99866525 26.28314529 34.63293457 25.8924408 C31.78635183 25.07696346 28.94077111 24.25811428 26.09597778 23.43641663 C22.48810769 22.39431671 18.87864915 21.35786387 15.26851845 20.32362556 C11.77590682 19.32285662 8.28403108 18.31953208 4.79226685 17.31581116 C4.1459795 17.13018742 3.49969215 16.94456367 2.83382034 16.75331497 C-5.76436829 14.28113027 -14.33012882 11.71899138 -22.87179565 9.05799866 C-15.39339241 -0.02512993 -11.82391898 -2.87673951 0 0 Z " fill="#FBFBFB" transform="translate(696.8717956542969,366.94200134277344)"/>
<path d="M0 0 C6.46494639 0.96885519 12.69019914 2.90024029 18.94677734 4.75073242 C20.27828029 5.13908498 21.6099594 5.52683399 22.94180298 5.91401672 C25.72849657 6.72576242 28.51372239 7.54229562 31.29785156 8.36279297 C34.80656609 9.39679944 38.3175867 10.42266733 41.82960129 11.44540215 C56.66554287 15.76669574 71.47027462 20.16894605 86.17333984 24.92651367 C85.76196777 25.40282227 85.3505957 25.87913086 84.92675781 26.36987305 C84.38680176 26.99700195 83.8468457 27.62413086 83.29052734 28.27026367 C82.75540527 28.89094727 82.2202832 29.51163086 81.66894531 30.15112305 C80.4997514 31.53903982 79.38719146 32.97471151 78.29833984 34.42651367 C75.50064248 36.40135887 73.68335948 35.84161331 70.40994263 35.35635376 C66.70874125 34.64504072 63.16196274 33.55435407 59.57568359 32.40698242 C58.75950058 32.15207031 57.94331757 31.8971582 57.10240173 31.63452148 C54.43656703 30.80052505 51.77376454 29.95725035 49.11083984 29.11401367 C47.25641944 28.53229216 45.40176097 27.95132904 43.546875 27.37109375 C40.67468573 26.47240065 37.80270193 25.57309054 34.93151855 24.67118835 C25.51582938 21.713546 16.08424732 18.80849866 6.64944458 15.9125061 C3.26843783 14.87459776 -0.11204465 13.83498769 -3.49253845 12.79541016 C-6.60378578 11.83869926 -9.71521411 10.88257808 -12.82666016 9.92651367 C-11.89075512 8.82099477 -10.95286158 7.71715914 -10.01416016 6.61401367 C-9.49208984 5.99913086 -8.97001953 5.38424805 -8.43212891 4.75073242 C-7.90232422 4.14874023 -7.37251953 3.54674805 -6.82666016 2.92651367 C-6.37747223 2.3923735 -5.9282843 1.85823334 -5.46548462 1.3079071 C-3.82666016 -0.07348633 -3.82666016 -0.07348633 0 0 Z " fill="#FBFCFC" transform="translate(598.82666015625,446.073486328125)"/>
<path d="M0 0 C6.90577451 1.08757429 13.59514284 3.29787041 20.28833008 5.27294922 C21.79737756 5.71329954 23.30659194 6.15307829 24.81596375 6.59231567 C28.77687256 7.74648151 32.73565353 8.90777901 36.69396973 10.07080078 C41.47822853 11.47519432 46.26478471 12.87173198 51.05117321 14.26884651 C54.78108069 15.35765364 58.51059193 16.44774849 62.23884583 17.54220581 C69.73868742 19.74121507 77.24858661 21.88938605 84.80004883 23.90576172 C83.33530682 25.64232604 81.86329417 27.36802222 80.36254883 29.07373047 C78.69076695 30.96785703 78.69076695 30.96785703 77.05004883 33.46826172 C73.75294148 35.57474697 71.67784002 34.50703925 67.96716309 33.69238281 C61.35166017 32.04928006 54.8221269 30.11155788 48.28442383 28.18701172 C46.69893088 27.72349857 45.11333739 27.26032918 43.52764893 26.79748535 C40.22218489 25.83174376 36.91753415 24.86328664 33.61352539 23.89257812 C29.38930322 22.6515343 25.16372793 21.41517942 20.93761826 20.18058014 C16.88609474 18.99679016 12.83522549 17.81076903 8.78442383 16.62451172 C8.01831535 16.40034073 7.25220688 16.17616974 6.462883 15.94520569 C4.2855235 15.30762631 2.10863226 14.66847385 -0.06811523 14.02880859 C-1.30370178 13.66621948 -2.53928833 13.30363037 -3.81231689 12.93005371 C-6.96261144 11.97752424 -10.08373502 10.96388572 -13.19995117 9.90576172 C-11.53328451 8.23909505 -9.86661784 6.57242839 -8.19995117 4.90576172 C-7.43682617 3.95701172 -6.67370117 3.00826172 -5.88745117 2.03076172 C-3.19995117 -0.09423828 -3.19995117 -0.09423828 0 0 Z " fill="#FBFBFB" transform="translate(658.199951171875,392.09423828125)"/>
<path d="M0 0 C1.65 0.433125 3.3 0.86625 5 1.3125 C5.928125 1.55613281 6.85625 1.79976562 7.8125 2.05078125 C11.6027038 3.17948165 15.29710405 4.61141402 19 6 C19 12.6 19 19.2 19 26 C15.1328125 25.0409375 15.1328125 25.0409375 11.1875 24.0625 C10.37949951 23.86277588 9.57149902 23.66305176 8.73901367 23.45727539 C5.78787949 22.72236116 2.88632236 21.96210745 0 21 C0 14.07 0 7.14 0 0 Z " fill="#F9F9F9" transform="translate(492,710)"/>
<path d="M0 0 C7.50468866 1.7543428 14.83773448 3.81304029 22.1875 6.125 C23.46234253 6.52356201 23.46234253 6.52356201 24.76293945 6.93017578 C25.55659912 7.1826709 26.35025879 7.43516602 27.16796875 7.6953125 C27.88235107 7.92234863 28.5967334 8.14938477 29.33276367 8.38330078 C31 9 31 9 32 10 C32 13.96 32 17.92 32 22 C21.44 18.7 10.88 15.4 0 12 C0 8.04 0 4.08 0 0 Z " fill="#FAFAFA" transform="translate(275,645)"/>
<path d="M0 0 C16.83 5.445 16.83 5.445 34 11 C34 14.63 34 18.26 34 22 C22.45025678 19.34668061 11.26405157 15.65781034 0 12 C0 8.04 0 4.08 0 0 Z " fill="#F9F9F9" transform="translate(191,619)"/>
<path d="M0 0 C7 1 7 1 17 4 C17 10.93 17 17.86 17 25 C11.25872062 23.45965675 5.64298266 21.88099422 0 20 C0 13.4 0 6.8 0 0 Z " fill="#FBFBFB" transform="translate(562,732)"/>
</svg>
