<?xml version="1.0" encoding="UTF-8"?>
<svg version="1.1" xmlns="http://www.w3.org/2000/svg" width="1024" height="1024">
<path d="M0 0 C337.92 0 675.84 0 1024 0 C1024 337.92 1024 675.84 1024 1024 C686.08 1024 348.16 1024 0 1024 C0 686.08 0 348.16 0 0 Z " fill="#010101" transform="translate(0,0)"/>
<path d="M0 0 C337.92 0 675.84 0 1024 0 C1024 337.92 1024 675.84 1024 1024 C686.08 1024 348.16 1024 0 1024 C0 686.08 0 348.16 0 0 Z M138 93 C134.1540633 99.60667682 130.90509746 105.76767115 130.84262276 113.49934101 C130.83301454 114.4038576 130.82340633 115.30837418 130.81350696 116.24030036 C130.80794792 117.23280132 130.80238888 118.22530228 130.79666138 119.24787903 C130.78696292 120.30894499 130.77726446 121.37001095 130.76727211 122.46323043 C130.7359115 126.05594968 130.71183082 129.64867855 130.68798828 133.24145508 C130.66756096 135.84032845 130.64685582 138.43919964 130.62589645 141.03806877 C130.56926342 148.23235335 130.52127065 155.42668222 130.47503424 162.62104011 C130.45035218 166.45808106 130.42435806 170.29511179 130.3979333 174.13214109 C129.83474133 255.9983694 129.84669772 337.86563031 129.87053815 419.73340143 C129.87504574 435.51587363 129.87419518 451.29833846 129.86962891 467.08081055 C129.86420129 485.8466155 129.86220854 504.61241618 129.86524117 523.37822181 C129.86555944 525.39932716 129.86587382 527.42043251 129.86618423 529.44153786 C129.86633851 530.43367558 129.86649279 531.4258133 129.86665174 532.44801581 C129.86748964 539.20232608 129.86609131 545.9566334 129.86370468 552.71094322 C129.85588847 577.4741743 129.88367609 602.2370117 130 627 C130.00430263 627.91862778 130.00860526 628.83725556 130.01303828 629.78372055 C130.07205525 642.05349743 130.1563671 654.32282577 130.2724154 666.59219706 C130.3056523 670.14031448 130.33260867 673.68838682 130.35374618 677.23659647 C130.37883438 681.36639154 130.41820298 685.49581415 130.46836123 689.62537859 C130.48439268 691.12538331 130.49572375 692.62544786 130.50167242 694.12552644 C130.56447543 708.35915859 131.34118653 722.14616821 141.734375 732.7734375 C148.75727659 739.14376859 155.43690631 741.15720297 164.8125 741.0625 C166.55466797 741.04896484 166.55466797 741.04896484 168.33203125 741.03515625 C169.21246094 741.02355469 170.09289062 741.01195312 171 741 C170.99585193 742.33626245 170.99585193 742.33626245 170.99162006 743.69952011 C170.92526924 765.40957716 170.87567519 787.11961665 170.84456348 808.82975388 C170.82911689 819.32875976 170.80806969 829.82769782 170.77368164 840.32666016 C170.74371158 849.48116422 170.72440896 858.63561914 170.71773452 867.79017091 C170.71383513 872.63416012 170.70471727 877.4780088 170.68280983 882.32195282 C170.66232435 886.88883888 170.6561904 891.45552757 170.66067696 896.02245522 C170.65985712 897.69126015 170.65396373 899.36007225 170.64238358 901.0288372 C170.56311566 913.04965923 170.50498854 926.4676439 179 936 C179.66 936 180.32 936 181 936 C181 936.66 181 937.32 181 938 C182.89397352 939.72797859 182.89397352 939.72797859 185.375 941.4375 C186.18710938 942.03433594 186.99921875 942.63117187 187.8359375 943.24609375 C195.50463846 947.49701564 203.14317943 948.44106383 211.78881741 948.37752342 C212.83372173 948.38188374 213.87862605 948.38624407 214.95519415 948.39073652 C218.44970905 948.4016678 221.94382734 948.39128034 225.43833923 948.38095093 C227.97175964 948.38440832 230.50517855 948.38917343 233.03859431 948.39513266 C238.54327497 948.40504602 244.04783485 948.4056512 249.55251694 948.39799118 C257.73827592 948.38663135 265.92396055 948.39245139 274.10971905 948.4016161 C288.73077396 948.4174066 303.35178953 948.41604678 317.97284818 948.40737936 C330.76863663 948.39983128 343.56441066 948.39786325 356.36020088 948.4014473 C357.20913404 948.40167645 358.05806719 948.40190561 358.93272559 948.40214171 C362.37887446 948.40307573 365.82502331 948.40403093 369.27117216 948.405021 C401.5966679 948.41419731 433.9221386 948.40587885 466.24763047 948.38973031 C494.96189402 948.37549486 523.67611766 948.37676638 552.39038086 948.39111328 C584.65542528 948.40718045 616.92044757 948.41354523 649.18549544 948.40427649 C652.62565807 948.40331435 656.06582071 948.40237583 659.50598335 948.4014473 C660.35303109 948.40121006 661.20007883 948.40097283 662.07279468 948.40072841 C674.85931098 948.39731722 687.64581128 948.40130457 700.43232536 948.40888596 C714.97319017 948.41746458 729.51400949 948.41531749 744.05486863 948.39904372 C752.1910389 948.39023809 760.32711066 948.38965514 768.46327837 948.40098225 C774.53901592 948.40850734 780.61462587 948.40033898 786.69035573 948.38605852 C789.14783901 948.38270629 791.60533548 948.38441468 794.06281029 948.39168589 C797.40384141 948.40081334 800.74433814 948.39144586 804.08534145 948.37752342 C805.03865393 948.38454692 805.99196641 948.39157042 806.97416714 948.39880675 C818.68747169 948.30130509 828.30542877 945.16430817 836.97265625 937.18359375 C846.42326515 927.25142516 846.57016643 916.31188838 846.45410156 903.34130859 C846.4529717 901.56645737 846.45360965 899.79160429 846.45587158 898.01675415 C846.45701424 893.22394475 846.4335778 888.43153981 846.40557575 883.63882399 C846.3804871 878.62069749 846.37821423 873.60256064 846.37347412 868.5843811 C846.36106623 859.09314596 846.32827428 849.60209618 846.28807616 840.11094248 C846.24329029 829.30078528 846.22135429 818.49061899 846.20129442 807.68039203 C846.15953967 785.45349142 846.08923026 763.22675741 846 741 C847.96054321 741.01740234 847.96054321 741.01740234 849.96069336 741.03515625 C851.69124206 741.0445391 853.4217923 741.05363877 855.15234375 741.0625 C856.01194702 741.07087891 856.87155029 741.07925781 857.75720215 741.08789062 C869.31028322 741.13225091 876.66780796 738.23145742 885 730 C892.41420197 721.32148149 894.46167329 711.61121772 894.37752342 700.42703247 C894.38188374 699.40546578 894.38624407 698.38389909 894.39073652 697.33137584 C894.40166438 693.91625608 894.39128198 690.50154244 894.38095093 687.08642578 C894.38440845 684.61003984 894.38917365 682.13365543 894.39513266 679.65727425 C894.40504476 674.27723496 894.40565213 668.89731483 894.39799118 663.51728058 C894.38663002 655.51691649 894.39245205 647.51662845 894.4016161 639.51626486 C894.41740533 625.22652431 894.41604734 610.93682402 894.40737936 596.64707965 C894.39983115 584.14185168 894.39786332 571.63663847 894.4014473 559.13140869 C894.40167645 558.30173927 894.40190561 557.47206984 894.40214171 556.61725892 C894.40307573 553.24931608 894.40403093 549.88137325 894.405021 546.51343042 C894.41419692 514.92291193 894.40587931 483.33241907 894.38973031 451.74190453 C894.37549361 423.67883408 894.3767675 395.61580447 894.39111328 367.55273438 C894.40717899 336.01980144 894.41354616 304.48689115 894.40427649 272.9539547 C894.40331435 269.59216691 894.40237582 266.23037911 894.4014473 262.86859131 C894.40121006 262.04084025 894.40097283 261.2130892 894.40072841 260.36025478 C894.39731674 247.86323086 894.40130543 235.36622331 894.40888596 222.86920166 C894.41746286 208.65878602 894.41532109 194.44841691 894.39904372 180.23800707 C894.39023545 172.2860339 894.38965897 164.33416153 894.40098225 156.38219098 C894.40850337 150.44535968 894.40034453 144.50861735 894.38605852 138.57179618 C894.38270446 136.16951205 894.38441878 133.76721445 894.39168589 131.36493897 C894.40080369 128.10075622 894.39145571 124.83712169 894.37752342 121.57296753 C894.38454692 120.63948888 894.39157042 119.70601022 894.39880675 118.74424434 C894.2915918 106.18259311 889.76066604 96.87335051 881.25 87.8125 C871.0670669 78.0765277 860.87615661 75.69116971 847.18947792 75.74273109 C846.00982342 75.73922502 844.83016892 75.73571895 843.61476731 75.73210663 C840.34350862 75.72441182 837.07239448 75.72564079 833.80113511 75.73066217 C830.24102171 75.73393403 826.68093194 75.72564192 823.12082613 75.71884382 C816.88221876 75.70854231 810.64364242 75.70570029 804.40502739 75.70775604 C795.12791724 75.71080559 785.85084144 75.70248313 776.57373797 75.69200679 C759.04135977 75.67266124 741.50899328 75.66703838 723.97660567 75.66589268 C710.43902593 75.6649738 696.90145078 75.6608582 683.36387253 75.65449142 C679.46794554 75.65269636 675.57201855 75.65091673 671.67609155 75.64914167 C670.70757402 75.64869957 669.73905649 75.64825748 668.74118994 75.64780198 C641.4977364 75.63549316 614.25428446 75.62760091 587.01082802 75.62848854 C585.98362045 75.6285197 584.95641288 75.62855086 583.89807781 75.62858296 C578.6916823 75.62874917 573.48528679 75.62894726 568.27889128 75.62915237 C566.72785772 75.62921221 566.72785772 75.62921221 565.14549014 75.62927325 C563.05444561 75.62935413 560.96340109 75.62943772 558.87235656 75.62952404 C526.3318787 75.63074982 493.7914425 75.61573154 461.25097656 75.58837891 C424.69845519 75.55766657 388.1459612 75.54044586 351.59342611 75.54230535 C347.69687041 75.54245461 343.80031471 75.54255203 339.903759 75.54261398 C338.94431565 75.54263729 337.9848723 75.5426606 336.99635491 75.54268462 C321.54864659 75.54274619 306.1009744 75.52996826 290.65327683 75.51274945 C275.13246938 75.49580676 259.61171487 75.49380848 244.0909033 75.5069681 C234.86805461 75.51436604 225.64536664 75.5106741 216.42253493 75.49108342 C210.26236169 75.47910279 204.10230511 75.48165307 197.94213727 75.49602441 C194.43198208 75.50380363 190.92213839 75.50529297 187.4120049 75.48910971 C183.62845077 75.47503724 179.84572982 75.4855384 176.06220436 75.50222206 C174.9757412 75.4922857 173.88927803 75.48234934 172.76989174 75.47211188 C159.31823393 75.59783148 146.26997981 82.24310501 138 93 Z " fill="#FEFEFE" transform="translate(0,0)"/>
<path d="M0 0 C7.26 0 14.52 0 22 0 C22.00054477 2.32873295 22.00108953 4.6574659 22.00165081 7.05676651 C22.0153571 62.3372031 22.05543848 117.61757354 22.12685562 172.89796676 C22.13563926 179.70215987 22.14417795 186.50635329 22.15258789 193.31054688 C22.15342894 193.98763635 22.15426999 194.66472582 22.15513652 195.36233316 C22.18226952 217.29828153 22.19323604 239.23420168 22.19579524 261.17016553 C22.19858835 284.35680524 22.21985287 307.54336629 22.26052457 330.72997642 C22.28428831 344.61680623 22.29332327 358.5034852 22.28351311 372.39033255 C22.27819705 381.91330247 22.29122847 391.43613724 22.3186629 400.95906869 C22.33394973 406.4531761 22.34117067 411.94698103 22.32659721 417.44109726 C22.31342308 422.47509266 22.32338509 427.50850247 22.35143773 432.54243204 C22.35753594 434.35958342 22.35527918 436.17678702 22.34362926 437.9939113 C22.28159475 448.49491961 23.07346207 456.46962757 28 466 C28.33 466.99 28.66 467.98 29 469 C29.99 469.33 30.98 469.66 32 470 C32 470.66 32 471.32 32 472 C34.80524845 473.42175092 37.63240199 474.77109884 40.5 476.0625 C41.62921875 476.57490234 41.62921875 476.57490234 42.78125 477.09765625 C46.63754776 478.66597453 49.97345303 479.12567426 54.13385201 479.13142776 C55.69885073 479.13718948 55.69885073 479.13718948 57.29546559 479.1430676 C58.44038657 479.14220112 59.58530754 479.14133463 60.7649231 479.14044189 C62.59093939 479.14489858 62.59093939 479.14489858 64.4538449 479.1494453 C67.83458753 479.15662612 71.21527934 479.15930466 74.59602594 479.16004276 C78.24172186 479.16189401 81.88740677 479.16944179 85.53309631 479.17617798 C93.50641558 479.18975991 101.47972981 479.19578601 109.45305872 479.20018864 C114.43288816 479.20295172 119.41271566 479.20718924 124.39254379 479.21169281 C138.18325491 479.2238861 151.97396447 479.23418477 165.76468086 479.2375679 C167.08867035 479.23789725 167.08867035 479.23789725 168.4394071 479.23823325 C169.32416956 479.23845153 170.20893201 479.23866981 171.12050545 479.2388947 C172.91334478 479.23933817 174.70618411 479.23978473 176.49902344 479.24023438 C177.38833214 479.2404558 178.27764085 479.24067723 179.19389831 479.24090537 C193.59756596 479.24485172 208.00118297 479.2623005 222.40483107 479.2855939 C237.19687033 479.30932202 251.9888842 479.32177045 266.7809428 479.32293582 C275.08444976 479.32385184 283.38789077 479.32958573 291.69137955 479.34775543 C298.76354613 479.36317626 305.83562638 479.36826527 312.90780659 479.36001733 C316.51411284 479.3561176 320.12024534 479.35700702 323.72653008 479.37107468 C327.64215282 479.38620883 331.55753268 479.37792682 335.47317505 479.36749268 C336.6047117 479.37554908 337.73624834 479.38360548 338.90207398 479.39190602 C349.28699227 479.32728246 358.41047132 477.50809597 366 470 C372.01951821 462.65618778 374.3106244 455.56325704 374.26171303 446.04837894 C374.26770712 444.8864811 374.26770712 444.8864811 374.27382231 443.70111057 C374.28478218 441.10821611 374.28159733 438.51553557 374.2784729 435.92262268 C374.28347657 434.04391948 374.28935258 432.16521843 374.29602563 430.28652042 C374.31183097 425.12601033 374.31525661 419.96555468 374.31667423 414.80502331 C374.32036733 409.23929806 374.33552237 403.6736027 374.34928894 398.1078949 C374.37156839 388.46557999 374.38657757 378.82327571 374.39665604 369.18094063 C374.41123832 355.23972624 374.43677391 341.29854886 374.46498732 327.35735618 C374.51046348 304.73897901 374.54709194 282.12059772 374.578125 259.50219727 C374.60829272 237.52985702 374.64263301 215.55752975 374.68261719 193.58520508 C374.68384819 192.90782438 374.68507919 192.23044368 374.6863475 191.53253629 C374.69871444 184.72994992 374.71116616 177.92736371 374.72367998 171.12477761 C374.82860393 114.08320336 374.91922836 57.04161325 375 0 C382.99738263 -0.0927806 390.99453948 -0.16380514 398.99232769 -0.20724869 C402.70626049 -0.22810212 406.41982441 -0.25637755 410.13354492 -0.30175781 C413.71917648 -0.34529746 417.3044538 -0.369154 420.89032936 -0.37950897 C422.25667712 -0.38688594 423.62300602 -0.40129181 424.9892025 -0.42292023 C426.90626405 -0.45205572 428.82368391 -0.45363476 430.7409668 -0.45410156 C431.83128708 -0.46298401 432.92160736 -0.47186646 434.04496765 -0.48101807 C437.78007034 0.1269793 439.36873312 1.30947367 442 4 C444.74667301 8.5372876 444.28015097 13.59286355 444.25726891 18.73464108 C444.26077498 19.72631132 444.26428105 20.71798157 444.26789337 21.73970243 C444.27724277 25.08311014 444.2722749 28.42634501 444.26742554 31.76976013 C444.27116 34.18280892 444.2757607 36.59585649 444.28115618 39.00890213 C444.29086059 44.26591477 444.29429779 49.52287665 444.29224396 54.77989388 C444.28919729 62.59721499 444.29751046 70.41449527 444.30799321 78.23180845 C444.32734915 93.00455973 444.332962 107.77729715 444.33410732 122.55005961 C444.33502583 133.95578518 444.33913949 145.36150529 444.34550858 156.76722908 C444.34730361 160.04838579 444.34908324 163.32954251 444.35085833 166.61069924 C444.35152148 167.83419318 444.35152148 167.83419318 444.35219802 169.08240417 C444.3645086 192.02939206 444.37239891 214.97637807 444.37151146 237.92336941 C444.37146472 239.2214572 444.37146472 239.2214572 444.37141704 240.54576899 C444.37125082 244.93210841 444.37105274 249.31844783 444.37084763 253.70478725 C444.37080774 254.57595807 444.37076785 255.44712889 444.37072675 256.34469883 C444.37064587 258.10641825 444.37056228 259.86813766 444.37047596 261.62985708 C444.36925009 289.04761147 444.38426952 316.46531641 444.41162109 343.88305664 C444.4423245 374.67355714 444.45955468 405.46402515 444.45769465 436.25454193 C444.45754538 439.53601301 444.45744797 442.81748408 444.45738602 446.09895515 C444.45736271 446.90696115 444.4573394 447.71496714 444.45731538 448.54745816 C444.45725377 461.5646106 444.47003911 474.58172019 444.48725055 487.59885988 C444.5041822 500.67455444 444.50620023 513.75018615 444.4930319 526.82588559 C444.48562652 534.59874541 444.48934787 542.37141462 444.50891658 550.14425435 C444.52227981 555.94084682 444.51484912 561.73728904 444.49917014 567.53388 C444.49607911 569.88442863 444.49981088 572.23499768 444.51089029 574.58552223 C444.52491404 577.77053134 444.5145012 580.95454366 444.49777794 584.13951778 C444.51268248 585.52154393 444.51268248 585.52154393 444.52788812 586.9314898 C444.46490605 592.5707471 443.70176546 595.67535208 440 600 C437.20329177 601.39835411 434.8326808 601.16360878 431.70703125 601.2109375 C430.43666016 601.23929688 429.16628906 601.26765625 427.85742188 601.296875 C425.18028198 601.35139791 422.50370136 601.3929551 419.82617188 601.4296875 C410.49450855 601.59676268 410.49450855 601.59676268 402 605 C372.79625661 636.15065961 397.35287395 690.30225179 397 733 C265.99 733 134.98 733 0 733 C0 491.11 0 249.22 0 0 Z " fill="#FEFEFE" transform="translate(419,109)"/>
<path d="M0 0 C95.7 0 191.4 0 290 0 C290.12099405 111.55203026 290.12099405 111.55203026 290.14648438 158.03710938 C290.1519845 168.00073637 290.15760733 177.96436327 290.16357798 187.92799 C290.1643875 189.27951003 290.16519261 190.63103007 290.16599327 191.98255011 C290.17880194 213.54214879 290.20131933 235.10172393 290.22889166 256.66130838 C290.25797059 279.4402267 290.27598296 302.21913289 290.28226548 324.99806947 C290.28639021 338.64998301 290.29943674 352.30182902 290.3237494 365.95372178 C290.33955748 375.30417308 290.34441158 384.65458926 290.34050413 394.00505296 C290.33857488 399.40685678 290.34161643 404.80854225 290.35761642 410.21032524 C290.37213954 415.14932422 290.37300211 420.08812447 290.36269668 425.0271323 C290.36142169 426.81990996 290.36529132 428.61269967 290.37464955 430.40545336 C290.38658085 432.83092535 290.38026689 435.25566731 290.36914349 437.68112659 C290.37702453 438.38717927 290.38490557 439.09323196 290.39302543 439.82068017 C290.36344812 442.64866066 290.32084571 444.54477911 288.66442853 446.89492959 C285.55935868 448.95649051 282.84406865 449.12565679 279.23234463 449.12863445 C278.24528733 449.1318589 277.25823003 449.13508335 276.2412619 449.1384055 C274.61054492 449.1360826 274.61054492 449.1360826 272.94688416 449.13371277 C271.79417025 449.13597833 270.64145634 449.13824388 269.45381171 449.14057809 C266.24919644 449.14582442 263.04461633 449.14656109 259.83999813 449.14538372 C256.38598849 449.14518002 252.93198729 449.15069539 249.47798157 449.15544128 C242.70986993 449.16375441 235.94176699 449.1664964 229.17365067 449.16705366 C223.67507232 449.16752839 218.17649684 449.16958099 212.67791939 449.17275429 C197.10059069 449.18156173 181.52326889 449.18617338 165.94593769 449.18542381 C164.68577104 449.18536388 164.68577104 449.18536388 163.40014648 449.18530273 C162.55901424 449.18526185 161.717882 449.18522097 160.85126091 449.18517885 C147.2084201 449.18477209 133.56560684 449.1943491 119.92277401 449.2084411 C105.92633381 449.22278475 91.92990708 449.22971244 77.93345934 449.22884732 C70.07063258 449.22851472 62.20783473 449.2312898 54.34501457 449.24202538 C47.65285754 449.25110384 40.96074254 449.25332751 34.26858204 449.24651595 C30.85165939 449.24323758 27.43481748 449.24324117 24.01790237 449.2518692 C20.32057209 449.25951651 16.62345741 449.25499288 12.9261322 449.24723816 C11.83675682 449.25238172 10.74738145 449.25752529 9.6249947 449.26282471 C8.64054514 449.25822592 7.65609559 449.25362712 6.64181423 449.24888897 C5.78755083 449.24910634 4.93328742 449.24932371 4.05313724 449.24954766 C2 449 2 449 0 447 C-0.19511782 444.55347725 -0.26415933 442.22045679 -0.24609566 439.77293968 C-0.24840335 439.01592896 -0.25071103 438.25891823 -0.25308865 437.47896779 C-0.25842643 434.91577312 -0.24937348 432.35282449 -0.24050903 429.78964233 C-0.24138033 427.94412986 -0.2431299 426.09861762 -0.24568737 424.25310671 C-0.25017984 419.16109057 -0.24213125 414.06915785 -0.23213124 408.97715235 C-0.22352628 403.49383698 -0.2264148 398.01052664 -0.22793579 392.52720642 C-0.22898652 383.02011365 -0.22269033 373.51304825 -0.21146011 364.00596237 C-0.19523347 350.26016962 -0.19000002 336.51439015 -0.18748413 322.76858886 C-0.18310256 300.46909123 -0.16979809 278.1696064 -0.15087891 255.87011719 C-0.13251752 234.20312576 -0.11838044 212.53613825 -0.10986328 190.86914062 C-0.109322 189.5072337 -0.10878059 188.14532677 -0.10823905 186.78341985 C-0.10406807 176.23954749 -0.1001665 165.69567503 -0.09632993 155.15180254 C-0.07744898 103.43452163 -0.0372156 51.71727724 0 0 Z " fill="#FEFEFE" transform="translate(472,109)"/>
<path d="M0 0 C24.75 0 49.5 0 75 0 C75.33 241.89 75.66 483.78 76 733 C62.8 733 49.6 733 36 733 C35.98541748 729.40150146 35.97083496 725.80300293 35.95581055 722.09545898 C35.9054701 710.20505723 35.83902563 698.31478269 35.76428509 686.42451382 C35.71936367 679.21555991 35.67994067 672.006655 35.65356445 664.79760742 C35.63055467 658.51250332 35.59712357 652.22755476 35.55129844 645.94257408 C35.52740604 642.61622186 35.51020591 639.29005558 35.50238609 635.96362114 C35.49276086 632.24561563 35.46471859 628.5281704 35.43237305 624.81030273 C35.43380814 623.71338104 35.43524323 622.61645935 35.4367218 621.48629761 C35.36377896 615.55621994 34.89146988 611.22227099 32 606 C27.93380406 602.06497167 23.71160148 601.88373555 18.24609375 601.75390625 C17.14458984 601.72103516 16.04308594 601.68816406 14.90820312 601.65429688 C12.5905973 601.59299835 10.27288174 601.53571966 7.95507812 601.48242188 C6.85486328 601.44826172 5.75464844 601.41410156 4.62109375 601.37890625 C3.6148999 601.3538501 2.60870605 601.32879395 1.57202148 601.30297852 C-1 601 -1 601 -4 599 C-4.37590417 597.19039662 -4.37590417 597.19039662 -4.37719816 594.94861096 C-4.38496494 594.09394768 -4.39273172 593.23928441 -4.40073386 592.35872224 C-4.39399621 591.41242431 -4.38725856 590.46612639 -4.38031673 589.49115276 C-4.38497665 588.48744909 -4.38963657 587.48374541 -4.3944377 586.44962648 C-4.40649906 583.04715514 -4.39694952 579.64507497 -4.38768005 576.24259949 C-4.39184811 573.79430293 -4.39732269 571.3460083 -4.40399987 568.8977173 C-4.41549773 563.55440094 -4.41756046 558.21120206 -4.41144943 552.86788559 C-4.40238635 544.92226001 -4.41036783 536.97671607 -4.42174067 529.03109677 C-4.44144685 514.84220528 -4.44374739 500.65335024 -4.43854547 486.46444834 C-4.43399467 474.0459026 -4.43457948 461.62737133 -4.44038582 449.20882607 C-4.44114267 447.54534124 -4.44189865 445.8818564 -4.44265376 444.21837157 C-4.44379891 441.71187228 -4.44494879 439.20537298 -4.44611301 436.6988737 C-4.4568245 413.38286459 -4.46153669 390.06686031 -4.45364285 366.75084972 C-4.45334567 365.87118885 -4.4530485 364.99152798 -4.45274232 364.08521072 C-4.45029319 356.94099992 -4.4476817 349.79678917 -4.44505819 342.65257842 C-4.43495618 314.78553395 -4.44330764 286.91854974 -4.46655273 259.05151367 C-4.49260698 227.76589316 -4.50547802 196.48030894 -4.49836498 165.19467717 C-4.49764889 161.86065853 -4.49697451 158.52663989 -4.49632454 155.19262123 C-4.49615473 154.37165996 -4.49598492 153.55069869 -4.49580997 152.70485981 C-4.49350384 140.29452547 -4.50149897 127.88422474 -4.51461601 115.47389793 C-4.52950275 101.3637799 -4.53040354 87.2537408 -4.5125451 73.14362451 C-4.50295662 65.24171114 -4.50446858 57.33998166 -4.52177979 49.43808044 C-4.53345317 43.54706334 -4.52434989 37.65620039 -4.50695742 31.76519314 C-4.5031665 29.37487107 -4.50620722 26.98452697 -4.51656907 24.59422436 C-4.52960648 21.35792809 -4.51827373 18.12262295 -4.50057125 14.88637066 C-4.51022176 13.94709623 -4.51987227 13.0078218 -4.52981523 12.04008451 C-4.52005738 11.17791068 -4.51029953 10.31573684 -4.50024599 9.42743653 C-4.50019869 8.68744399 -4.5001514 7.94745144 -4.50010267 7.18503488 C-4 5 -4 5 0 0 Z " fill="#FEFEFE" transform="translate(166,109)"/>
<path d="M0 0 C202.62 0 405.24 0 614 0 C614 13.53 614 27.06 614 41 C608.37499507 45.50000394 608.37499507 45.50000394 604.50433248 45.50139666 C603.62690351 45.51141073 602.74947454 45.5214248 601.84545681 45.53174233 C600.41093101 45.51769534 600.41093101 45.51769534 598.94742489 45.50336456 C597.92138797 45.50917833 596.89535106 45.51499209 595.83822212 45.52098203 C592.37774765 45.53565528 588.91797434 45.52166211 585.45750427 45.50793457 C582.96053184 45.51254056 580.46356211 45.51889143 577.96659809 45.52684355 C572.52622109 45.5400966 567.08606109 45.54084238 561.64568138 45.53065491 C553.55586213 45.51554722 545.46617717 45.52324824 537.37635887 45.53548814 C522.92968421 45.55657167 508.48308022 45.55471745 494.03639881 45.54317249 C481.3946762 45.53311925 468.75297953 45.53047926 456.11125374 45.53526306 C455.27343813 45.5355686 454.43562253 45.53587414 453.57241857 45.53618894 C450.17165698 45.53743425 446.77089539 45.53870784 443.37013382 45.540028 C411.45472812 45.55226985 379.5393675 45.54116068 347.62396875 45.51964041 C319.25295047 45.50065559 290.88200399 45.50235727 262.51098633 45.52148438 C230.65329307 45.5428902 198.79563964 45.55140348 166.93794018 45.53903532 C163.54360363 45.5377524 160.14926707 45.53650104 156.7549305 45.53526306 C155.91912665 45.53494675 155.0833228 45.53463044 154.22219157 45.53430455 C141.58599255 45.52974957 128.94982228 45.53508517 116.31362724 45.54518127 C101.95029274 45.55659995 87.5870401 45.55379824 73.22371583 45.5320583 C65.17938739 45.52028516 57.13523611 45.51958652 49.09091215 45.534643 C43.09575225 45.54462916 37.10082405 45.53385274 31.10567821 45.5147447 C28.6717243 45.51025289 26.23774685 45.51260209 23.80380791 45.52224785 C20.51110429 45.53430236 17.21938499 45.52204795 13.92673397 45.50336456 C12.96804227 45.51272923 12.00935057 45.52209389 11.02160761 45.53174233 C10.14668215 45.52172826 9.2717567 45.51171419 8.37031835 45.50139666 C7.24051295 45.5009901 7.24051295 45.5009901 6.0878832 45.50057533 C4 45 4 45 0 41 C0 27.47 0 13.94 0 0 Z " fill="#FEFEFE" transform="translate(202,872)"/>
<path d="M0 0 C38.28 0 76.56 0 116 0 C116.33 51.48 116.66 102.96 117 156 C78.39 156 39.78 156 0 156 C0 104.52 0 53.04 0 0 Z " fill="#FEFEFE" transform="translate(272,686)"/>
<path d="M0 0 C1.06221771 -0.01083618 2.12443542 -0.02167236 3.21884155 -0.03283691 C4.11214676 -0.04590881 5.00545197 -0.05898071 5.92582703 -0.07244873 C11.1915833 0.18704507 15.08415942 1.73147988 18.77230835 5.60876465 C21.86051441 10.4263661 22.05746261 14.38797173 21.33480835 20.04626465 C20.00765352 23.57947078 18.14152285 26.66353109 16.14730835 29.85876465 C15.60557983 30.76473389 15.06385132 31.67070313 14.50570679 32.60412598 C12.80512529 35.43296849 11.07358447 38.24076983 9.33480835 41.04626465 C8.29132571 42.75167949 7.24834275 44.45740019 6.2059021 46.16345215 C4.10164673 49.5912987 1.98001861 53.00763837 -0.1534729 56.4173584 C-2.73388588 60.54290219 -5.29041049 64.68258851 -7.8331604 68.8314209 C-8.36548782 69.69944588 -8.36548782 69.69944588 -8.90856934 70.58500671 C-10.6438982 73.41506759 -12.37771209 76.24603347 -14.10952759 79.07824707 C-15.94884876 82.07565072 -17.80072037 85.0644475 -19.66519165 88.04626465 C-20.49131958 89.36860107 -20.49131958 89.36860107 -21.33413696 90.71765137 C-21.8494397 91.51960937 -22.36474243 92.32156738 -22.8956604 93.14782715 C-23.3393396 93.84214844 -23.7830188 94.53646973 -24.24014282 95.25183105 C-26.75542476 98.41909545 -29.77431934 100.07537156 -33.66519165 101.04626465 C-38.61339189 101.31151013 -42.77215105 100.11971776 -46.66519165 97.04626465 C-51.7166756 91.90013497 -55.23506835 86.02607514 -58.79019165 79.79626465 C-62.93838782 72.65020244 -67.15404821 65.57205368 -71.60269165 58.60876465 C-78.46115541 47.85903121 -85.07510911 36.96210472 -91.66519165 26.04626465 C-92.48612305 24.73492554 -92.48612305 24.73492554 -93.32363892 23.39709473 C-95.5936222 19.41935696 -95.17203074 15.49359919 -94.66519165 11.04626465 C-93.1385846 6.19704227 -91.08109751 4.30093654 -86.65073204 1.8806076 C-83.37661481 0.50479241 -80.11529312 0.47575773 -76.62539673 0.50036621 C-75.4677179 0.4848597 -75.4677179 0.4848597 -74.28665161 0.46903992 C-71.7524594 0.43971332 -69.21907127 0.43811376 -66.6847229 0.43688965 C-64.90741996 0.42188398 -63.13013083 0.40515189 -61.3528595 0.38677979 C-56.68039314 0.34315916 -52.00811365 0.32313421 -47.33547974 0.30804443 C-42.61388764 0.28858206 -37.89250536 0.24645877 -33.17105103 0.2064209 C-24.71957748 0.13846019 -16.26819368 0.08435829 -7.81646729 0.06225586 C-5.21035088 0.05506818 -2.60607182 0.03289569 0 0 Z " fill="#010101" transform="translate(555.6651916503906,621.9537353515625)"/>
<path d="M0 0 C38.28 0.33 76.56 0.66 116 1 C116 12.88 116 24.76 116 37 C77.72 37 39.44 37 0 37 C0 24.79 0 12.58 0 0 Z " fill="#FEFEFE" transform="translate(272,108)"/>
<path d="M0 0 C0 11.55 0 23.1 0 35 C-38.28 35 -76.56 35 -116 35 C-116 23.78 -116 12.56 -116 1 C-102.64733848 0.86899591 -89.29467234 0.73849063 -75.94199753 0.60884857 C-69.74095102 0.54862255 -63.53990675 0.48818318 -57.33886719 0.42724609 C-51.3477349 0.36837977 -45.35659728 0.31008712 -39.36545563 0.25218201 C-37.08668064 0.23005852 -34.8079076 0.2077329 -32.52913666 0.18519592 C-29.32248937 0.15351778 -26.11583571 0.12257693 -22.90917969 0.09179688 C-21.97984619 0.08244614 -21.0505127 0.0730954 -20.09301758 0.0634613 C-13.39438298 0.00024308 -6.69977541 0 0 0 Z " fill="#FEFEFE" transform="translate(388,494)"/>
<path d="M0 0 C0 11.55 0 23.1 0 35 C-38.28 35 -76.56 35 -116 35 C-116 23.78 -116 12.56 -116 1 C-102.49968334 0.86905407 -88.99936251 0.73855952 -75.49903393 0.60884857 C-69.22957782 0.54859392 -62.96012371 0.48814534 -56.69067383 0.42724609 C-50.63470708 0.3684278 -44.57873554 0.3101287 -38.52276039 0.25218201 C-36.21803931 0.23003946 -33.91331998 0.20771323 -31.60860252 0.18519592 C-28.36822327 0.15356921 -25.12783826 0.12260938 -21.88745117 0.09179688 C-20.94517166 0.08244614 -20.00289215 0.0730954 -19.03205872 0.0634613 C-12.6871471 0.00405042 -6.34586589 0 0 0 Z " fill="#FDFDFD" transform="translate(388,238)"/>
<path d="M0 0 C38.28 0 76.56 0 116 0 C116 11.22 116 22.44 116 34 C77.72 34 39.44 34 0 34 C0 22.78 0 11.56 0 0 Z " fill="#FDFDFD" transform="translate(272,622)"/>
<path d="M0 0 C38.28 0 76.56 0 116 0 C116 11.22 116 22.44 116 34 C77.72 34 39.44 34 0 34 C0 22.78 0 11.56 0 0 Z " fill="#FEFEFE" transform="translate(272,303)"/>
<path d="M0 0 C38.28 0 76.56 0 116 0 C116 10.89 116 21.78 116 33 C77.72 33 39.44 33 0 33 C0 22.11 0 11.22 0 0 Z " fill="#FEFEFE" transform="translate(272,559)"/>
<path d="M0 0 C38.28 0 76.56 0 116 0 C116 10.89 116 21.78 116 33 C77.72 33 39.44 33 0 33 C0 22.11 0 11.22 0 0 Z " fill="#FEFEFE" transform="translate(272,431)"/>
<path d="M0 0 C38.28 0 76.56 0 116 0 C116 10.89 116 21.78 116 33 C77.72 33 39.44 33 0 33 C0 22.11 0 11.22 0 0 Z " fill="#FEFEFE" transform="translate(272,367)"/>
<path d="M0 0 C38.28 0 76.56 0 116 0 C116 10.89 116 21.78 116 33 C77.72 33 39.44 33 0 33 C0 22.11 0 11.22 0 0 Z " fill="#FDFDFD" transform="translate(272,175)"/>
<path d="M0 0 C11.88 0 23.76 0 36 0 C32.535 5.445 32.535 5.445 29 11 C24.89388332 17.52147943 21.62041072 23.75533506 19 31 C18.34 31 17.68 31 17 31 C16.77828125 30.25878906 16.5565625 29.51757812 16.328125 28.75390625 C12.92741167 18.68730192 7.37709277 10.89165352 1.0222168 2.46777344 C0 1 0 1 0 0 Z " fill="#FBFBFB" transform="translate(501,652)"/>
</svg>
