<?xml version="1.0" encoding="UTF-8"?>
<svg version="1.1" xmlns="http://www.w3.org/2000/svg" width="960" height="720">
<path d="M0 0 C0.74260071 0.05091797 1.48520142 0.10183594 2.25030518 0.15429688 C132.5557103 9.19935753 132.5557103 9.19935753 170 43 C170.94939453 43.81210937 170.94939453 43.81210937 171.91796875 44.640625 C178.42433766 50.57820686 182.18078395 57.46457872 182.62890625 66.3359375 C182.6389195 68.68237471 182.61522323 71.02913382 182.5625 73.375 C182.53978027 75.2607373 182.53978027 75.2607373 182.51660156 77.18457031 C182.20490269 90.62784104 180.42407569 103.7887875 178 117 C177.85046875 117.81855469 177.7009375 118.63710938 177.546875 119.48046875 C171.57656413 150.71403953 157.73044988 183.27834427 139 209 C138.28199219 209.99 137.56398438 210.98 136.82421875 212 C94.4054167 269.43754889 35.9571388 304.70701562 -34.58203125 316.1015625 C-56.81034748 319.37926334 -80.76557203 319.59097778 -103 316 C-103.96647461 315.84402344 -104.93294922 315.68804688 -105.92871094 315.52734375 C-153.80572956 307.53056365 -198.71084563 288.33902711 -234.625 255.1875 C-236.16609548 253.76806995 -237.72778703 252.37056257 -239.3125 251 C-252.56083536 239.49486666 -263.97219919 226.36452642 -274 212 C-274.44762695 211.36610352 -274.89525391 210.73220703 -275.35644531 210.07910156 C-303.25887536 170.16906121 -318.89581159 122.04015293 -319.5625 73.375 C-319.58948975 72.18406738 -319.61647949 70.99313477 -319.64428711 69.76611328 C-319.59912713 59.69472181 -316.78788113 52.06281416 -309.5625 44.875 C-303.69762761 39.29942625 -297.16487082 35.67059378 -290 32 C-289.36787598 31.6707251 -288.73575195 31.3414502 -288.08447266 31.00219727 C-243.41088605 8.07370083 -186.55394484 3.39776974 -137 0 C-136.24708679 -0.05220703 -135.49417358 -0.10441406 -134.71844482 -0.15820312 C-89.91445766 -3.22309808 -44.79755714 -3.10626436 0 0 Z " fill="#909191" transform="translate(558,222)"/>
<path d="M0 0 C1.25264648 0.10183594 2.50529297 0.20367187 3.79589844 0.30859375 C124.85822901 10.41531756 124.85822901 10.41531756 156 40 C157.89106519 42.54882699 158.0069764 43.67908579 157.9375 46.875 C155.80959301 53.96802331 150.38064648 57.44163445 144.18261719 60.88452148 C110.10517877 79.09758851 68.81712283 84.31879299 31 89 C29.90864746 89.14034668 28.81729492 89.28069336 27.69287109 89.42529297 C14.414288 91.12234506 1.12204709 92.30803037 -12.2421875 93.0625 C-13.00655561 93.10568989 -13.77092373 93.14887978 -14.55845451 93.19337845 C-33.46382254 94.23360706 -52.36395089 94.39667592 -71.29417038 94.37776184 C-74.11027025 94.37495234 -76.92636107 94.37517053 -79.74246216 94.37536621 C-108.83426117 94.3603484 -137.6367796 93.52729907 -166.57348633 90.27209473 C-168.90296223 90.01088124 -171.23336673 89.76102239 -173.56445312 89.51464844 C-275.37037417 78.62962583 -275.37037417 78.62962583 -302 52 C-303.60012276 49.30672407 -304.01124743 48.26431465 -303.875 45.0625 C-301.84089766 37.9431418 -296.06138883 34.62931826 -289.984375 31.109375 C-248.47874043 8.45090042 -194.47274881 3.81290111 -148 0 C-146.75492676 -0.10441406 -145.50985352 -0.20882812 -144.22705078 -0.31640625 C-96.75156372 -4.06275509 -47.45189622 -4.03845925 0 0 Z " fill="#EDEDED" transform="translate(562,242)"/>
<path d="M0 0 C0.94875 0.7425 1.8975 1.485 2.875 2.25 C10.0766684 6.2829343 17.44568152 7.89781826 25.5 5.75 C31.00173735 3.76436098 35.30878263 0.82145284 39.99316406 -2.62963867 C51.0155052 -10.52876433 63.75991416 -12.61988566 77 -11 C88.94065096 -8.68539263 97.92514766 -1.71802983 105 8 C123.13048641 35.89860135 130.22292914 70.53967815 130.4375 103.4375 C130.44765137 104.51999023 130.45780273 105.60248047 130.46826172 106.71777344 C130.32276794 119.95155967 126.95886072 133.43531984 117.79296875 143.40234375 C110.19315984 150.17428676 102.20168569 153.3762637 92.125 152.875 C74.0841291 150.90071601 62.26950926 138.56377469 51.43359375 125.06640625 C49 122 49 122 47.74389648 119.47802734 C45.44812584 115.54693728 43.33308057 112.65080719 38.77529907 111.37942505 C32.98408394 110.45297183 27.20059981 110.40363126 21.34741211 110.4765625 C18.1995445 110.49991066 15.07324639 110.39560537 11.92773438 110.28125 C0.78446699 109.88724372 0.78446699 109.88724372 -8.64941406 114.94360352 C-11.12054242 117.85291733 -13.09738967 120.99567299 -14.98678589 124.30523682 C-16.35013613 126.58565886 -18.007634 128.46743783 -19.8203125 130.40234375 C-20.37033936 130.99877686 -20.92036621 131.59520996 -21.48706055 132.2097168 C-22.02758057 132.77988525 -22.56810059 133.35005371 -23.125 133.9375 C-23.71772705 134.56374268 -24.3104541 135.18998535 -24.92114258 135.83520508 C-34.74496879 146.065516 -44.38430277 152.36982561 -58.9453125 153.1640625 C-66.90683829 152.73646137 -75.29870524 149.70129476 -81 144 C-94.75814305 128.57103882 -94.98810991 109.60334669 -94 90 C-91.38758159 59.92108169 -83.48951405 19.69516099 -60.03515625 -1.80078125 C-41.63576396 -16.48386064 -18.15605071 -12.97293774 0 0 Z " fill="#0370EC" transform="translate(471,357)"/>
<path d="M0 0 C3.38939556 2.13679285 4.72582557 3.1774767 6 7 C6.07051114 9.73865287 6.09357765 12.45027588 6.0625 15.1875 C6.05798828 15.93708984 6.05347656 16.68667969 6.04882812 17.45898438 C6.03706354 19.30602383 6.01912865 21.15302213 6 23 C7.75376953 22.93039062 7.75376953 22.93039062 9.54296875 22.859375 C11.0911202 22.82184406 12.63929939 22.78544531 14.1875 22.75 C14.95642578 22.71648437 15.72535156 22.68296875 16.51757812 22.6484375 C20.48036739 22.58040678 22.51566825 22.70914804 25.9921875 24.796875 C28.73470578 27.80617522 28.92821623 29.98010867 29 34 C28.19824139 37.20703446 27.2362718 37.85468396 24.40234375 39.59765625 C20.51544071 41.19972076 17.24538584 41.34321226 13.125 41.1875 C12.43664062 41.17396484 11.74828125 41.16042969 11.0390625 41.14648438 C9.35902999 41.1114837 7.6794065 41.05768954 6 41 C6.05220703 42.51980469 6.05220703 42.51980469 6.10546875 44.0703125 C6.13362595 45.4218583 6.16092403 46.77342219 6.1875 48.125 C6.21263672 48.79015625 6.23777344 49.4553125 6.26367188 50.140625 C6.33315782 54.8656696 5.51634994 58.00627038 3 62 C0.29388319 63.63791281 -1.35247005 64.01618825 -4.5 63.9375 C-7.9522892 62.64289155 -9.67835134 60.83757059 -12 58 C-13.05933357 54.21109525 -13.10555388 50.60540319 -13.0625 46.6875 C-13.05347656 45.61886719 -13.04445313 44.55023438 -13.03515625 43.44921875 C-13.02355469 42.64097656 -13.01195312 41.83273437 -13 41 C-14.53720703 41.05220703 -14.53720703 41.05220703 -16.10546875 41.10546875 C-17.46612936 41.13362035 -18.8268078 41.16091904 -20.1875 41.1875 C-21.19780273 41.22520508 -21.19780273 41.22520508 -22.22851562 41.26367188 C-26.71692688 41.32935594 -29.42628975 40.72937211 -33 38 C-34.9375 35.75 -34.9375 35.75 -36 33 C-35.44873018 29.44737225 -34.90293492 26.99437137 -32.45703125 24.30078125 C-28.77081213 22.34925348 -25.34928798 22.67993596 -21.25 22.8125 C-20.45722656 22.82603516 -19.66445313 22.83957031 -18.84765625 22.85351562 C-16.89814436 22.88874777 -14.94898374 22.94255179 -13 23 C-13.02320313 22.14277344 -13.04640625 21.28554688 -13.0703125 20.40234375 C-13.30324406 5.64446541 -13.30324406 5.64446541 -9.3125 1.0625 C-5.98144714 -0.46798375 -3.6251162 -0.44518971 0 0 Z " fill="#ECECEC" transform="translate(446,380)"/>
<path d="M0 0 C4.14613048 1.79037453 6.20962547 3.85386952 8 8 C8.40009361 11.73420699 8.29209532 14.24398857 6.9375 17.75 C4.24122386 20.88115939 1.96368625 21.87695556 -2 23 C-6.11552056 22.43234199 -8.51446227 21.33057888 -11.9375 19 C-14.48018692 15.3015463 -14.84501982 12.87873596 -14.61328125 8.44921875 C-13.70466544 4.82054287 -12.00257409 3.13453769 -9.00390625 0.99609375 C-5.80388961 -0.5945578 -3.48773085 -0.58128847 0 0 Z " fill="#EEEEEE" transform="translate(527,412)"/>
<path d="M0 0 C2.70567626 1.82339052 4.53728718 3.07457436 6 6 C6.54016597 10.50728651 6.60322525 13.94994123 4.3125 17.9375 C1.7341957 20.2370687 0.39769957 21.32046009 -3 22 C-6.90233863 21.60081898 -10.61200378 21.13131199 -13.7109375 18.60546875 C-16.2613288 15.42907231 -16.33947785 11.95949365 -16.28125 8 C-15.82508989 4.75619477 -14.36511346 3.1733475 -12 1 C-7.83579579 -1.47601332 -4.63134568 -1.15783642 0 0 Z " fill="#EDEDED" transform="translate(552,385)"/>
</svg>
