<?xml version="1.0" encoding="UTF-8"?>
<svg version="1.1" xmlns="http://www.w3.org/2000/svg" width="1024" height="1024">
<path d="M0 0 C337.92 0 675.84 0 1024 0 C1024 337.92 1024 675.84 1024 1024 C686.08 1024 348.16 1024 0 1024 C0 686.08 0 348.16 0 0 Z " fill="#FEFEFE" transform="translate(0,0)"/>
<path d="M0 0 C3.45582401 2.53677176 6.74740863 5.20967761 10 8 C10.97324219 8.77472656 11.94648437 9.54945313 12.94921875 10.34765625 C31.73062155 26.03449743 41.44083631 52.43108674 44 76 C44.49740966 83.34165545 44.44103487 90.69986509 44.44140625 98.0546875 C44.45322307 100.13340156 44.46659749 102.21210727 44.48143005 104.290802 C44.51727674 109.71790949 44.53770817 115.14494307 44.55297852 120.57214355 C44.57798399 129.24615885 44.61827139 137.92001083 44.67487907 146.59387589 C44.69088471 149.5823095 44.69495507 152.5705809 44.69789124 155.55905151 C44.80091545 182.77531472 47.11841211 206.73529907 66 228 C66.59167969 228.68578125 67.18335938 229.3715625 67.79296875 230.078125 C74.54294188 237.38939654 83.23083454 242.34259114 91.83984375 247.171875 C92.77546143 247.6968457 92.77546143 247.6968457 93.72998047 248.23242188 C95.46035465 249.1932798 97.20060859 250.13628303 98.94140625 251.078125 C104.52961993 254.58949298 109.72612377 259.60676018 111.609375 266.1015625 C112.45413318 271.01805512 112.04120605 274.67950969 109.44262695 278.97705078 C104.25808372 286.24716844 96.65602405 289.97353626 88.8125 293.75 C71.66075948 302.38971722 59.12104277 313.1822104 51.0625 331.0625 C50.77971191 331.68664795 50.49692383 332.3107959 50.20556641 332.95385742 C46.31511223 342.21667297 45.66788563 352.0887968 45.39453125 362.0234375 C45.35689163 363.20908295 45.31925201 364.39472839 45.2804718 365.61630249 C44.96877349 376.56804924 44.89258966 387.52104859 44.82421875 398.4765625 C44.81205773 400.29237898 44.79986065 402.10819523 44.78762817 403.92401123 C44.77563304 405.76314223 44.76374193 407.60227391 44.75195312 409.44140625 C44.74606611 410.3586208 44.7401791 411.27583534 44.73411369 412.22084427 C44.70542706 416.9110758 44.68376758 421.60119272 44.67407227 426.29150391 C44.66388213 430.92761257 44.63433451 435.56327079 44.59275246 440.19919968 C44.58064774 441.93150783 44.57528245 443.66387983 44.57755089 445.39622879 C44.60634571 474.47962356 35.52801778 501.14814403 14.93359375 522.1015625 C13.95792653 523.0699273 12.98017043 524.03619357 12 525 C10.74896484 526.24910156 10.74896484 526.24910156 9.47265625 527.5234375 C-10.5677076 546.55691111 -39.81644568 555.81949117 -67.1171875 555.31640625 C-72.84189342 554.68808487 -76.51426421 552.56192737 -80.4375 548.4375 C-83.73825216 543.28832663 -83.58648427 537.93284084 -83 532 C-80.82225879 527.00934306 -77.93740185 524.94330504 -73.12109375 522.8046875 C-67.77689217 520.77723718 -62.50451489 519.91654391 -56.875 519.125 C-40.03961896 516.58124577 -24.61612286 510.68976418 -12 499 C-10.95585938 498.03707031 -10.95585938 498.03707031 -9.890625 497.0546875 C3.25680353 483.65246385 8.15206127 464.93872078 8.1418457 446.70043945 C8.14705734 445.18164688 8.14705734 445.18164688 8.15237427 443.63217163 C8.15970529 441.43986365 8.16506475 439.24754838 8.16866493 437.05523109 C8.17587734 433.56680562 8.19158316 430.07851703 8.21000671 426.59013367 C8.26222468 416.6733091 8.31033605 406.75655845 8.32592773 396.83959961 C8.33610568 390.76238922 8.3656802 384.68552321 8.40724754 378.60844994 C8.41942911 376.31119602 8.42470275 374.01389316 8.42244911 371.71660805 C8.39775106 338.29753601 16.24154309 309.24992275 39.9375 284.6875 C44.16716471 280.57811011 48.69404409 277.11924093 53.5546875 273.7890625 C55.95345963 272.0340503 57.95924946 270.15465289 60 268 C59.30648437 267.77699219 58.61296875 267.55398438 57.8984375 267.32421875 C54.31202672 265.68568337 51.56755758 263.38191184 48.625 260.8125 C48.0477417 260.31347168 47.4704834 259.81444336 46.87573242 259.30029297 C45.24111569 257.877063 43.61794062 256.44213542 42 255 C40.98486328 254.09701172 40.98486328 254.09701172 39.94921875 253.17578125 C20.45019716 234.70057464 9.99932891 208.96923072 8.8901577 182.3653965 C8.82770906 179.54791549 8.79176688 176.73138736 8.76635742 173.91333008 C8.75312943 172.85331787 8.73990143 171.79330566 8.72627258 170.70117188 C8.6978813 168.41561181 8.67122344 166.13002967 8.64613914 163.84443092 C8.60484006 160.21426993 8.55567541 156.58429654 8.50398254 152.95426941 C8.35708489 142.63851112 8.21299782 132.32280026 8.10131836 122.0065918 C8.03224549 115.67942092 7.9445289 109.35273714 7.84493446 103.02597618 C7.81064471 100.62975474 7.7831048 98.23342596 7.76274681 95.83704567 C7.65070553 82.99563243 7.35646557 71.18799616 3 59 C2.73599396 58.25891998 2.47198792 57.51783997 2.19998169 56.75430298 C-3.84054382 41.47281911 -16.00081565 29.86615735 -30.84375 23.16796875 C-34.82245388 21.52422456 -38.87102252 20.20748288 -43 19 C-44.11181641 18.66742188 -44.11181641 18.66742188 -45.24609375 18.328125 C-48.89398916 17.38948524 -52.52572476 16.93439899 -56.26953125 16.58203125 C-57.05489258 16.50557373 -57.84025391 16.42911621 -58.64941406 16.3503418 C-60.21633848 16.20401731 -61.78480262 16.07306623 -63.35449219 15.96020508 C-69.67929571 15.38954094 -75.2361216 13.68902336 -79.875 9.17578125 C-82.93081412 4.11458911 -84.12287899 -0.1101819 -83 -6 C-81.54642792 -10.34361539 -79.42552181 -13.01968691 -75.5 -15.375 C-53.20630107 -25.72564593 -19.12487791 -12.60019769 0 0 Z " fill="#101010" transform="translate(784,237)"/>
<path d="M0 0 C6.80922619 -0.25027574 12.24075472 0.39159269 18.01953125 4.19921875 C22.7987627 9.21741178 23.37142973 12.68173935 23.30078125 19.4375 C22.78888515 24.46403531 20.19442581 27.0560781 16.70703125 30.44921875 C11.64512179 33.74534584 6.05664894 34.4126066 0.14453125 35.01171875 C-20.47644906 37.64288241 -39.38592383 45.44758807 -53.1015625 61.6015625 C-63.72404593 76.28753232 -67.10140088 93.41870334 -67.15405273 111.19433594 C-67.16408325 112.62802017 -67.16408325 112.62802017 -67.17431641 114.09066772 C-67.18828458 116.1514437 -67.20020421 118.21223439 -67.21026421 120.27303314 C-67.22681213 123.54545961 -67.25005501 126.81777755 -67.27516174 130.09014893 C-67.34555488 139.38947037 -67.40590081 148.68883554 -67.45727539 157.98828125 C-67.48925115 163.69161825 -67.5305687 169.39482779 -67.57747078 175.09806061 C-67.59337496 177.25875792 -67.60574919 179.41948446 -67.61437798 181.58022308 C-67.75400396 216.04543496 -75.22920856 247.71116768 -100.40039062 272.72314453 C-105.26771906 277.27009566 -110.63966806 281.23273875 -115.98046875 285.19921875 C-116.77582031 285.79605469 -117.57117188 286.39289063 -118.390625 287.0078125 C-118.91527344 287.40097656 -119.43992188 287.79414063 -119.98046875 288.19921875 C-119.2534375 288.64910156 -118.52640625 289.09898437 -117.77734375 289.5625 C-109.68424684 294.74000687 -102.80987918 300.47414653 -95.98046875 307.19921875 C-95.17609375 307.97910156 -94.37171875 308.75898437 -93.54296875 309.5625 C-76.64060617 327.02240579 -67.85183892 353.73720324 -67.82275391 377.64086914 C-67.81767319 378.5624028 -67.81259247 379.48393646 -67.80735779 380.43339539 C-67.79669388 382.42761869 -67.78805826 384.42185367 -67.78123856 386.41609383 C-67.76935419 389.59422432 -67.74987137 392.77222466 -67.7281189 395.95030212 C-67.66686737 404.9848075 -67.6128087 414.01930158 -67.57910156 423.05395508 C-67.55788855 428.5929781 -67.52237021 434.13176587 -67.47834396 439.67065239 C-67.46438116 441.75971095 -67.45550729 443.84881115 -67.45228958 445.93791389 C-67.40853257 471.65644675 -66.32095408 498.06845062 -47.85546875 517.88671875 C-34.02319319 530.99221373 -17.86926216 535.42494847 0.37548828 538.32495117 C8.10824573 539.60637007 14.91949495 540.86071812 20.45703125 546.82421875 C23.72853139 551.79689896 23.6158209 556.3439857 23.01953125 562.19921875 C20.83426783 566.65068126 18.08007915 569.3880702 14.01953125 572.19921875 C-4.86661638 578.49460129 -28.97125311 569.94711319 -45.96484375 561.76171875 C-56.78494359 556.13771205 -66.23957893 548.65538903 -74.98046875 540.19921875 C-75.73070312 539.47476563 -76.4809375 538.7503125 -77.25390625 538.00390625 C-88.47499504 526.38909504 -95.73615748 511.66843333 -99.98046875 496.19921875 C-100.23231934 495.29660309 -100.48416992 494.39398743 -100.74365234 493.46401978 C-103.467619 482.45110112 -103.42131499 471.70573634 -103.421875 460.421875 C-103.43368378 458.32221067 -103.44705635 456.22255462 -103.4618988 454.12290955 C-103.49787288 448.61962517 -103.51820912 443.11641405 -103.53344727 437.61303711 C-103.558369 428.84122487 -103.59886995 420.06957474 -103.65534782 411.29791069 C-103.67131953 408.27693986 -103.67542191 405.25612991 -103.67835999 402.23512268 C-103.71518428 392.34600869 -104.05715076 382.54189583 -104.89038086 372.68530273 C-104.96976426 371.7334588 -105.04914766 370.78161486 -105.13093662 369.80092716 C-106.94190329 350.26046774 -117.28774247 334.47965883 -131.7890625 321.65234375 C-139.17341776 315.7108542 -148.03737096 311.58299574 -156.54296875 307.51171875 C-162.12329918 304.76852601 -166.37690041 301.52697924 -169.91796875 296.38671875 C-171.81105386 290.70746343 -171.86759856 285.56046938 -169.48046875 280.01171875 C-165.26965159 272.7953511 -157.27077135 269.0934105 -150.10546875 265.32421875 C-143.13784129 261.54813161 -136.85071454 257.5775445 -130.98046875 252.19921875 C-130.27792969 251.565 -129.57539063 250.93078125 -128.8515625 250.27734375 C-110.082434 232.46982145 -104.47885027 208.74023591 -103.79031372 183.79678345 C-103.7023871 178.97963982 -103.68006075 174.16287161 -103.6755085 169.3449955 C-103.67176828 166.15909346 -103.65484286 162.97348221 -103.63475037 159.78764343 C-103.58003386 150.74512163 -103.54867749 141.70256129 -103.52416992 132.65991211 C-103.50817466 127.08764632 -103.47784964 121.51559506 -103.43940544 115.94344139 C-103.42787963 113.84383631 -103.4218262 111.74419276 -103.42172432 109.64455605 C-103.4196637 78.51138022 -95.33630812 53.80538995 -73.23046875 31.07421875 C-53.64147232 11.59115931 -27.19399781 1.81768531 0 0 Z " fill="#101010" transform="translate(298.98046875,217.80078125)"/>
<path d="M0 0 C4.24405211 7.4270912 0.5582079 17.64125537 -1.125 25.625 C-1.28605225 26.3986792 -1.44710449 27.1723584 -1.61303711 27.96948242 C-3.29267987 35.37211138 -3.29267987 35.37211138 -6.25 38.0625 C-11.43606635 39.22370651 -17.09449966 37.98051167 -22.25 37.0625 C-33.37219031 35.09058105 -44.50085757 35.48936913 -54.5625 41.25 C-62.4782215 46.79594209 -66.98122165 53.68244329 -69.25 63.0625 C-70.23651309 69.54313215 -70.51974244 76.08354826 -70.8125 82.625 C-70.87727539 83.99495117 -70.87727539 83.99495117 -70.94335938 85.39257812 C-71.04811757 87.61577991 -71.15029017 89.83906707 -71.25 92.0625 C-70.25266846 92.05959961 -69.25533691 92.05669922 -68.2277832 92.05371094 C-57.80128449 92.03254407 -47.37672562 92.07184066 -36.9519043 92.27001953 C-35.25247084 92.29873119 -33.55289137 92.31968718 -31.85327148 92.33349609 C-29.35332437 92.35483682 -26.85494639 92.40129619 -24.35546875 92.453125 C-23.5982402 92.45435364 -22.84101166 92.45558228 -22.06083679 92.45684814 C-18.63396333 92.55261308 -16.60487887 92.8028723 -13.8059082 94.85058594 C-9.8448501 100.48171514 -11.0278795 107.76407451 -11 114.375 C-10.9690625 116.19161133 -10.9690625 116.19161133 -10.9375 118.04492188 C-10.8861987 129.76085664 -10.8861987 129.76085664 -14.25 135.0625 C-17.78958796 137.63462318 -20.24116316 138.43482728 -24.59106445 138.40307617 C-26.15211662 138.40273628 -26.15211662 138.40273628 -27.7447052 138.40238953 C-28.8563353 138.38690567 -29.96796539 138.37142181 -31.11328125 138.35546875 C-32.83396065 138.34910149 -32.83396065 138.34910149 -34.58940125 138.34260559 C-38.24734121 138.32583484 -41.904727 138.28818435 -45.5625 138.25 C-48.04491391 138.23495114 -50.52733647 138.22126309 -53.00976562 138.20898438 C-59.09003231 138.17593649 -65.16997656 138.1257524 -71.25 138.0625 C-71.24631283 138.94764314 -71.24262566 139.83278627 -71.23882675 140.74475193 C-71.15047429 162.28613464 -71.08428965 183.82748609 -71.04275131 205.36901188 C-71.02212955 215.78635733 -70.99401625 226.20358181 -70.94824219 236.62084961 C-70.9083627 245.70096033 -70.88256438 254.78098343 -70.87364602 263.86117929 C-70.86843317 268.66872819 -70.85618902 273.47602642 -70.82707977 278.28349495 C-70.79989316 282.81018867 -70.79156158 287.3365289 -70.79756927 291.86329651 C-70.79647049 293.52292236 -70.78853586 295.18256025 -70.7731781 296.8421154 C-70.75319853 299.11283084 -70.75808869 301.38222159 -70.76898193 303.65296936 C-70.76529476 304.9222783 -70.76160759 306.19158724 -70.75780869 307.49936008 C-71.37897924 311.99622445 -72.70322217 314.31823847 -75.25 318.0625 C-79.48180611 320.92018202 -82.88632215 321.44594242 -87.93359375 321.4609375 C-89.19107422 321.46480469 -90.44855469 321.46867187 -91.74414062 321.47265625 C-93.04544922 321.46105469 -94.34675781 321.44945312 -95.6875 321.4375 C-96.98494141 321.44910156 -98.28238281 321.46070313 -99.61914062 321.47265625 C-107.13198676 321.44957531 -113.07618423 321.40155262 -119.125 316.5625 C-121.77369051 313.03091266 -121.37329812 309.32358848 -121.37025452 305.09602356 C-121.37110894 304.38292217 -121.37196337 303.66982079 -121.37284368 302.93511027 C-121.374494 300.53980401 -121.36898442 298.14456741 -121.36352539 295.74926758 C-121.3632434 294.03456117 -121.36340149 292.31985465 -121.3639679 290.60514832 C-121.36425539 285.94430705 -121.35836634 281.2834914 -121.35139394 276.62265611 C-121.34515249 271.75394714 -121.34455597 266.88523762 -121.34336853 262.01652527 C-121.34025756 252.79430161 -121.3320473 243.57208978 -121.32201904 234.34987134 C-121.31085067 223.8518169 -121.30534562 213.3537619 -121.30032361 202.855703 C-121.28986451 181.25796206 -121.27226957 159.66023177 -121.25 138.0625 C-122.42973389 138.10177612 -122.42973389 138.10177612 -123.63330078 138.1418457 C-127.21366216 138.24609476 -130.79370381 138.3109175 -134.375 138.375 C-136.23125 138.4378418 -136.23125 138.4378418 -138.125 138.50195312 C-148.40259431 138.64009283 -148.40259431 138.64009283 -152.06329346 135.66201782 C-156.66412993 130.1926253 -155.47002621 123.58107714 -155.49023438 116.70019531 C-155.49993425 114.70105028 -155.53114435 112.70204766 -155.5625 110.703125 C-155.56765625 109.43210937 -155.5728125 108.16109375 -155.578125 106.8515625 C-155.5874707 105.69350098 -155.59681641 104.53543945 -155.60644531 103.34228516 C-155.10210678 98.70167975 -153.54973447 95.36223447 -150.25 92.0625 C-147.36083984 91.83544922 -147.36083984 91.83544922 -143.7109375 91.8671875 C-141.75800781 91.87685547 -141.75800781 91.87685547 -139.765625 91.88671875 C-138.38541405 91.90343071 -137.00520571 91.92036061 -135.625 91.9375 C-134.23698548 91.94752994 -132.84896411 91.95665577 -131.4609375 91.96484375 C-128.05711974 91.98848137 -124.65364494 92.02143133 -121.25 92.0625 C-121.26571045 91.09127197 -121.2814209 90.12004395 -121.29760742 89.11938477 C-121.35296219 85.42725315 -121.38672271 81.73515583 -121.41479492 78.04272461 C-121.42964641 76.46128117 -121.44993305 74.87987705 -121.47631836 73.29858398 C-121.83800491 51.02294785 -118.40370586 28.96338968 -102.6875 11.9375 C-93.27385865 3.10427585 -82.53056507 -2.29482926 -70.25 -5.9375 C-69.47785156 -6.17082031 -68.70570313 -6.40414063 -67.91015625 -6.64453125 C-47.06651533 -12.38169182 -18.75190326 -11.17901925 0 0 Z " fill="#101010" transform="translate(685.25,313.9375)"/>
<path d="M0 0 C8.40428737 7.59269164 14.39403281 16.50406762 20.09960938 26.20117188 C20.48979248 26.84594482 20.87997559 27.49071777 21.28198242 28.1550293 C23.90516547 32.77615957 25.75266317 37.67549429 25.16210938 43.07617188 C19.37444466 50.31389596 6.42350065 51.89913434 -2.15039062 53.88867188 C-3.08085205 54.10765137 -4.01131348 54.32663086 -4.9699707 54.55224609 C-10.37595137 55.75164218 -15.29909761 56.47843059 -20.83789062 56.07617188 C-25.34863081 52.8542146 -27.69190304 48.13914562 -30.44726562 43.43554688 C-35.90210798 34.18070198 -44.73500121 29.20822821 -54.83789062 26.07617188 C-70.22693014 22.88783496 -84.64118189 25.38642687 -98.20507812 33.25585938 C-113.17858206 43.60846002 -120.64135081 59.8274739 -124.22924805 77.20117188 C-125.25086251 83.70540964 -125.23138064 90.13126159 -125.15039062 96.70117188 C-125.15361328 98.01601563 -125.15683594 99.33085938 -125.16015625 100.68554688 C-125.04459438 121.82286295 -120.03766361 141.04643085 -105.31835938 156.75195312 C-94.01418807 167.34405065 -80.24863809 171.46210724 -65.02148438 171.29101562 C-51.77428001 170.39703251 -39.76903943 164.93300597 -30.83789062 155.07617188 C-28.60425952 151.85755422 -26.71781194 148.50932087 -24.83789062 145.07617188 C-21.42805456 139.66633581 -21.42805456 139.66633581 -19.83789062 138.07617188 C-12.16758104 137.53790454 -5.72752308 139.16724529 1.59960938 141.32617188 C2.66759766 141.62652344 3.73558594 141.926875 4.8359375 142.23632812 C23.09763018 147.47945309 23.09763018 147.47945309 26.16210938 152.07617188 C25.16674188 166.68166629 11.39046875 181.76465256 0.90112305 191.18286133 C-20.38323817 209.47805399 -47.16662503 216.64772078 -74.83789062 215.07617188 C-98.11428861 212.85540641 -119.53730882 205.73969317 -137.83789062 191.07617188 C-138.75441406 190.34398437 -139.6709375 189.61179687 -140.61523438 188.85742188 C-161.51584873 171.08062815 -173.02884476 142.52609127 -175.57226562 115.65429688 C-175.65992188 114.47351563 -175.74757813 113.29273438 -175.83789062 112.07617188 C-175.94617188 110.91601562 -176.05445313 109.75585938 -176.16601562 108.56054688 C-178.99833795 76.51058374 -172.35929509 40.94768931 -151.50488281 15.57324219 C-134.19552864 -4.73976179 -111.37639551 -19.05976825 -84.38012695 -21.73852539 C-54.64344364 -23.90602204 -23.43141866 -20.12140412 0 0 Z " fill="#111111" transform="translate(489.837890625,423.923828125)"/>
<path d="M0 0 C-0.33 0.99 -0.66 1.98 -1 3 C-1.81210937 2.67 -2.62421875 2.34 -3.4609375 2 C-7.67365188 0.80965245 -11.28658317 0.84936053 -15.625 1 C-24.5918864 1.30814043 -24.5918864 1.30814043 -28 -1 C-7.8633218 -3.49480969 -7.8633218 -3.49480969 0 0 Z " fill="#2B2B2C" transform="translate(314,220)"/>
<path d="M0 0 C0 3 0 3 -2.3125 5.6875 C-5 8 -5 8 -8 8 C-5.36 5.36 -2.72 2.72 0 0 Z " fill="#070707" transform="translate(779,729)"/>
<path d="M0 0 C-0.66 0.66 -1.32 1.32 -2 2 C-5.625 1.625 -5.625 1.625 -9 1 C-5.64919071 -1.10976881 -3.77897651 -1.0497157 0 0 Z " fill="#19191A" transform="translate(404,404)"/>
</svg>
