<?xml version="1.0" encoding="UTF-8"?>
<svg version="1.1" xmlns="http://www.w3.org/2000/svg" width="32" height="32" viewBox="0 0 1024 1024">
<path d="M0 0 C3.22076084 0.00008078 6.44137796 -0.00680571 9.66210938 -0.02050781 C40.90588325 -0.15097075 71.96085459 1.10296028 103.0480957 4.37280273 C104.56205429 4.52895554 104.56205429 4.52895554 106.1065979 4.68826294 C128.22746797 6.99019995 150.15634522 10.28274681 172.0480957 14.18530273 C172.7764563 14.31485352 173.50481689 14.4444043 174.25524902 14.57788086 C212.17905888 21.36482521 249.38739999 31.08839345 284.0480957 48.18530273 C284.80074707 48.55010742 285.55339844 48.91491211 286.32885742 49.29077148 C303.85942321 57.84106846 321.60037919 70.42674538 328.7277832 89.33764648 C330.41192946 94.67031477 330.46140721 99.75700262 330.3605957 105.31030273 C330.34859131 106.35943848 330.33658691 107.40857422 330.32421875 108.48950195 C329.37069562 162.64150069 314.49731955 217.40750561 289.0480957 265.18530273 C288.73646484 265.78584473 288.42483398 266.38638672 288.10375977 267.00512695 C274.69839988 292.75247376 256.57404268 316.9599993 236.8215332 338.16577148 C234.72110634 340.42426618 232.70483248 342.74308557 230.6965332 345.08374023 C227.12065083 349.18497308 223.28719045 352.92682395 219.2980957 356.62280273 C218.23896973 357.60700195 218.23896973 357.60700195 217.15844727 358.61108398 C203.04964935 371.6326102 187.54833819 383.29956292 171.6105957 393.99780273 C171.01472656 394.39990967 170.41885742 394.8020166 169.80493164 395.21630859 C166.64665143 397.2967413 163.57058166 398.83628934 160.0480957 400.18530273 C160.25958252 399.27651367 160.47106934 398.36772461 160.68896484 397.43139648 C162.69105924 388.26418997 163.56084472 379.60446555 163.4855957 370.18530273 C163.48222198 369.5041037 163.47884827 368.82290466 163.47537231 368.12106323 C163.36614886 352.6361255 161.68082501 337.44525997 159.0480957 322.18530273 C158.93401367 321.52250305 158.81993164 320.85970337 158.70239258 320.17681885 C151.89152761 281.14016756 139.91162331 229.69955207 106.0480957 205.18530273 C93.458894 196.99271155 78.97863495 192.95259036 64.0637207 195.90405273 C51.33851006 198.73304958 42.48333161 203.67494512 32.51367188 211.8684082 C22.9432369 219.6487161 13.01014189 222.66768791 0.6105957 222.06030273 C-12.04288675 220.71577685 -20.97781886 215.63127825 -30.9519043 208.18530273 C-45.03428978 197.72059829 -58.85704207 193.325781 -76.4753418 195.65014648 C-93.79406033 198.88068007 -106.42740174 208.37065622 -116.9597168 222.22436523 C-125.33842685 234.67742842 -131.61394518 248.19432474 -136.9519043 262.18530273 C-137.3533667 263.23476074 -137.3533667 263.23476074 -137.76293945 264.30541992 C-152.51195705 303.70463223 -165.47801212 358.65967638 -152.9519043 400.18530273 C-171.72913095 393.27796579 -189.05359924 376.26364439 -203.9519043 363.18530273 C-204.7356543 362.51241211 -205.5194043 361.83952148 -206.3269043 361.14624023 C-218.84179868 350.19570765 -230.76337649 338.33362633 -240.9519043 325.18530273 C-241.79881836 324.17854492 -242.64573242 323.17178711 -243.51831055 322.13452148 C-294.32386275 261.53693636 -326.54090423 174.77816507 -322.29418945 95.2487793 C-320.84079788 82.24082109 -311.71911578 72.17341203 -301.9519043 64.18530273 C-270.74772441 39.50484593 -229.22680186 27.49837954 -190.9519043 19.18530273 C-190.31561096 19.04626526 -189.67931763 18.90722778 -189.02374268 18.76397705 C-153.09051681 10.94307954 -116.59620245 5.77021766 -79.9519043 2.81030273 C-78.97025299 2.73067291 -77.98860168 2.65104309 -76.97720337 2.56900024 C-51.32683033 0.53008908 -25.71845979 -0.00326981 0 0 Z M-257.9519043 85.18530273 C-259.02956055 85.74862305 -260.1072168 86.31194336 -261.2175293 86.89233398 C-270.08848142 91.74861162 -280.42431468 98.24861256 -283.9519043 108.18530273 C-282.38084228 115.62834832 -274.56301518 120.5310098 -268.5534668 124.48608398 C-193.89345482 171.52837313 -85.46378309 173.09159926 82.0480957 171.18530273 C82.86316589 171.1197821 83.67823608 171.05426147 84.51800537 170.98675537 C195.03746676 163.60566262 195.03746676 163.60566262 289.0480957 113.18530273 C291.30233329 110.40487156 291.30233329 110.40487156 291.0480957 107.43530273 C287.43097595 95.67966353 273.48580568 89.17242431 263.3605957 83.74780273 C234.8052399 68.89123083 203.50314398 61.51711547 172.09118652 55.57202148 C170.17359827 55.20905801 168.256813 54.84185954 166.34008789 54.47436523 C75.75619623 37.37832129 -19.4827907 37.50179042 -257.9519043 85.18530273 Z " fill="#0470EB" transform="translate(512.951904296875,283.814697265625)"/>
<path d="M0 0 C1.12955864 -0.01226624 1.12955864 -0.01226624 2.28193665 -0.02478027 C4.77933962 -0.04963621 7.27668575 -0.06615068 9.77416992 -0.08056641 C11.05286736 -0.08855192 11.05286736 -0.08855192 12.35739708 -0.09669876 C16.86944047 -0.12343118 21.38145619 -0.14280579 25.89355469 -0.15722656 C30.55445946 -0.17387519 35.21465725 -0.21865396 39.87529469 -0.26959801 C43.45868239 -0.30325107 47.04190188 -0.31480181 50.62543297 -0.32045364 C52.34345592 -0.3271715 54.0614676 -0.34240754 55.77933693 -0.36634445 C58.18550886 -0.39795922 60.58976873 -0.39803925 62.99609375 -0.390625 C64.05845245 -0.415233 64.05845245 -0.415233 65.14227295 -0.44033813 C68.97644908 -0.39203411 70.54425054 0.07003713 73.53227234 2.55184937 C75.83729977 5.37036986 78.07864354 8.21063482 80.25463867 11.13037109 C85.76655331 18.41540069 91.62120297 25.36862382 97.69213867 32.19287109 C98.36760742 32.95470703 99.04307617 33.71654297 99.73901367 34.50146484 C110.14145589 45.54850284 123.48912436 53.19551421 137.69213867 58.19287109 C135.67701876 62.22311092 129.47207115 62.91551135 125.39480591 64.27563477 C124.72980072 64.49582275 124.06479553 64.71601074 123.37963867 64.94287109 C122.71197479 65.16563721 122.04431091 65.38840332 121.35641479 65.61791992 C92.49848112 75.18116737 63.04539426 79.4249627 32.69213867 79.38037109 C31.92656647 79.37976685 31.16099426 79.3791626 30.3722229 79.37854004 C-5.51017456 79.30201681 -40.01380037 72.74055041 -73.30786133 59.19287109 C-73.30786133 58.53287109 -73.30786133 57.87287109 -73.30786133 57.19287109 C-72.56922852 56.97373047 -71.8305957 56.75458984 -71.06958008 56.52880859 C-43.83179074 48.01483632 -26.37957155 26.56981101 -11.08520508 3.64208984 C-8.02443941 -0.57571251 -4.83362024 0.02882631 0 0 Z " fill="#0570EB" transform="translate(484.307861328125,650.80712890625)"/>
<path d="M0 0 C0.75474609 -0.00257813 1.50949219 -0.00515625 2.28710938 -0.0078125 C5.34959433 0.04615199 7.89289781 0.23012295 10.65893555 1.60083008 C13.29731803 4.41812278 12.89228677 6.55388417 12.828125 10.35546875 C12.82246521 11.01710526 12.81680542 11.67874176 12.81097412 12.36042786 C12.78861247 14.47019332 12.73842371 16.57824952 12.6875 18.6875 C12.6674344 20.11911606 12.64918372 21.5507588 12.6328125 22.98242188 C12.58875069 26.48883515 12.51972777 29.99425072 12.4375 33.5 C13.33581543 33.48952637 14.23413086 33.47905273 15.15966797 33.46826172 C18.48814447 33.4342053 21.81643622 33.40911382 25.14501953 33.39013672 C26.58645547 33.38007037 28.02787095 33.3664162 29.46923828 33.34912109 C31.53943934 33.32489988 33.60937076 33.31352359 35.6796875 33.3046875 C37.54923096 33.28897705 37.54923096 33.28897705 39.45654297 33.27294922 C42.4375 33.5 42.4375 33.5 44.4375 35.5 C44.88619661 38.79243604 44.76158242 42.11797743 44.75 45.4375 C44.76611328 46.35724609 44.78222656 47.27699219 44.79882812 48.22460938 C44.79947266 49.10826172 44.80011719 49.99191406 44.80078125 50.90234375 C44.80376221 51.71179443 44.80674316 52.52124512 44.80981445 53.35522461 C44.4375 55.5 44.4375 55.5 43.32958984 57.26904297 C40.49174318 59.11529109 38.15786443 58.83694801 34.80078125 58.79296875 C33.50205078 58.78330078 32.20332031 58.77363281 30.86523438 58.76367188 C29.49348361 58.73860585 28.12173882 58.71321101 26.75 58.6875 C25.36655076 58.6724502 23.98308599 58.6587623 22.59960938 58.64648438 C19.21184793 58.61107223 15.82486861 58.56168054 12.4375 58.5 C12.45844727 59.32725586 12.47939453 60.15451172 12.50097656 61.00683594 C12.58411619 64.7544337 12.63615531 68.50183749 12.6875 72.25 C12.72101563 73.55195312 12.75453125 74.85390625 12.7890625 76.1953125 C12.80195313 77.44570313 12.81484375 78.69609375 12.828125 79.984375 C12.84907227 81.13647461 12.87001953 82.28857422 12.89160156 83.47558594 C12.4375 86.5 12.4375 86.5 10.67480469 88.8762207 C8.24619916 90.63884132 7.20201765 91.0038233 4.25 90.99609375 C3.07824219 90.99706055 3.07824219 90.99706055 1.8828125 90.99804688 C1.07585937 90.97806641 0.26890625 90.95808594 -0.5625 90.9375 C-1.77292969 90.94813477 -1.77292969 90.94813477 -3.0078125 90.95898438 C-8.76346841 90.89724879 -8.76346841 90.89724879 -11.79980469 89.38769531 C-14.38392334 86.62032614 -14.01832705 84.59609872 -13.953125 80.86328125 C-13.94023437 79.56455078 -13.92734375 78.26582031 -13.9140625 76.92773438 C-13.88064101 75.55597897 -13.84678123 74.18423419 -13.8125 72.8125 C-13.79243376 71.42906188 -13.77418319 70.04559616 -13.7578125 68.66210938 C-13.71059207 65.27404351 -13.64474069 61.88736759 -13.5625 58.5 C-14.38451904 58.52618408 -15.20653809 58.55236816 -16.0534668 58.5793457 C-19.78544938 58.6834144 -23.5171266 58.74836128 -27.25 58.8125 C-29.19036133 58.8753418 -29.19036133 58.8753418 -31.16992188 58.93945312 C-33.04067383 58.96362305 -33.04067383 58.96362305 -34.94921875 58.98828125 C-36.09608154 59.01446533 -37.24294434 59.04064941 -38.42456055 59.06762695 C-42.5647798 58.31869598 -44.02165188 56.79186661 -46.5625 53.5 C-47.11767578 51.32763672 -47.11767578 51.32763672 -47.0078125 49.1796875 C-46.94980469 48.00599609 -46.94980469 48.00599609 -46.890625 46.80859375 C-46.82359375 46.00550781 -46.7565625 45.20242188 -46.6875 44.375 C-46.65914063 43.56417969 -46.63078125 42.75335937 -46.6015625 41.91796875 C-46.30426413 37.42133088 -46.30426413 37.42133088 -45.5625 35.5 C-41.72879457 32.36984703 -38.79115459 32.18257899 -33.94921875 32.42578125 C-32.70205078 32.48056641 -31.45488281 32.53535156 -30.16992188 32.59179688 C-28.22956055 32.70104492 -28.22956055 32.70104492 -26.25 32.8125 C-24.93708984 32.87373047 -23.62417969 32.93496094 -22.27148438 32.99804688 C-19.03417938 33.15108311 -15.79833704 33.31890984 -12.5625 33.5 C-12.63033691 32.73163818 -12.69817383 31.96327637 -12.76806641 31.17163086 C-13.2883705 25.13469712 -13.78139537 19.1205604 -13.9375 13.0625 C-13.98648438 11.74378906 -14.03546875 10.42507813 -14.0859375 9.06640625 C-13.5625 5.5 -13.5625 5.5 -11.57421875 2.55859375 C-7.56863251 -0.17933614 -4.73511112 -0.17883681 0 0 Z " fill="#0570EB" transform="translate(447.5625,527.5)"/>
<path d="M0 0 C3.76735573 3.15406526 7.3650674 6.5139291 7.9609375 11.5703125 C8.21166597 18.49427559 7.3384437 22.99184976 2.6875 28.25 C-1.53137473 31.98671762 -6.84301138 32.37002013 -12.3125 32.25 C-18.4637621 30.60966344 -21.70795062 27.26975836 -25.3125 22.25 C-27.28686212 18.30127576 -26.75079693 13.55383233 -26.3125 9.25 C-23.72477674 3.97871187 -20.0812597 0.86510983 -15.0625 -2.0625 C-9.63080031 -3.42042492 -4.91188741 -2.59495939 0 0 Z " fill="#0972EA" transform="translate(572.3125,576.75)"/>
<path d="M0 0 C4.0687591 2.66662859 6.48369111 5.29378353 7.97265625 10.0234375 C8.60950532 15.35704848 8.67767496 19.58728828 6.28515625 24.4609375 C1.47107316 29.79546201 -2.7454736 32.63442273 -10.02734375 33.0234375 C-15.6439063 32.05887577 -19.43158554 29.4410833 -23.02734375 25.0234375 C-25.84976399 20.54649506 -26.66335094 17.29321135 -26.02734375 12.0234375 C-24.19767666 6.78035924 -21.83281583 2.99825355 -17.02734375 0.0234375 C-11.44116699 -2.64269232 -5.60007475 -2.69753119 0 0 Z " fill="#0A73E9" transform="translate(609.02734375,534.9765625)"/>
</svg>