<?xml version="1.0" encoding="UTF-8"?>
<svg version="1.1" xmlns="http://www.w3.org/2000/svg" width="1024" height="1024">
<path d="M0 0 C337.92 0 675.84 0 1024 0 C1024 337.92 1024 675.84 1024 1024 C686.08 1024 348.16 1024 0 1024 C0 686.08 0 348.16 0 0 Z " fill="#FEFEFE" transform="translate(0,0)"/>
<path d="M0 0 C4.0258287 2.12474293 7.95821416 4.37646744 11.890625 6.66796875 C15.61446683 8.80235739 19.34570925 10.92361596 23.078125 13.04296875 C24.06151855 13.60306641 25.04491211 14.16316406 26.05810547 14.74023438 C33.02643366 18.68435601 40.07638014 22.3947837 47.27807617 25.89404297 C52.79650978 28.58161177 58.23042138 31.41274908 63.65625 34.28125 C74.18296262 39.84492869 84.78203031 45.26248406 95.390625 50.66796875 C112.84555709 59.56192416 130.25878654 68.52731555 147.453125 77.91796875 C148.33291016 78.39492187 149.21269531 78.871875 150.11914062 79.36328125 C154.5018238 81.75324849 158.82302446 84.20902976 163.08984375 86.80078125 C167.03108222 89.1867449 170.99145832 91.29149848 175.140625 93.29296875 C181.67691037 96.49512427 188.07665452 99.90921712 194.453125 103.41796875 C202.0513007 107.59736154 209.6904671 111.67957143 217.390625 115.66796875 C224.74926653 119.48298953 232.06245841 123.36621035 239.328125 127.35546875 C248.45706845 132.36487706 257.63169768 137.28393946 266.828125 142.16796875 C267.5165448 142.53373016 268.2049646 142.89949158 268.91424561 143.27633667 C276.64034903 147.37931963 284.38090696 151.45119009 292.15161133 155.46923828 C301.73480085 160.42493733 311.16228193 165.59785307 320.53369141 170.94311523 C330.93439603 176.86278863 341.45830433 182.57804936 352.23828125 187.78125 C374.10606789 198.34869369 374.10606789 198.34869369 376.890625 205.66796875 C377.142474 208.92900604 377.142474 208.92900604 377.14510059 212.89289761 C377.14991031 213.99163985 377.14991031 213.99163985 377.15481719 215.1125789 C377.16315433 217.58037525 377.15718 220.04793125 377.15132141 222.51573181 C377.1543404 224.29753596 377.15822861 226.07933881 377.16291398 227.86113936 C377.17323524 232.76795097 377.17100169 237.67468987 377.16673338 242.58150756 C377.16427363 247.86925229 377.17327093 253.15697916 377.18077087 258.44471741 C377.19354072 268.80785011 377.19530874 279.17095693 377.19297061 289.53409617 C377.1911899 297.95453774 377.19293179 306.37497144 377.19719505 314.79541206 C377.19779024 315.99238255 377.19838543 317.18935303 377.19899866 318.42259534 C377.20021037 320.85398455 377.2014245 323.28537376 377.20264103 325.71676297 C377.21352531 348.53435946 377.21134984 371.35194118 377.20525619 394.16953851 C377.20008583 415.05927197 377.21134405 435.94895882 377.23035441 456.83868306 C377.24971023 478.27178346 377.2579928 499.70486178 377.25423115 521.13797098 C377.25231573 533.1776432 377.25483983 545.21727573 377.26894569 557.25694084 C377.28083173 567.50593647 377.28229566 577.75486799 377.27015553 588.00386446 C377.26424736 593.23581681 377.26322069 598.46765173 377.27515793 603.69959641 C377.28595104 608.48558447 377.28299228 613.27135612 377.26889624 618.05733377 C377.26623109 619.79215025 377.26867234 621.52698333 377.27663211 623.26178359 C377.28667814 625.6138527 377.27836826 627.96516078 377.26535511 630.31719875 C377.26541013 631.62544532 377.26546514 632.93369189 377.26552182 634.2815823 C376.75766727 638.86895584 375.17853863 641.42551089 371.8984375 644.58984375 C367.37817896 647.71293147 362.58229192 650.28263697 357.765625 652.91796875 C348.58475968 657.99450251 339.51776307 663.21629051 330.515625 668.60546875 C319.21702025 675.35655648 307.77565165 681.7940355 296.25 688.1484375 C290.55723034 691.28901129 284.90293815 694.49160954 279.265625 697.73046875 C270.65090523 702.67728033 261.99459329 707.54629089 253.32104492 712.38916016 C248.26263386 715.21485846 243.20974237 718.04889886 238.17578125 720.91796875 C224.36325339 728.78796741 210.39365254 736.33672633 196.36523438 743.81152344 C190.80012333 746.78490064 185.25053663 749.78673021 179.703125 752.79296875 C178.74220947 753.31310547 177.78129395 753.83324219 176.79125977 754.36914062 C168.38037439 758.92885526 160.02749199 763.58778568 151.68530273 768.27172852 C131.39247889 779.66050841 111.03001843 790.91833194 90.54418945 801.95654297 C83.98340854 805.50299953 77.48999836 809.1541034 71.015625 812.85546875 C60.69344369 818.74932364 50.20402322 824.30092677 39.68276978 829.82775879 C29.33027705 835.26845548 19.07679497 840.83429531 8.95507812 846.69726562 C-5.87048322 855.24215938 -5.87048322 855.24215938 -13.109375 853.66796875 C-23.18690917 849.75601456 -32.45623818 843.60547206 -41.73608398 838.13842773 C-49.37963224 833.6423274 -57.10787016 829.33925492 -64.91064453 825.12695312 C-71.31853733 821.66224029 -77.65946812 818.09406628 -83.984375 814.48046875 C-94.65922696 808.39854407 -105.49189989 802.63509967 -116.35302734 796.89575195 C-123.96763726 792.8714897 -131.56035403 788.81452268 -139.109375 784.66796875 C-148.13212588 779.71747112 -157.20700541 774.86871097 -166.296875 770.04296875 C-167.33740524 769.49030838 -167.33740524 769.49030838 -168.3989563 768.92648315 C-174.84939092 765.50141092 -181.30151611 762.08035158 -187.78125 758.7109375 C-195.84966086 754.51389148 -203.75825463 750.16479286 -211.55834961 745.48657227 C-217.13740755 742.16889247 -222.84183888 739.14378583 -228.609375 736.16796875 C-234.9483852 732.89552246 -241.18246878 729.53101633 -247.296875 725.85546875 C-254.36703553 721.60823673 -261.58415849 717.67740906 -268.859375 713.79296875 C-277.72262026 709.05760927 -286.50747579 704.21888996 -295.21484375 699.203125 C-301.90280533 695.35094045 -308.62262052 691.55915712 -315.359375 687.79296875 C-316.40689941 687.20700928 -317.45442383 686.6210498 -318.53369141 686.01733398 C-323.80025286 683.07278504 -329.06932656 680.13277395 -334.33984375 677.1953125 C-345.25828829 671.10443049 -356.14593421 664.9625528 -366.984375 658.73046875 C-368.0355249 658.1279126 -369.0866748 657.52535645 -370.16967773 656.90454102 C-373.16140309 655.17822397 -376.13880449 653.43041487 -379.109375 651.66796875 C-380.13063477 651.06710449 -381.15189453 650.46624023 -382.20410156 649.84716797 C-383.18604492 649.25049316 -384.16798828 648.65381836 -385.1796875 648.0390625 C-386.05641113 647.51111084 -386.93313477 646.98315918 -387.83642578 646.43920898 C-390.52264453 644.34592037 -391.62211747 642.73726343 -393.109375 639.66796875 C-393.48657316 636.26349688 -393.48657316 636.26349688 -393.48969173 632.27313995 C-393.49668161 631.16506927 -393.49668161 631.16506927 -393.5038127 630.03461331 C-393.51579316 627.55158232 -393.50635573 625.06909543 -393.49705505 622.58605957 C-393.50122663 620.7910162 -393.50670318 618.99597547 -393.51337487 617.20093966 C-393.52787113 612.26215255 -393.52357173 607.32353172 -393.51620805 602.38473535 C-393.51148905 597.06087172 -393.52397492 591.73704473 -393.53422546 586.41319275 C-393.55144326 575.98133877 -393.55224736 565.54954494 -393.54701256 555.11768043 C-393.54297546 546.64148145 -393.54440893 538.16530029 -393.54976082 529.68910217 C-393.55050924 528.4839411 -393.55125766 527.27878002 -393.55202876 526.03709891 C-393.5535602 523.58904024 -393.55509854 521.14098156 -393.55664373 518.69292289 C-393.57037935 495.72318616 -393.56492344 472.75348346 -393.55345852 449.78374749 C-393.54352319 428.75503206 -393.55647014 407.72640457 -393.58039271 386.69770271 C-393.60475555 365.11992431 -393.61439863 343.54218693 -393.60773998 321.96439505 C-393.60424173 309.84424374 -393.60651981 297.72416011 -393.62399101 285.60401917 C-393.63867774 275.2873237 -393.63939467 264.97074358 -393.6219201 254.65405047 C-393.61337892 249.38763105 -393.61133637 244.12141799 -393.62657166 238.85500908 C-393.64033601 234.03754351 -393.63576268 229.22046268 -393.61633242 224.40301985 C-393.61254663 222.65679426 -393.61556792 220.91053846 -393.62594407 219.1643396 C-393.63901667 216.79669012 -393.62761925 214.43038785 -393.60994625 212.06279755 C-393.60978525 210.08757087 -393.60978525 210.08757087 -393.60962099 208.07244062 C-393.02337312 204.08267477 -391.92886124 202.49573449 -389.109375 199.66796875 C-386.83150226 198.10927696 -384.62391319 196.71167655 -382.234375 195.35546875 C-381.57236084 194.97011963 -380.91034668 194.58477051 -380.22827148 194.18774414 C-378.85803876 193.39220401 -377.48521451 192.60111112 -376.10986328 191.81445312 C-374.2567415 190.75242483 -372.41413659 189.67453647 -370.57421875 188.58984375 C-364.17178492 184.85570324 -357.68106934 181.41306941 -351.02856445 178.14453125 C-344.22752989 174.77763546 -337.54332422 171.1978741 -330.859375 167.60546875 C-330.26154205 167.28432098 -329.66370911 166.96317322 -329.04776001 166.6322937 C-324.13901558 163.99462115 -319.23325248 161.35142313 -314.32769775 158.70782471 C-297.23124931 149.4957329 -280.06235905 140.44968853 -262.79443359 131.56494141 C-220.65143868 109.92812749 -220.65143868 109.92812749 -179.109375 87.16796875 C-159.77589233 76.22955179 -140.090042 65.9867282 -120.32545471 55.85693359 C-109.70445731 50.41252371 -99.10854638 44.91951869 -88.51123047 39.42919922 C-85.18193567 37.70553533 -81.85084508 35.98538273 -78.51953125 34.265625 C-60.08807819 24.73652442 -41.83004681 14.93845024 -23.89550781 4.49975586 C-23.07791992 4.02675049 -22.26033203 3.55374512 -21.41796875 3.06640625 C-20.70439209 2.65052246 -19.99081543 2.23463867 -19.25561523 1.80615234 C-12.66489826 -1.68900435 -7.02187912 -3.00811656 0 0 Z " fill="#000000" transform="translate(520.109375,91.33203125)"/>
<path d="M0 0 C0.24370655 15.21229913 0.39500778 30.42360453 0.43784332 45.63774681 C0.45986515 52.7032082 0.51153174 59.76607759 0.63427734 66.83056641 C0.75272405 73.65251938 0.78684215 80.47080808 0.7702179 87.29375076 C0.7775371 89.89259358 0.81282232 92.49151692 0.87687683 95.08958054 C1.3393451 114.91374358 1.3393451 114.91374358 -2.54815674 120.04245567 C-6.26207897 123.36049319 -10.3758937 125.38669561 -14.98915195 127.17599773 C-18.09733866 128.44966577 -20.82956348 130.18131491 -23.6875 131.94140625 C-25.7897798 133.15172086 -27.89395724 134.35874518 -30 135.5625 C-31.12591553 136.20888428 -32.25183105 136.85526855 -33.41186523 137.52124023 C-42.84911543 142.93207505 -52.32076953 148.27802135 -61.82324219 153.57324219 C-65.02878272 155.35992039 -68.23341145 157.14821925 -71.4375 158.9375 C-73.04371216 159.8342041 -73.04371216 159.8342041 -74.68237305 160.74902344 C-81.83653 164.75530762 -88.93599567 168.84193524 -95.96264648 173.06811523 C-98.62682698 174.66129585 -101.04373256 176.01457752 -104 177 C-104.39817209 161.93631982 -104.69739962 146.8730486 -104.88080692 131.80521679 C-104.96825827 124.8075582 -105.08731576 117.81317898 -105.2824707 110.81762695 C-105.4708671 104.06108665 -105.56892948 97.30794659 -105.61291313 90.54894447 C-105.64423679 87.97573653 -105.7054162 85.40270733 -105.79741096 82.8309536 C-106.47099145 63.21369966 -106.47099145 63.21369966 -102.3573513 57.86361885 C-98.39434165 54.29868144 -93.98600198 51.98563406 -89.10327244 49.91927242 C-86.00786698 48.56637071 -83.23185757 46.8342694 -80.35546875 45.06640625 C-78.30190663 43.89417471 -76.24590739 42.72620237 -74.1875 41.5625 C-66.09067229 36.9414126 -58.03830761 32.26464126 -50.0625 27.4375 C-44.47465853 24.06112614 -38.87686822 20.76554862 -33.11328125 17.6953125 C-26.64555739 14.173365 -20.28000342 10.46626318 -13.890625 6.8046875 C-12.63862305 6.08877441 -12.63862305 6.08877441 -11.36132812 5.35839844 C-9.86041839 4.49497187 -8.36377677 3.62404991 -6.87304688 2.74316406 C-2.20701407 0 -2.20701407 0 0 0 Z " fill="#FDFDFD" transform="translate(872,324)"/>
<path d="M0 0 C8.10828667 4.05414333 15.81073405 8.15903445 23.5 12.875 C32.5753282 18.38010053 41.71093189 23.75293492 50.9375 29 C52.1080807 29.66649023 53.27865362 30.33299414 54.44921875 30.99951172 C56.79112074 32.33238047 59.13347031 33.66445909 61.47607422 34.99609375 C67.32326574 38.32052552 73.16472448 41.65469547 79 45 C80.03116943 45.58652344 81.06233887 46.17304688 82.12475586 46.77734375 C84.05403662 47.88508279 85.96667037 49.02262069 87.85664368 50.19616699 C90.92061798 52.06917268 90.92061798 52.06917268 94.15753174 53.17224121 C97.91031083 54.86141902 100.80667328 56.48916297 103 60 C105.30883023 68.37359944 104.38926417 77.56781133 104.171875 86.15625 C104.14948132 88.74552474 104.13240553 91.33485048 104.12042236 93.92419434 C104.07936496 100.03101262 103.98491783 106.13483938 103.86422849 112.24053335 C103.72975844 119.19547759 103.66403807 126.15055092 103.60388327 133.10647297 C103.47869369 147.4057076 103.26784118 161.7027613 103 176 C99.23364808 175.31494924 96.56965705 174.38625599 93.28125 172.40234375 C92.3636792 171.85626465 91.4461084 171.31018555 90.50073242 170.74755859 C89.51049072 170.15023926 88.52024902 169.55291992 87.5 168.9375 C78.77099005 163.74793345 69.97124889 158.74434498 61.05203247 153.89031982 C51.46555697 148.67006286 42.0320887 143.31778057 32.85986328 137.38867188 C26.68247565 133.39725545 20.39749502 129.61086365 14.0625 125.875 C12.64819702 125.03932495 12.64819702 125.03932495 11.20532227 124.18676758 C7.50498497 122.01163103 3.84205187 119.92102593 0 118 C0 79.06 0 40.12 0 0 Z " fill="#FDFDFD" transform="translate(153,324)"/>
<path d="M0 0 C0.99 0.495 0.99 0.495 2 1 C1.67 39.94 1.34 78.88 1 119 C-6.92 123.455 -6.92 123.455 -15 128 C-23.77895957 132.9434918 -32.4339081 138.05006954 -41.0625 143.25 C-56.26374063 152.4013281 -71.64088835 161.19917349 -87.1875 169.75 C-88.61485474 170.5392688 -88.61485474 170.5392688 -90.07104492 171.34448242 C-90.94865479 171.82377197 -91.82626465 172.30306152 -92.73046875 172.796875 C-93.89678833 173.43641113 -93.89678833 173.43641113 -95.08666992 174.08886719 C-97 175 -97 175 -99 175 C-99 136.06 -99 97.12 -99 57 C-86.625 50.07 -86.625 50.07 -74 43 C-62.78767402 36.51787404 -51.6182868 29.98988863 -40.53759766 23.28759766 C-28.84938423 16.21908878 -17.02628594 9.49940218 -4.96337891 3.09057617 C-3.25959182 2.14419257 -1.62165137 1.08110091 0 0 Z " fill="#FEFEFE" transform="translate(741,397)"/>
<path d="M0 0 C2.95914079 1.17118405 5.83132374 2.35821981 8.64453125 3.84765625 C9.31226563 4.20045654 9.98 4.55325684 10.66796875 4.91674805 C11.37566406 5.29484619 12.08335937 5.67294434 12.8125 6.0625 C13.5653125 6.46315674 14.318125 6.86381348 15.09375 7.27661133 C21.26814299 10.57776554 27.37899994 13.98330672 33.46875 17.4375 C36.87674869 19.36993404 40.29550989 21.28219662 43.71875 23.1875 C54.44754226 29.16214063 65.13961638 35.19206151 75.75 41.375 C76.6884375 41.92115967 77.626875 42.46731934 78.59375 43.0300293 C80.38900875 44.08059164 82.16890179 45.15803701 83.92921448 46.26615906 C86.95738456 48.10033336 86.95738456 48.10033336 90.34996033 49.1423645 C94.43629617 50.81952081 97.48786496 52.28130984 100 56 C102.50361612 64.46426841 101.50434957 73.8802147 101.26953125 82.59375 C101.24527204 85.22785909 101.22677297 87.86202701 101.21379089 90.49621582 C101.1734939 96.70934839 101.06698304 102.91948253 100.93624753 109.13129854 C100.79058396 116.20710297 100.71937815 123.28305609 100.65420687 130.35998821 C100.5185755 144.90820081 100.29014373 159.45405848 100 174 C97.62659705 172.73700471 95.25351767 171.4734077 92.88061523 170.20947266 C92.21621178 169.85599258 91.55180832 169.50251251 90.86727142 169.13832092 C84.89237958 165.95474893 78.96649549 162.68823741 73.0625 159.375 C72.00691895 158.78380371 70.95133789 158.19260742 69.86376953 157.58349609 C61.2930242 152.76571183 52.80377539 147.81537861 44.32739258 142.83398438 C39.02499174 139.72842435 33.70160106 136.71016442 28.25 133.875 C4.41408115 121.41408115 4.41408115 121.41408115 0 117 C-0.09578593 115.4818148 -0.12188147 113.95917604 -0.12025452 112.43797302 C-0.12162918 111.45214233 -0.12300385 110.46631165 -0.12442017 109.4506073 C-0.12082489 108.36016617 -0.11722961 107.26972504 -0.11352539 106.14624023 C-0.11367142 105.00492645 -0.11381744 103.86361267 -0.1139679 102.68771362 C-0.11326818 98.89465469 -0.10547307 95.10164416 -0.09765625 91.30859375 C-0.09579228 88.68685432 -0.09436828 86.06511454 -0.09336853 83.44337463 C-0.09025551 77.23498045 -0.08204252 71.02660379 -0.07201904 64.81821734 C-0.06085699 57.75182559 -0.05534722 50.68543301 -0.05032361 43.61903465 C-0.03985988 29.07934737 -0.022261 14.53967393 0 0 Z " fill="#FEFEFE" transform="translate(282,398)"/>
<path d="M0 0 C1.92338205 0.95327263 3.84580556 1.90847946 5.76782227 2.86450195 C6.83847427 3.39622513 7.90912628 3.9279483 9.01222229 4.4757843 C12.44792995 6.2285116 15.6697734 8.13972467 18.9375 10.1875 C24.94643751 13.88561365 31.10510663 17.2041876 37.375 20.4375 C45.9383343 24.86718012 54.2863234 29.54525571 62.54296875 34.52050781 C65.41008326 36.2469301 68.28309518 37.96333708 71.15625 39.6796875 C83.56119771 47.09916051 83.56119771 47.09916051 86.69355774 49.09408569 C89.92152871 51.08718186 89.92152871 51.08718186 93.39878845 52.20822144 C97.42883451 53.8841737 100.49003298 55.34602615 103 59 C105.48103322 67.17482763 104.50476313 76.2906699 104.26953125 84.71875 C104.24527094 87.26317647 104.22677239 89.80766385 104.21379089 92.35217285 C104.16931296 98.35310541 104.06700326 104.3503219 103.93624753 110.34976816 C103.79056162 117.18372386 103.71937288 124.01783396 103.65420687 130.85295773 C103.51858992 144.903687 103.29017514 158.95167308 103 173 C101.08796784 172.05193982 99.17684893 171.10203767 97.26611328 170.15136719 C96.20176056 169.62258972 95.13740784 169.09381226 94.040802 168.54901123 C90.21840362 166.60184794 86.54255521 164.47091612 82.875 162.25 C76.98779437 158.73835689 71.06132612 155.31752768 65.0625 152 C64.31734131 151.58782227 63.57218262 151.17564453 62.80444336 150.75097656 C60.53721289 149.49897862 58.26883864 148.24908106 56 147 C42.3607815 139.49109691 28.85565199 131.79611533 15.5625 123.6875 C11.46462938 121.20906279 7.24635493 119.05947531 2.93359375 116.98046875 C1 116 1 116 0 115 C-0.09571971 113.50716202 -0.12188227 112.00980345 -0.12025452 110.51390076 C-0.12162918 109.54489838 -0.12300385 108.575896 -0.12442017 107.57752991 C-0.12082489 106.50579025 -0.11722961 105.4340506 -0.11352539 104.32983398 C-0.11367142 103.20802734 -0.11381744 102.0862207 -0.1139679 100.93041992 C-0.1132682 97.20229189 -0.10547315 93.47421311 -0.09765625 89.74609375 C-0.09579227 87.16919482 -0.09436827 84.59229553 -0.09336853 82.01539612 C-0.08993342 75.91324885 -0.0820426 69.81112206 -0.07201904 63.70898253 C-0.06085689 56.7635075 -0.0553472 49.81803165 -0.05032361 42.87254989 C-0.03985996 28.58169034 -0.02226115 14.2908458 0 0 Z " fill="#FDFDFD" transform="translate(153,472)"/>
<path d="M0 0 C0.18693869 14.90750713 0.32798225 29.81492341 0.41449738 44.72335339 C0.45573739 51.64580162 0.51195194 58.56752136 0.60351562 65.48950195 C0.69181634 72.16799764 0.73825571 78.84557978 0.75901794 85.524683 C0.77381596 88.07451616 0.80271342 90.62430722 0.84584045 93.17381859 C0.9038068 96.7420385 0.91191743 100.30711852 0.90820312 103.87573242 C0.95134644 105.46177025 0.95134644 105.46177025 0.99536133 107.07984924 C0.91625847 114.08936221 0.91625847 114.08936221 -1.75674057 116.74596405 C-3.79342319 118.036815 -5.78734497 119.04971002 -8 120 C-9.20124512 120.69440186 -9.20124512 120.69440186 -10.42675781 121.40283203 C-11.09545898 121.76747559 -11.76416016 122.13211914 -12.453125 122.5078125 C-13.22648193 122.93118896 -13.99983887 123.35456543 -14.79663086 123.79077148 C-15.60624268 124.23106689 -16.41585449 124.6713623 -17.25 125.125 C-18.55046265 125.83668335 -18.55046265 125.83668335 -19.87719727 126.56274414 C-22.58368612 128.04387438 -25.29170855 129.52216891 -28 131 C-40.72973036 137.95173148 -53.37611677 145.02964882 -65.95263672 152.25488281 C-68.79331465 153.88163861 -71.6379173 155.50120003 -74.48452759 157.11753845 C-77.04588455 158.57191297 -79.60608069 160.028325 -82.16625977 161.48477173 C-83.42127812 162.1980615 -84.67680508 162.9104572 -85.93286133 163.62191772 C-87.69755236 164.6217344 -89.46014412 165.62525351 -91.22265625 166.62890625 C-92.24109619 167.20713135 -93.25953613 167.78535645 -94.30883789 168.38110352 C-96.9863665 169.92383655 -96.9863665 169.92383655 -99.23608398 171.71069336 C-101 173 -101 173 -103 173 C-103.56285674 158.38044158 -103.98487968 143.76232913 -104.24349213 129.13410759 C-104.36682554 122.33977282 -104.53456708 115.55219698 -104.81054688 108.76220703 C-105.07710875 102.20074847 -105.21505922 95.64364585 -105.27705383 89.07703018 C-105.3211829 86.58108523 -105.40739112 84.08549697 -105.53752136 81.592556 C-106.33045735 65.76263612 -106.33045735 65.76263612 -103 59 C-97.19118673 52.99041552 -89.63760466 49.67883203 -82.06973267 46.4031105 C-77.26168365 44.20545201 -72.84811143 41.42718018 -68.375 38.625 C-66.73230997 37.63236328 -65.08802865 36.64234983 -63.44140625 35.65625 C-62.29696045 34.96982422 -62.29696045 34.96982422 -61.12939453 34.26953125 C-53.87072201 29.94195763 -46.49021327 25.8291153 -39.109375 21.71484375 C-36.92695331 20.49762893 -34.74466466 19.28017555 -32.5625 18.0625 C-31.47855957 17.45776855 -30.39461914 16.85303711 -29.27783203 16.22998047 C-22.03245633 12.17428236 -14.87425211 8.007022 -7.79296875 3.671875 C-1.6588785 0 -1.6588785 0 0 0 Z " fill="#FDFDFD" transform="translate(871,472)"/>
<path d="M0 0 C0.23377198 14.75971972 0.41002403 29.51919398 0.51812172 44.28038979 C0.56965216 51.13465948 0.63987837 57.98777797 0.75439453 64.84130859 C0.86484773 71.45484187 0.92283463 78.06749334 0.94877243 84.68198776 C0.96725696 87.2059449 1.00335475 89.72983618 1.05730057 92.25328445 C1.12986899 95.78829785 1.1398936 99.31836608 1.13525391 102.85400391 C1.17120667 103.89841644 1.20715942 104.94282898 1.24420166 106.01889038 C1.20192928 108.99393654 1.06353212 111.21787264 0 114 C-3.03006535 116.73444896 -6.30279063 118.33173267 -10 120 C-11.59130583 120.86809093 -13.17706791 121.7465238 -14.75390625 122.640625 C-16.3560926 123.51166536 -17.95897605 124.38142453 -19.5625 125.25 C-25.94057136 128.72894802 -32.25813674 132.28221758 -38.5 136 C-44.55867473 139.60660932 -50.68515295 143.06105713 -56.875 146.4375 C-65.0524422 150.89871219 -73.13464334 155.50399132 -81.1796875 160.19921875 C-87.43373668 163.83305446 -93.71990107 167.41137204 -100 171 C-100 133.05 -100 95.1 -100 56 C-71.00418288 39.27164397 -71.00418288 39.27164397 -59.875 32.9375 C-51.05035102 27.90980542 -42.26054061 22.82619417 -33.5 17.6875 C-25.92078651 13.24948864 -18.30871045 8.87987556 -10.625 4.625 C-9.78001953 4.15408936 -8.93503906 3.68317871 -8.06445312 3.19799805 C-7.29294922 2.77429932 -6.52144531 2.35060059 -5.7265625 1.9140625 C-5.05189941 1.5423291 -4.37723633 1.1705957 -3.68212891 0.78759766 C-2 0 -2 0 0 0 Z " fill="#FEFEFE" transform="translate(742,546)"/>
<path d="M0 0 C16.88701131 8.44350566 33.29952212 17.53024598 49.61523438 27.03125 C55.1729654 30.26390601 60.74297172 33.47522722 66.3125 36.6875 C67.75701538 37.52220825 67.75701538 37.52220825 69.23071289 38.3737793 C79.46739227 44.28428845 89.73655917 50.13517667 100 56 C100 93.95 100 131.9 100 171 C96.55662141 169.62264857 94.14014341 168.59167084 91.1640625 166.63671875 C90.44202637 166.1689502 89.71999023 165.70118164 88.97607422 165.21923828 C88.20021973 164.71376465 87.42436523 164.20829102 86.625 163.6875 C75.66944393 156.66427068 64.37003172 150.32172313 53 144 C48.70691983 141.60669335 44.41552836 139.21037799 40.125 136.8125 C39.07602539 136.22678223 38.02705078 135.64106445 36.94628906 135.03759766 C30.15695657 131.23689641 23.414107 127.36813333 16.73876953 123.37036133 C11.2303652 120.08256474 5.65044141 117.08205895 0 114 C0 76.38 0 38.76 0 0 Z " fill="#FEFEFE" transform="translate(282,546)"/>
<path d="M0 0 C0 38.94 0 77.88 0 118 C-6.6 121.63 -13.2 125.26 -20 129 C-23.44559166 130.94679447 -26.88509176 132.89737841 -30.3125 134.875 C-37.58678505 139.05218337 -44.87900681 143.19547211 -52.1875 147.3125 C-58.54427144 150.89371007 -64.88465248 154.50120963 -71.19921875 158.15625 C-72.09923866 158.67701363 -72.09923866 158.67701363 -73.0174408 159.20829773 C-75.95917295 160.91126439 -78.8990637 162.61731891 -81.83666992 164.32739258 C-82.88830322 164.93736084 -83.93993652 165.5473291 -85.0234375 166.17578125 C-85.96106934 166.72145752 -86.89870117 167.26713379 -87.86474609 167.8293457 C-90 169 -90 169 -91 169 C-91.51562873 153.71096559 -91.90267315 138.42233181 -92.13986778 123.12653828 C-92.25297949 116.02238985 -92.40688912 108.92366268 -92.65966797 101.82299805 C-92.88009962 95.62798573 -93.02112308 89.43689666 -93.06994689 83.2380721 C-93.09848186 79.95741147 -93.17631915 76.69048451 -93.32606125 73.41280556 C-94.0555558 56.77513246 -94.0555558 56.77513246 -91 50 C-85.68491364 44.20688262 -78.6754503 41.07622327 -71.52365494 38.09750938 C-68.35577155 36.71983223 -65.70312458 35.0354996 -62.875 33.0625 C-58.52754459 30.24661261 -54.03315502 27.96392984 -49.37890625 25.69921875 C-45.4803594 23.73867785 -41.67995207 21.6349418 -37.875 19.5 C-30.53652462 15.393132 -23.16986657 11.34003037 -15.7744751 7.33666992 C-14.01715616 6.38429771 -12.26222651 5.42752109 -10.50732422 4.47070312 C-9.43240723 3.88998047 -8.35749023 3.30925781 -7.25 2.7109375 C-5.80367187 1.92662354 -5.80367187 1.92662354 -4.328125 1.12646484 C-2 0 -2 0 0 0 Z " fill="#FDFDFD" transform="translate(616,470)"/>
<path d="M0 0 C1.30300049 0.62430908 1.30300049 0.62430908 2.63232422 1.26123047 C3.99877075 1.88578125 3.99877075 1.88578125 5.39282227 2.52294922 C8.70476696 4.09634522 12.01424774 5.67449032 15.31982422 7.26123047 C15.92291412 7.55057465 16.52600403 7.83991882 17.14736938 8.13803101 C25.41013836 12.11161409 33.52357492 16.27571863 41.49438477 20.81103516 C45.97688123 23.35888263 50.50090606 25.7460775 55.13232422 28.01123047 C63.65684755 32.18475243 71.98390003 36.71796511 80.32177734 41.25048828 C86.70081003 44.71178325 93.11463597 48.06809253 99.63232422 51.26123047 C96.88039768 53.42556123 94.13867186 55.13820583 91.01904297 56.72216797 C90.1129126 57.18679443 89.20678223 57.6514209 88.27319336 58.13012695 C87.29858154 58.62714111 86.32396973 59.12415527 85.31982422 59.63623047 C76.20224104 64.33648318 67.23633747 69.24754048 58.33007812 74.33520508 C51.50474938 78.22606984 44.61937188 81.98772278 37.69482422 85.69873047 C28.08591511 90.84904251 18.65311938 96.26085935 9.29663086 101.85668945 C8.35037842 102.41815674 7.40412598 102.97962402 6.42919922 103.55810547 C5.59743164 104.05665039 4.76566406 104.55519531 3.90869141 105.06884766 C0.1029033 107.06235571 0.1029033 107.06235571 -2.36767578 107.26123047 C-4.79589844 106.2199707 -4.79589844 106.2199707 -7.53173828 104.56982422 C-8.55807373 103.96187012 -9.58440918 103.35391602 -10.6418457 102.72753906 C-11.74761963 102.05803223 -12.85339355 101.38852539 -13.99267578 100.69873047 C-16.3518801 99.29725507 -18.7169761 97.90587937 -21.08251953 96.51513672 C-21.68721573 96.15834839 -22.29191193 95.80156006 -22.91493225 95.43395996 C-29.03928969 91.83460202 -35.28330082 88.47097455 -41.55517578 85.13623047 C-49.88463593 80.6937266 -58.15889907 76.17325972 -66.36767578 71.51123047 C-67.30635498 70.97820312 -68.24503418 70.44517578 -69.2121582 69.89599609 C-71.04411537 68.85495414 -72.87590661 67.81362015 -74.70751953 66.77197266 C-78.91994249 64.37967518 -83.14021704 62.00184592 -87.36767578 59.63623047 C-88.07923828 59.23436523 -88.79080078 58.8325 -89.52392578 58.41845703 C-93.71435458 56.07947249 -97.92472035 54.07775131 -102.36767578 52.26123047 C-101.06181746 49.64951383 -99.8953922 49.39654813 -97.25830078 48.18701172 C-95.92980103 47.56789917 -95.92980103 47.56789917 -94.57446289 46.9362793 C-93.59872314 46.48663818 -92.6229834 46.03699707 -91.61767578 45.57373047 C-82.07821999 41.09472378 -72.66401185 36.41515783 -63.30517578 31.57373047 C-62.71200562 31.26843414 -62.11883545 30.96313782 -61.50769043 30.64859009 C-54.30305283 26.93759032 -47.21568776 23.06912792 -40.19830322 19.01922607 C-35.4122649 16.26399953 -30.55690188 13.78261786 -25.59106445 11.36914062 C-21.91874477 9.56785707 -18.31437087 7.69570486 -14.75048828 5.68701172 C-13.60543823 5.04977173 -13.60543823 5.04977173 -12.43725586 4.3996582 C-10.96254044 3.5741685 -9.49572481 2.73436031 -8.03833008 1.87866211 C-2.9808581 -0.93009658 -2.9808581 -0.93009658 0 0 Z " fill="#FDFEFE" transform="translate(513.36767578125,119.73876953125)"/>
<path d="M0 0 C6.47110397 2.77333027 12.63975051 5.81433721 18.875 9.0625 C19.99124756 9.64394775 21.10749512 10.22539551 22.25756836 10.82446289 C30.55404541 15.17752686 38.65003542 19.77465762 46.67236328 24.60888672 C51.42328798 27.44827931 56.21573482 30.21729596 61 33 C63.8421354 34.65442841 66.67667368 36.30579304 69.47241211 38.0377655 C72.00453378 39.53620387 74.51479902 40.59874534 77.27684021 41.60580444 C82.22252191 43.60758284 86.6010518 45.77905823 90 50 C93.11511605 58.38632266 91.97063216 68.01540966 91.66015625 76.7890625 C91.62842253 79.42028011 91.60423618 82.05159864 91.58726501 84.68295288 C91.53462836 90.88288699 91.39545034 97.07766424 91.22432369 103.27533662 C91.03363426 110.33637029 90.94067783 117.39766398 90.85550129 124.46063542 C90.67827852 138.97640564 90.37969516 153.48813078 90 168 C86.47463015 166.62298006 83.28961047 165.1016765 80.03515625 163.1640625 C79.08189453 162.60074219 78.12863281 162.03742188 77.14648438 161.45703125 C76.12876953 160.85246094 75.11105469 160.24789062 74.0625 159.625 C66.11364027 154.94127987 58.12426117 150.37243223 50 146 C41.12532217 141.21971726 32.40083713 136.21512762 23.73242188 131.0703125 C15.92424288 126.45862386 8.02967971 122.28249584 0 118 C0 79.06 0 40.12 0 0 Z " fill="#FEFEFE" transform="translate(409,470)"/>
<path d="M0 0 C2.92060686 1.14924693 5.46295937 2.57076051 8.15234375 4.1953125 C14.84235145 8.14493514 21.68882884 11.75428512 28.58984375 15.3203125 C29.67894043 15.88339111 30.76803711 16.44646973 31.89013672 17.02661133 C34.05761964 18.14679462 36.22525987 19.26667357 38.39306641 20.38623047 C42.53233026 22.53074929 46.65590725 24.70428714 50.77734375 26.8828125 C58.69725112 31.06256978 66.64066048 35.1966016 74.58984375 39.3203125 C75.73694824 39.91577881 76.88405273 40.51124512 78.06591797 41.12475586 C83.82372197 44.1087613 89.59196455 47.06495358 95.40234375 49.9453125 C94.13941949 53.73408529 93.05745403 53.97820899 89.609375 55.84375 C88.59794434 56.39885254 87.58651367 56.95395508 86.54443359 57.52587891 C85.44566895 58.11804199 84.3469043 58.71020508 83.21484375 59.3203125 C80.91017138 60.58359248 78.60680848 61.84926399 76.3046875 63.1171875 C75.72100403 63.43785187 75.13732056 63.75851624 74.53594971 64.08889771 C69.03736634 67.12060437 63.65568931 70.331887 58.27734375 73.5703125 C49.95214707 78.55638138 41.46526313 83.11835584 32.83374023 87.54931641 C26.40830389 90.86044216 20.09156015 94.31670674 13.83984375 97.9453125 C13.07260986 98.3902002 12.30537598 98.83508789 11.51489258 99.29345703 C8.30372468 101.17518343 5.2565677 103.05225106 2.25 105.2578125 C-1.14875022 107.2718867 -2.69747735 107.30693233 -6.59765625 106.9453125 C-9.46826172 105.68286133 -9.46826172 105.68286133 -12.46484375 103.90234375 C-13.58600586 103.24693604 -14.70716797 102.59152832 -15.86230469 101.91625977 C-16.45072144 101.56443634 -17.03913818 101.21261292 -17.64538574 100.85012817 C-20.76293116 98.98650497 -23.90501977 97.16491591 -27.04296875 95.3359375 C-27.6781543 94.96400772 -28.31333984 94.59207794 -28.96777344 94.20887756 C-35.02143517 90.67224483 -41.16808402 87.31915305 -47.34765625 84.0078125 C-53.75658372 80.56467433 -60.14896392 77.10531315 -66.47265625 73.5078125 C-77.72933885 67.10821399 -89.1838644 61.05853733 -100.59765625 54.9453125 C-100.59765625 54.2853125 -100.59765625 53.6253125 -100.59765625 52.9453125 C-99.75589844 52.54183594 -98.91414062 52.13835937 -98.046875 51.72265625 C-88.43981761 47.04744327 -79.10649041 41.93923132 -69.78753662 36.71572876 C-61.72847368 32.20152794 -53.61828803 27.80941229 -45.41015625 23.5703125 C-38.93793536 20.22612953 -32.5018161 16.84428249 -26.16015625 13.2578125 C-25.53431641 12.90493164 -24.90847656 12.55205078 -24.26367188 12.18847656 C-20.89905452 10.2811569 -17.56190312 8.33336111 -14.23828125 6.35546875 C-13.51439209 5.93160889 -12.79050293 5.50774902 -12.04467773 5.07104492 C-10.65930864 4.2592817 -9.28069197 3.43584054 -7.91040039 2.59887695 C-5.18883921 1.01396987 -3.18980582 -0.06715381 0 0 Z " fill="#FEFEFE" transform="translate(641.59765625,187.0546875)"/>
<path d="M0 0 C1.04728271 0.57226318 2.09456543 1.14452637 3.17358398 1.73413086 C3.74711609 2.04391876 4.32064819 2.35370667 4.91156006 2.67288208 C6.75343649 3.67126871 8.58648661 4.68474348 10.41967773 5.69897461 C11.69616674 6.39486509 12.97310598 7.08993031 14.25048828 7.78417969 C21.31987506 11.63716139 28.3266881 15.58945432 35.28686523 19.63647461 C41.0010041 22.89208757 46.89345431 25.82726015 52.73681641 28.84179688 C61.07976247 33.17199136 69.26442345 37.75396157 77.40771484 42.44775391 C78.31142822 42.96635986 79.2151416 43.48496582 80.14624023 44.01928711 C80.93724121 44.47706543 81.72824219 44.93484375 82.54321289 45.40649414 C84.92727255 46.67373328 87.33432052 47.67972137 89.85717773 48.63647461 C86.18672737 51.73535391 82.36445192 54.20257944 78.16967773 56.51147461 C77.49541748 56.88731689 76.82115723 57.26315918 76.12646484 57.65039062 C68.29775814 61.99088088 60.38741315 66.18192173 52.49609375 70.40698242 C45.61618865 74.10590973 38.83682846 77.92262753 32.14013672 81.94213867 C25.41554533 85.95696757 18.52569426 89.65628778 11.62402344 93.35620117 C5.80570384 96.49711415 0.30254704 99.7898106 -5.02172852 103.72241211 C-7.14282227 104.63647461 -7.14282227 104.63647461 -9.4465332 103.88012695 C-12.20596652 102.60734958 -14.78645422 101.19461121 -17.40454102 99.65209961 C-18.42717041 99.05405518 -19.4497998 98.45601074 -20.50341797 97.83984375 C-21.60129639 97.19523193 -22.6991748 96.55062012 -23.83032227 95.88647461 C-33.83316533 90.05290929 -43.93543524 84.44842141 -54.15039062 78.99243164 C-62.59936173 74.47724861 -71.00563267 69.89003407 -79.39282227 65.26147461 C-79.98294098 64.93639923 -80.57305969 64.61132385 -81.18106079 64.27639771 C-89.88423565 59.48096985 -98.52726682 54.58691209 -107.14282227 49.63647461 C-106.63050049 49.38446289 -106.11817871 49.13245117 -105.59033203 48.87280273 C-102.36480718 47.24347028 -99.17467344 45.54892007 -95.98266602 43.85522461 C-95.28538391 43.48577728 -94.58810181 43.11632996 -93.86968994 42.73568726 C-91.60632786 41.53640101 -89.34329857 40.33648861 -87.08032227 39.13647461 C-69.29928063 29.70911481 -69.29928063 29.70911481 -61.43603516 25.61010742 C-50.74661857 20.03302051 -40.20069394 14.19578977 -29.65788269 8.3477478 C-27.91956116 7.38564864 -26.17769958 6.42995462 -24.43579102 5.47436523 C-22.29357381 4.27873867 -20.16956613 3.0496766 -18.06860352 1.78295898 C-17.1237207 1.22415039 -16.17883789 0.6653418 -15.20532227 0.08959961 C-14.39192383 -0.40894531 -13.57852539 -0.90749023 -12.74047852 -1.42114258 C-8.12774207 -3.09456012 -4.382597 -1.90140637 0 0 Z " fill="#FEFEFE" transform="translate(520.142822265625,259.363525390625)"/>
<path d="M0 0 C3.09432319 1.5471616 6.1046356 3.14763559 9.12109375 4.8359375 C10.12857666 5.39966064 11.13605957 5.96338379 12.17407227 6.54418945 C13.25100342 7.14835693 14.32793457 7.75252441 15.4375 8.375 C17.10800415 9.31122192 17.10800415 9.31122192 18.81225586 10.26635742 C26.78569186 14.74144767 34.73466442 19.25774774 42.66674805 23.80566406 C47.84552446 26.77406604 53.04005475 29.71171794 58.25 32.625 C64.28155963 36.00539952 70.31646672 39.39288063 76.20650101 43.01599503 C80.10284134 45.3965078 83.97724259 47.47934702 88.16082764 49.31365967 C101.3433835 55.45675275 101.3433835 55.45675275 104.11183167 61.3780365 C105.81227379 68.25440532 105.29714657 75.25192485 104.953125 82.265625 C104.9157672 84.51279039 104.88732391 86.76012 104.86737061 89.00750732 C104.79140792 94.89091956 104.59541062 100.76427187 104.37329102 106.64373779 C104.16775596 112.6556381 104.07715984 118.66918436 103.9765625 124.68359375 C103.76279778 136.46012294 103.42203233 148.22922169 103 160 C100.62728574 158.7378187 98.25494689 157.4749402 95.8828125 156.21166992 C94.88664917 155.68189167 94.88664917 155.68189167 93.87036133 155.14141083 C87.868813 151.94411907 81.92564585 148.64829981 76 145.3125 C74.39970947 144.41422485 74.39970947 144.41422485 72.76708984 143.49780273 C66.64364468 140.05805622 60.52836078 136.60402652 54.41674805 133.14331055 C45.44714453 128.06432648 36.46637906 123.00580789 27.46185303 117.98898315 C25.74350008 117.03121314 24.02627167 116.07142642 22.30908203 115.11157227 C11.47649353 108.86052001 11.47649353 108.86052001 0 104 C0 69.68 0 35.36 0 0 Z " fill="#FDFDFD" transform="translate(153,616)"/>
<path d="M0 0 C2.93129596 1.13325495 5.50857725 2.39345269 8.22485352 3.96362305 C9.18407715 4.51155518 10.14330078 5.0594873 11.1315918 5.62402344 C12.6762915 6.51335571 12.6762915 6.51335571 14.25219727 7.4206543 C23.66608549 12.77385439 33.17111503 17.87088 42.81469727 22.7956543 C54.59931196 28.82273769 66.16648403 35.17405086 77.6418457 41.77270508 C81.62320824 44.05485443 85.62484954 46.30057819 89.62719727 48.5456543 C90.91760213 49.27084305 92.2079716 49.99609478 93.49829102 50.72143555 C94.38645508 51.22030273 95.27461914 51.71916992 96.18969727 52.2331543 C96.18969727 52.8931543 96.18969727 53.5531543 96.18969727 54.2331543 C89.3680001 57.91843897 82.54986636 61.59330263 75.58178711 64.99584961 C67.24410043 69.07109569 59.18113496 73.56396239 51.12158203 78.16235352 C44.33091376 82.03459338 37.49931911 85.82000591 30.62719727 89.5456543 C16.83628801 96.79335078 16.83628801 96.79335078 3.63110352 105.01049805 C0.55843042 106.54929273 -0.54941217 106.13905867 -3.81030273 105.2331543 C-5.95996094 104.16088867 -5.95996094 104.16088867 -8.11108398 102.8269043 C-8.91465332 102.33512695 -9.71822266 101.84334961 -10.54614258 101.33666992 C-11.39644043 100.80750977 -12.24673828 100.27834961 -13.12280273 99.7331543 C-14.93299679 98.62734264 -16.7442062 97.52319151 -18.55639648 96.4206543 C-19.45084473 95.87538086 -20.34529297 95.33010742 -21.2668457 94.76831055 C-24.7050413 92.69311628 -28.18116328 90.69450473 -31.68530273 88.7331543 C-32.313479 88.38115967 -32.94165527 88.02916504 -33.58886719 87.66650391 C-37.41926885 85.53342308 -41.27080988 83.44141927 -45.13061523 81.36206055 C-54.84481017 76.12279284 -64.39040765 70.7747833 -73.69311523 64.8347168 C-78.6731225 61.66154875 -83.74246687 58.63831457 -88.81030273 55.6081543 C-89.70249512 55.07448242 -90.5946875 54.54081055 -91.51391602 53.9909668 C-93.6119931 52.7371523 -95.71073509 51.48447069 -97.81030273 50.2331543 C-93.92827174 47.23569788 -89.84519873 44.91188539 -85.56030273 42.5456543 C-84.50069336 41.95107422 -84.50069336 41.95107422 -83.41967773 41.34448242 C-73.78652469 36.00109284 -63.85276702 31.22412094 -53.97473145 26.35482788 C-37.92242086 18.43975682 -22.10553377 10.31522264 -6.64086914 1.28613281 C-2.98768981 -0.81524921 -2.98768981 -0.81524921 0 0 Z " fill="#FEFEFE" transform="translate(387.810302734375,187.766845703125)"/>
<path d="M0 0 C0 33.99 0 67.98 0 103 C-20.09903024 113.57843697 -20.09903024 113.57843697 -27.88037109 117.58544922 C-36.59907657 122.08537382 -45.18821707 126.73989946 -53.64746094 131.71020508 C-60.29424082 135.61396899 -67.0140032 139.37759712 -73.75 143.125 C-81.51185234 147.44373957 -89.22277195 151.81437891 -96.76269531 156.51220703 C-100.79649965 159 -100.79649965 159 -103 159 C-103.3946377 146.13545333 -103.69630463 133.27235456 -103.88080692 120.4029789 C-103.96938531 114.42614001 -104.08939338 108.4534526 -104.2824707 102.47900391 C-104.46779933 96.70791633 -104.56894123 90.94080726 -104.61291313 85.16697311 C-104.64422412 82.96964206 -104.70538334 80.7725192 -104.79741096 78.57689285 C-105.47121356 61.82819385 -105.47121356 61.82819385 -101.36408615 57.12776947 C-97.33278758 53.90094346 -92.91033059 51.83126624 -88.14188766 49.92035103 C-84.84615828 48.50420397 -81.95364047 46.62320075 -78.9375 44.6875 C-71.6010558 40.23253497 -64.03906346 36.2124423 -56.47631836 32.15795898 C-47.03277062 27.07104443 -37.78253756 21.68173809 -28.5390625 16.2421875 C-23.06886426 13.02630556 -17.55199073 9.90059043 -11.99414062 6.83886719 C-9.12721675 5.24879514 -6.34591094 3.59499073 -3.6328125 1.7578125 C-1 0 -1 0 0 0 Z " fill="#FDFDFD" transform="translate(871,616)"/>
<path d="M0 0 C0 37.29 0 74.58 0 113 C-5.94 116.3 -11.88 119.6 -18 123 C-21.11224937 124.78044153 -24.21819877 126.56459513 -27.3125 128.375 C-36.72265659 133.85034156 -46.17309695 139.25352817 -55.63037109 144.64697266 C-57.77214454 145.86989749 -59.91203407 147.09601134 -62.05078125 148.32421875 C-71.58839534 153.79949222 -81.16136376 159.08068188 -91 164 C-91 126.71 -91 89.42 -91 51 C-84.73 47.7 -78.46 44.4 -72 41 C-68.18331661 38.84178558 -64.39373545 36.67368597 -60.625 34.4375 C-59.15957764 33.57584229 -59.15957764 33.57584229 -57.66455078 32.69677734 C-55.56246206 31.46054506 -53.46140904 30.22255019 -51.36132812 28.98291016 C-45.83076991 25.72033071 -40.2910404 22.47341046 -34.75164795 19.2258606 C-32.94138104 18.16393979 -31.13196671 17.10058069 -29.32275391 16.03686523 C-2.02597222 0 -2.02597222 0 0 0 Z " fill="#FDFDFD" transform="translate(616,617)"/>
<path d="M0 0 C1.39630697 0.87663007 2.78599211 1.76386979 4.16992188 2.65991211 C7.5826398 4.7724783 11.15022427 6.54199764 14.72998047 8.35229492 C31.28181873 16.73415683 47.26203693 26.10166905 63.12768555 35.70385742 C71.45497249 40.72304407 79.94633687 45.43140371 88.47949219 50.08959961 C88.47949219 50.74959961 88.47949219 51.40959961 88.47949219 52.08959961 C86.37615829 53.29940042 84.271841 54.50743918 82.16699219 55.71459961 C81.59142578 56.04588867 81.01585937 56.37717773 80.42285156 56.71850586 C70.66525211 62.30934663 60.72817284 67.52708081 50.71350098 72.63824463 C38.47681515 78.89135446 26.4084417 85.36781204 14.49511719 92.22241211 C13.67978516 92.68679688 12.86445313 93.15118164 12.02441406 93.62963867 C10.198251 94.67726484 8.38301235 95.74402184 6.57519531 96.82299805 C5.61033203 97.38277344 4.64546875 97.94254883 3.65136719 98.51928711 C2.78092773 99.03475098 1.91048828 99.55021484 1.01367188 100.08129883 C-2.01561633 101.28659365 -3.45167503 101.07127883 -6.52050781 100.08959961 C-8.97363281 98.73413086 -8.97363281 98.73413086 -11.77050781 96.90209961 C-18.31353 92.72492708 -25.05231066 88.92835178 -31.83300781 85.15209961 C-32.93008057 84.54100342 -34.02715332 83.92990723 -35.1574707 83.30029297 C-37.30974224 82.1023774 -39.4623206 80.9050129 -41.61523438 79.70825195 C-45.32197046 77.64307042 -49.01538555 75.55486412 -52.70800781 73.46459961 C-57.03217721 71.01881792 -61.37803198 68.61910318 -65.75097656 66.26147461 C-74.84525056 61.35656392 -83.87909263 56.39894213 -92.70800781 51.02709961 C-93.45614746 50.57415527 -94.20428711 50.12121094 -94.97509766 49.65454102 C-95.6642627 49.22963379 -96.35342773 48.80472656 -97.06347656 48.36694336 C-97.96102661 47.8138147 -97.96102661 47.8138147 -98.87670898 47.24951172 C-100.62688908 46.0145339 -102.05099966 44.6434948 -103.52050781 43.08959961 C-102.369375 42.48374023 -101.21824219 41.87788086 -100.03222656 41.25366211 C-99.27280762 40.8538916 -98.51338867 40.45412109 -97.73095703 40.04223633 C-96.02580661 39.14494506 -94.32039604 38.24814801 -92.61474609 37.35180664 C-88.2790803 35.07250786 -83.94712441 32.78694339 -79.62597656 30.48022461 C-70.1673458 25.44191496 -60.62551917 20.70207797 -50.90185547 16.19946289 C-47.24134573 14.49342667 -43.59498646 12.7582411 -39.95141602 11.01635742 C-37.96299741 10.06861105 -35.97064064 9.12908141 -33.97436523 8.19799805 C-29.51775938 6.10243165 -25.21385296 3.97920679 -21.05957031 1.32788086 C-13.31505013 -3.51057901 -8.19283701 -4.85543071 0 0 Z " fill="#FEFEFE" transform="translate(270.5205078125,256.910400390625)"/>
<path d="M0 0 C2.1394043 1.02124023 2.1394043 1.02124023 4.32421875 2.30859375 C5.17064941 2.79924316 6.01708008 3.28989258 6.88916016 3.79541016 C7.8126123 4.3372998 8.73606445 4.87918945 9.6875 5.4375 C19.72306579 11.21923316 29.88106987 16.72382184 40.125 22.125 C40.85841614 22.51219208 41.59183228 22.89938416 42.34747314 23.29830933 C49.30206093 26.96870631 56.26389975 30.62453029 63.24609375 34.2421875 C71.52427752 38.53248077 79.74276714 42.88890301 87.8125 47.5625 C88.543479 47.98080078 89.27445801 48.39910156 90.02758789 48.83007812 C91.72105151 49.82801575 93.36680636 50.90620976 95 52 C95 52.66 95 53.32 95 54 C94.42781738 54.31114746 93.85563477 54.62229492 93.26611328 54.94287109 C82.85233546 60.60818244 72.44805877 66.2870699 62.1027832 72.07666016 C57.73004665 74.51345263 53.33218668 76.89591582 48.91015625 79.2421875 C46.71080745 80.4112137 44.51159145 81.58048977 42.3125 82.75 C41.21542725 83.33193115 40.11835449 83.9138623 38.98803711 84.51342773 C30.22433312 89.21475967 21.76076127 94.32436859 13.47192383 99.82128906 C9.70851671 102.22497144 7.04598888 103.91707902 2.55078125 104.2734375 C-2.7377351 102.37678587 -7.33975348 99.60623176 -12.125 96.6875 C-14.28076492 95.40153022 -16.43702386 94.11638828 -18.59375 92.83203125 C-19.67140625 92.18572754 -20.7490625 91.53942383 -21.859375 90.87353516 C-26.41781332 88.15420558 -31.01490904 85.50556717 -35.625 82.875 C-36.89923828 82.14651855 -36.89923828 82.14651855 -38.19921875 81.40332031 C-44.46583877 77.83627677 -50.78590364 74.37373886 -57.125 70.9375 C-64.23563119 67.0815268 -71.30536766 63.16639736 -78.3125 59.125 C-79.05838379 58.69695068 -79.80426758 58.26890137 -80.57275391 57.82788086 C-85.85868374 54.75822758 -90.94772955 51.43937037 -96 48 C-93.56642543 46.11668591 -91.17530123 44.453176 -88.453125 43.01953125 C-87.781604 42.6644751 -87.11008301 42.30941895 -86.41821289 41.94360352 C-85.70270264 41.57033936 -84.98719238 41.1970752 -84.25 40.8125 C-83.49775146 40.41667725 -82.74550293 40.02085449 -81.97045898 39.61303711 C-77.03411113 37.02738027 -72.06009584 34.52710219 -67.0625 32.0625 C-60.71209817 28.92665303 -54.52932347 25.5469153 -48.359375 22.0715332 C-40.64539939 17.75128049 -32.80035265 13.69138586 -24.94165039 9.6418457 C-23.94125732 9.12581787 -22.94086426 8.60979004 -21.91015625 8.078125 C-20.93062988 7.57603516 -19.95110352 7.07394531 -18.94189453 6.55664062 C-16.93084874 5.49253872 -14.9425449 4.38461679 -12.97607422 3.24023438 C-12.01330566 2.68142578 -11.05053711 2.12261719 -10.05859375 1.546875 C-9.20450928 1.03479492 -8.3504248 0.52271484 -7.47045898 -0.00488281 C-4.43646932 -1.22699388 -3.08027964 -1.00847595 0 0 Z " fill="#FEFEFE" transform="translate(390,326)"/>
<path d="M0 0 C8.20614433 4.10307217 15.61784843 7.89062169 23.265625 12.703125 C27.8751718 15.57322017 32.59490191 18.25010574 37.3125 20.9375 C38.67568359 21.71420044 38.67568359 21.71420044 40.06640625 22.5065918 C44.10391408 24.80151645 48.14650756 27.08667127 52.203125 29.34765625 C60.62948539 34.04557585 68.93434459 38.91126487 77.17602539 43.92773438 C77.97645264 44.41306641 78.77687988 44.89839844 79.6015625 45.3984375 C80.65851318 46.04304932 80.65851318 46.04304932 81.73681641 46.70068359 C84.42951942 48.24659141 87.22288199 49.611441 90 51 C90 87.96 90 124.92 90 163 C85.65002744 161.55000915 82.72292853 160.43195544 78.9375 158.1640625 C77.98746094 157.60074219 77.03742188 157.03742188 76.05859375 156.45703125 C75.04925781 155.85246094 74.03992188 155.24789062 73 154.625 C65.07432269 149.93507916 57.11083371 145.36201703 49 141 C39.15104341 135.69107623 29.48561973 130.0967272 19.84375 124.421875 C13.25774252 120.5653626 6.62647481 116.78655703 0 113 C0 75.71 0 38.42 0 0 Z " fill="#FEFEFE" transform="translate(409,617)"/>
<path d="M0 0 C8.01155587 2.27631332 15.13200851 5.98120268 22.46798706 9.83459473 C26.32013382 11.85725117 30.18397218 13.85735917 34.046875 15.859375 C34.85253403 16.27749451 35.65819305 16.69561401 36.48826599 17.12640381 C45.75778599 21.92780449 55.09458829 26.5934704 64.4375 31.25 C65.23392914 31.64719238 66.03035828 32.04438477 66.85092163 32.45361328 C70.57032291 34.30837745 74.29040396 36.16176861 78.01123047 38.01367188 C83.34447062 40.66848315 88.67264217 43.33340571 94 46 C94 46.66 94 47.32 94 48 C93.44957031 48.28230469 92.89914062 48.56460938 92.33203125 48.85546875 C86.69142162 51.83755849 81.27661756 55.0552349 75.88427734 58.46191406 C67.65185295 63.65925187 59.36062844 68.51070673 50.6875 72.9375 C34.20463952 81.35448816 18.29767049 90.79945318 2.61791992 100.62524414 C0.7608963 101.77945369 -1.11353891 102.89485026 -3 104 C-3.83789062 104.515625 -4.67578125 105.03125 -5.5390625 105.5625 C-8.83352796 106.14818275 -10.50239222 104.92454241 -13.21313477 103.12866211 C-13.86467529 102.67370361 -14.51621582 102.21874512 -15.1875 101.75 C-16.61447447 100.80448642 -18.04427063 99.86322035 -19.4765625 98.92578125 C-20.5888623 98.19415771 -20.5888623 98.19415771 -21.72363281 97.44775391 C-25.40834185 95.10430425 -29.22729334 93.02223673 -33.0625 90.9375 C-38.66835237 87.87541449 -44.18139736 84.7167031 -49.625 81.375 C-55.11760911 78.02195374 -60.71974243 75.06552485 -66.49926758 72.2409668 C-72.68289143 69.20193916 -78.75460389 65.9692509 -84.8125 62.6875 C-85.77422119 62.17147217 -86.73594238 61.65544434 -87.72680664 61.1237793 C-88.62778076 60.63304932 -89.52875488 60.14231934 -90.45703125 59.63671875 C-91.26116455 59.20061279 -92.06529785 58.76450684 -92.89379883 58.31518555 C-94.91223026 57.05480649 -96.40348796 55.75292599 -98 54 C-97.46632813 53.7728833 -96.93265625 53.5457666 -96.3828125 53.31176758 C-90.41862609 50.72371826 -84.69963336 47.81133248 -79 44.6875 C-77.58255493 43.9140625 -77.58255493 43.9140625 -76.13647461 43.125 C-68.83092142 39.0989666 -61.68709373 34.83634735 -54.5625 30.5 C-43.82075118 23.96931602 -32.85057297 18.05517806 -21.65087891 12.35351562 C-17.48049907 10.22415609 -13.33157378 8.05501125 -9.1875 5.875 C-8.48173828 5.50842285 -7.77597656 5.1418457 -7.04882812 4.76416016 C-4.37756442 3.35939761 -2.14751547 2.14751547 0 0 Z " fill="#FEFEFE" transform="translate(763,254)"/>
<path d="M0 0 C0 33.33 0 66.66 0 101 C-7.92 105.29 -15.84 109.58 -24 114 C-28.06311732 116.32942751 -32.10546425 118.66330658 -36.125 121.0625 C-43.7568789 125.56835526 -51.44592358 129.92461126 -59.25 134.125 C-70.48085931 140.17720776 -81.53043167 146.57242133 -92.27441406 153.45751953 C-92.99081055 153.91626465 -93.70720703 154.37500977 -94.4453125 154.84765625 C-95.08227051 155.26152588 -95.71922852 155.67539551 -96.37548828 156.10180664 C-98 157 -98 157 -100 157 C-100.37142743 144.1353246 -100.65535124 131.27193211 -100.82899475 118.4029789 C-100.91235917 112.42638881 -101.02531069 106.45347661 -101.20703125 100.47900391 C-101.38145678 94.70796297 -101.47665315 88.94044706 -101.51803589 83.16697311 C-101.54750407 80.96971485 -101.60506187 78.77264088 -101.69168091 76.57689285 C-102.32651265 59.81064159 -102.32651265 59.81064159 -98.4317627 55.10542488 C-94.63333978 51.87949009 -90.44141139 49.73074022 -85.86903191 47.80601978 C-83.47968945 46.77561614 -81.31910913 45.46674137 -79.125 44.07421875 C-77.75215495 43.27493299 -76.3771608 42.47932662 -75 41.6875 C-74.22930176 41.24220947 -73.45860352 40.79691895 -72.66455078 40.33813477 C-65.10898873 36.00455602 -57.43743386 31.88978581 -49.76586914 27.76635742 C-43.2512273 24.25334059 -36.83243058 20.62087533 -30.47607422 16.83032227 C-24.19904933 13.09290941 -17.85679994 9.47482774 -11.5 5.875 C-10.47704834 5.29363281 -9.45409668 4.71226562 -8.40014648 4.11328125 C-7.45341064 3.57832031 -6.5066748 3.04335938 -5.53125 2.4921875 C-4.68111328 2.01120605 -3.83097656 1.53022461 -2.95507812 1.03466797 C-1 0 -1 0 0 0 Z " fill="#FEFEFE" transform="translate(742,689)"/>
<path d="M0 0 C3.14086914 1.57739258 3.14086914 1.57739258 6.47265625 3.58203125 C7.71261359 4.3151619 8.95369663 5.04639139 10.19580078 5.77587891 C10.82657532 6.14795471 11.45734985 6.52003052 12.10723877 6.90338135 C15.07137411 8.62072744 18.09112727 10.22671935 21.12109375 11.82421875 C21.71321152 12.13742569 22.30532928 12.45063263 22.91539001 12.77333069 C24.13097709 13.41574502 25.34689761 14.05752878 26.56314087 14.69869995 C37.51048434 20.47386522 48.35411713 26.39809906 59.10620117 32.53100586 C64.94413345 35.85517214 70.81463538 39.1028556 76.75 42.25 C77.44778564 42.62116943 78.14557129 42.99233887 78.86450195 43.37475586 C81.55284718 44.78804764 84.11286558 46.03762186 87 47 C87 47.66 87 48.32 87 49 C84.97080048 50.48914485 82.95573329 51.81393594 80.8125 53.125 C80.11906494 53.55385498 79.42562988 53.98270996 78.71118164 54.42456055 C68.49000089 60.6448822 57.92093255 66.27842896 47.42669678 72.02049255 C41.69772738 75.15836396 35.99804029 78.34658342 30.3125 81.5625 C29.40830322 82.07304932 28.50410645 82.58359863 27.57250977 83.10961914 C22.34945236 86.06924402 17.15340864 89.07249912 11.97265625 92.10546875 C10.77895565 92.8021145 9.58518973 93.49864833 8.39135742 94.19506836 C6.09357178 95.53552577 3.80210946 96.88519545 1.51293945 98.24047852 C0.47484131 98.84690186 -0.56325684 99.4533252 -1.6328125 100.078125 C-2.54949707 100.61856445 -3.46618164 101.15900391 -4.41064453 101.71582031 C-7.03165169 103.01569752 -9.09026889 103.73002495 -12 104 C-14.55101835 102.77649 -16.76040879 101.52044217 -19.125 100 C-20.64486952 99.0640189 -22.16717895 98.13199266 -23.69140625 97.203125 C-24.53203613 96.68943359 -25.37266602 96.17574219 -26.23876953 95.64648438 C-31.43750293 92.54654998 -36.75862149 89.6649851 -42.0625 86.75 C-52.08259789 81.22043214 -62.01441657 75.55959412 -71.87133789 69.74316406 C-77.38525146 66.49514192 -82.94833949 63.36894751 -88.57666016 60.32348633 C-91.3225212 58.8238578 -94.01507434 57.25169388 -96.6875 55.625 C-97.51636719 55.12226563 -98.34523438 54.61953125 -99.19921875 54.1015625 C-99.79347656 53.73804688 -100.38773438 53.37453125 -101 53 C-98.90216276 50.74950419 -96.84927404 49.17987566 -94.18359375 47.65234375 C-93.42884766 47.21720459 -92.67410156 46.78206543 -91.89648438 46.33374023 C-91.08501953 45.87298096 -90.27355469 45.41222168 -89.4375 44.9375 C-88.59123047 44.45289307 -87.74496094 43.96828613 -86.87304688 43.46899414 C-84.25254534 41.97243448 -81.62730091 40.48458627 -79 39 C-78.22543457 38.56171875 -77.45086914 38.1234375 -76.65283203 37.671875 C-67.69518615 32.61674368 -58.65609057 27.73527459 -49.54272461 22.96728516 C-42.8561823 19.46438923 -36.20340789 15.9011129 -29.5625 12.3125 C-28.53576172 11.75957275 -27.50902344 11.20664551 -26.45117188 10.63696289 C-20.2751219 7.29327676 -14.23839803 3.83583173 -8.3671875 -0.0234375 C-5.13983331 -1.35485425 -3.38437482 -0.8157107 0 0 Z " fill="#FEFEFE" transform="translate(641,326)"/>
<path d="M0 0 C9.00971378 4.80518068 17.98322936 9.61488604 26.875 14.625 C29.04945551 15.84639629 31.22393537 17.06774921 33.3984375 18.2890625 C34.4925293 18.90426758 35.58662109 19.51947266 36.71386719 20.15332031 C41.97243154 23.10843032 47.23646879 26.05374929 52.5 29 C54.02935181 29.85682373 54.02935181 29.85682373 55.58959961 30.73095703 C60.98284249 33.75253144 66.37838853 36.76989287 71.77734375 39.78125 C72.89238281 40.40386719 74.00742187 41.02648437 75.15625 41.66796875 C77.27141993 42.84893863 79.38725554 44.02871742 81.50390625 45.20703125 C82.95410156 46.01720703 82.95410156 46.01720703 84.43359375 46.84375 C85.68740845 47.54274414 85.68740845 47.54274414 86.96655273 48.25585938 C87.96759033 48.83142578 88.96862793 49.40699219 90 50 C90.83768921 50.2476712 91.67537842 50.49534241 92.53845215 50.7505188 C95.97543062 52.07184353 97.66720632 53.11438676 100 56 C101.95113816 63.11464118 101.15648365 70.94753891 100.9765625 78.2421875 C100.95790414 80.45318402 100.94367288 82.66422197 100.9336853 84.87527466 C100.89555859 90.68622611 100.79737984 96.49466555 100.68664551 102.30462646 C100.58422511 108.23659276 100.53865039 114.16896629 100.48828125 120.1015625 C100.38113185 131.73547689 100.21053079 143.36752933 100 155 C96.01572715 153.71010162 92.4963862 152.31680165 88.859375 150.234375 C87.88468262 149.68128662 86.90999023 149.12819824 85.90576172 148.55834961 C84.86436035 147.96159424 83.82295898 147.36483887 82.75 146.75 C80.49845232 145.47339529 78.24581368 144.19871314 75.9921875 142.92578125 C75.41497955 142.59957291 74.83777161 142.27336456 74.24307251 141.93727112 C68.16851289 138.51376533 62.02515753 135.22254805 55.875 131.9375 C44.68016598 125.94583962 33.61033442 119.75378063 22.57861328 113.46777344 C18.662557 111.23871356 14.73858624 109.02383316 10.8125 106.8125 C10.17103027 106.44987061 9.52956055 106.08724121 8.86865234 105.71362305 C5.941607 104.06451018 3.00690448 102.50345224 0 101 C0 67.67 0 34.34 0 0 Z " fill="#FEFEFE" transform="translate(282,689)"/>
<path d="M0 0 C2.88450648 1.00349978 5.35131128 2.41882349 7.99633789 3.94775391 C9.13852783 4.60461182 10.28071777 5.26146973 11.45751953 5.93823242 C12.69052512 6.65362162 13.92351631 7.36903562 15.15649414 8.08447266 C16.43150694 8.81928089 17.70681924 9.55356969 18.98242188 10.28735352 C21.54279567 11.76098101 24.1017942 13.23694687 26.65942383 14.71533203 C31.36058715 17.43253251 36.06898536 20.13699989 40.78149414 22.83447266 C41.59513428 23.30103271 42.40877441 23.76759277 43.24707031 24.24829102 C48.2092931 27.08405271 53.19543968 29.87400683 58.19946289 32.63525391 C58.80178238 32.96801834 59.40410187 33.30078278 60.02467346 33.64363098 C62.97915497 35.27533629 65.93593571 36.90240875 68.89697266 38.5222168 C76.69761974 42.81998665 84.11952148 47.39100745 91.21899414 52.77197266 C80.16957387 59.32168736 69.00228854 65.5303378 57.5847168 71.41601562 C51.16516002 74.73237186 44.84426418 78.18015205 38.57275391 81.76733398 C34.92707768 83.84307462 31.25068259 85.76989336 27.46899414 87.58447266 C23.5867092 89.46144513 19.90835137 91.54385174 16.24243164 93.80712891 C15.35394531 94.35457764 14.46545898 94.90202637 13.55004883 95.46606445 C11.77490496 96.56872284 10.00699042 97.68312406 8.24731445 98.81030273 C0.27372089 103.76760065 0.27372089 103.76760065 -4.78100586 102.77197266 C-6.36488958 101.39468246 -7.94106733 100.00766513 -9.48022461 98.58056641 C-12.28152623 96.37852455 -15.27434903 94.86881236 -18.46850586 93.33447266 C-26.32024715 89.54345107 -34.03430126 85.51500527 -41.71850586 81.39697266 C-42.32977325 81.06961121 -42.94104065 80.74224976 -43.5708313 80.40496826 C-51.42782643 76.19004547 -59.20812946 71.87391974 -66.85668945 67.29052734 C-74.71709592 62.58105109 -82.7519298 58.1856168 -90.78100586 53.77197266 C-89.46018545 49.80951144 -87.10370992 48.87074285 -83.65600586 46.89697266 C-82.66552246 46.31604858 -82.66552246 46.31604858 -81.6550293 45.72338867 C-74.85367173 41.75747656 -67.97549093 37.92319746 -61.10986328 34.07006836 C-53.32780794 29.68741964 -45.63821678 25.15940685 -37.96850586 20.58447266 C-28.81591656 15.12519228 -19.60896954 9.80124489 -10.25756836 4.68994141 C-6.8522769 2.87584556 -6.8522769 2.87584556 -4.05444336 0.94775391 C-1.78100586 -0.22802734 -1.78100586 -0.22802734 0 0 Z " fill="#FEFEFE" transform="translate(512.781005859375,393.22802734375)"/>
<path d="M0 0 C0.3946554 12.73415121 0.69631283 25.46683938 0.88080692 38.20586967 C0.96938199 44.12219707 1.08938216 50.03432985 1.2824707 55.94824219 C1.46781394 61.66097922 1.56894373 67.36969678 1.61291313 73.08520889 C1.64422175 75.26021783 1.70537666 77.43501666 1.79741096 79.60830307 C2.47177351 96.19932765 2.47177351 96.19932765 -1.66153145 100.88261795 C-5.7266019 104.12558318 -10.18120353 106.25949817 -14.99045372 108.17625332 C-17.62527051 109.25630885 -20.03096588 110.64323369 -22.47265625 112.1015625 C-24.00074403 112.94608289 -25.53065741 113.78730959 -27.0625 114.625 C-27.89990723 115.08463135 -28.73731445 115.5442627 -29.60009766 116.01782227 C-35.26375481 119.10596391 -40.98927804 122.03370025 -46.78149414 124.87158203 C-53.49490769 128.1869099 -60.04210215 131.79979749 -66.58544922 135.43725586 C-74.62456692 139.87921159 -82.7559151 143.87795755 -91 148 C-91 115.66 -91 83.32 -91 50 C-75.96716287 41.40980736 -75.96716287 41.40980736 -68.68554688 37.46582031 C-65.86461032 35.92610185 -63.06350507 34.35464373 -60.265625 32.7734375 C-48.89992484 26.35040794 -37.47374081 20.11347797 -25.86499023 14.140625 C-19.53384856 10.86115265 -13.42635471 7.37224917 -7.42578125 3.5234375 C-1.81538462 0 -1.81538462 0 0 0 Z " fill="#FDFDFD" transform="translate(616,760)"/>
<path d="M0 0 C15.78013945 7.89006973 15.78013945 7.89006973 23.1875 12.5 C31.23950307 17.42229681 39.42180553 22.07192401 47.6875 26.625 C55.96191214 31.18308567 64.20312258 35.76867043 72.27416992 40.68017578 C78.05995755 44.16162249 83.88221787 46.94110893 90 50 C90 82.67 90 115.34 90 149 C86.7 147.02 83.4 145.04 80 143 C77.21756754 141.47398586 74.43625004 139.96950194 71.625 138.5 C70.52067627 137.91883423 70.52067627 137.91883423 69.39404297 137.32592773 C65.32629552 135.19264582 61.24033757 133.10282888 57.125 131.0625 C40.8877021 123.01076299 24.78365769 114.55604908 9.59765625 104.640625 C6.46019924 102.65907321 3.22189389 100.84108222 0 99 C0 66.33 0 33.66 0 0 Z " fill="#FEFEFE" transform="translate(409,760)"/>
</svg>
