<?xml version="1.0" encoding="UTF-8"?>
<svg version="1.1" xmlns="http://www.w3.org/2000/svg" width="1024" height="1024">
<path d="M0 0 C337.92 0 675.84 0 1024 0 C1024 337.92 1024 675.84 1024 1024 C686.08 1024 348.16 1024 0 1024 C0 686.08 0 348.16 0 0 Z " fill="#FEFEFE" transform="translate(0,0)"/>
<path d="M0 0 C0.79664063 0.57621094 1.59328125 1.15242188 2.4140625 1.74609375 C31.48264438 23.76057351 50.89723257 56.79759003 56.0625 92.86328125 C57.05901249 100.24746632 57.30743967 107.58707396 57.26074219 115.03442383 C57.24998374 117.06556891 57.26074148 119.09583376 57.2734375 121.12695312 C57.27211576 122.47135604 57.26955306 123.81575842 57.265625 125.16015625 C57.26336914 126.33199463 57.26111328 127.50383301 57.25878906 128.71118164 C57.22126462 131.39945525 56.85519637 133.56785253 56.18460083 136.19761658 C54.50749678 143.29431762 54.50749678 143.29431762 56.63061523 150.03599548 C59.26266653 153.13203571 62.04042544 155.87182359 65.0234375 158.62109375 C66.0867157 159.65699529 67.14652903 160.69646392 68.20303345 161.73927307 C70.98371982 164.46482088 73.80935192 167.13860326 76.64733887 169.80426025 C79.50687934 172.50751905 82.31914539 175.25900993 85.13671875 178.00585938 C93.00806967 185.65187331 100.91211451 193.24286295 109.21572876 200.42179871 C112.08223425 202.95724431 114.77679719 205.65279813 117.46875 208.37109375 C118.03452759 208.93828629 118.60030518 209.50547882 119.18322754 210.08985901 C120.95788577 211.87003423 122.72900099 213.65368519 124.5 215.4375 C125.71591114 216.6584369 126.93205516 217.87914192 128.1484375 219.09960938 C131.10164966 222.06374013 134.05169398 225.03098958 137 228 C140.2815696 226.56438138 142.4428235 224.80086093 144.9602356 222.26681519 C145.73694611 221.48996368 146.51365662 220.71311218 147.31390381 219.91271973 C148.15664856 219.05964233 148.99939331 218.20656494 149.86767578 217.32763672 C151.24097154 215.94985817 152.61426755 214.57207988 153.98757339 213.19431138 C155.46022481 211.71492415 156.93036319 210.23308043 158.39981461 208.75051498 C161.46165376 205.66162681 164.53111087 202.58038549 167.60177612 199.50027466 C174.11544959 192.96440993 180.62063479 186.42012619 187.125 179.875 C194.15361955 172.80236809 201.18366011 165.73118509 208.22347248 158.66969121 C211.27821409 155.60496159 214.3280079 152.53541548 217.37415719 149.46214652 C218.81109336 148.0139129 220.25027632 146.56795894 221.69052124 145.12301636 C223.44988634 143.35788565 225.20562163 141.58912717 226.95715332 139.81622314 C227.72822418 139.04501129 228.49929504 138.27379944 229.29373169 137.47921753 C229.96513247 136.80337553 230.63653324 136.12753353 231.3282795 135.43121147 C233 134 233 134 235 134 C235 133.34 235 132.68 235 132 C236.62107514 130.28895619 238.29740993 128.62995172 240 127 C241.74438143 125.23395338 243.48783069 123.46698566 245.23046875 121.69921875 C246.70846157 120.20651301 248.18739364 118.71474498 249.66674805 117.22338867 C250.68771882 116.19225573 251.70690296 115.15935094 252.72436523 114.12475586 C254.20092366 112.62406525 255.68373859 111.12981715 257.16796875 109.63671875 C258.04735107 108.74686279 258.9267334 107.85700684 259.83276367 106.94018555 C262 105 262 105 264 105 C264.33 104.01 264.66 103.02 265 102 C267.4375 99.3125 267.4375 99.3125 270 97 C270.66 97 271.32 97 272 97 C272.33 96.01 272.66 95.02 273 94 C274.98260426 92.31267723 276.9832342 90.64633943 279 89 C279.66 88.01 280.32 87.02 281 86 C281.66 86 282.32 86 283 86 C283.12221924 84.86554443 283.24443848 83.73108887 283.37036133 82.56225586 C283.94944851 77.9527674 284.95455977 73.5086252 286.07421875 69.00390625 C286.28053421 68.17092514 286.48684967 67.33794403 286.69941711 66.47972107 C287.13622292 64.72853072 287.57589812 62.97805382 288.01831055 61.22827148 C288.6838392 58.57708309 289.32532708 55.92076811 289.96679688 53.26367188 C293.36881178 39.53394726 297.03649519 31.18400236 309.1875 23.25 C310.06535156 22.65638672 310.94320312 22.06277344 311.84765625 21.45117188 C313.6677673 20.22168425 315.49251205 18.999029 317.32177734 17.78320312 C320.62608462 15.58314293 323.90096549 13.34204983 327.17407227 11.09594727 C328.72897994 10.02903937 330.2854698 8.96443381 331.84350586 7.90209961 C337.68070786 3.92144794 343.47036077 -0.12385466 349.25 -4.1875 C355.31934572 -8.44812764 361.40551797 -12.67924233 367.5625 -16.8125 C368.17577148 -17.22717529 368.78904297 -17.64185059 369.42089844 -18.0690918 C374.60606094 -21.52364331 378.78443782 -22.6991142 385 -22 C393.91330896 -20.1128722 399.53337743 -12.78751909 405.54296875 -6.49462891 C407.86827686 -4.10931787 410.36997865 -1.96334971 412.90625 0.19140625 C416.21990143 3.05375814 419.42094799 6.04000842 422.63110352 9.01733398 C425.34333048 11.52256039 428.09968266 13.90466958 431 16.1875 C435.41446176 19.99753668 437.52394692 24.0401917 438.44921875 29.79296875 C438.93065124 38.06290905 436.45271023 43.20831748 432 50 C431.22562306 51.20773149 430.45224692 52.41610507 429.6796875 53.625 C427.8603574 56.45723934 426.0232316 59.2772243 424.1796875 62.09375 C420.60581 67.57745351 417.14755717 73.13154516 413.6875 78.6875 C413.05577881 79.69707764 412.42405762 80.70665527 411.77319336 81.74682617 C408.57140902 86.86391653 405.39065773 91.9920622 402.24609375 97.14453125 C401.03936481 99.09654109 399.83234524 101.0483713 398.625 103 C398.09092529 103.88905029 397.55685059 104.77810059 397.0065918 105.6940918 C391.39266368 114.70408925 384.81808971 120.99052404 374.75 124.5 C373.24853111 125.04479575 371.74715357 125.58984334 370.24585247 126.13510132 C366.85673567 127.358367 363.45567222 128.498039 360.01877308 129.57901001 C346.39888277 134.04992411 337.80042033 140.36492774 327.93823242 150.5859375 C326.46997223 152.05787644 324.99882021 153.52693543 323.52505493 154.99336243 C319.58150564 158.93322376 315.67898647 162.91147615 311.78329253 166.89858627 C307.68708743 171.07677194 303.55334182 175.21749611 299.42366028 179.36254883 C291.63119218 187.19521515 283.87242282 195.06037955 276.12559348 202.93815899 C267.29522578 211.91448415 258.42734309 220.85335556 249.55631864 229.78947449 C231.32921994 248.15198616 213.14907051 266.56038595 195 285 C196.68991738 288.5957178 198.67808721 290.92276309 201.5078125 293.73828125 C202.41273438 294.64126953 203.31765625 295.54425781 204.25 296.47460938 C204.72308594 296.9414917 205.19617188 297.40837402 205.68359375 297.8894043 C207.10458183 299.29234121 208.51720443 300.70373493 209.9296875 302.11523438 C213.75549811 305.91672839 217.5803214 309.65676014 221.67318726 313.17021179 C225.97187156 316.92304532 230.01440209 320.88697372 234.03320312 324.93554688 C234.79205307 325.69585709 235.55090302 326.4561673 236.33274841 327.23951721 C237.96688624 328.87743678 239.59986868 330.51650974 241.23179626 332.15663147 C243.8198119 334.75750347 246.41101958 337.35515761 249.00305176 339.95202637 C255.43748254 346.39977064 261.86644479 352.85295868 268.29559326 359.30596924 C273.73813615 364.7682915 279.18275468 370.22852895 284.63011169 375.68605042 C287.17348706 378.23587233 289.71381332 380.78870501 292.25402832 383.3416748 C293.82480175 384.91608334 295.3957172 386.49035019 296.96679688 388.06445312 C297.66417465 388.76699722 298.36155243 389.46954132 299.08006287 390.19337463 C303.00289607 394.11662422 307.02812502 397.85500256 311.24097443 401.46582794 C313.87020076 403.75896434 316.29828988 406.20462407 318.75 408.6875 C319.50361816 409.4467981 319.50361816 409.4467981 320.27246094 410.22143555 C322.3795795 412.34459649 324.48054213 414.47380842 326.58203125 416.60253906 C328.13585998 418.17468215 329.69286677 419.74363084 331.25 421.3125 C332.16265625 422.23675781 333.0753125 423.16101563 334.015625 424.11328125 C336.22957629 426.30328355 338.53377084 428.35549742 340.890625 430.390625 C344.94291887 433.90309202 348.73411208 437.62228775 352.5 441.4375 C353.17998047 442.12126709 353.85996094 442.80503418 354.56054688 443.50952148 C357.43225143 446.39737773 360.29788438 449.29123075 363.1640625 452.18457031 C365.27392787 454.31265725 367.38689645 456.43762917 369.5 458.5625 C370.45036133 459.52530884 370.45036133 459.52530884 371.41992188 460.50756836 C374.49437113 463.59855124 377.61390423 466.57265509 380.91796875 469.41796875 C385.43330288 473.31797258 389.61814828 477.51013915 393.8125 481.75 C395.03223511 482.97541504 395.03223511 482.97541504 396.27661133 484.22558594 C399.7217734 487.68695042 403.1609029 491.15428591 406.60058594 494.62109375 C409.12746508 497.16615188 411.65741315 499.70813131 414.1875 502.25 C414.95231689 503.02311523 415.71713379 503.79623047 416.50512695 504.59277344 C420.64637367 508.75264781 424.87002841 512.72627865 429.35115051 516.51925659 C438.95201696 525.1412805 444.04631232 540.9170363 445.23706055 553.50634766 C446.37490664 575.4715441 441.16971808 592.93119018 427 610 C426.55269531 610.59296875 426.10539063 611.1859375 425.64453125 611.796875 C414.16335705 626.47661679 395.67603961 634.09714466 377.6875 636.75 C360.44611438 637.9189075 341.14734494 635.136897 327.36572266 623.84082031 C318.43461716 615.53439181 309.83331291 606.91387137 301.25 598.25 C298.36237805 595.33554023 295.47127777 592.42459332 292.578125 589.515625 C291.61377533 588.53882782 291.61377533 588.53882782 290.62994385 587.54229736 C287.62316501 584.51953383 284.58150312 581.60369031 281.33673096 578.83673096 C276.63996626 574.74601783 272.25383676 570.37949857 267.86523438 565.96289062 C266.98934158 565.08553757 266.11344879 564.20818451 265.21101379 563.304245 C263.32149775 561.41094208 261.43290552 559.5167703 259.54585266 557.62101746 C256.55497515 554.61649477 253.5601772 551.61589982 250.56481934 548.61584473 C243.66749731 541.70653548 236.77522318 534.79219804 229.88300323 527.87779999 C223.5605353 521.53509232 217.23697701 515.19348165 210.9093442 508.85592604 C207.93879325 505.88042723 204.9706893 502.9025163 202.00450897 499.92266083 C199.71660383 497.62547189 197.42540687 495.33156952 195.13476562 493.03710938 C194.32517899 492.22235641 193.51559235 491.40760345 192.68147278 490.56816101 C188.54078804 486.42709477 184.31443711 482.47226038 179.87735367 478.65150833 C176.87372058 476.00921181 174.0633948 473.18671983 171.24853516 470.34619141 C170.62635101 469.722547 170.00416687 469.09890259 169.36312866 468.45635986 C168.02854226 467.11800158 166.69511089 465.77849066 165.36275101 464.4379158 C163.25526068 462.31755424 161.14456766 460.20042707 159.03305054 458.08407593 C154.56087002 453.60053323 150.09266193 449.11304469 145.625 444.625 C140.42511035 439.40150856 135.22360486 434.17964738 130.01789474 428.96195602 C127.93628294 426.87385224 125.85769786 424.78276689 123.77920532 422.69155884 C122.51131641 421.42003979 121.24328823 420.14865959 119.97509766 418.87744141 C119.3964093 418.29358673 118.81772095 417.70973206 118.22149658 417.10818481 C115.38422369 414.19404854 115.38422369 414.19404854 112 412 C111.61328125 413.31871094 111.61328125 413.31871094 111.21875 414.6640625 C107.48496113 424.88411281 99.13940115 432.94780172 89.80311871 438.24691111 C83.82095966 441.64525518 79.05928033 445.37732309 74.2590332 450.28013611 C73.5470065 450.99086181 72.8349798 451.70158751 72.10137653 452.43385035 C69.7415613 454.79409846 67.39629998 457.16827547 65.05078125 459.54272461 C63.35215297 461.2473987 61.65261467 462.95116641 59.95223999 464.65409851 C55.82943563 468.78733141 51.7157702 472.92949916 47.60573649 477.0754277 C42.81008113 481.9116227 38.00166471 486.73504695 33.19213021 491.55743343 C24.60552412 500.16738344 16.02678977 508.78512888 7.45410156 517.40893555 C6.94201271 517.92407334 6.42992386 518.43921112 5.90231717 518.96995915 C3.82764109 521.05701803 1.75299167 523.14410341 -0.32162529 525.23122105 C-6.03145049 530.97537331 -11.7424202 536.71838679 -17.45410156 542.46069336 C-17.96555753 542.97489643 -18.47701349 543.48909949 -19.00396812 544.01888447 C-27.5487032 552.60910039 -36.09946312 561.19329784 -44.65408421 569.77366835 C-49.4492177 574.58382295 -54.24084491 579.3973817 -59.02426147 584.2191906 C-63.5226964 588.75366049 -68.02779514 593.28139898 -72.53800583 597.80415535 C-74.18775827 599.46109703 -75.83491364 601.12062938 -77.47920609 602.7829895 C-95.33062147 620.82501626 -112.47957156 632.44262217 -138.625 633.375 C-161.28870388 632.58400578 -178.905414 622.14150497 -194 606 C-207.32878004 590.22540479 -213.13084295 571.45797696 -212 551 C-210.07186925 533.24998204 -203.39791381 518.83040349 -190.65066528 506.33027649 C-189.93247805 505.61375937 -189.21429081 504.89724225 -188.47434032 504.1590125 C-186.0864686 501.7801869 -183.68805899 499.41228632 -181.28955078 497.04418945 C-179.56698691 495.33230402 -177.84513232 493.61970464 -176.12393188 491.90644836 C-172.42529492 488.22741471 -168.72230647 484.55282146 -165.01565933 480.88186073 C-159.64483379 475.56219636 -154.28535307 470.2312117 -148.92907082 464.89690842 C-140.22121663 456.22483299 -131.50886318 447.55729601 -122.79150391 438.89477539 C-122.2706472 438.37718905 -121.74979049 437.85960271 -121.21315025 437.32633194 C-113.8276047 429.9875802 -106.43758492 422.65335033 -99.04575442 415.32092973 C-98.52550409 414.80485934 -98.00525377 414.28878896 -97.46923828 413.75708008 C-96.94962663 413.24164901 -96.43001497 412.72621795 -95.89465751 412.19516776 C-87.20496324 403.5747799 -78.5270289 394.94266274 -69.85848606 386.30100602 C-64.52377818 380.98377369 -59.17958271 375.67645453 -53.82241319 370.38185152 C-49.70975221 366.31549833 -45.61301273 362.23339702 -41.52175522 358.14552116 C-39.85012034 356.4802905 -38.17336665 354.82017887 -36.4909668 353.16582489 C-28.22721781 345.03446387 -20.82895182 337.48398581 -15.64170647 327.02958965 C-10.81595518 318.12419367 -2.44909527 311.56174323 7 308 C7.99 308 8.98 308 10 308 C1.50900743 298.14872177 -7.328043 288.6207132 -16.33196259 279.23878956 C-19.21286437 276.23341001 -22.06391888 273.20853016 -24.85986328 270.1237793 C-36.24254952 256.53656256 -36.24254952 256.53656256 -51.22451782 248.22827148 C-57.31046837 247.99981452 -62.63848544 249.37941328 -68.36891174 251.28764343 C-72.92302143 252.52065032 -77.49741306 252.43756447 -82.1875 252.375 C-83.62003616 252.35605682 -83.62003616 252.35605682 -85.08151245 252.33673096 C-94.52964285 252.14718738 -103.75198263 250.89246621 -113 249 C-113.74137207 248.84966309 -114.48274414 248.69932617 -115.24658203 248.54443359 C-140.57558463 243.11799766 -163.28416651 229.34630744 -181.61279297 211.34765625 C-182.83209704 210.16311586 -184.08732911 209.01579528 -185.34765625 207.875 C-197.43332784 196.64475707 -206.49963408 182.06145391 -213 167 C-213.27392578 166.37480469 -213.54785156 165.74960937 -213.83007812 165.10546875 C-220.57750426 149.39941176 -224.71265748 132.10793171 -225 115 C-225.02707031 114.06414062 -225.05414063 113.12828125 -225.08203125 112.1640625 C-225.27060773 100.19802797 -223.81665192 88.72079894 -221.1875 77.0625 C-220.93935547 75.88365234 -220.69121094 74.70480469 -220.43554688 73.49023438 C-218.49446534 64.7528979 -216.50758748 59.33433847 -209 54 C-205.81628891 52.40814445 -202.44224541 52.37982686 -199 53 C-192.02754799 56.11424656 -187.31073063 61.38316014 -182.0625 66.8125 C-180.34752032 68.57142038 -178.63010631 70.32797082 -176.91015625 72.08203125 C-175.78299194 73.24569214 -175.78299194 73.24569214 -174.63305664 74.43286133 C-172.55557595 76.45833277 -170.45823026 78.33433885 -168.25366211 80.21337891 C-163.50322148 84.33305794 -159.30184123 88.89738665 -155.03125 93.50390625 C-152.42171632 96.25068897 -149.80402231 98.98952543 -147.18554688 101.7277832 C-145.39385121 103.61899942 -143.61771339 105.525076 -141.85742188 107.44555664 C-132.44178886 118.89159338 -132.44178886 118.89159338 -119.65551758 124.90356445 C-115.48483022 124.70644542 -111.90311485 123.43317896 -108 122 C-105.54749571 121.37907416 -103.09309086 120.76560008 -100.63671875 120.16015625 C-98.31639596 119.47404627 -95.99988405 118.77490775 -93.6875 118.0625 C-92.49705078 117.71509766 -91.30660156 117.36769531 -90.08007812 117.00976562 C-83.22845104 115.32093299 -83.22845104 115.32093299 -78 111 C-76.79451294 108.16801589 -76.79451294 108.16801589 -75.80859375 104.8984375 C-75.22754883 103.07892578 -75.22754883 103.07892578 -74.63476562 101.22265625 C-74.43794189 100.5898877 -74.24111816 99.95711914 -74.03833008 99.30517578 C-73.44512815 97.39950556 -72.83691309 95.49852974 -72.22851562 93.59765625 C-67.44268562 80.50235993 -67.44268562 80.50235993 -68 67 C-69.95418129 64.75879834 -71.74765414 63.01549455 -74 61.125 C-82.19815436 53.88249032 -89.88180738 46.19242457 -97.56567383 38.41436768 C-102.88457178 33.03359848 -108.19634634 27.72801393 -113.95581055 22.81274414 C-118.47328695 18.80674124 -122.67854966 14.46415907 -126.9375 10.1875 C-127.90412902 9.22444087 -128.8709249 8.26154919 -129.83789062 7.29882812 C-131.20010742 5.93467773 -131.20010742 5.93467773 -132.58984375 4.54296875 C-133.41347412 3.71821045 -134.23710449 2.89345215 -135.08569336 2.04370117 C-138.66714271 -1.77983058 -138.33423643 -5.17417054 -138.28125 -10.234375 C-137.88814794 -14.0998786 -136.61907755 -16.16856481 -134 -19 C-98.82869682 -43.19543098 -30.34862532 -22.73812389 0 0 Z " fill="#101010" transform="translate(390,196)"/>
<path d="M0 0 C13.28871518 0.83555903 25.41574518 2.60357764 38 7 C39.37671875 7.46212891 39.37671875 7.46212891 40.78125 7.93359375 C52.35150447 12.15974189 62.74568008 18.97141782 72 27 C72.81984375 27.67546875 73.6396875 28.3509375 74.484375 29.046875 C84.60596685 37.65965812 92.18865889 48.06319123 98 60 C98.65935547 61.32257813 98.65935547 61.32257813 99.33203125 62.671875 C109.27803094 83.4653245 111.16433388 105.22877041 109 127.875 C106.60255829 145.14449442 106.60255829 145.14449442 112 161 C113.75421154 163.01051738 115.48001882 164.87231343 117.37597656 166.73242188 C118.16224678 167.52175865 118.16224678 167.52175865 118.96440125 168.32704163 C120.68265583 170.04828058 122.41135252 171.75858661 124.140625 173.46875 C125.34944159 174.67450333 126.55766334 175.88085328 127.76531982 177.08776855 C130.29262267 179.61048215 132.82473468 182.12822591 135.36083984 184.64208984 C138.59302421 187.84605439 141.81652947 191.05857162 145.03686905 194.27443695 C148.13081528 197.36319627 151.22941157 200.44727466 154.328125 203.53125 C154.90975655 204.11100082 155.49138809 204.69075165 156.09064484 205.28807068 C161.68607266 210.86014275 167.28393912 216.37535644 173.28900146 221.51113892 C175.99256302 223.86369943 178.51167225 226.38712994 181.03125 228.93359375 C181.81332825 229.71779442 181.81332825 229.71779442 182.61120605 230.51783752 C184.24321078 232.15534998 185.87166574 233.79633849 187.5 235.4375 C188.61955632 236.5620833 189.73934629 237.68643405 190.859375 238.81054688 C193.57561534 241.53769344 196.28868292 244.26795907 199 247 C197.40752446 250.93467549 194.69337631 253.57577776 191.72412109 256.50292969 C191.18738266 257.03996017 190.65064423 257.57699066 190.09764099 258.1302948 C188.32760717 259.89893859 186.55060143 261.66039824 184.7734375 263.421875 C183.54274656 264.64883466 182.3124973 265.87623749 181.08267212 267.10406494 C177.84843484 270.33067488 174.60823592 273.55123291 171.36676025 276.77056885 C168.05859466 280.05825672 164.75610054 283.35163068 161.453125 286.64453125 C154.97428921 293.10193298 148.48914131 299.55295568 142 306 C136.57369024 301.47986549 131.56467778 296.68011354 126.60546875 291.65551758 C125.79639069 290.84016037 124.98731262 290.02480316 124.15371704 289.18473816 C122.40723886 287.4244715 120.66183082 285.66314257 118.91738892 283.90085793 C116.15436694 281.11107731 113.38688259 278.32579958 110.61791992 275.54191589 C109.66632895 274.58518259 108.71474514 273.62844216 107.76316833 272.67169476 C107.28701017 272.19295103 106.81085201 271.71420731 106.32026482 271.22095621 C99.88426611 264.74902207 93.45314657 258.27229571 87.03222656 251.78540039 C82.22214254 246.92599291 77.40154577 242.07720537 72.57485962 237.23428917 C70.74041264 235.38994843 68.90962688 233.54195852 67.08261108 231.69025612 C64.52907722 229.10297415 61.96336496 226.528378 59.39453125 223.95629883 C58.64523346 223.19104889 57.89593567 222.42579895 57.12393188 221.63735962 C51.76238536 216.30658353 46.83064152 212.5746996 38.9375 212.5625 C32.93662436 212.69017821 27.24122802 213.84147542 21.375 215 C-7.06940953 220.53380064 -34.49790725 214.35623261 -59 199 C-82.55581038 183.08326672 -98.75556244 160.37021514 -106 133 C-106.3196875 131.87207031 -106.639375 130.74414062 -106.96875 129.58203125 C-109.54160852 119.42162237 -109.28246473 109.39888657 -109 99 C-96.7274182 109.46869179 -84.91641513 120.44952938 -73.14794922 131.47827148 C-70.63731909 133.82725831 -68.11746596 136.16624005 -65.59765625 138.50537109 C-64.26023693 139.75654485 -62.9404048 141.02648285 -61.625 142.30078125 C-55.08459546 148.4587831 -46.87455386 151.96382664 -37.828125 152.01953125 C-23.13081424 151.169141 -9.41447041 147.21715861 4.64840698 143.09692383 C5.99715547 142.70209137 7.3466968 142.30995623 8.697052 141.9206543 C10.61763488 141.36426182 12.53351521 140.79171693 14.44921875 140.21875 C15.56643311 139.88810547 16.68364746 139.55746094 17.8347168 139.21679688 C24.83201955 136.52689661 30.57973694 131.86327674 33.95123291 125.08859253 C34.74526538 123.05618366 35.42513342 121.01792604 36.0703125 118.93359375 C36.31868866 118.1776442 36.56706482 117.42169464 36.82296753 116.64283752 C37.6060384 114.24582629 38.36555485 111.84208654 39.125 109.4375 C39.64045007 107.85303437 40.15736725 106.26904523 40.67578125 104.68554688 C42.15694456 100.13577283 43.58741436 95.57146867 45 91 C45.3142543 89.99459167 45.3142543 89.99459167 45.63485718 88.96887207 C49.72097208 75.81494905 51.54255113 63.70306179 45.6796875 50.80859375 C41.15026122 43.23497167 35.38122437 37.12598586 29.1015625 30.9765625 C28.26660248 30.14917572 27.43164246 29.32178894 26.57138062 28.46932983 C23.92740595 25.8496246 21.27703013 23.23654848 18.625 20.625 C15.11152646 17.16452193 11.60459698 13.69760386 8.1015625 10.2265625 C7.28918121 9.43077789 6.47679993 8.63499329 5.63980103 7.81509399 C4.8983786 7.08027802 4.15695618 6.34546204 3.39306641 5.58837891 C2.73609772 4.94188385 2.07912903 4.29538879 1.4022522 3.62930298 C0 2 0 2 0 0 Z " fill="#FEFEFE" transform="translate(306,200)"/>
<path d="M0 0 C5.20060569 4.34423367 10.03626798 8.91535389 14.796875 13.734375 C15.51232483 14.45361145 16.22777466 15.1728479 16.96490479 15.91387939 C19.22906207 18.19015936 21.48992665 20.46966559 23.75 22.75 C26.74192124 25.7684936 29.73712368 28.78367498 32.734375 31.796875 C33.41876648 32.48956482 34.10315796 33.18225464 34.80828857 33.89593506 C35.44615295 34.53710266 36.08401733 35.17827026 36.74121094 35.83886719 C37.29967712 36.40257019 37.85814331 36.96627319 38.43353271 37.54705811 C40.14429667 39.21112882 40.14429667 39.21112882 43 41 C43 41.66 43 42.32 43 43 C43.8094809 43.32101433 43.8094809 43.32101433 44.63531494 43.64851379 C47.85486058 45.48857765 50.25542024 48.00192234 52.83496094 50.6237793 C53.40790894 51.19804153 53.98085693 51.77230377 54.57116699 52.3639679 C56.46354155 54.26283034 58.34883779 56.16856891 60.234375 58.07421875 C61.55419629 59.40031503 62.87453712 60.72589443 64.19537354 62.05097961 C67.67520014 65.54411236 71.14942681 69.04275755 74.62207031 72.54302979 C80.16443853 78.12847917 85.71340095 83.7073553 91.26581573 89.28281593 C93.19574986 91.22289066 95.12218333 93.16639051 97.04827881 95.11027527 C102.29411269 100.39187523 107.52315363 105.59751794 113.1975708 110.42366028 C116.68442106 113.47313405 119.90170063 116.8005743 123.15625 120.09375 C123.9028186 120.84410522 124.64938721 121.59446045 125.4185791 122.36755371 C128.57701112 125.54216504 131.72939279 128.72275916 134.88232422 131.90283203 C137.20069745 134.23940361 139.5221552 136.57287999 141.84375 138.90625 C142.54294556 139.6137439 143.24214111 140.32123779 143.96252441 141.0501709 C147.91747716 145.02449793 151.98237097 148.79250457 156.2286377 152.45349121 C158.39097087 154.34134174 160.42580295 156.32801002 162.4375 158.375 C163.18773437 159.13296875 163.93796875 159.8909375 164.7109375 160.671875 C166.23697917 162.22395833 167.76302083 163.77604167 169.2890625 165.328125 C170.03929687 166.08609375 170.78953125 166.8440625 171.5625 167.625 C172.22378906 168.29789063 172.88507813 168.97078125 173.56640625 169.6640625 C175.50375265 171.52366626 177.46505592 173.27235534 179.5012207 175.01879883 C189.24299276 183.48930978 198.23885721 192.8526959 207.40014648 201.94018555 C209.92123854 204.43897066 212.45173578 206.92761105 214.9909668 209.40795898 C218.08286543 212.42835467 221.15683303 215.46598397 224.21929359 218.51621437 C225.37856131 219.66516703 226.54377082 220.80816041 227.71529198 221.94461632 C236.32938336 230.31383196 242.84706712 238.44313345 243.5625 250.9375 C243.05071682 261.50513102 239.51789398 270.7387657 233 279 C232.47535156 279.69867187 231.95070313 280.39734375 231.41015625 281.1171875 C225.0282495 289.07580062 216.10698935 294.38874083 206 296 C195.60193372 296.96720102 185.35308889 297.1300828 176.86050415 290.27236938 C169.99509569 284.0402504 163.42390036 277.54240748 156.89027023 270.96543503 C154.91543745 268.97763877 152.93732273 266.9931586 150.95840454 265.00942993 C146.76108793 260.80078621 142.56774648 256.58819597 138.375 252.375 C133.50344792 247.47973121 128.63021728 242.58615733 123.75273514 237.69679642 C121.81649901 235.75414176 119.88333035 233.80847111 117.95028687 231.86264038 C116.75004833 230.65876558 115.54966707 229.45503305 114.34912109 228.25146484 C113.5602375 227.45483177 113.5602375 227.45483177 112.75541687 226.6421051 C110.00152023 223.88782766 107.18056507 221.26474727 104.22682285 218.72514057 C100.3939044 215.38335222 96.75233588 211.89815228 93.16029358 208.30073547 C92.52121313 207.66462615 91.88213268 207.02851682 91.22368616 206.37313145 C89.10648766 204.26452841 86.99280526 202.15243789 84.87915039 200.0402832 C83.35270884 198.51847586 81.82607195 196.99686443 80.29925537 195.47543335 C76.17123387 191.36046884 72.04649626 187.24222857 67.92277074 183.12295938 C65.34619813 180.54932479 62.76904269 177.97627524 60.19170952 175.40340233 C52.12647669 167.35181887 44.06322982 159.29825449 36.00288397 151.24177867 C26.69873854 141.94212559 17.3880693 132.64906936 8.07173353 123.36162883 C0.86548416 116.17695705 -6.33502798 108.98656869 -13.53116614 101.79176968 C-17.82832131 97.49566418 -22.12788912 93.20204022 -26.433424 88.91433144 C-30.47587057 84.88830041 -34.51117497 80.85524844 -38.54101562 76.8166008 C-40.02313948 75.33370341 -41.50784689 73.8533832 -42.99527168 72.37580299 C-45.02022245 70.36347495 -47.0357802 68.34218986 -49.04917908 66.3183136 C-49.64390626 65.73164282 -50.23863345 65.14497203 -50.85138267 64.54052335 C-55.5900347 59.74371876 -55.5900347 59.74371876 -56 56 C-54.39346457 53.9118596 -52.85314558 52.22141079 -50.97290039 50.40527344 C-50.42684647 49.85848938 -49.88079254 49.31170532 -49.31819153 48.74835205 C-47.50627747 46.93992769 -45.67728315 45.14986238 -43.84765625 43.359375 C-42.58960826 42.11065015 -41.33265806 40.86081842 -40.07676697 39.60992432 C-36.76514673 36.31741281 -33.43878724 33.04018868 -30.10919189 29.76586914 C-26.71550124 26.42328676 -23.33588656 23.06654001 -19.95507812 19.7109375 C-13.31712693 13.1266424 -6.66352711 6.5584031 0 0 Z " fill="#FEFEFE" transform="translate(561,505)"/>
<path d="M0 0 C3.74845484 2.52446959 6.66580531 5.51269723 9.796875 8.7578125 C11.69668412 10.69037695 13.61469349 12.44814497 15.6875 14.1875 C20.58141793 18.37386353 25.03174428 23.00417884 29.55737305 27.57910156 C32.77923697 30.82319081 36.00227362 33.98694269 39.5 36.9375 C51.57697376 47.16055235 51.57697376 47.16055235 52.265625 54.11328125 C52.37144358 59.21902771 52.13344427 62.7817898 49.0625 67.0625 C44.32935936 71.44931327 36.84996125 78.0625 30.0625 78.0625 C29.85002467 78.60015362 29.63754934 79.13780724 29.41863537 79.69175339 C27.5572514 82.94575726 25.00954269 85.38033349 22.36433411 87.9944458 C21.77544913 88.58433407 21.18656414 89.17422233 20.57983416 89.781986 C18.60326778 91.75950576 16.61963852 93.72978531 14.63598633 95.70019531 C13.21805917 97.11592138 11.80057936 98.53209561 10.3835144 99.94868469 C7.32911039 103.00015331 4.2715734 106.0484355 1.21158791 109.09430695 C-3.63045207 113.91408643 -8.46539956 118.74093852 -13.2993927 123.56878662 C-20.95122121 131.20922654 -28.60770434 138.84498249 -36.26622134 146.47871757 C-49.9663808 160.13461228 -63.66105996 173.79599712 -77.35044271 187.46269488 C-82.15285908 192.25672247 -86.95807008 197.04792592 -91.76557291 201.83685255 C-94.76329619 204.82389411 -97.75895804 207.81299684 -100.75412369 210.80260277 C-102.13869827 212.18372151 -103.52414309 213.56396849 -104.91054344 214.94325447 C-111.47541547 221.47519357 -117.95311341 227.98620956 -123.9375 235.0625 C-127.14560799 238.50032437 -130.44402284 241.84392643 -133.75 245.1875 C-134.58853516 246.05503906 -135.42707031 246.92257812 -136.29101562 247.81640625 C-146.26105519 257.88606957 -156.52672817 264.01494392 -170.875 264.5 C-183.77730884 264.20517031 -192.92772858 258.61165959 -201.7578125 249.55859375 C-205.1236758 245.70413739 -207.60756169 241.6028926 -209.9375 237.0625 C-210.2778125 236.464375 -210.618125 235.86625 -210.96875 235.25 C-214.72872064 227.45154238 -214.2540298 215.30266306 -211.8125 207.0625 C-208.29574034 198.96103031 -202.82495697 192.508353 -196.58143616 186.37931824 C-195.86254335 185.66138999 -195.14365055 184.94346174 -194.40297312 184.20377809 C-192.01276688 181.82029238 -189.61202895 179.44771415 -187.21118164 177.07495117 C-185.48700299 175.35981227 -183.76352566 173.6439681 -182.04069519 171.92747498 C-178.33883622 168.24183782 -174.6325947 164.56066928 -170.92259407 160.88323021 C-165.54851943 155.5558637 -160.18529396 150.21767583 -154.82506018 144.87638716 C-146.11293222 136.19516537 -137.39594261 127.51884567 -128.67407227 118.84741211 C-128.15295325 118.32930115 -127.63183423 117.81119019 -127.09492373 117.27737889 C-121.28331914 111.49957989 -115.47027115 105.72323701 -109.65533447 99.9487915 C-109.13275006 99.42984062 -108.61016564 98.91088973 -108.07174533 98.37621306 C-107.54967659 97.85777495 -107.02760786 97.33933684 -106.48971885 96.80518848 C-105.43690994 95.75969496 -104.38410327 94.71419919 -103.33129883 93.66870117 C-102.81112177 93.1521393 -102.29094471 92.63557743 -101.75500471 92.10336217 C-93.06154694 83.46979608 -84.37789044 74.82644527 -75.70189756 66.17532903 C-70.3609783 60.85053442 -65.01196466 55.53413951 -59.65199672 50.22851858 C-55.53975037 46.15656969 -51.44065441 42.07158436 -47.34614754 37.9818058 C-45.67160035 36.31339896 -43.9927728 34.6492749 -42.30926132 32.98991394 C-30.84568979 21.81563236 -30.84568979 21.81563236 -22.24237728 8.43674183 C-17.57977355 -0.0469286 -9.01102315 -2.87585845 0 0 Z " fill="#FEFEFE" transform="translate(422.9375,532.9375)"/>
<path d="M0 0 C2.96325944 1.35108966 5.20785165 2.88706648 7.625 5.0625 C8.65367187 5.98095703 8.65367187 5.98095703 9.703125 6.91796875 C11.36000984 8.41987287 13.01617059 9.92257593 14.671875 11.42578125 C15.56390625 12.23402344 16.4559375 13.04226562 17.375 13.875 C18.20773437 14.63554687 19.04046875 15.39609375 19.8984375 16.1796875 C21.86723421 18.03676667 21.86723421 18.03676667 24 19 C22.40250169 23.62387011 19.93370332 27.39287785 17.25 31.4375 C16.25692802 32.95254561 15.26478745 34.46820204 14.2734375 35.984375 C13.74459961 36.79197266 13.21576172 37.59957031 12.67089844 38.43164062 C9.70282306 42.99390727 6.79207197 47.59252918 3.875 52.1875 C3.28050049 53.11981445 2.68600098 54.05212891 2.07348633 55.01269531 C-0.54977262 59.12775361 -3.16162849 63.24730545 -5.71484375 67.40625 C-6.11751465 68.05440674 -6.52018555 68.70256348 -6.93505859 69.37036133 C-7.97606099 71.04818307 -9.00611419 72.73278501 -10.03515625 74.41796875 C-13.6249342 79.13535091 -18.62453242 80.74537865 -24.05859375 82.77734375 C-25.42778478 83.29609093 -26.79692381 83.81497538 -28.16601562 84.33398438 C-30.30218126 85.13728469 -32.4392196 85.93814174 -34.57739258 86.73608398 C-36.65695768 87.51421447 -38.73285987 88.30156046 -40.80859375 89.08984375 C-42.66182251 89.78388306 -42.66182251 89.78388306 -44.55249023 90.49194336 C-51.34631183 93.46378926 -56.13511254 97.85816874 -61.25878906 103.06347656 C-61.95870972 103.76631775 -62.65863037 104.46915894 -63.37976074 105.19329834 C-64.89119707 106.71231775 -66.40031936 108.23364244 -67.90735626 109.75702667 C-70.28959891 112.16485641 -72.67808696 114.56632971 -75.06829834 116.96624756 C-80.1344928 122.05525454 -85.19278169 127.15207491 -90.25 132.25 C-96.12399766 138.17113605 -102.00115752 144.08905877 -107.88677216 149.9986496 C-110.24520347 152.37009082 -112.59755718 154.74745198 -114.94976807 157.12506104 C-116.38581419 158.56836733 -117.82213911 160.01139631 -119.25878906 161.45410156 C-119.91542542 162.12107056 -120.57206177 162.78803955 -121.24859619 163.47521973 C-122.79490646 165.02189342 -124.3925527 166.51696657 -126 168 C-126.66 168 -127.32 168 -128 168 C-128.33 168.99 -128.66 169.98 -129 171 C-130.62205371 172.71011617 -132.2965081 174.37099082 -134 176 C-134.86238281 176.87398437 -135.72476563 177.74796875 -136.61328125 178.6484375 C-144.77482006 186.89265471 -144.77482006 186.89265471 -148.8125 190.3125 C-152.81198316 193.72993779 -156.52649979 197.41298469 -160.25 201.125 C-160.85303955 201.72352783 -161.4560791 202.32205566 -162.07739258 202.9387207 C-164.65224195 205.52218761 -167.04206115 208.05364942 -169.296875 210.9296875 C-169.85890625 211.61289062 -170.4209375 212.29609375 -171 213 C-171.66 213 -172.32 213 -173 213 C-173.20367188 213.52980469 -173.40734375 214.05960938 -173.6171875 214.60546875 C-175.60104722 218.04079646 -178.30247668 220.55091752 -181.125 223.3125 C-181.66898438 223.85583984 -182.21296875 224.39917969 -182.7734375 224.95898438 C-185.66421793 227.81937109 -188.61846618 230.55754138 -191.70703125 233.203125 C-196.71427931 237.54141531 -201.37365319 242.22362325 -206.0456543 246.9152832 C-207.5599258 248.43491668 -209.0794743 249.94912517 -210.59960938 251.46289062 C-215.36149671 256.22176383 -219.99745788 261.03629467 -224.37915039 266.15209961 C-227.25453089 269.43026725 -230.34570958 272.48997307 -233.4375 275.5625 C-234.05431641 276.18318359 -234.67113281 276.80386719 -235.30664062 277.44335938 C-238.32910966 280.45953815 -241.39275319 283.37040911 -244.64282227 286.140625 C-249.48693093 290.36050167 -254.00424156 294.87855811 -258.53125 299.43359375 C-259.40777222 300.31153091 -260.28429443 301.18946808 -261.18737793 302.0940094 C-263.96062796 304.87281496 -266.73036282 307.65509397 -269.5 310.4375 C-271.39010805 312.33319865 -273.28101518 314.22809783 -275.171875 316.12304688 C-279.78391004 320.74605189 -284.39307141 325.37190657 -289 330 C-292.41059403 328.39464713 -294.61792484 326.59481099 -297.25 323.875 C-297.95640625 323.15054687 -298.6628125 322.42609375 -299.390625 321.6796875 C-299.92171875 321.12539063 -300.4528125 320.57109375 -301 320 C-299.44064367 316.25938188 -297.12945322 313.88534364 -294.2734375 311.04296875 C-293.8069278 310.57691727 -293.34041809 310.11086578 -292.85977173 309.63069153 C-291.8719326 308.64586655 -290.88167105 307.66346619 -289.88916016 306.68334961 C-288.39566953 305.20791957 -286.9101425 303.7248426 -285.42578125 302.24023438 C-281.46233445 298.29697023 -277.49376003 294.40460136 -273.25317383 290.75756836 C-268.42470182 286.5629612 -263.93281541 282.05816959 -259.42578125 277.5234375 C-258.53892136 276.63516266 -257.65206146 275.74688782 -256.73832703 274.83169556 C-254.40242916 272.49118081 -252.06871183 270.14852142 -249.73608398 267.80474854 C-247.36689736 265.42530262 -244.99485789 263.04870444 -242.62304688 260.671875 C-238.40456633 256.44351304 -234.1869494 252.21430253 -229.97573853 247.97869873 C-228.78676923 246.78794802 -227.59330372 245.60162789 -226.39120483 244.4241333 C-224.28109014 242.35713514 -222.65347991 240.48021986 -221 238 C-220.34 238 -219.68 238 -219 238 C-219 237.34 -219 236.68 -219 236 C-217.5390625 234.59765625 -217.5390625 234.59765625 -215.625 233.0625 C-213.16098476 231.08013383 -211.79533563 229.69300345 -210 227 C-209.34 227 -208.68 227 -208 227 C-207.72893433 226.40427185 -207.45786865 225.8085437 -207.17858887 225.19476318 C-206.01596143 223.02972331 -204.86848412 221.6151363 -203.14257812 219.88378906 C-202.56858276 219.30348938 -201.9945874 218.7231897 -201.40319824 218.12530518 C-200.78545532 217.51161072 -200.1677124 216.89791626 -199.53125 216.265625 C-198.89513794 215.62759949 -198.25902588 214.98957397 -197.6036377 214.33221436 C-196.26116613 212.98838426 -194.91617539 211.64706671 -193.56884766 210.30810547 C-191.50057835 208.25057535 -189.44322672 206.18255951 -187.38671875 204.11328125 C-186.08137029 202.80925375 -184.7754019 201.50584644 -183.46875 200.203125 C-182.85100708 199.58133362 -182.23326416 198.95954224 -181.59680176 198.31890869 C-177.22993073 194 -177.22993073 194 -175 194 C-174.34 192.68 -173.68 191.36 -173 190 C-172.34 190 -171.68 190 -171 190 C-170.67 189.01 -170.34 188.02 -170 187 C-168.47950459 185.49616146 -168.47950459 185.49616146 -166.51911926 183.88206482 C-161.67963039 179.77201683 -157.19362179 175.3633096 -152.6940918 170.88696289 C-151.80041397 170.00146255 -150.90673615 169.11596222 -149.98597717 168.20362854 C-147.05340461 165.29697236 -144.12600555 162.3851365 -141.19921875 159.47265625 C-140.18516772 158.46397421 -139.17111244 157.45529644 -138.15705299 156.44662285 C-133.94000921 152.25114773 -129.72438166 148.05425808 -125.51245403 143.85364628 C-119.50196412 137.8594212 -113.48311344 131.87387888 -107.45240277 125.89999586 C-103.1954625 121.68179735 -98.9481891 117.45401805 -94.70793468 113.21904749 C-92.18164285 110.69639825 -89.65139094 108.17805501 -87.11069298 105.66990852 C-84.27955473 102.87453942 -81.46853851 100.05945274 -78.65893555 97.24243164 C-77.40356491 96.01166901 -77.40356491 96.01166901 -76.12283325 94.75604248 C-71.46224684 90.04488769 -68.78056824 86.40804492 -67 80 C-66.77422775 79.19108307 -66.54845551 78.38216614 -66.31584167 77.54873657 C-66.16931656 76.86830292 -66.02279144 76.18786926 -65.87182617 75.48681641 C-65.69701218 74.69884674 -65.52219818 73.91087708 -65.34208679 73.09902954 C-65.16087784 72.27486542 -64.97966888 71.45070129 -64.79296875 70.6015625 C-64.36830725 68.8039588 -63.94047104 67.00710267 -63.50976562 65.2109375 C-62.84158057 62.42271455 -62.18985767 59.63604043 -61.59106445 56.83203125 C-57.70199013 38.78799887 -57.70199013 38.78799887 -49.1953125 33.109375 C-46.83282584 31.65510918 -44.43811984 30.33031891 -42 29 C-40.34344823 27.88868323 -38.69926099 26.75846631 -37.07421875 25.6015625 C-35.61279029 24.60818065 -34.15055443 23.61598555 -32.6875 22.625 C-25.60846475 17.80767426 -18.5844821 12.91967073 -11.60620117 7.95751953 C-7.778329 5.23857723 -3.92074986 2.58343983 0 0 Z " fill="#FCFCFC" transform="translate(770,210)"/>
<path d="M0 0 C1.17942085 3.53826255 1.11289189 6.34148726 1.09765625 10.07421875 C1.09553383 11.09996758 1.09553383 11.09996758 1.09336853 12.1464386 C1.08777876 14.32683722 1.07522822 16.50713251 1.0625 18.6875 C1.05748367 20.16731622 1.052921 21.64713406 1.04882812 23.12695312 C1.03781271 26.75133557 1.02055512 30.3756577 1 34 C1.66 34 2.32 34 3 34 C3 35.98 3 37.96 3 40 C0 38 0 38 -0.52416992 36.11157227 C-0.59224854 35.35416748 -0.66032715 34.5967627 -0.73046875 33.81640625 C-0.81135742 32.9761792 -0.89224609 32.13595215 -0.97558594 31.27026367 C-1.04551758 30.37670166 -1.11544922 29.48313965 -1.1875 28.5625 C-1.26645508 27.65540283 -1.34541016 26.74830566 -1.42675781 25.8137207 C-2.88946887 8.12663121 -2.88946887 8.12663121 0 0 Z " fill="#1C1C1C" transform="translate(167,293)"/>
<path d="M0 0 C0.33 0 0.66 0 1 0 C1 6.6 1 13.2 1 20 C0.34 18.68 -0.32 17.36 -1 16 C-1.33 15.67 -1.66 15.34 -2 15 C-2.12562235 13.23252271 -2.17576558 11.45939708 -2.1875 9.6875 C-2.20167969 8.72199219 -2.21585938 7.75648438 -2.23046875 6.76171875 C-1.99873224 3.98480842 -1.42140844 2.36526859 0 0 Z " fill="#1C1C1C" transform="translate(209,743)"/>
<path d="M0 0 C-0.33 0.66 -0.66 1.32 -1 2 C-5.92057839 3.32015518 -10.05313841 2.76761645 -15 2 C-15 1.67 -15 1.34 -15 1 C-12.87630763 0.63807496 -10.7509887 0.28568253 -8.625 -0.0625 C-6.84996094 -0.35833984 -6.84996094 -0.35833984 -5.0390625 -0.66015625 C-2 -1 -2 -1 0 0 Z " fill="#1D1C1C" transform="translate(284,319)"/>
<path d="M0 0 C3.7952131 1.49097658 5.61042731 3.75700849 8 7 C5 7 5 7 2.3125 4.625 C0 2 0 2 0 0 Z " fill="#272727" transform="translate(196,800)"/>
<path d="M0 0 C3.7952131 1.49097658 5.61042731 3.75700849 8 7 C5 7 5 7 2.3125 4.625 C0 2 0 2 0 0 Z " fill="#2A2A2A" transform="translate(592,534)"/>
<path d="M0 0 C-1.49097658 3.7952131 -3.75700849 5.61042731 -7 8 C-7 5 -7 5 -4.625 2.3125 C-2 0 -2 0 0 0 Z " fill="#181818" transform="translate(720,303)"/>
<path d="M0 0 C3.375 -0.125 3.375 -0.125 7 0 C7.66 0.66 8.32 1.32 9 2 C4.545 2.495 4.545 2.495 0 3 C0 2.01 0 1.02 0 0 Z " fill="#191818" transform="translate(261,825)"/>
<path d="M0 0 C0.66 0 1.32 0 2 0 C1.67 2.31 1.34 4.62 1 7 C0.01 7 -0.98 7 -2 7 C-1.34 4.69 -0.68 2.38 0 0 Z " fill="#161717" transform="translate(682,245)"/>
</svg>
